<?xml version="1.0" encoding="utf-8" standalone="no"?>
<!DOCTYPE svg PUBLIC "-//W3C//DTD SVG 1.1//EN"
  "http://www.w3.org/Graphics/SVG/1.1/DTD/svg11.dtd">
<svg xmlns:xlink="http://www.w3.org/1999/xlink" width="1004.657812pt" height="531.591562pt" viewBox="0 0 1004.657812 531.591562" xmlns="http://www.w3.org/2000/svg" version="1.1">
 <metadata>
  <rdf:RDF xmlns:dc="http://purl.org/dc/elements/1.1/" xmlns:cc="http://creativecommons.org/ns#" xmlns:rdf="http://www.w3.org/1999/02/22-rdf-syntax-ns#">
   <cc:Work>
    <dc:type rdf:resource="http://purl.org/dc/dcmitype/StillImage"/>
    <dc:date>2025-12-28T16:55:28.833126</dc:date>
    <dc:format>image/svg+xml</dc:format>
    <dc:creator>
     <cc:Agent>
      <dc:title>Matplotlib v3.10.3, https://matplotlib.org/</dc:title>
     </cc:Agent>
    </dc:creator>
   </cc:Work>
  </rdf:RDF>
 </metadata>
 <defs>
  <style type="text/css">*{stroke-linejoin: round; stroke-linecap: butt}</style>
 </defs>
 <g id="figure_1">
  <g id="patch_1">
   <path d="M 0 531.591562 
L 1004.657812 531.591562 
L 1004.657812 0 
L 0 0 
z
" style="fill: #ffffff"/>
  </g>
  <g id="axes_1">
   <g id="patch_2">
    <path d="M 234.258906 235.928281 
L 770.398906 235.928281 
L 770.398906 58.098281 
L 234.258906 58.098281 
z
" style="fill: #ffffff"/>
   </g>
   <g id="matplotlib.axis_1">
    <g id="xtick_1">
     <g id="line2d_1">
      <path d="M 258.628906 235.928281 
L 258.628906 58.098281 
" clip-path="url(#pdb993da0bd)" style="fill: none; stroke: #4c566a; stroke-opacity: 0.3; stroke-width: 0.8; stroke-linecap: square"/>
     </g>
     <g id="line2d_2">
      <defs>
       <path id="m3bb791cc8f" d="M 0 0 
L 0 9 
" style="stroke: #000000; stroke-width: 2.4"/>
      </defs>
      <g>
       <use xlink:href="#m3bb791cc8f" x="258.628906" y="235.928281" style="stroke: #000000; stroke-width: 2.4"/>
      </g>
     </g>
    </g>
    <g id="xtick_2">
     <g id="line2d_3">
      <path d="M 356.108906 235.928281 
L 356.108906 58.098281 
" clip-path="url(#pdb993da0bd)" style="fill: none; stroke: #4c566a; stroke-opacity: 0.3; stroke-width: 0.8; stroke-linecap: square"/>
     </g>
     <g id="line2d_4">
      <g>
       <use xlink:href="#m3bb791cc8f" x="356.108906" y="235.928281" style="stroke: #000000; stroke-width: 2.4"/>
      </g>
     </g>
    </g>
    <g id="xtick_3">
     <g id="line2d_5">
      <path d="M 453.588906 235.928281 
L 453.588906 58.098281 
" clip-path="url(#pdb993da0bd)" style="fill: none; stroke: #4c566a; stroke-opacity: 0.3; stroke-width: 0.8; stroke-linecap: square"/>
     </g>
     <g id="line2d_6">
      <g>
       <use xlink:href="#m3bb791cc8f" x="453.588906" y="235.928281" style="stroke: #000000; stroke-width: 2.4"/>
      </g>
     </g>
    </g>
    <g id="xtick_4">
     <g id="line2d_7">
      <path d="M 551.068906 235.928281 
L 551.068906 58.098281 
" clip-path="url(#pdb993da0bd)" style="fill: none; stroke: #4c566a; stroke-opacity: 0.3; stroke-width: 0.8; stroke-linecap: square"/>
     </g>
     <g id="line2d_8">
      <g>
       <use xlink:href="#m3bb791cc8f" x="551.068906" y="235.928281" style="stroke: #000000; stroke-width: 2.4"/>
      </g>
     </g>
    </g>
    <g id="xtick_5">
     <g id="line2d_9">
      <path d="M 648.548906 235.928281 
L 648.548906 58.098281 
" clip-path="url(#pdb993da0bd)" style="fill: none; stroke: #4c566a; stroke-opacity: 0.3; stroke-width: 0.8; stroke-linecap: square"/>
     </g>
     <g id="line2d_10">
      <g>
       <use xlink:href="#m3bb791cc8f" x="648.548906" y="235.928281" style="stroke: #000000; stroke-width: 2.4"/>
      </g>
     </g>
    </g>
    <g id="xtick_6">
     <g id="line2d_11">
      <path d="M 746.028906 235.928281 
L 746.028906 58.098281 
" clip-path="url(#pdb993da0bd)" style="fill: none; stroke: #4c566a; stroke-opacity: 0.3; stroke-width: 0.8; stroke-linecap: square"/>
     </g>
     <g id="line2d_12">
      <g>
       <use xlink:href="#m3bb791cc8f" x="746.028906" y="235.928281" style="stroke: #000000; stroke-width: 2.4"/>
      </g>
     </g>
    </g>
    <g id="xtick_7">
     <g id="line2d_13">
      <defs>
       <path id="m2d1cc83a7f" d="M 0 0 
L 0 6 
" style="stroke: #000000; stroke-width: 1.5"/>
      </defs>
      <g>
       <use xlink:href="#m2d1cc83a7f" x="234.258906" y="235.928281" style="stroke: #000000; stroke-width: 1.5"/>
      </g>
     </g>
    </g>
    <g id="xtick_8">
     <g id="line2d_14">
      <g>
       <use xlink:href="#m2d1cc83a7f" x="282.998906" y="235.928281" style="stroke: #000000; stroke-width: 1.5"/>
      </g>
     </g>
    </g>
    <g id="xtick_9">
     <g id="line2d_15">
      <g>
       <use xlink:href="#m2d1cc83a7f" x="307.368906" y="235.928281" style="stroke: #000000; stroke-width: 1.5"/>
      </g>
     </g>
    </g>
    <g id="xtick_10">
     <g id="line2d_16">
      <g>
       <use xlink:href="#m2d1cc83a7f" x="331.738906" y="235.928281" style="stroke: #000000; stroke-width: 1.5"/>
      </g>
     </g>
    </g>
    <g id="xtick_11">
     <g id="line2d_17">
      <g>
       <use xlink:href="#m2d1cc83a7f" x="380.478906" y="235.928281" style="stroke: #000000; stroke-width: 1.5"/>
      </g>
     </g>
    </g>
    <g id="xtick_12">
     <g id="line2d_18">
      <g>
       <use xlink:href="#m2d1cc83a7f" x="404.848906" y="235.928281" style="stroke: #000000; stroke-width: 1.5"/>
      </g>
     </g>
    </g>
    <g id="xtick_13">
     <g id="line2d_19">
      <g>
       <use xlink:href="#m2d1cc83a7f" x="429.218906" y="235.928281" style="stroke: #000000; stroke-width: 1.5"/>
      </g>
     </g>
    </g>
    <g id="xtick_14">
     <g id="line2d_20">
      <g>
       <use xlink:href="#m2d1cc83a7f" x="477.958906" y="235.928281" style="stroke: #000000; stroke-width: 1.5"/>
      </g>
     </g>
    </g>
    <g id="xtick_15">
     <g id="line2d_21">
      <g>
       <use xlink:href="#m2d1cc83a7f" x="502.328906" y="235.928281" style="stroke: #000000; stroke-width: 1.5"/>
      </g>
     </g>
    </g>
    <g id="xtick_16">
     <g id="line2d_22">
      <g>
       <use xlink:href="#m2d1cc83a7f" x="526.698906" y="235.928281" style="stroke: #000000; stroke-width: 1.5"/>
      </g>
     </g>
    </g>
    <g id="xtick_17">
     <g id="line2d_23">
      <g>
       <use xlink:href="#m2d1cc83a7f" x="575.438906" y="235.928281" style="stroke: #000000; stroke-width: 1.5"/>
      </g>
     </g>
    </g>
    <g id="xtick_18">
     <g id="line2d_24">
      <g>
       <use xlink:href="#m2d1cc83a7f" x="599.808906" y="235.928281" style="stroke: #000000; stroke-width: 1.5"/>
      </g>
     </g>
    </g>
    <g id="xtick_19">
     <g id="line2d_25">
      <g>
       <use xlink:href="#m2d1cc83a7f" x="624.178906" y="235.928281" style="stroke: #000000; stroke-width: 1.5"/>
      </g>
     </g>
    </g>
    <g id="xtick_20">
     <g id="line2d_26">
      <g>
       <use xlink:href="#m2d1cc83a7f" x="672.918906" y="235.928281" style="stroke: #000000; stroke-width: 1.5"/>
      </g>
     </g>
    </g>
    <g id="xtick_21">
     <g id="line2d_27">
      <g>
       <use xlink:href="#m2d1cc83a7f" x="697.288906" y="235.928281" style="stroke: #000000; stroke-width: 1.5"/>
      </g>
     </g>
    </g>
    <g id="xtick_22">
     <g id="line2d_28">
      <g>
       <use xlink:href="#m2d1cc83a7f" x="721.658906" y="235.928281" style="stroke: #000000; stroke-width: 1.5"/>
      </g>
     </g>
    </g>
    <g id="xtick_23">
     <g id="line2d_29">
      <g>
       <use xlink:href="#m2d1cc83a7f" x="770.398906" y="235.928281" style="stroke: #000000; stroke-width: 1.5"/>
      </g>
     </g>
    </g>
   </g>
   <g id="matplotlib.axis_2">
    <g id="ytick_1">
     <g id="line2d_30">
      <path d="M 234.258906 228.110122 
L 770.398906 228.110122 
" clip-path="url(#pdb993da0bd)" style="fill: none; stroke: #4c566a; stroke-opacity: 0.3; stroke-width: 0.8; stroke-linecap: square"/>
     </g>
     <g id="line2d_31">
      <defs>
       <path id="mc714e1561f" d="M 0 0 
L -9 0 
" style="stroke: #000000; stroke-width: 2.4"/>
      </defs>
      <g>
       <use xlink:href="#mc714e1561f" x="234.258906" y="228.110122" style="stroke: #000000; stroke-width: 2.4"/>
      </g>
     </g>
     <g id="text_1">
      <text style="font-size: 24px; font-family: 'Courier New'; text-anchor: end" x="221.758906" y="235.463872" transform="rotate(-0 221.758906 235.463872)">−0.05</text>
     </g>
    </g>
    <g id="ytick_2">
     <g id="line2d_32">
      <path d="M 234.258906 166.889958 
L 770.398906 166.889958 
" clip-path="url(#pdb993da0bd)" style="fill: none; stroke: #4c566a; stroke-opacity: 0.3; stroke-width: 0.8; stroke-linecap: square"/>
     </g>
     <g id="line2d_33">
      <g>
       <use xlink:href="#mc714e1561f" x="234.258906" y="166.889958" style="stroke: #000000; stroke-width: 2.4"/>
      </g>
     </g>
     <g id="text_2">
      <text style="font-size: 24px; font-family: 'Courier New'; text-anchor: end" x="221.758906" y="174.243708" transform="rotate(-0 221.758906 174.243708)">0.00</text>
     </g>
    </g>
    <g id="ytick_3">
     <g id="line2d_34">
      <path d="M 234.258906 105.669794 
L 770.398906 105.669794 
" clip-path="url(#pdb993da0bd)" style="fill: none; stroke: #4c566a; stroke-opacity: 0.3; stroke-width: 0.8; stroke-linecap: square"/>
     </g>
     <g id="line2d_35">
      <g>
       <use xlink:href="#mc714e1561f" x="234.258906" y="105.669794" style="stroke: #000000; stroke-width: 2.4"/>
      </g>
     </g>
     <g id="text_3">
      <text style="font-size: 24px; font-family: 'Courier New'; text-anchor: end" x="221.758906" y="113.023544" transform="rotate(-0 221.758906 113.023544)">0.05</text>
     </g>
    </g>
    <g id="ytick_4">
     <g id="line2d_36">
      <defs>
       <path id="m0d457d52c7" d="M 0 0 
L -6 0 
" style="stroke: #000000; stroke-width: 1.5"/>
      </defs>
      <g>
       <use xlink:href="#m0d457d52c7" x="234.258906" y="215.866089" style="stroke: #000000; stroke-width: 1.5"/>
      </g>
     </g>
    </g>
    <g id="ytick_5">
     <g id="line2d_37">
      <g>
       <use xlink:href="#m0d457d52c7" x="234.258906" y="203.622056" style="stroke: #000000; stroke-width: 1.5"/>
      </g>
     </g>
    </g>
    <g id="ytick_6">
     <g id="line2d_38">
      <g>
       <use xlink:href="#m0d457d52c7" x="234.258906" y="191.378023" style="stroke: #000000; stroke-width: 1.5"/>
      </g>
     </g>
    </g>
    <g id="ytick_7">
     <g id="line2d_39">
      <g>
       <use xlink:href="#m0d457d52c7" x="234.258906" y="179.133991" style="stroke: #000000; stroke-width: 1.5"/>
      </g>
     </g>
    </g>
    <g id="ytick_8">
     <g id="line2d_40">
      <g>
       <use xlink:href="#m0d457d52c7" x="234.258906" y="154.645925" style="stroke: #000000; stroke-width: 1.5"/>
      </g>
     </g>
    </g>
    <g id="ytick_9">
     <g id="line2d_41">
      <g>
       <use xlink:href="#m0d457d52c7" x="234.258906" y="142.401892" style="stroke: #000000; stroke-width: 1.5"/>
      </g>
     </g>
    </g>
    <g id="ytick_10">
     <g id="line2d_42">
      <g>
       <use xlink:href="#m0d457d52c7" x="234.258906" y="130.157859" style="stroke: #000000; stroke-width: 1.5"/>
      </g>
     </g>
    </g>
    <g id="ytick_11">
     <g id="line2d_43">
      <g>
       <use xlink:href="#m0d457d52c7" x="234.258906" y="117.913827" style="stroke: #000000; stroke-width: 1.5"/>
      </g>
     </g>
    </g>
    <g id="ytick_12">
     <g id="line2d_44">
      <g>
       <use xlink:href="#m0d457d52c7" x="234.258906" y="93.425761" style="stroke: #000000; stroke-width: 1.5"/>
      </g>
     </g>
    </g>
    <g id="ytick_13">
     <g id="line2d_45">
      <g>
       <use xlink:href="#m0d457d52c7" x="234.258906" y="81.181728" style="stroke: #000000; stroke-width: 1.5"/>
      </g>
     </g>
    </g>
    <g id="ytick_14">
     <g id="line2d_46">
      <g>
       <use xlink:href="#m0d457d52c7" x="234.258906" y="68.937696" style="stroke: #000000; stroke-width: 1.5"/>
      </g>
     </g>
    </g>
    <g id="text_4">
     <text style="font-weight: 600; font-size: 27px; font-family: 'Courier New'; text-anchor: middle" x="126.095469" y="147.013281" transform="rotate(-90 126.095469 147.013281)">Youden index</text>
    </g>
   </g>
   <g id="line2d_47">
    <path d="M 258.628906 166.889958 
L 272.276106 166.889958 
L 273.250906 158.939287 
L 308.343706 158.939287 
L 309.318506 150.988617 
L 313.217706 150.988617 
L 314.192506 180.141076 
L 315.167306 180.141076 
L 317.116906 164.239734 
L 319.066506 164.239734 
L 320.041306 156.289064 
L 325.890106 156.289064 
L 326.864906 148.338393 
L 331.738906 148.338393 
L 333.688506 132.437052 
L 334.663306 116.53571 
L 336.612906 116.53571 
L 337.587706 108.58504 
L 338.562506 145.688169 
L 344.411306 145.688169 
L 345.386106 137.737499 
L 352.209706 137.737499 
L 353.184506 129.786828 
L 354.159306 129.786828 
L 355.134106 166.889958 
L 360.982906 166.889958 
L 361.957706 203.993088 
L 362.932506 203.993088 
L 363.907306 196.042417 
L 375.604906 196.042417 
L 376.579706 188.091746 
L 382.428506 188.091746 
L 383.403306 217.244205 
L 385.352906 201.342864 
L 399.000106 201.342864 
L 399.974906 193.392193 
L 401.924506 193.392193 
L 402.899306 185.441523 
L 403.874106 185.441523 
L 405.823706 169.540181 
L 406.798506 169.540181 
L 408.748106 153.63884 
L 410.697706 227.845099 
L 411.672506 211.943758 
L 413.622106 211.943758 
L 416.546506 188.091746 
L 417.521306 172.190405 
L 420.445706 172.190405 
L 421.420506 164.239734 
L 422.395306 164.239734 
L 423.370106 156.289064 
L 424.344906 156.289064 
L 425.319706 148.338393 
L 426.294506 148.338393 
L 428.244106 132.437052 
L 429.218906 132.437052 
L 430.193706 124.486381 
L 431.168506 124.486381 
L 432.143306 161.589511 
L 433.118106 161.589511 
L 434.092906 153.63884 
L 435.067706 153.63884 
L 436.042506 137.737499 
L 437.017306 137.737499 
L 438.966906 211.943758 
L 440.916506 211.943758 
L 441.891306 203.993088 
L 443.840906 203.993088 
L 444.815706 196.042417 
L 448.714906 196.042417 
L 451.639306 172.190405 
L 452.614106 209.293535 
L 453.588906 209.293535 
L 455.538506 193.392193 
L 459.437706 193.392193 
L 462.362106 169.540181 
L 463.336906 169.540181 
L 464.311706 182.791299 
L 473.084906 182.791299 
L 474.059706 219.894429 
L 478.933706 219.894429 
L 479.908506 203.993088 
L 480.883306 196.042417 
L 481.858106 196.042417 
L 482.832906 180.141076 
L 485.757306 180.141076 
L 486.732106 164.239734 
L 487.706906 164.239734 
L 489.656506 148.338393 
L 490.631306 148.338393 
L 491.606106 140.387722 
L 493.555706 140.387722 
L 495.505306 124.486381 
L 498.429706 124.486381 
L 499.404506 116.53571 
L 500.379306 116.53571 
L 501.354106 108.58504 
L 502.328906 108.58504 
L 503.303706 92.683699 
L 504.278506 92.683699 
L 505.253306 129.786828 
L 507.202906 129.786828 
L 508.177706 121.836158 
L 509.152506 121.836158 
L 510.127306 150.988617 
L 511.102106 225.194876 
L 513.051706 209.293535 
L 514.026506 209.293535 
L 515.001306 201.342864 
L 515.976106 201.342864 
L 516.950906 193.392193 
L 517.925706 193.392193 
L 518.900506 185.441523 
L 519.875306 185.441523 
L 520.850106 177.490852 
L 521.824906 214.593982 
L 522.799706 214.593982 
L 523.774506 198.69264 
L 524.749306 198.69264 
L 527.673706 174.840628 
L 535.472106 174.840628 
L 536.446906 166.889958 
L 543.270506 166.889958 
L 544.245306 150.988617 
L 546.194906 150.988617 
L 547.169706 143.037946 
L 549.119306 143.037946 
L 550.094106 135.087275 
L 556.917706 135.087275 
L 557.892506 127.136605 
L 559.842106 127.136605 
L 560.816906 119.185934 
L 561.791706 119.185934 
L 563.741306 103.284593 
L 564.716106 103.284593 
L 565.690906 95.333922 
L 566.665706 95.333922 
L 567.640506 132.437052 
L 568.615306 132.437052 
L 569.590106 108.58504 
L 570.564906 100.634369 
L 571.539706 137.737499 
L 572.514506 129.786828 
L 575.438906 129.786828 
L 577.388506 113.885487 
L 578.363306 113.885487 
L 579.338106 143.037946 
L 580.312906 143.037946 
L 582.262506 127.136605 
L 583.237306 127.136605 
L 585.186906 111.235263 
L 586.161706 132.437052 
L 587.136506 108.58504 
L 588.111306 108.58504 
L 589.086106 100.634369 
L 590.060906 100.634369 
L 591.035706 92.683699 
L 592.010506 92.683699 
L 594.934906 68.831687 
L 595.909706 68.831687 
L 596.884506 97.984146 
L 597.859306 97.984146 
L 600.783706 74.132134 
L 606.632506 74.132134 
L 607.607306 66.181463 
L 610.531706 66.181463 
L 611.506506 95.333922 
L 614.430906 95.333922 
L 615.405706 87.383251 
L 618.330106 87.383251 
L 619.304906 79.432581 
L 621.254506 153.63884 
L 623.204106 153.63884 
L 624.178906 145.688169 
L 625.153706 145.688169 
L 626.128506 137.737499 
L 631.977306 137.737499 
L 632.952106 129.786828 
L 641.725306 129.786828 
L 642.700106 121.836158 
L 643.674906 121.836158 
L 645.624506 105.934816 
L 648.548906 105.934816 
L 649.523706 143.037946 
L 651.473306 143.037946 
L 652.448106 135.087275 
L 654.397706 135.087275 
L 655.372506 127.136605 
L 660.246506 127.136605 
L 661.221306 111.235263 
L 662.196106 111.235263 
L 663.170906 103.284593 
L 668.044906 103.284593 
L 669.994506 87.383251 
L 677.792906 87.383251 
L 678.767706 79.432581 
L 680.717306 79.432581 
L 681.692106 116.53571 
L 682.666906 108.58504 
L 684.616506 108.58504 
L 685.591306 137.737499 
L 688.515706 113.885487 
L 689.490506 150.988617 
L 693.389706 150.988617 
L 694.364506 143.037946 
L 699.238506 143.037946 
L 700.213306 135.087275 
L 706.062106 135.087275 
L 707.036906 127.136605 
L 709.961306 127.136605 
L 710.936106 119.185934 
L 713.860506 119.185934 
L 714.835306 156.289064 
L 715.810106 148.338393 
L 720.684106 148.338393 
L 722.633706 132.437052 
L 723.608506 132.437052 
L 725.558106 116.53571 
L 727.507706 116.53571 
L 728.482506 153.63884 
L 729.457306 153.63884 
L 730.432106 190.74197 
L 740.180106 190.74197 
L 741.154906 182.791299 
L 742.129706 182.791299 
L 743.104506 174.840628 
L 745.054106 174.840628 
L 746.028906 166.889958 
L 746.028906 166.889958 
" clip-path="url(#pdb993da0bd)" style="fill: none; stroke: #81a1c1; stroke-width: 2; stroke-linecap: square"/>
   </g>
   <g id="line2d_48">
    <path d="M 607.607306 235.928281 
L 607.607306 58.098281 
" clip-path="url(#pdb993da0bd)" style="fill: none; stroke-dasharray: 5.55,2.4; stroke-dashoffset: 0; stroke: #bf616a; stroke-width: 1.5"/>
   </g>
   <g id="line2d_49">
    <path d="M 410.697706 235.928281 
L 410.697706 58.098281 
" clip-path="url(#pdb993da0bd)" style="fill: none; stroke-dasharray: 5.55,2.4; stroke-dashoffset: 0; stroke: #bf616a; stroke-width: 1.5"/>
   </g>
   <g id="patch_3">
    <path d="M 234.258906 235.928281 
L 234.258906 58.098281 
" style="fill: none; stroke: #4c566a; stroke-width: 1.8; stroke-linejoin: miter; stroke-linecap: square"/>
   </g>
   <g id="patch_4">
    <path d="M 770.398906 235.928281 
L 770.398906 58.098281 
" style="fill: none; stroke: #4c566a; stroke-width: 1.8; stroke-linejoin: miter; stroke-linecap: square"/>
   </g>
   <g id="patch_5">
    <path d="M 234.258906 235.928281 
L 770.398906 235.928281 
" style="fill: none; stroke: #4c566a; stroke-width: 1.8; stroke-linejoin: miter; stroke-linecap: square"/>
   </g>
   <g id="patch_6">
    <path d="M 234.258906 58.098281 
L 770.398906 58.098281 
" style="fill: none; stroke: #4c566a; stroke-width: 1.8; stroke-linejoin: miter; stroke-linecap: square"/>
   </g>
   <g id="text_5">
    <text style="font-size: 10px; font-family: 'Courier New'; fill: #bf616a" transform="translate(605.722931 142.401892) rotate(-90)">High threshold = 0.716</text>
   </g>
   <g id="text_6">
    <text style="font-size: 10px; font-family: 'Courier New'; fill: #bf616a" transform="translate(408.813331 142.401892) rotate(-90)">Low threshold = 0.312</text>
   </g>
   <g id="text_7">
    <text style="font-weight: 600; font-size: 33px; font-family: 'Courier New'; text-anchor: middle" x="502.328906" y="28.098281" transform="rotate(-0 502.328906 28.098281)">D-FRS pre-operative Youden index across thresholds</text>
   </g>
  </g>
  <g id="axes_2">
   <g id="patch_7">
    <path d="M 234.258906 451.918281 
L 770.398906 451.918281 
L 770.398906 274.088281 
L 234.258906 274.088281 
z
" style="fill: #ffffff"/>
   </g>
   <g id="matplotlib.axis_3">
    <g id="xtick_24">
     <g id="line2d_50">
      <path d="M 258.628906 451.918281 
L 258.628906 274.088281 
" clip-path="url(#p346cc57717)" style="fill: none; stroke: #4c566a; stroke-opacity: 0.3; stroke-width: 0.8; stroke-linecap: square"/>
     </g>
     <g id="line2d_51">
      <g>
       <use xlink:href="#m3bb791cc8f" x="258.628906" y="451.918281" style="stroke: #000000; stroke-width: 2.4"/>
      </g>
     </g>
     <g id="text_8">
      <text style="font-size: 24px; font-family: 'Courier New'; text-anchor: middle" x="258.628906" y="479.125781" transform="rotate(-0 258.628906 479.125781)">0.0</text>
     </g>
    </g>
    <g id="xtick_25">
     <g id="line2d_52">
      <path d="M 356.108906 451.918281 
L 356.108906 274.088281 
" clip-path="url(#p346cc57717)" style="fill: none; stroke: #4c566a; stroke-opacity: 0.3; stroke-width: 0.8; stroke-linecap: square"/>
     </g>
     <g id="line2d_53">
      <g>
       <use xlink:href="#m3bb791cc8f" x="356.108906" y="451.918281" style="stroke: #000000; stroke-width: 2.4"/>
      </g>
     </g>
     <g id="text_9">
      <text style="font-size: 24px; font-family: 'Courier New'; text-anchor: middle" x="356.108906" y="479.125781" transform="rotate(-0 356.108906 479.125781)">0.2</text>
     </g>
    </g>
    <g id="xtick_26">
     <g id="line2d_54">
      <path d="M 453.588906 451.918281 
L 453.588906 274.088281 
" clip-path="url(#p346cc57717)" style="fill: none; stroke: #4c566a; stroke-opacity: 0.3; stroke-width: 0.8; stroke-linecap: square"/>
     </g>
     <g id="line2d_55">
      <g>
       <use xlink:href="#m3bb791cc8f" x="453.588906" y="451.918281" style="stroke: #000000; stroke-width: 2.4"/>
      </g>
     </g>
     <g id="text_10">
      <text style="font-size: 24px; font-family: 'Courier New'; text-anchor: middle" x="453.588906" y="479.125781" transform="rotate(-0 453.588906 479.125781)">0.4</text>
     </g>
    </g>
    <g id="xtick_27">
     <g id="line2d_56">
      <path d="M 551.068906 451.918281 
L 551.068906 274.088281 
" clip-path="url(#p346cc57717)" style="fill: none; stroke: #4c566a; stroke-opacity: 0.3; stroke-width: 0.8; stroke-linecap: square"/>
     </g>
     <g id="line2d_57">
      <g>
       <use xlink:href="#m3bb791cc8f" x="551.068906" y="451.918281" style="stroke: #000000; stroke-width: 2.4"/>
      </g>
     </g>
     <g id="text_11">
      <text style="font-size: 24px; font-family: 'Courier New'; text-anchor: middle" x="551.068906" y="479.125781" transform="rotate(-0 551.068906 479.125781)">0.6</text>
     </g>
    </g>
    <g id="xtick_28">
     <g id="line2d_58">
      <path d="M 648.548906 451.918281 
L 648.548906 274.088281 
" clip-path="url(#p346cc57717)" style="fill: none; stroke: #4c566a; stroke-opacity: 0.3; stroke-width: 0.8; stroke-linecap: square"/>
     </g>
     <g id="line2d_59">
      <g>
       <use xlink:href="#m3bb791cc8f" x="648.548906" y="451.918281" style="stroke: #000000; stroke-width: 2.4"/>
      </g>
     </g>
     <g id="text_12">
      <text style="font-size: 24px; font-family: 'Courier New'; text-anchor: middle" x="648.548906" y="479.125781" transform="rotate(-0 648.548906 479.125781)">0.8</text>
     </g>
    </g>
    <g id="xtick_29">
     <g id="line2d_60">
      <path d="M 746.028906 451.918281 
L 746.028906 274.088281 
" clip-path="url(#p346cc57717)" style="fill: none; stroke: #4c566a; stroke-opacity: 0.3; stroke-width: 0.8; stroke-linecap: square"/>
     </g>
     <g id="line2d_61">
      <g>
       <use xlink:href="#m3bb791cc8f" x="746.028906" y="451.918281" style="stroke: #000000; stroke-width: 2.4"/>
      </g>
     </g>
     <g id="text_13">
      <text style="font-size: 24px; font-family: 'Courier New'; text-anchor: middle" x="746.028906" y="479.125781" transform="rotate(-0 746.028906 479.125781)">1.0</text>
     </g>
    </g>
    <g id="xtick_30">
     <g id="line2d_62">
      <g>
       <use xlink:href="#m2d1cc83a7f" x="234.258906" y="451.918281" style="stroke: #000000; stroke-width: 1.5"/>
      </g>
     </g>
    </g>
    <g id="xtick_31">
     <g id="line2d_63">
      <g>
       <use xlink:href="#m2d1cc83a7f" x="282.998906" y="451.918281" style="stroke: #000000; stroke-width: 1.5"/>
      </g>
     </g>
    </g>
    <g id="xtick_32">
     <g id="line2d_64">
      <g>
       <use xlink:href="#m2d1cc83a7f" x="307.368906" y="451.918281" style="stroke: #000000; stroke-width: 1.5"/>
      </g>
     </g>
    </g>
    <g id="xtick_33">
     <g id="line2d_65">
      <g>
       <use xlink:href="#m2d1cc83a7f" x="331.738906" y="451.918281" style="stroke: #000000; stroke-width: 1.5"/>
      </g>
     </g>
    </g>
    <g id="xtick_34">
     <g id="line2d_66">
      <g>
       <use xlink:href="#m2d1cc83a7f" x="380.478906" y="451.918281" style="stroke: #000000; stroke-width: 1.5"/>
      </g>
     </g>
    </g>
    <g id="xtick_35">
     <g id="line2d_67">
      <g>
       <use xlink:href="#m2d1cc83a7f" x="404.848906" y="451.918281" style="stroke: #000000; stroke-width: 1.5"/>
      </g>
     </g>
    </g>
    <g id="xtick_36">
     <g id="line2d_68">
      <g>
       <use xlink:href="#m2d1cc83a7f" x="429.218906" y="451.918281" style="stroke: #000000; stroke-width: 1.5"/>
      </g>
     </g>
    </g>
    <g id="xtick_37">
     <g id="line2d_69">
      <g>
       <use xlink:href="#m2d1cc83a7f" x="477.958906" y="451.918281" style="stroke: #000000; stroke-width: 1.5"/>
      </g>
     </g>
    </g>
    <g id="xtick_38">
     <g id="line2d_70">
      <g>
       <use xlink:href="#m2d1cc83a7f" x="502.328906" y="451.918281" style="stroke: #000000; stroke-width: 1.5"/>
      </g>
     </g>
    </g>
    <g id="xtick_39">
     <g id="line2d_71">
      <g>
       <use xlink:href="#m2d1cc83a7f" x="526.698906" y="451.918281" style="stroke: #000000; stroke-width: 1.5"/>
      </g>
     </g>
    </g>
    <g id="xtick_40">
     <g id="line2d_72">
      <g>
       <use xlink:href="#m2d1cc83a7f" x="575.438906" y="451.918281" style="stroke: #000000; stroke-width: 1.5"/>
      </g>
     </g>
    </g>
    <g id="xtick_41">
     <g id="line2d_73">
      <g>
       <use xlink:href="#m2d1cc83a7f" x="599.808906" y="451.918281" style="stroke: #000000; stroke-width: 1.5"/>
      </g>
     </g>
    </g>
    <g id="xtick_42">
     <g id="line2d_74">
      <g>
       <use xlink:href="#m2d1cc83a7f" x="624.178906" y="451.918281" style="stroke: #000000; stroke-width: 1.5"/>
      </g>
     </g>
    </g>
    <g id="xtick_43">
     <g id="line2d_75">
      <g>
       <use xlink:href="#m2d1cc83a7f" x="672.918906" y="451.918281" style="stroke: #000000; stroke-width: 1.5"/>
      </g>
     </g>
    </g>
    <g id="xtick_44">
     <g id="line2d_76">
      <g>
       <use xlink:href="#m2d1cc83a7f" x="697.288906" y="451.918281" style="stroke: #000000; stroke-width: 1.5"/>
      </g>
     </g>
    </g>
    <g id="xtick_45">
     <g id="line2d_77">
      <g>
       <use xlink:href="#m2d1cc83a7f" x="721.658906" y="451.918281" style="stroke: #000000; stroke-width: 1.5"/>
      </g>
     </g>
    </g>
    <g id="xtick_46">
     <g id="line2d_78">
      <g>
       <use xlink:href="#m2d1cc83a7f" x="770.398906" y="451.918281" style="stroke: #000000; stroke-width: 1.5"/>
      </g>
     </g>
    </g>
    <g id="text_14">
     <text style="font-weight: 600; font-size: 27px; font-family: 'Courier New'; text-anchor: middle" x="502.328906" y="518.746875" transform="rotate(-0 502.328906 518.746875)">Threshold</text>
    </g>
   </g>
   <g id="matplotlib.axis_4">
    <g id="ytick_15">
     <g id="line2d_79">
      <path d="M 234.258906 443.835099 
L 770.398906 443.835099 
" clip-path="url(#p346cc57717)" style="fill: none; stroke: #4c566a; stroke-opacity: 0.3; stroke-width: 0.8; stroke-linecap: square"/>
     </g>
     <g id="line2d_80">
      <g>
       <use xlink:href="#mc714e1561f" x="234.258906" y="443.835099" style="stroke: #000000; stroke-width: 2.4"/>
      </g>
     </g>
     <g id="text_15">
      <text style="font-size: 24px; font-family: 'Courier New'; text-anchor: end" x="221.758906" y="451.188849" transform="rotate(-0 221.758906 451.188849)">0.0</text>
     </g>
    </g>
    <g id="ytick_16">
     <g id="line2d_81">
      <path d="M 234.258906 363.003281 
L 770.398906 363.003281 
" clip-path="url(#p346cc57717)" style="fill: none; stroke: #4c566a; stroke-opacity: 0.3; stroke-width: 0.8; stroke-linecap: square"/>
     </g>
     <g id="line2d_82">
      <g>
       <use xlink:href="#mc714e1561f" x="234.258906" y="363.003281" style="stroke: #000000; stroke-width: 2.4"/>
      </g>
     </g>
     <g id="text_16">
      <text style="font-size: 24px; font-family: 'Courier New'; text-anchor: end" x="221.758906" y="370.357031" transform="rotate(-0 221.758906 370.357031)">0.5</text>
     </g>
    </g>
    <g id="ytick_17">
     <g id="line2d_83">
      <path d="M 234.258906 282.171463 
L 770.398906 282.171463 
" clip-path="url(#p346cc57717)" style="fill: none; stroke: #4c566a; stroke-opacity: 0.3; stroke-width: 0.8; stroke-linecap: square"/>
     </g>
     <g id="line2d_84">
      <g>
       <use xlink:href="#mc714e1561f" x="234.258906" y="282.171463" style="stroke: #000000; stroke-width: 2.4"/>
      </g>
     </g>
     <g id="text_17">
      <text style="font-size: 24px; font-family: 'Courier New'; text-anchor: end" x="221.758906" y="289.525213" transform="rotate(-0 221.758906 289.525213)">1.0</text>
     </g>
    </g>
    <g id="ytick_18">
     <g id="line2d_85">
      <g>
       <use xlink:href="#m0d457d52c7" x="234.258906" y="427.668736" style="stroke: #000000; stroke-width: 1.5"/>
      </g>
     </g>
    </g>
    <g id="ytick_19">
     <g id="line2d_86">
      <g>
       <use xlink:href="#m0d457d52c7" x="234.258906" y="411.502372" style="stroke: #000000; stroke-width: 1.5"/>
      </g>
     </g>
    </g>
    <g id="ytick_20">
     <g id="line2d_87">
      <g>
       <use xlink:href="#m0d457d52c7" x="234.258906" y="395.336009" style="stroke: #000000; stroke-width: 1.5"/>
      </g>
     </g>
    </g>
    <g id="ytick_21">
     <g id="line2d_88">
      <g>
       <use xlink:href="#m0d457d52c7" x="234.258906" y="379.169645" style="stroke: #000000; stroke-width: 1.5"/>
      </g>
     </g>
    </g>
    <g id="ytick_22">
     <g id="line2d_89">
      <g>
       <use xlink:href="#m0d457d52c7" x="234.258906" y="346.836918" style="stroke: #000000; stroke-width: 1.5"/>
      </g>
     </g>
    </g>
    <g id="ytick_23">
     <g id="line2d_90">
      <g>
       <use xlink:href="#m0d457d52c7" x="234.258906" y="330.670554" style="stroke: #000000; stroke-width: 1.5"/>
      </g>
     </g>
    </g>
    <g id="ytick_24">
     <g id="line2d_91">
      <g>
       <use xlink:href="#m0d457d52c7" x="234.258906" y="314.50419" style="stroke: #000000; stroke-width: 1.5"/>
      </g>
     </g>
    </g>
    <g id="ytick_25">
     <g id="line2d_92">
      <g>
       <use xlink:href="#m0d457d52c7" x="234.258906" y="298.337827" style="stroke: #000000; stroke-width: 1.5"/>
      </g>
     </g>
    </g>
    <g id="text_18">
     <text style="font-weight: 600; font-size: 27px; font-family: 'Courier New'; text-anchor: middle" x="154.902969" y="363.003281" transform="rotate(-90 154.902969 363.003281)">Value</text>
    </g>
   </g>
   <g id="line2d_93">
    <path d="M 258.628906 282.171463 
L 313.217706 282.171463 
L 314.192506 287.070361 
L 337.587706 287.070361 
L 338.562506 291.969259 
L 354.159306 291.969259 
L 355.134106 296.868157 
L 360.982906 296.868157 
L 361.957706 301.767055 
L 382.428506 301.767055 
L 383.403306 306.665953 
L 408.748106 306.665953 
L 410.697706 316.46375 
L 431.168506 316.46375 
L 432.143306 321.362648 
L 437.017306 321.362648 
L 438.966906 331.160444 
L 451.639306 331.160444 
L 452.614106 336.059342 
L 463.336906 336.059342 
L 464.311706 340.95824 
L 473.084906 340.95824 
L 474.059706 345.857138 
L 504.278506 345.857138 
L 505.253306 350.756036 
L 509.152506 350.756036 
L 510.127306 355.654934 
L 511.102106 365.45273 
L 520.850106 365.45273 
L 521.824906 370.351628 
L 566.665706 370.351628 
L 567.640506 375.250526 
L 570.564906 375.250526 
L 571.539706 380.149425 
L 578.363306 380.149425 
L 579.338106 385.048323 
L 585.186906 385.048323 
L 586.161706 389.947221 
L 595.909706 389.947221 
L 596.884506 394.846119 
L 610.531706 394.846119 
L 611.506506 399.745017 
L 619.304906 399.745017 
L 621.254506 409.542813 
L 648.548906 409.542813 
L 649.523706 414.441711 
L 680.717306 414.441711 
L 681.692106 419.340609 
L 684.616506 419.340609 
L 685.591306 424.239507 
L 688.515706 424.239507 
L 689.490506 429.138405 
L 713.860506 429.138405 
L 714.835306 434.037303 
L 727.507706 434.037303 
L 728.482506 438.936201 
L 729.457306 438.936201 
L 730.432106 443.835099 
L 746.028906 443.835099 
L 746.028906 443.835099 
" clip-path="url(#p346cc57717)" style="fill: none; stroke: #bf616a; stroke-width: 2; stroke-linecap: square"/>
   </g>
   <g id="line2d_94">
    <path d="M 258.628906 443.835099 
L 272.276106 443.835099 
L 273.250906 442.785336 
L 308.343706 442.785336 
L 309.318506 441.735572 
L 313.217706 441.735572 
L 314.192506 440.685808 
L 315.167306 440.685808 
L 317.116906 438.58628 
L 319.066506 438.58628 
L 320.041306 437.536516 
L 325.890106 437.536516 
L 326.864906 436.486752 
L 331.738906 436.486752 
L 333.688506 434.387225 
L 334.663306 432.287697 
L 336.612906 432.287697 
L 337.587706 431.237933 
L 344.411306 431.237933 
L 345.386106 430.188169 
L 352.209706 430.188169 
L 353.184506 429.138405 
L 362.932506 429.138405 
L 363.907306 428.088641 
L 375.604906 428.088641 
L 376.579706 427.038877 
L 382.428506 427.038877 
L 385.352906 423.889586 
L 399.000106 423.889586 
L 399.974906 422.839822 
L 401.924506 422.839822 
L 402.899306 421.790058 
L 403.874106 421.790058 
L 405.823706 419.69053 
L 406.798506 419.69053 
L 408.748106 417.591003 
L 410.697706 417.591003 
L 411.672506 415.491475 
L 413.622106 415.491475 
L 416.546506 412.342183 
L 417.521306 410.242656 
L 420.445706 410.242656 
L 421.420506 409.192892 
L 422.395306 409.192892 
L 423.370106 408.143128 
L 424.344906 408.143128 
L 425.319706 407.093364 
L 426.294506 407.093364 
L 428.244106 404.993836 
L 429.218906 404.993836 
L 430.193706 403.944072 
L 433.118106 403.944072 
L 434.092906 402.894308 
L 435.067706 402.894308 
L 436.042506 400.794781 
L 440.916506 400.794781 
L 441.891306 399.745017 
L 443.840906 399.745017 
L 444.815706 398.695253 
L 448.714906 398.695253 
L 451.639306 395.545961 
L 453.588906 395.545961 
L 455.538506 393.446434 
L 459.437706 393.446434 
L 462.362106 390.297142 
L 463.336906 390.297142 
L 464.311706 387.14785 
L 478.933706 387.14785 
L 479.908506 385.048323 
L 480.883306 383.998559 
L 481.858106 383.998559 
L 482.832906 381.899031 
L 485.757306 381.899031 
L 486.732106 379.799503 
L 487.706906 379.799503 
L 489.656506 377.699975 
L 490.631306 377.699975 
L 491.606106 376.650212 
L 493.555706 376.650212 
L 495.505306 374.550684 
L 498.429706 374.550684 
L 499.404506 373.50092 
L 500.379306 373.50092 
L 501.354106 372.451156 
L 502.328906 372.451156 
L 503.303706 370.351628 
L 507.202906 370.351628 
L 508.177706 369.301864 
L 509.152506 369.301864 
L 510.127306 368.252101 
L 511.102106 368.252101 
L 513.051706 366.152573 
L 514.026506 366.152573 
L 515.001306 365.102809 
L 515.976106 365.102809 
L 516.950906 364.053045 
L 517.925706 364.053045 
L 518.900506 363.003281 
L 519.875306 363.003281 
L 520.850106 361.953517 
L 522.799706 361.953517 
L 523.774506 359.85399 
L 524.749306 359.85399 
L 527.673706 356.704698 
L 535.472106 356.704698 
L 536.446906 355.654934 
L 543.270506 355.654934 
L 544.245306 353.555406 
L 546.194906 353.555406 
L 547.169706 352.505643 
L 549.119306 352.505643 
L 550.094106 351.455879 
L 556.917706 351.455879 
L 557.892506 350.406115 
L 559.842106 350.406115 
L 560.816906 349.356351 
L 561.791706 349.356351 
L 563.741306 347.256823 
L 564.716106 347.256823 
L 565.690906 346.207059 
L 568.615306 346.207059 
L 569.590106 343.057768 
L 570.564906 342.008004 
L 571.539706 342.008004 
L 572.514506 340.95824 
L 575.438906 340.95824 
L 577.388506 338.858712 
L 578.363306 338.858712 
L 579.338106 337.808948 
L 580.312906 337.808948 
L 582.262506 335.709421 
L 583.237306 335.709421 
L 585.186906 333.609893 
L 586.161706 331.510365 
L 587.136506 328.361073 
L 588.111306 328.361073 
L 589.086106 327.31131 
L 590.060906 327.31131 
L 591.035706 326.261546 
L 592.010506 326.261546 
L 594.934906 323.112254 
L 595.909706 323.112254 
L 596.884506 322.06249 
L 597.859306 322.06249 
L 600.783706 318.913199 
L 606.632506 318.913199 
L 607.607306 317.863435 
L 610.531706 317.863435 
L 611.506506 316.813671 
L 614.430906 316.813671 
L 615.405706 315.763907 
L 618.330106 315.763907 
L 619.304906 314.714143 
L 623.204106 314.714143 
L 624.178906 313.664379 
L 625.153706 313.664379 
L 626.128506 312.614615 
L 631.977306 312.614615 
L 632.952106 311.564851 
L 641.725306 311.564851 
L 642.700106 310.515088 
L 643.674906 310.515088 
L 645.624506 308.41556 
L 651.473306 308.41556 
L 652.448106 307.365796 
L 654.397706 307.365796 
L 655.372506 306.316032 
L 660.246506 306.316032 
L 661.221306 304.216504 
L 662.196106 304.216504 
L 663.170906 303.166741 
L 668.044906 303.166741 
L 669.994506 301.067213 
L 677.792906 301.067213 
L 678.767706 300.017449 
L 681.692106 300.017449 
L 682.666906 298.967685 
L 684.616506 298.967685 
L 688.515706 294.76863 
L 693.389706 294.76863 
L 694.364506 293.718866 
L 699.238506 293.718866 
L 700.213306 292.669102 
L 706.062106 292.669102 
L 707.036906 291.619338 
L 709.961306 291.619338 
L 710.936106 290.569574 
L 714.835306 290.569574 
L 715.810106 289.51981 
L 720.684106 289.51981 
L 722.633706 287.420282 
L 723.608506 287.420282 
L 725.558106 285.320755 
L 740.180106 285.320755 
L 741.154906 284.270991 
L 742.129706 284.270991 
L 743.104506 283.221227 
L 745.054106 283.221227 
L 746.028906 282.171463 
L 746.028906 282.171463 
" clip-path="url(#p346cc57717)" style="fill: none; stroke: #5e81ac; stroke-width: 2; stroke-linecap: square"/>
   </g>
   <g id="line2d_95">
    <path d="M 258.628906 415.306222 
L 272.276106 415.306222 
L 273.250906 415.152841 
L 308.343706 415.152841 
L 309.318506 414.997802 
L 313.217706 414.997802 
L 314.192506 415.566048 
L 315.167306 415.566048 
L 317.116906 415.253683 
L 319.066506 415.253683 
L 320.041306 415.094897 
L 325.890106 415.094897 
L 326.864906 414.934338 
L 331.738906 414.934338 
L 333.688506 414.607775 
L 334.663306 414.273749 
L 336.612906 414.273749 
L 337.587706 414.103856 
L 338.562506 414.866471 
L 344.411306 414.866471 
L 345.386106 414.698049 
L 352.209706 414.698049 
L 353.184506 414.527657 
L 354.159306 414.527657 
L 355.134106 415.306222 
L 360.982906 415.306222 
L 361.957706 416.094002 
L 362.932506 416.094002 
L 363.907306 415.928876 
L 375.604906 415.928876 
L 376.579706 415.761773 
L 382.428506 415.761773 
L 383.403306 416.40127 
L 385.352906 416.064659 
L 399.000106 416.064659 
L 399.974906 415.893236 
L 401.924506 415.893236 
L 402.899306 415.719684 
L 403.874106 415.719684 
L 405.823706 415.366031 
L 406.798506 415.366031 
L 408.748106 415.003368 
L 410.697706 416.717328 
L 411.672506 416.362848 
L 413.622106 416.362848 
L 416.546506 415.813402 
L 417.521306 415.434731 
L 420.445706 415.434731 
L 421.420506 415.241531 
L 422.395306 415.241531 
L 423.370106 415.045685 
L 424.344906 415.045685 
L 425.319706 414.847137 
L 426.294506 414.847137 
L 428.244106 414.441711 
L 429.218906 414.441711 
L 430.193706 414.234715 
L 431.168506 414.234715 
L 432.143306 415.171334 
L 433.118106 415.171334 
L 434.092906 414.966593 
L 435.067706 414.966593 
L 436.042506 414.548209 
L 437.017306 414.548209 
L 438.966906 416.494926 
L 440.916506 416.494926 
L 441.891306 416.292406 
L 443.840906 416.292406 
L 444.815706 416.086863 
L 448.714906 416.086863 
L 451.639306 415.451408 
L 452.614106 416.476638 
L 453.588906 416.476638 
L 455.538506 416.049162 
L 459.437706 416.049162 
L 462.362106 415.382299 
L 463.336906 415.382299 
L 464.311706 415.777774 
L 473.084906 415.777774 
L 474.059706 416.89116 
L 478.933706 416.89116 
L 479.908506 416.434483 
L 480.883306 416.20029 
L 481.858106 416.20029 
L 482.832906 415.719684 
L 485.757306 415.719684 
L 486.732106 415.222066 
L 487.706906 415.222066 
L 489.656506 414.706516 
L 490.631306 414.706516 
L 491.606106 414.441711 
L 493.555706 414.441711 
L 495.505306 413.897389 
L 498.429706 413.897389 
L 499.404506 413.617597 
L 500.379306 413.617597 
L 501.354106 413.332527 
L 502.328906 413.332527 
L 503.303706 412.745939 
L 504.278506 412.745939 
L 505.253306 414.013652 
L 507.202906 414.013652 
L 508.177706 413.721285 
L 509.152506 413.721285 
L 510.127306 414.735645 
L 511.102106 417.441036 
L 513.051706 416.89116 
L 514.026506 416.89116 
L 515.001306 416.60754 
L 515.976106 416.60754 
L 516.950906 416.317885 
L 517.925706 416.317885 
L 518.900506 416.022001 
L 519.875306 416.022001 
L 520.850106 415.719684 
L 521.824906 417.187247 
L 522.799706 417.187247 
L 523.774506 416.588419 
L 524.749306 416.588419 
L 527.673706 415.637954 
L 535.472106 415.637954 
L 536.446906 415.306222 
L 543.270506 415.306222 
L 544.245306 414.61878 
L 546.194906 414.61878 
L 547.169706 414.262483 
L 549.119306 414.262483 
L 550.094106 413.897389 
L 556.917706 413.897389 
L 557.892506 413.523168 
L 559.842106 413.523168 
L 560.816906 413.139472 
L 561.791706 413.139472 
L 563.741306 412.342183 
L 564.716106 412.342183 
L 565.690906 411.927803 
L 566.665706 411.927803 
L 567.640506 413.657887 
L 568.615306 413.657887 
L 569.590106 412.400503 
L 570.564906 411.957763 
L 571.539706 413.811853 
L 572.514506 413.376733 
L 575.438906 413.376733 
L 577.388506 412.467528 
L 578.363306 412.467528 
L 579.338106 413.989505 
L 580.312906 413.989505 
L 582.262506 413.042026 
L 583.237306 413.042026 
L 585.186906 412.032417 
L 586.161706 413.174755 
L 587.136506 411.502372 
L 588.111306 411.502372 
L 589.086106 410.903618 
L 590.060906 410.903618 
L 591.035706 410.282269 
L 592.010506 410.282269 
L 594.934906 408.269099 
L 595.909706 408.269099 
L 596.884506 410.155175 
L 597.859306 410.155175 
L 600.783706 407.909847 
L 606.632506 407.909847 
L 607.607306 407.093364 
L 610.531706 407.093364 
L 611.506506 409.192892 
L 614.430906 409.192892 
L 615.405706 408.34796 
L 618.330106 408.34796 
L 619.304906 407.460781 
L 621.254506 414.054956 
L 623.204106 414.054956 
L 624.178906 413.250087 
L 625.153706 413.250087 
L 626.128506 412.400503 
L 631.977306 412.400503 
L 632.952106 411.502372 
L 641.725306 411.502372 
L 642.700106 410.55141 
L 643.674906 410.55141 
L 645.624506 408.471179 
L 648.548906 408.471179 
L 649.523706 412.545363 
L 651.473306 412.545363 
L 652.448106 411.502372 
L 654.397706 411.502372 
L 655.372506 410.387451 
L 660.246506 410.387451 
L 661.221306 407.909847 
L 662.196106 407.909847 
L 663.170906 406.528106 
L 668.044906 406.528106 
L 669.994506 403.41919 
L 677.792906 403.41919 
L 678.767706 401.661977 
L 680.717306 401.661977 
L 681.692106 407.093364 
L 682.666906 405.343757 
L 684.616506 405.343757 
L 685.591306 409.80065 
L 687.540906 405.796597 
L 688.515706 403.41919 
L 689.490506 411.502372 
L 693.389706 411.502372 
L 694.364506 409.192892 
L 699.238506 409.192892 
L 700.213306 406.528106 
L 706.062106 406.528106 
L 707.036906 403.41919 
L 709.961306 403.41919 
L 710.936106 399.745017 
L 713.860506 399.745017 
L 714.835306 411.502372 
L 715.810106 407.909847 
L 720.684106 407.909847 
L 721.658906 403.41919 
L 722.633706 397.645489 
L 723.608506 397.645489 
L 724.583306 389.947221 
L 725.558106 379.169645 
L 727.507706 379.169645 
L 728.482506 403.41919 
L 729.457306 403.41919 
L 730.432106 443.835099 
L 745.054106 443.835099 
L 745.054106 443.835099 
" clip-path="url(#p346cc57717)" style="fill: none; stroke: #a3be8c; stroke-width: 2; stroke-linecap: square"/>
   </g>
   <g id="line2d_96">
    <path d="M 273.250906 282.171463 
L 313.217706 282.171463 
L 314.192506 322.587372 
L 315.167306 322.587372 
L 316.142106 314.50419 
L 317.116906 309.115402 
L 319.066506 309.115402 
L 320.041306 305.266268 
L 325.890106 305.266268 
L 326.864906 302.379418 
L 331.738906 302.379418 
L 332.713706 300.134089 
L 333.688506 298.337827 
L 334.663306 295.643433 
L 336.612906 295.643433 
L 337.587706 294.607127 
L 338.562506 305.266268 
L 344.411306 305.266268 
L 345.386106 303.726615 
L 352.209706 303.726615 
L 353.184506 302.379418 
L 354.159306 302.379418 
L 355.134106 310.70034 
L 360.982906 310.70034 
L 361.957706 318.096716 
L 362.932506 318.096716 
L 363.907306 316.205913 
L 375.604906 316.205913 
L 376.579706 314.50419 
L 382.428506 314.50419 
L 383.403306 318.913199 
L 385.352906 315.851387 
L 399.000106 315.851387 
L 399.974906 314.50419 
L 401.924506 314.50419 
L 402.899306 313.260624 
L 403.874106 313.260624 
L 405.823706 311.03997 
L 406.798506 311.03997 
L 408.748106 309.115402 
L 410.697706 317.535384 
L 411.672506 315.455153 
L 413.622106 315.455153 
L 416.546506 312.756475 
L 417.521306 311.188013 
L 420.445706 311.188013 
L 421.420506 310.462599 
L 422.395306 310.462599 
L 423.370106 309.772572 
L 424.344906 309.772572 
L 425.319706 309.115402 
L 426.294506 309.115402 
L 428.244106 307.890678 
L 429.218906 307.890678 
L 430.193706 307.31914 
L 431.168506 307.31914 
L 432.143306 310.286878 
L 433.118106 310.286878 
L 434.092906 309.688678 
L 435.067706 309.688678 
L 436.042506 308.565526 
L 437.017306 308.565526 
L 438.966906 313.870215 
L 440.916506 313.870215 
L 441.891306 313.260624 
L 443.840906 313.260624 
L 444.815706 312.674036 
L 448.714906 312.674036 
L 451.639306 311.03997 
L 452.614106 313.369709 
L 453.588906 313.369709 
L 455.538506 312.312141 
L 459.437706 312.312141 
L 462.362106 310.853721 
L 463.336906 310.853721 
L 464.311706 311.564851 
L 473.084906 311.564851 
L 474.059706 313.539034 
L 478.933706 313.539034 
L 479.908506 312.629829 
L 480.883306 312.19471 
L 481.858106 312.19471 
L 482.832906 311.360731 
L 485.757306 311.360731 
L 486.732106 310.571832 
L 487.706906 310.571832 
L 489.656506 309.824453 
L 490.631306 309.824453 
L 491.606106 309.465324 
L 493.555706 309.465324 
L 495.505306 308.77434 
L 498.429706 308.77434 
L 499.404506 308.441804 
L 500.379306 308.441804 
L 501.354106 308.117479 
L 502.328906 308.117479 
L 503.303706 307.492274 
L 504.278506 307.492274 
L 505.253306 309.115402 
L 507.202906 309.115402 
L 508.177706 308.798415 
L 509.152506 308.798415 
L 510.127306 310.044504 
L 511.102106 313.051034 
L 513.051706 312.372362 
L 514.026506 312.372362 
L 515.001306 312.044092 
L 515.976106 312.044092 
L 516.950906 311.72288 
L 517.925706 311.72288 
L 518.900506 311.408504 
L 519.875306 311.408504 
L 520.850106 311.100745 
L 521.824906 312.483395 
L 522.799706 312.483395 
L 523.774506 311.864784 
L 524.749306 311.864784 
L 527.673706 310.982804 
L 535.472106 310.982804 
L 536.446906 310.70034 
L 543.270506 310.70034 
L 544.245306 310.151708 
L 546.194906 310.151708 
L 547.169706 309.885229 
L 549.119306 309.885229 
L 550.094106 309.623779 
L 556.917706 309.623779 
L 557.892506 309.367215 
L 559.842106 309.367215 
L 560.816906 309.115402 
L 561.791706 309.115402 
L 563.741306 308.625513 
L 564.716106 308.625513 
L 565.690906 308.387188 
L 566.665706 308.387188 
L 567.640506 309.596544 
L 568.615306 309.596544 
L 569.590106 308.881107 
L 570.564906 308.650852 
L 571.539706 309.806273 
L 572.514506 309.572079 
L 575.438906 309.572079 
L 577.388506 309.115402 
L 578.363306 309.115402 
L 579.338106 309.99881 
L 580.312906 309.99881 
L 582.262506 309.549982 
L 583.237306 309.549982 
L 585.186906 309.115402 
L 586.161706 309.742006 
L 587.136506 309.115402 
L 588.111306 309.115402 
L 589.086106 308.912816 
L 590.060906 308.912816 
L 591.035706 308.713254 
L 592.010506 308.713254 
L 594.934906 308.132047 
L 595.909706 308.132047 
L 596.884506 308.921561 
L 597.859306 308.921561 
L 600.783706 308.356418 
L 606.632506 308.356418 
L 607.607306 308.173307 
L 610.531706 308.173307 
L 611.506506 308.929582 
L 614.430906 308.929582 
L 615.405706 308.746307 
L 618.330106 308.746307 
L 619.304906 308.565526 
L 621.254506 310.381225 
L 623.204106 310.381225 
L 624.178906 310.19316 
L 625.153706 310.19316 
L 626.128506 310.007586 
L 631.977306 310.007586 
L 632.952106 309.824453 
L 641.725306 309.824453 
L 642.700106 309.643715 
L 643.674906 309.643715 
L 645.624506 309.289234 
L 648.548906 309.289234 
L 649.523706 310.151708 
L 651.473306 310.151708 
L 652.448106 309.97349 
L 654.397706 309.97349 
L 655.372506 309.797528 
L 660.246506 309.797528 
L 661.221306 309.452202 
L 662.196106 309.452202 
L 663.170906 309.282756 
L 668.044906 309.282756 
L 669.994506 308.950102 
L 677.792906 308.950102 
L 678.767706 308.786818 
L 680.717306 308.786818 
L 681.692106 309.605292 
L 682.666906 309.440028 
L 684.616506 309.440028 
L 685.591306 310.077686 
L 688.515706 309.588103 
L 689.490506 310.368609 
L 693.389706 310.368609 
L 694.364506 310.20562 
L 699.238506 310.20562 
L 700.213306 310.044504 
L 706.062106 310.044504 
L 707.036906 309.885229 
L 709.961306 309.885229 
L 710.936106 309.727765 
L 713.860506 309.727765 
L 714.835306 310.485433 
L 715.810106 310.326366 
L 720.684106 310.326366 
L 722.633706 310.013534 
L 723.608506 310.013534 
L 725.558106 309.707577 
L 727.507706 309.707577 
L 728.482506 310.440514 
L 729.457306 310.440514 
L 730.432106 311.165485 
L 740.180106 311.165485 
L 741.154906 311.00876 
L 742.129706 311.00876 
L 743.104506 310.853721 
L 745.054106 310.853721 
L 746.028906 310.70034 
L 746.028906 310.70034 
" clip-path="url(#p346cc57717)" style="fill: none; stroke: #b48ead; stroke-width: 2; stroke-linecap: square"/>
   </g>
   <g id="line2d_97">
    <path d="M 410.697706 451.918281 
L 410.697706 274.088281 
" clip-path="url(#p346cc57717)" style="fill: none; stroke-dasharray: 3.7,1.6; stroke-dashoffset: 0; stroke: #4c566a"/>
   </g>
   <g id="line2d_98">
    <path d="M 607.607306 451.918281 
L 607.607306 274.088281 
" clip-path="url(#p346cc57717)" style="fill: none; stroke-dasharray: 3.7,1.6; stroke-dashoffset: 0; stroke: #4c566a"/>
   </g>
   <g id="patch_8">
    <path d="M 234.258906 451.918281 
L 234.258906 274.088281 
" style="fill: none; stroke: #4c566a; stroke-width: 1.8; stroke-linejoin: miter; stroke-linecap: square"/>
   </g>
   <g id="patch_9">
    <path d="M 770.398906 451.918281 
L 770.398906 274.088281 
" style="fill: none; stroke: #4c566a; stroke-width: 1.8; stroke-linejoin: miter; stroke-linecap: square"/>
   </g>
   <g id="patch_10">
    <path d="M 234.258906 451.918281 
L 770.398906 451.918281 
" style="fill: none; stroke: #4c566a; stroke-width: 1.8; stroke-linejoin: miter; stroke-linecap: square"/>
   </g>
   <g id="patch_11">
    <path d="M 234.258906 274.088281 
L 770.398906 274.088281 
" style="fill: none; stroke: #4c566a; stroke-width: 1.8; stroke-linejoin: miter; stroke-linecap: square"/>
   </g>
   <g id="legend_1">
    <g id="line2d_99">
     <path d="M 667.381719 341.234531 
L 677.381719 341.234531 
L 687.381719 341.234531 
" style="fill: none; stroke: #bf616a; stroke-width: 2; stroke-linecap: square"/>
    </g>
    <g id="text_19">
     <text style="font-size: 10px; font-family: 'Courier New'; text-anchor: start" x="695.381719" y="344.734531" transform="rotate(-0 695.381719 344.734531)">Sensitivity</text>
    </g>
    <g id="line2d_100">
     <path d="M 667.381719 355.118906 
L 677.381719 355.118906 
L 687.381719 355.118906 
" style="fill: none; stroke: #5e81ac; stroke-width: 2; stroke-linecap: square"/>
    </g>
    <g id="text_20">
     <text style="font-size: 10px; font-family: 'Courier New'; text-anchor: start" x="695.381719" y="358.618906" transform="rotate(-0 695.381719 358.618906)">Specificity</text>
    </g>
    <g id="line2d_101">
     <path d="M 667.381719 369.003281 
L 677.381719 369.003281 
L 687.381719 369.003281 
" style="fill: none; stroke: #a3be8c; stroke-width: 2; stroke-linecap: square"/>
    </g>
    <g id="text_21">
     <text style="font-size: 10px; font-family: 'Courier New'; text-anchor: start" x="695.381719" y="372.503281" transform="rotate(-0 695.381719 372.503281)">PPV</text>
    </g>
    <g id="line2d_102">
     <path d="M 667.381719 382.887656 
L 677.381719 382.887656 
L 687.381719 382.887656 
" style="fill: none; stroke: #b48ead; stroke-width: 2; stroke-linecap: square"/>
    </g>
    <g id="text_22">
     <text style="font-size: 10px; font-family: 'Courier New'; text-anchor: start" x="695.381719" y="386.387656" transform="rotate(-0 695.381719 386.387656)">NPV</text>
    </g>
   </g>
  </g>
 </g>
 <defs>
  <clipPath id="pdb993da0bd">
   <rect x="234.258906" y="58.098281" width="536.14" height="177.83"/>
  </clipPath>
  <clipPath id="p346cc57717">
   <rect x="234.258906" y="274.088281" width="536.14" height="177.83"/>
  </clipPath>
 </defs>
</svg>
