<?xml version="1.0" encoding="utf-8" standalone="no"?>
<!DOCTYPE svg PUBLIC "-//W3C//DTD SVG 1.1//EN"
  "http://www.w3.org/Graphics/SVG/1.1/DTD/svg11.dtd">
<svg xmlns:xlink="http://www.w3.org/1999/xlink" width="1044.268125pt" height="531.591562pt" viewBox="0 0 1044.268125 531.591562" xmlns="http://www.w3.org/2000/svg" version="1.1">
 <metadata>
  <rdf:RDF xmlns:dc="http://purl.org/dc/elements/1.1/" xmlns:cc="http://creativecommons.org/ns#" xmlns:rdf="http://www.w3.org/1999/02/22-rdf-syntax-ns#">
   <cc:Work>
    <dc:type rdf:resource="http://purl.org/dc/dcmitype/StillImage"/>
    <dc:date>2025-12-28T16:55:30.750500</dc:date>
    <dc:format>image/svg+xml</dc:format>
    <dc:creator>
     <cc:Agent>
      <dc:title>Matplotlib v3.10.3, https://matplotlib.org/</dc:title>
     </cc:Agent>
    </dc:creator>
   </cc:Work>
  </rdf:RDF>
 </metadata>
 <defs>
  <style type="text/css">*{stroke-linejoin: round; stroke-linecap: butt}</style>
 </defs>
 <g id="figure_1">
  <g id="patch_1">
   <path d="M 0 531.591562 
L 1044.268125 531.591562 
L 1044.268125 0 
L 0 0 
z
" style="fill: #ffffff"/>
  </g>
  <g id="axes_1">
   <g id="patch_2">
    <path d="M 246.864062 235.928281 
L 797.404063 235.928281 
L 797.404063 58.098281 
L 246.864062 58.098281 
z
" style="fill: #ffffff"/>
   </g>
   <g id="matplotlib.axis_1">
    <g id="xtick_1">
     <g id="line2d_1">
      <path d="M 271.888608 235.928281 
L 271.888608 58.098281 
" clip-path="url(#pa08780c239)" style="fill: none; stroke: #4c566a; stroke-opacity: 0.3; stroke-width: 0.8; stroke-linecap: square"/>
     </g>
     <g id="line2d_2">
      <defs>
       <path id="m869336f32e" d="M 0 0 
L 0 9 
" style="stroke: #000000; stroke-width: 2.4"/>
      </defs>
      <g>
       <use xlink:href="#m869336f32e" x="271.888608" y="235.928281" style="stroke: #000000; stroke-width: 2.4"/>
      </g>
     </g>
    </g>
    <g id="xtick_2">
     <g id="line2d_3">
      <path d="M 371.98679 235.928281 
L 371.98679 58.098281 
" clip-path="url(#pa08780c239)" style="fill: none; stroke: #4c566a; stroke-opacity: 0.3; stroke-width: 0.8; stroke-linecap: square"/>
     </g>
     <g id="line2d_4">
      <g>
       <use xlink:href="#m869336f32e" x="371.98679" y="235.928281" style="stroke: #000000; stroke-width: 2.4"/>
      </g>
     </g>
    </g>
    <g id="xtick_3">
     <g id="line2d_5">
      <path d="M 472.084972 235.928281 
L 472.084972 58.098281 
" clip-path="url(#pa08780c239)" style="fill: none; stroke: #4c566a; stroke-opacity: 0.3; stroke-width: 0.8; stroke-linecap: square"/>
     </g>
     <g id="line2d_6">
      <g>
       <use xlink:href="#m869336f32e" x="472.084972" y="235.928281" style="stroke: #000000; stroke-width: 2.4"/>
      </g>
     </g>
    </g>
    <g id="xtick_4">
     <g id="line2d_7">
      <path d="M 572.183153 235.928281 
L 572.183153 58.098281 
" clip-path="url(#pa08780c239)" style="fill: none; stroke: #4c566a; stroke-opacity: 0.3; stroke-width: 0.8; stroke-linecap: square"/>
     </g>
     <g id="line2d_8">
      <g>
       <use xlink:href="#m869336f32e" x="572.183153" y="235.928281" style="stroke: #000000; stroke-width: 2.4"/>
      </g>
     </g>
    </g>
    <g id="xtick_5">
     <g id="line2d_9">
      <path d="M 672.281335 235.928281 
L 672.281335 58.098281 
" clip-path="url(#pa08780c239)" style="fill: none; stroke: #4c566a; stroke-opacity: 0.3; stroke-width: 0.8; stroke-linecap: square"/>
     </g>
     <g id="line2d_10">
      <g>
       <use xlink:href="#m869336f32e" x="672.281335" y="235.928281" style="stroke: #000000; stroke-width: 2.4"/>
      </g>
     </g>
    </g>
    <g id="xtick_6">
     <g id="line2d_11">
      <path d="M 772.379517 235.928281 
L 772.379517 58.098281 
" clip-path="url(#pa08780c239)" style="fill: none; stroke: #4c566a; stroke-opacity: 0.3; stroke-width: 0.8; stroke-linecap: square"/>
     </g>
     <g id="line2d_12">
      <g>
       <use xlink:href="#m869336f32e" x="772.379517" y="235.928281" style="stroke: #000000; stroke-width: 2.4"/>
      </g>
     </g>
    </g>
    <g id="xtick_7">
     <g id="line2d_13">
      <defs>
       <path id="m1ff48ccbac" d="M 0 0 
L 0 6 
" style="stroke: #000000; stroke-width: 1.5"/>
      </defs>
      <g>
       <use xlink:href="#m1ff48ccbac" x="246.864062" y="235.928281" style="stroke: #000000; stroke-width: 1.5"/>
      </g>
     </g>
    </g>
    <g id="xtick_8">
     <g id="line2d_14">
      <g>
       <use xlink:href="#m1ff48ccbac" x="296.913153" y="235.928281" style="stroke: #000000; stroke-width: 1.5"/>
      </g>
     </g>
    </g>
    <g id="xtick_9">
     <g id="line2d_15">
      <g>
       <use xlink:href="#m1ff48ccbac" x="321.937699" y="235.928281" style="stroke: #000000; stroke-width: 1.5"/>
      </g>
     </g>
    </g>
    <g id="xtick_10">
     <g id="line2d_16">
      <g>
       <use xlink:href="#m1ff48ccbac" x="346.962244" y="235.928281" style="stroke: #000000; stroke-width: 1.5"/>
      </g>
     </g>
    </g>
    <g id="xtick_11">
     <g id="line2d_17">
      <g>
       <use xlink:href="#m1ff48ccbac" x="397.011335" y="235.928281" style="stroke: #000000; stroke-width: 1.5"/>
      </g>
     </g>
    </g>
    <g id="xtick_12">
     <g id="line2d_18">
      <g>
       <use xlink:href="#m1ff48ccbac" x="422.035881" y="235.928281" style="stroke: #000000; stroke-width: 1.5"/>
      </g>
     </g>
    </g>
    <g id="xtick_13">
     <g id="line2d_19">
      <g>
       <use xlink:href="#m1ff48ccbac" x="447.060426" y="235.928281" style="stroke: #000000; stroke-width: 1.5"/>
      </g>
     </g>
    </g>
    <g id="xtick_14">
     <g id="line2d_20">
      <g>
       <use xlink:href="#m1ff48ccbac" x="497.109517" y="235.928281" style="stroke: #000000; stroke-width: 1.5"/>
      </g>
     </g>
    </g>
    <g id="xtick_15">
     <g id="line2d_21">
      <g>
       <use xlink:href="#m1ff48ccbac" x="522.134062" y="235.928281" style="stroke: #000000; stroke-width: 1.5"/>
      </g>
     </g>
    </g>
    <g id="xtick_16">
     <g id="line2d_22">
      <g>
       <use xlink:href="#m1ff48ccbac" x="547.158608" y="235.928281" style="stroke: #000000; stroke-width: 1.5"/>
      </g>
     </g>
    </g>
    <g id="xtick_17">
     <g id="line2d_23">
      <g>
       <use xlink:href="#m1ff48ccbac" x="597.207699" y="235.928281" style="stroke: #000000; stroke-width: 1.5"/>
      </g>
     </g>
    </g>
    <g id="xtick_18">
     <g id="line2d_24">
      <g>
       <use xlink:href="#m1ff48ccbac" x="622.232244" y="235.928281" style="stroke: #000000; stroke-width: 1.5"/>
      </g>
     </g>
    </g>
    <g id="xtick_19">
     <g id="line2d_25">
      <g>
       <use xlink:href="#m1ff48ccbac" x="647.25679" y="235.928281" style="stroke: #000000; stroke-width: 1.5"/>
      </g>
     </g>
    </g>
    <g id="xtick_20">
     <g id="line2d_26">
      <g>
       <use xlink:href="#m1ff48ccbac" x="697.305881" y="235.928281" style="stroke: #000000; stroke-width: 1.5"/>
      </g>
     </g>
    </g>
    <g id="xtick_21">
     <g id="line2d_27">
      <g>
       <use xlink:href="#m1ff48ccbac" x="722.330426" y="235.928281" style="stroke: #000000; stroke-width: 1.5"/>
      </g>
     </g>
    </g>
    <g id="xtick_22">
     <g id="line2d_28">
      <g>
       <use xlink:href="#m1ff48ccbac" x="747.354972" y="235.928281" style="stroke: #000000; stroke-width: 1.5"/>
      </g>
     </g>
    </g>
    <g id="xtick_23">
     <g id="line2d_29">
      <g>
       <use xlink:href="#m1ff48ccbac" x="797.404063" y="235.928281" style="stroke: #000000; stroke-width: 1.5"/>
      </g>
     </g>
    </g>
   </g>
   <g id="matplotlib.axis_2">
    <g id="ytick_1">
     <g id="line2d_30">
      <path d="M 246.864062 173.572307 
L 797.404063 173.572307 
" clip-path="url(#pa08780c239)" style="fill: none; stroke: #4c566a; stroke-opacity: 0.3; stroke-width: 0.8; stroke-linecap: square"/>
     </g>
     <g id="line2d_31">
      <defs>
       <path id="m9b1d9f6400" d="M 0 0 
L -9 0 
" style="stroke: #000000; stroke-width: 2.4"/>
      </defs>
      <g>
       <use xlink:href="#m9b1d9f6400" x="246.864062" y="173.572307" style="stroke: #000000; stroke-width: 2.4"/>
      </g>
     </g>
     <g id="text_1">
      <text style="font-size: 24px; font-family: 'Courier New'; text-anchor: end" x="234.364062" y="180.926057" transform="rotate(-0 234.364062 180.926057)">0.0</text>
     </g>
    </g>
    <g id="ytick_2">
     <g id="line2d_32">
      <path d="M 246.864062 66.874307 
L 797.404063 66.874307 
" clip-path="url(#pa08780c239)" style="fill: none; stroke: #4c566a; stroke-opacity: 0.3; stroke-width: 0.8; stroke-linecap: square"/>
     </g>
     <g id="line2d_33">
      <g>
       <use xlink:href="#m9b1d9f6400" x="246.864062" y="66.874307" style="stroke: #000000; stroke-width: 2.4"/>
      </g>
     </g>
     <g id="text_2">
      <text style="font-size: 24px; font-family: 'Courier New'; text-anchor: end" x="234.364062" y="74.228057" transform="rotate(-0 234.364062 74.228057)">0.2</text>
     </g>
    </g>
    <g id="ytick_3">
     <g id="line2d_34">
      <defs>
       <path id="m0894202a15" d="M 0 0 
L -6 0 
" style="stroke: #000000; stroke-width: 1.5"/>
      </defs>
      <g>
       <use xlink:href="#m0894202a15" x="246.864062" y="226.921307" style="stroke: #000000; stroke-width: 1.5"/>
      </g>
     </g>
    </g>
    <g id="ytick_4">
     <g id="line2d_35">
      <g>
       <use xlink:href="#m0894202a15" x="246.864062" y="200.246807" style="stroke: #000000; stroke-width: 1.5"/>
      </g>
     </g>
    </g>
    <g id="ytick_5">
     <g id="line2d_36">
      <g>
       <use xlink:href="#m0894202a15" x="246.864062" y="146.897807" style="stroke: #000000; stroke-width: 1.5"/>
      </g>
     </g>
    </g>
    <g id="ytick_6">
     <g id="line2d_37">
      <g>
       <use xlink:href="#m0894202a15" x="246.864062" y="120.223307" style="stroke: #000000; stroke-width: 1.5"/>
      </g>
     </g>
    </g>
    <g id="ytick_7">
     <g id="line2d_38">
      <g>
       <use xlink:href="#m0894202a15" x="246.864062" y="93.548807" style="stroke: #000000; stroke-width: 1.5"/>
      </g>
     </g>
    </g>
    <g id="text_3">
     <text style="font-weight: 600; font-size: 27px; font-family: 'Courier New'; text-anchor: middle" x="167.508125" y="147.013281" transform="rotate(-90 167.508125 147.013281)">Youden index</text>
    </g>
   </g>
   <g id="line2d_39">
    <path d="M 271.888608 173.572307 
L 272.88959 159.715424 
L 273.890572 158.560684 
L 274.891553 160.870164 
L 275.892535 168.953346 
L 276.893517 165.489125 
L 277.894499 207.059775 
L 278.895481 189.738671 
L 279.896462 218.607177 
L 280.897444 227.845099 
L 282.899408 200.131333 
L 283.90039 179.346009 
L 284.901372 165.489125 
L 285.902353 174.727047 
L 286.903335 190.893411 
L 287.904317 196.667112 
L 289.906281 175.881788 
L 290.907262 162.024905 
L 291.908244 155.096463 
L 292.909226 171.262827 
L 293.910208 164.334385 
L 295.912172 157.405944 
L 296.913153 143.54906 
L 297.914135 152.786983 
L 298.915117 149.322762 
L 299.916099 138.930099 
L 300.917081 132.001658 
L 301.918062 128.537437 
L 302.919044 114.680554 
L 304.921008 114.680554 
L 306.922972 107.752112 
L 307.923953 93.895229 
L 308.924935 76.574125 
L 309.925917 69.645684 
L 311.927881 69.645684 
L 312.928862 66.181463 
L 313.929844 78.883606 
L 315.931808 71.955164 
L 316.93279 88.121528 
L 318.934753 113.525814 
L 319.935735 129.692177 
L 320.936717 126.227957 
L 321.937699 126.227957 
L 322.938681 122.763736 
L 323.939662 115.835294 
L 325.941626 115.835294 
L 326.942608 108.906853 
L 328.944572 108.906853 
L 329.945553 105.442632 
L 330.946535 121.608996 
L 332.948499 114.680554 
L 333.949481 127.382697 
L 334.950462 127.382697 
L 335.951444 116.990034 
L 336.952426 113.525814 
L 337.953408 129.692177 
L 338.95439 129.692177 
L 339.955372 126.227957 
L 340.956353 126.227957 
L 341.957335 122.763736 
L 347.963226 122.763736 
L 348.964208 119.299515 
L 349.96519 135.465879 
L 350.966172 132.001658 
L 352.968135 132.001658 
L 353.969117 128.537437 
L 357.973044 128.537437 
L 358.974026 121.608996 
L 362.977953 121.608996 
L 363.978935 118.144775 
L 368.983844 118.144775 
L 369.984826 114.680554 
L 370.985808 114.680554 
L 371.98679 130.846918 
L 373.988753 130.846918 
L 374.989735 127.382697 
L 386.000535 127.382697 
L 387.001517 123.918476 
L 388.002499 123.918476 
L 389.003481 120.454255 
L 394.00839 120.454255 
L 395.009372 116.990034 
L 396.010353 116.990034 
L 397.011335 110.061593 
L 399.013299 110.061593 
L 400.014281 106.597372 
L 404.018208 106.597372 
L 405.01919 103.133151 
L 406.020172 119.299515 
L 419.032935 119.299515 
L 420.033917 115.835294 
L 421.034899 132.001658 
L 431.044717 132.001658 
L 432.045699 128.537437 
L 446.059444 128.537437 
L 447.060426 121.608996 
L 456.069262 121.608996 
L 457.070244 137.775359 
L 466.079081 137.775359 
L 467.080062 153.941723 
L 470.083008 153.941723 
L 471.08399 150.477502 
L 480.092826 150.477502 
L 481.093808 147.013281 
L 484.096753 147.013281 
L 485.097735 163.179645 
L 506.118353 163.179645 
L 507.119335 159.715424 
L 508.120317 159.715424 
L 509.121299 156.251203 
L 536.147808 156.251203 
L 537.14879 152.786983 
L 547.158608 152.786983 
L 548.15959 149.322762 
L 582.192972 149.322762 
L 583.193953 145.858541 
L 590.200826 145.858541 
L 591.201808 142.39432 
L 613.223408 142.39432 
L 614.22439 158.560684 
L 633.243044 158.560684 
L 634.244026 155.096463 
L 652.261699 155.096463 
L 653.262681 171.262827 
L 690.299008 171.262827 
L 691.29999 167.798606 
L 736.344172 167.798606 
L 737.345153 183.96497 
L 741.349081 183.96497 
L 742.350062 180.500749 
L 746.35399 180.500749 
L 747.354972 177.036528 
L 771.378535 177.036528 
L 772.379517 173.572307 
L 772.379517 173.572307 
" clip-path="url(#pa08780c239)" style="fill: none; stroke: #81a1c1; stroke-width: 2; stroke-linecap: square"/>
   </g>
   <g id="line2d_40">
    <path d="M 312.928862 235.928281 
L 312.928862 58.098281 
" clip-path="url(#pa08780c239)" style="fill: none; stroke-dasharray: 5.55,2.4; stroke-dashoffset: 0; stroke: #bf616a; stroke-width: 1.5"/>
   </g>
   <g id="line2d_41">
    <path d="M 280.897444 235.928281 
L 280.897444 58.098281 
" clip-path="url(#pa08780c239)" style="fill: none; stroke-dasharray: 5.55,2.4; stroke-dashoffset: 0; stroke: #bf616a; stroke-width: 1.5"/>
   </g>
   <g id="patch_3">
    <path d="M 246.864062 235.928281 
L 246.864062 58.098281 
" style="fill: none; stroke: #4c566a; stroke-width: 1.8; stroke-linejoin: miter; stroke-linecap: square"/>
   </g>
   <g id="patch_4">
    <path d="M 797.404063 235.928281 
L 797.404063 58.098281 
" style="fill: none; stroke: #4c566a; stroke-width: 1.8; stroke-linejoin: miter; stroke-linecap: square"/>
   </g>
   <g id="patch_5">
    <path d="M 246.864062 235.928281 
L 797.404063 235.928281 
" style="fill: none; stroke: #4c566a; stroke-width: 1.8; stroke-linejoin: miter; stroke-linecap: square"/>
   </g>
   <g id="patch_6">
    <path d="M 246.864062 58.098281 
L 797.404063 58.098281 
" style="fill: none; stroke: #4c566a; stroke-width: 1.8; stroke-linejoin: miter; stroke-linecap: square"/>
   </g>
   <g id="text_4">
    <text style="font-size: 10px; font-family: 'Courier New'; fill: #bf616a" transform="translate(311.044487 162.902507) rotate(-90)">High threshold = 0.082</text>
   </g>
   <g id="text_5">
    <text style="font-size: 10px; font-family: 'Courier New'; fill: #bf616a" transform="translate(279.013069 162.902507) rotate(-90)">Low threshold = 0.018</text>
   </g>
   <g id="text_6">
    <text style="font-weight: 600; font-size: 33px; font-family: 'Courier New'; text-anchor: middle" x="522.134063" y="28.098281" transform="rotate(-0 522.134063 28.098281)">D-FRS intra-operative Youden index across thresholds</text>
   </g>
  </g>
  <g id="axes_2">
   <g id="patch_7">
    <path d="M 246.864062 451.918281 
L 797.404063 451.918281 
L 797.404063 274.088281 
L 246.864062 274.088281 
z
" style="fill: #ffffff"/>
   </g>
   <g id="matplotlib.axis_3">
    <g id="xtick_24">
     <g id="line2d_42">
      <path d="M 271.888608 451.918281 
L 271.888608 274.088281 
" clip-path="url(#pce356c2a76)" style="fill: none; stroke: #4c566a; stroke-opacity: 0.3; stroke-width: 0.8; stroke-linecap: square"/>
     </g>
     <g id="line2d_43">
      <g>
       <use xlink:href="#m869336f32e" x="271.888608" y="451.918281" style="stroke: #000000; stroke-width: 2.4"/>
      </g>
     </g>
     <g id="text_7">
      <text style="font-size: 24px; font-family: 'Courier New'; text-anchor: middle" x="271.888608" y="479.125781" transform="rotate(-0 271.888608 479.125781)">0.0</text>
     </g>
    </g>
    <g id="xtick_25">
     <g id="line2d_44">
      <path d="M 371.98679 451.918281 
L 371.98679 274.088281 
" clip-path="url(#pce356c2a76)" style="fill: none; stroke: #4c566a; stroke-opacity: 0.3; stroke-width: 0.8; stroke-linecap: square"/>
     </g>
     <g id="line2d_45">
      <g>
       <use xlink:href="#m869336f32e" x="371.98679" y="451.918281" style="stroke: #000000; stroke-width: 2.4"/>
      </g>
     </g>
     <g id="text_8">
      <text style="font-size: 24px; font-family: 'Courier New'; text-anchor: middle" x="371.98679" y="479.125781" transform="rotate(-0 371.98679 479.125781)">0.2</text>
     </g>
    </g>
    <g id="xtick_26">
     <g id="line2d_46">
      <path d="M 472.084972 451.918281 
L 472.084972 274.088281 
" clip-path="url(#pce356c2a76)" style="fill: none; stroke: #4c566a; stroke-opacity: 0.3; stroke-width: 0.8; stroke-linecap: square"/>
     </g>
     <g id="line2d_47">
      <g>
       <use xlink:href="#m869336f32e" x="472.084972" y="451.918281" style="stroke: #000000; stroke-width: 2.4"/>
      </g>
     </g>
     <g id="text_9">
      <text style="font-size: 24px; font-family: 'Courier New'; text-anchor: middle" x="472.084972" y="479.125781" transform="rotate(-0 472.084972 479.125781)">0.4</text>
     </g>
    </g>
    <g id="xtick_27">
     <g id="line2d_48">
      <path d="M 572.183153 451.918281 
L 572.183153 274.088281 
" clip-path="url(#pce356c2a76)" style="fill: none; stroke: #4c566a; stroke-opacity: 0.3; stroke-width: 0.8; stroke-linecap: square"/>
     </g>
     <g id="line2d_49">
      <g>
       <use xlink:href="#m869336f32e" x="572.183153" y="451.918281" style="stroke: #000000; stroke-width: 2.4"/>
      </g>
     </g>
     <g id="text_10">
      <text style="font-size: 24px; font-family: 'Courier New'; text-anchor: middle" x="572.183153" y="479.125781" transform="rotate(-0 572.183153 479.125781)">0.6</text>
     </g>
    </g>
    <g id="xtick_28">
     <g id="line2d_50">
      <path d="M 672.281335 451.918281 
L 672.281335 274.088281 
" clip-path="url(#pce356c2a76)" style="fill: none; stroke: #4c566a; stroke-opacity: 0.3; stroke-width: 0.8; stroke-linecap: square"/>
     </g>
     <g id="line2d_51">
      <g>
       <use xlink:href="#m869336f32e" x="672.281335" y="451.918281" style="stroke: #000000; stroke-width: 2.4"/>
      </g>
     </g>
     <g id="text_11">
      <text style="font-size: 24px; font-family: 'Courier New'; text-anchor: middle" x="672.281335" y="479.125781" transform="rotate(-0 672.281335 479.125781)">0.8</text>
     </g>
    </g>
    <g id="xtick_29">
     <g id="line2d_52">
      <path d="M 772.379517 451.918281 
L 772.379517 274.088281 
" clip-path="url(#pce356c2a76)" style="fill: none; stroke: #4c566a; stroke-opacity: 0.3; stroke-width: 0.8; stroke-linecap: square"/>
     </g>
     <g id="line2d_53">
      <g>
       <use xlink:href="#m869336f32e" x="772.379517" y="451.918281" style="stroke: #000000; stroke-width: 2.4"/>
      </g>
     </g>
     <g id="text_12">
      <text style="font-size: 24px; font-family: 'Courier New'; text-anchor: middle" x="772.379517" y="479.125781" transform="rotate(-0 772.379517 479.125781)">1.0</text>
     </g>
    </g>
    <g id="xtick_30">
     <g id="line2d_54">
      <g>
       <use xlink:href="#m1ff48ccbac" x="246.864062" y="451.918281" style="stroke: #000000; stroke-width: 1.5"/>
      </g>
     </g>
    </g>
    <g id="xtick_31">
     <g id="line2d_55">
      <g>
       <use xlink:href="#m1ff48ccbac" x="296.913153" y="451.918281" style="stroke: #000000; stroke-width: 1.5"/>
      </g>
     </g>
    </g>
    <g id="xtick_32">
     <g id="line2d_56">
      <g>
       <use xlink:href="#m1ff48ccbac" x="321.937699" y="451.918281" style="stroke: #000000; stroke-width: 1.5"/>
      </g>
     </g>
    </g>
    <g id="xtick_33">
     <g id="line2d_57">
      <g>
       <use xlink:href="#m1ff48ccbac" x="346.962244" y="451.918281" style="stroke: #000000; stroke-width: 1.5"/>
      </g>
     </g>
    </g>
    <g id="xtick_34">
     <g id="line2d_58">
      <g>
       <use xlink:href="#m1ff48ccbac" x="397.011335" y="451.918281" style="stroke: #000000; stroke-width: 1.5"/>
      </g>
     </g>
    </g>
    <g id="xtick_35">
     <g id="line2d_59">
      <g>
       <use xlink:href="#m1ff48ccbac" x="422.035881" y="451.918281" style="stroke: #000000; stroke-width: 1.5"/>
      </g>
     </g>
    </g>
    <g id="xtick_36">
     <g id="line2d_60">
      <g>
       <use xlink:href="#m1ff48ccbac" x="447.060426" y="451.918281" style="stroke: #000000; stroke-width: 1.5"/>
      </g>
     </g>
    </g>
    <g id="xtick_37">
     <g id="line2d_61">
      <g>
       <use xlink:href="#m1ff48ccbac" x="497.109517" y="451.918281" style="stroke: #000000; stroke-width: 1.5"/>
      </g>
     </g>
    </g>
    <g id="xtick_38">
     <g id="line2d_62">
      <g>
       <use xlink:href="#m1ff48ccbac" x="522.134062" y="451.918281" style="stroke: #000000; stroke-width: 1.5"/>
      </g>
     </g>
    </g>
    <g id="xtick_39">
     <g id="line2d_63">
      <g>
       <use xlink:href="#m1ff48ccbac" x="547.158608" y="451.918281" style="stroke: #000000; stroke-width: 1.5"/>
      </g>
     </g>
    </g>
    <g id="xtick_40">
     <g id="line2d_64">
      <g>
       <use xlink:href="#m1ff48ccbac" x="597.207699" y="451.918281" style="stroke: #000000; stroke-width: 1.5"/>
      </g>
     </g>
    </g>
    <g id="xtick_41">
     <g id="line2d_65">
      <g>
       <use xlink:href="#m1ff48ccbac" x="622.232244" y="451.918281" style="stroke: #000000; stroke-width: 1.5"/>
      </g>
     </g>
    </g>
    <g id="xtick_42">
     <g id="line2d_66">
      <g>
       <use xlink:href="#m1ff48ccbac" x="647.25679" y="451.918281" style="stroke: #000000; stroke-width: 1.5"/>
      </g>
     </g>
    </g>
    <g id="xtick_43">
     <g id="line2d_67">
      <g>
       <use xlink:href="#m1ff48ccbac" x="697.305881" y="451.918281" style="stroke: #000000; stroke-width: 1.5"/>
      </g>
     </g>
    </g>
    <g id="xtick_44">
     <g id="line2d_68">
      <g>
       <use xlink:href="#m1ff48ccbac" x="722.330426" y="451.918281" style="stroke: #000000; stroke-width: 1.5"/>
      </g>
     </g>
    </g>
    <g id="xtick_45">
     <g id="line2d_69">
      <g>
       <use xlink:href="#m1ff48ccbac" x="747.354972" y="451.918281" style="stroke: #000000; stroke-width: 1.5"/>
      </g>
     </g>
    </g>
    <g id="xtick_46">
     <g id="line2d_70">
      <g>
       <use xlink:href="#m1ff48ccbac" x="797.404063" y="451.918281" style="stroke: #000000; stroke-width: 1.5"/>
      </g>
     </g>
    </g>
    <g id="text_13">
     <text style="font-weight: 600; font-size: 27px; font-family: 'Courier New'; text-anchor: middle" x="522.134063" y="518.746875" transform="rotate(-0 522.134063 518.746875)">Threshold</text>
    </g>
   </g>
   <g id="matplotlib.axis_4">
    <g id="ytick_8">
     <g id="line2d_71">
      <path d="M 246.864062 443.835099 
L 797.404063 443.835099 
" clip-path="url(#pce356c2a76)" style="fill: none; stroke: #4c566a; stroke-opacity: 0.3; stroke-width: 0.8; stroke-linecap: square"/>
     </g>
     <g id="line2d_72">
      <g>
       <use xlink:href="#m9b1d9f6400" x="246.864062" y="443.835099" style="stroke: #000000; stroke-width: 2.4"/>
      </g>
     </g>
     <g id="text_14">
      <text style="font-size: 24px; font-family: 'Courier New'; text-anchor: end" x="234.364062" y="451.188849" transform="rotate(-0 234.364062 451.188849)">0.0</text>
     </g>
    </g>
    <g id="ytick_9">
     <g id="line2d_73">
      <path d="M 246.864062 363.003281 
L 797.404063 363.003281 
" clip-path="url(#pce356c2a76)" style="fill: none; stroke: #4c566a; stroke-opacity: 0.3; stroke-width: 0.8; stroke-linecap: square"/>
     </g>
     <g id="line2d_74">
      <g>
       <use xlink:href="#m9b1d9f6400" x="246.864062" y="363.003281" style="stroke: #000000; stroke-width: 2.4"/>
      </g>
     </g>
     <g id="text_15">
      <text style="font-size: 24px; font-family: 'Courier New'; text-anchor: end" x="234.364062" y="370.357031" transform="rotate(-0 234.364062 370.357031)">0.5</text>
     </g>
    </g>
    <g id="ytick_10">
     <g id="line2d_75">
      <path d="M 246.864062 282.171463 
L 797.404063 282.171463 
" clip-path="url(#pce356c2a76)" style="fill: none; stroke: #4c566a; stroke-opacity: 0.3; stroke-width: 0.8; stroke-linecap: square"/>
     </g>
     <g id="line2d_76">
      <g>
       <use xlink:href="#m9b1d9f6400" x="246.864062" y="282.171463" style="stroke: #000000; stroke-width: 2.4"/>
      </g>
     </g>
     <g id="text_16">
      <text style="font-size: 24px; font-family: 'Courier New'; text-anchor: end" x="234.364062" y="289.525213" transform="rotate(-0 234.364062 289.525213)">1.0</text>
     </g>
    </g>
    <g id="ytick_11">
     <g id="line2d_77">
      <g>
       <use xlink:href="#m0894202a15" x="246.864062" y="427.668736" style="stroke: #000000; stroke-width: 1.5"/>
      </g>
     </g>
    </g>
    <g id="ytick_12">
     <g id="line2d_78">
      <g>
       <use xlink:href="#m0894202a15" x="246.864062" y="411.502372" style="stroke: #000000; stroke-width: 1.5"/>
      </g>
     </g>
    </g>
    <g id="ytick_13">
     <g id="line2d_79">
      <g>
       <use xlink:href="#m0894202a15" x="246.864062" y="395.336009" style="stroke: #000000; stroke-width: 1.5"/>
      </g>
     </g>
    </g>
    <g id="ytick_14">
     <g id="line2d_80">
      <g>
       <use xlink:href="#m0894202a15" x="246.864062" y="379.169645" style="stroke: #000000; stroke-width: 1.5"/>
      </g>
     </g>
    </g>
    <g id="ytick_15">
     <g id="line2d_81">
      <g>
       <use xlink:href="#m0894202a15" x="246.864062" y="346.836918" style="stroke: #000000; stroke-width: 1.5"/>
      </g>
     </g>
    </g>
    <g id="ytick_16">
     <g id="line2d_82">
      <g>
       <use xlink:href="#m0894202a15" x="246.864062" y="330.670554" style="stroke: #000000; stroke-width: 1.5"/>
      </g>
     </g>
    </g>
    <g id="ytick_17">
     <g id="line2d_83">
      <g>
       <use xlink:href="#m0894202a15" x="246.864062" y="314.50419" style="stroke: #000000; stroke-width: 1.5"/>
      </g>
     </g>
    </g>
    <g id="ytick_18">
     <g id="line2d_84">
      <g>
       <use xlink:href="#m0894202a15" x="246.864062" y="298.337827" style="stroke: #000000; stroke-width: 1.5"/>
      </g>
     </g>
    </g>
    <g id="text_17">
     <text style="font-weight: 600; font-size: 27px; font-family: 'Courier New'; text-anchor: middle" x="167.508125" y="363.003281" transform="rotate(-90 167.508125 363.003281)">Value</text>
    </g>
   </g>
   <g id="line2d_85">
    <path d="M 271.888608 282.171463 
L 272.88959 282.171463 
L 274.891553 291.969259 
L 275.892535 301.767055 
L 276.893517 301.767055 
L 277.894499 316.46375 
L 278.895481 316.46375 
L 279.896462 326.261546 
L 280.897444 331.160444 
L 284.901372 331.160444 
L 287.904317 345.857138 
L 291.908244 345.857138 
L 292.909226 350.756036 
L 296.913153 350.756036 
L 297.914135 355.654934 
L 312.928862 355.654934 
L 313.929844 360.553832 
L 315.931808 360.553832 
L 319.935735 380.149425 
L 329.945553 380.149425 
L 330.946535 385.048323 
L 332.948499 385.048323 
L 333.949481 389.947221 
L 336.952426 389.947221 
L 337.953408 394.846119 
L 348.964208 394.846119 
L 349.96519 399.745017 
L 370.985808 399.745017 
L 371.98679 404.643915 
L 405.01919 404.643915 
L 406.020172 409.542813 
L 420.033917 409.542813 
L 421.034899 414.441711 
L 456.069262 414.441711 
L 457.070244 419.340609 
L 466.079081 419.340609 
L 467.080062 424.239507 
L 484.096753 424.239507 
L 485.097735 429.138405 
L 613.223408 429.138405 
L 614.22439 434.037303 
L 652.261699 434.037303 
L 653.262681 438.936201 
L 736.344172 438.936201 
L 737.345153 443.835099 
L 772.379517 443.835099 
L 772.379517 443.835099 
" clip-path="url(#pce356c2a76)" style="fill: none; stroke: #bf616a; stroke-width: 2; stroke-linecap: square"/>
   </g>
   <g id="line2d_86">
    <path d="M 271.888608 443.835099 
L 272.88959 439.636044 
L 273.890572 434.387225 
L 274.891553 430.188169 
L 275.892535 422.839822 
L 276.893517 421.790058 
L 277.894499 419.69053 
L 278.895481 414.441711 
L 279.896462 413.391947 
L 280.897444 411.292419 
L 282.899408 402.894308 
L 283.90039 396.595725 
L 284.901372 392.39667 
L 285.902353 390.297142 
L 286.903335 390.297142 
L 289.906281 380.849267 
L 290.907262 376.650212 
L 291.908244 374.550684 
L 292.909226 374.550684 
L 293.910208 372.451156 
L 295.912172 370.351628 
L 296.913153 366.152573 
L 297.914135 364.053045 
L 298.915117 363.003281 
L 299.916099 359.85399 
L 300.917081 357.754462 
L 301.918062 356.704698 
L 302.919044 352.505643 
L 304.921008 352.505643 
L 306.922972 350.406115 
L 307.923953 346.207059 
L 308.924935 340.95824 
L 309.925917 338.858712 
L 311.927881 338.858712 
L 315.931808 334.659657 
L 316.93279 334.659657 
L 318.934753 332.560129 
L 319.935735 332.560129 
L 320.936717 331.510365 
L 321.937699 331.510365 
L 322.938681 330.460601 
L 323.939662 328.361073 
L 325.941626 328.361073 
L 326.942608 326.261546 
L 328.944572 326.261546 
L 329.945553 325.211782 
L 330.946535 325.211782 
L 333.949481 322.06249 
L 334.950462 322.06249 
L 335.951444 318.913199 
L 336.952426 317.863435 
L 338.95439 317.863435 
L 339.955372 316.813671 
L 340.956353 316.813671 
L 341.957335 315.763907 
L 347.963226 315.763907 
L 348.964208 314.714143 
L 349.96519 314.714143 
L 350.966172 313.664379 
L 352.968135 313.664379 
L 353.969117 312.614615 
L 357.973044 312.614615 
L 358.974026 310.515088 
L 362.977953 310.515088 
L 363.978935 309.465324 
L 368.983844 309.465324 
L 369.984826 308.41556 
L 373.988753 308.41556 
L 374.989735 307.365796 
L 386.000535 307.365796 
L 387.001517 306.316032 
L 388.002499 306.316032 
L 389.003481 305.266268 
L 394.00839 305.266268 
L 395.009372 304.216504 
L 396.010353 304.216504 
L 397.011335 302.116977 
L 399.013299 302.116977 
L 400.014281 301.067213 
L 404.018208 301.067213 
L 405.01919 300.017449 
L 419.032935 300.017449 
L 420.033917 298.967685 
L 431.044717 298.967685 
L 432.045699 297.917921 
L 446.059444 297.917921 
L 447.060426 295.818393 
L 470.083008 295.818393 
L 471.08399 294.76863 
L 480.092826 294.76863 
L 481.093808 293.718866 
L 506.118353 293.718866 
L 507.119335 292.669102 
L 508.120317 292.669102 
L 509.121299 291.619338 
L 536.147808 291.619338 
L 537.14879 290.569574 
L 547.158608 290.569574 
L 548.15959 289.51981 
L 582.192972 289.51981 
L 583.193953 288.470046 
L 590.200826 288.470046 
L 591.201808 287.420282 
L 633.243044 287.420282 
L 634.244026 286.370519 
L 690.299008 286.370519 
L 691.29999 285.320755 
L 741.349081 285.320755 
L 742.350062 284.270991 
L 746.35399 284.270991 
L 747.354972 283.221227 
L 771.378535 283.221227 
L 772.379517 282.171463 
L 772.379517 282.171463 
" clip-path="url(#pce356c2a76)" style="fill: none; stroke: #5e81ac; stroke-width: 2; stroke-linecap: square"/>
   </g>
   <g id="line2d_87">
    <path d="M 271.888608 415.306222 
L 272.88959 414.68264 
L 273.890572 414.607775 
L 274.891553 414.698049 
L 275.892535 415.072857 
L 276.893517 414.895313 
L 277.894499 417.062777 
L 278.895481 416.182109 
L 279.896462 417.795319 
L 280.897444 418.36754 
L 282.899408 416.89116 
L 283.90039 415.666436 
L 284.901372 414.786165 
L 285.902353 415.382299 
L 286.903335 416.45658 
L 287.904317 416.89116 
L 289.906281 415.473058 
L 290.907262 414.441711 
L 291.908244 413.897389 
L 292.909226 415.128472 
L 293.910208 414.58168 
L 295.912172 414.013652 
L 296.913153 412.808745 
L 297.914135 413.523168 
L 298.915117 413.204095 
L 299.916099 412.205258 
L 300.917081 411.502372 
L 301.918062 411.139083 
L 302.919044 409.600447 
L 304.921008 409.600447 
L 306.922972 408.775516 
L 307.923953 407.000347 
L 308.924935 404.511512 
L 309.925917 403.41919 
L 311.927881 403.41919 
L 312.928862 402.849952 
L 313.929844 404.004928 
L 315.931808 402.815968 
L 316.93279 404.643915 
L 318.934753 407.330407 
L 319.935735 409.382193 
L 320.936717 408.807978 
L 321.937699 408.807978 
L 322.938681 408.214298 
L 323.939662 406.964446 
L 325.941626 406.964446 
L 326.942608 405.623694 
L 328.944572 405.623694 
L 329.945553 404.916076 
L 330.946535 407.232012 
L 332.948499 405.796597 
L 333.949481 407.543263 
L 334.950462 407.543263 
L 335.951444 405.176404 
L 336.952426 404.317322 
L 337.953408 407.093364 
L 338.95439 407.093364 
L 339.955372 406.238905 
L 340.956353 406.238905 
L 341.957335 405.343757 
L 347.963226 405.343757 
L 348.964208 404.404944 
L 349.96519 407.460781 
L 350.966172 406.528106 
L 352.968135 406.528106 
L 353.969117 405.546343 
L 357.973044 405.546343 
L 358.974026 403.41919 
L 362.977953 403.41919 
L 363.978935 402.26445 
L 368.983844 402.26445 
L 369.984826 401.041784 
L 370.985808 401.041784 
L 371.98679 404.643915 
L 373.988753 404.643915 
L 374.989735 403.41919 
L 386.000535 403.41919 
L 387.001517 402.115451 
L 388.002499 402.115451 
L 389.003481 400.724796 
L 394.00839 400.724796 
L 395.009372 399.238234 
L 396.010353 399.238234 
L 397.011335 395.934763 
L 399.013299 395.934763 
L 400.014281 394.092442 
L 404.018208 394.092442 
L 405.01919 392.102736 
L 406.020172 396.683205 
L 419.032935 396.683205 
L 420.033917 394.633123 
L 421.034899 399.745017 
L 431.044717 399.745017 
L 432.045699 397.645489 
L 446.059444 397.645489 
L 447.060426 392.783425 
L 456.069262 392.783425 
L 457.070244 398.928534 
L 466.079081 398.928534 
L 467.080062 405.796597 
L 470.083008 405.796597 
L 471.08399 403.41919 
L 480.092826 403.41919 
L 481.093808 400.724796 
L 484.096753 400.724796 
L 485.097735 409.192892 
L 506.118353 409.192892 
L 507.119335 406.528106 
L 508.120317 406.528106 
L 509.121299 403.41919 
L 536.147808 403.41919 
L 537.14879 399.745017 
L 547.158608 399.745017 
L 548.15959 395.336009 
L 582.192972 395.336009 
L 583.193953 389.947221 
L 590.200826 389.947221 
L 591.201808 383.211236 
L 613.223408 383.211236 
L 614.22439 397.645489 
L 633.243044 397.645489 
L 634.244026 389.947221 
L 652.261699 389.947221 
L 653.262681 411.502372 
L 690.299008 411.502372 
L 691.29999 403.41919 
L 736.344172 403.41919 
L 737.345153 443.835099 
L 771.378535 443.835099 
L 771.378535 443.835099 
" clip-path="url(#pce356c2a76)" style="fill: none; stroke: #a3be8c; stroke-width: 2; stroke-linecap: square"/>
   </g>
   <g id="line2d_88">
    <path d="M 272.88959 282.171463 
L 273.890572 298.337827 
L 275.892535 309.115402 
L 276.893517 308.037645 
L 277.894499 319.892978 
L 278.895481 314.50419 
L 279.896462 320.460219 
L 280.897444 321.601618 
L 281.898426 318.096716 
L 282.899408 315.164042 
L 283.90039 311.564851 
L 284.901372 309.572079 
L 285.902353 310.853721 
L 286.903335 312.964537 
L 287.904317 313.539034 
L 290.907262 309.465324 
L 291.908244 308.77434 
L 292.909226 310.462599 
L 293.910208 309.772572 
L 295.912172 309.115402 
L 296.913153 307.890678 
L 297.914135 308.819315 
L 298.915117 308.529665 
L 299.916099 307.6973 
L 300.917081 307.170994 
L 301.918062 306.915897 
L 302.919044 305.945527 
L 304.921008 305.945527 
L 306.922972 305.488334 
L 308.924935 303.631238 
L 309.925917 303.258024 
L 311.927881 303.258024 
L 312.928862 303.076244 
L 313.929844 304.091956 
L 315.931808 303.726615 
L 316.93279 304.884536 
L 319.935735 307.832358 
L 320.936717 307.630303 
L 321.937699 307.630303 
L 322.938681 307.431406 
L 323.939662 307.042792 
L 325.941626 307.042792 
L 326.942608 306.665953 
L 328.944572 306.665953 
L 329.945553 306.481784 
L 330.946535 307.506809 
L 332.948499 307.13423 
L 333.949481 307.943927 
L 334.950462 307.943927 
L 335.951444 307.395577 
L 336.952426 307.217942 
L 337.953408 308.173307 
L 338.95439 308.173307 
L 339.955372 307.992738 
L 340.956353 307.992738 
L 341.957335 307.814661 
L 347.963226 307.814661 
L 348.964208 307.639022 
L 349.96519 308.565526 
L 350.966172 308.387188 
L 352.968135 308.387188 
L 353.969117 308.211243 
L 357.973044 308.211243 
L 358.974026 307.866346 
L 362.977953 307.866346 
L 363.978935 307.6973 
L 368.983844 307.6973 
L 369.984826 307.530465 
L 370.985808 307.530465 
L 371.98679 308.41556 
L 373.988753 308.41556 
L 374.989735 308.246243 
L 386.000535 308.246243 
L 387.001517 308.079097 
L 388.002499 308.079097 
L 389.003481 307.91408 
L 394.00839 307.91408 
L 395.009372 307.751152 
L 396.010353 307.751152 
L 397.011335 307.431406 
L 399.013299 307.431406 
L 400.014281 307.274512 
L 404.018208 307.274512 
L 405.01919 307.119555 
L 406.020172 307.958301 
L 419.032935 307.958301 
L 420.033917 307.801064 
L 421.034899 308.625513 
L 431.044717 308.625513 
L 432.045699 308.466151 
L 446.059444 308.466151 
L 447.060426 308.153119 
L 456.069262 308.153119 
L 457.070244 308.955971 
L 466.079081 308.955971 
L 467.080062 309.749378 
L 470.083008 309.749378 
L 471.08399 309.588103 
L 480.092826 309.588103 
L 481.093808 309.428704 
L 484.096753 309.428704 
L 485.097735 310.20562 
L 506.118353 310.20562 
L 507.119335 310.044504 
L 508.120317 310.044504 
L 509.121299 309.885229 
L 536.147808 309.885229 
L 537.14879 309.727765 
L 547.158608 309.727765 
L 548.15959 309.572079 
L 582.192972 309.572079 
L 583.193953 309.418143 
L 590.200826 309.418143 
L 591.201808 309.265927 
L 613.223408 309.265927 
L 614.22439 310.013534 
L 633.243044 310.013534 
L 634.244026 309.85971 
L 652.261699 309.85971 
L 653.262681 310.595839 
L 690.299008 310.595839 
L 691.29999 310.440514 
L 736.344172 310.440514 
L 737.345153 311.165485 
L 741.349081 311.165485 
L 742.350062 311.00876 
L 746.35399 311.00876 
L 747.354972 310.853721 
L 771.378535 310.853721 
L 772.379517 310.70034 
L 772.379517 310.70034 
" clip-path="url(#pce356c2a76)" style="fill: none; stroke: #b48ead; stroke-width: 2; stroke-linecap: square"/>
   </g>
   <g id="line2d_89">
    <path d="M 280.897444 451.918281 
L 280.897444 274.088281 
" clip-path="url(#pce356c2a76)" style="fill: none; stroke-dasharray: 3.7,1.6; stroke-dashoffset: 0; stroke: #4c566a"/>
   </g>
   <g id="line2d_90">
    <path d="M 312.928862 451.918281 
L 312.928862 274.088281 
" clip-path="url(#pce356c2a76)" style="fill: none; stroke-dasharray: 3.7,1.6; stroke-dashoffset: 0; stroke: #4c566a"/>
   </g>
   <g id="patch_8">
    <path d="M 246.864062 451.918281 
L 246.864062 274.088281 
" style="fill: none; stroke: #4c566a; stroke-width: 1.8; stroke-linejoin: miter; stroke-linecap: square"/>
   </g>
   <g id="patch_9">
    <path d="M 797.404063 451.918281 
L 797.404063 274.088281 
" style="fill: none; stroke: #4c566a; stroke-width: 1.8; stroke-linejoin: miter; stroke-linecap: square"/>
   </g>
   <g id="patch_10">
    <path d="M 246.864062 451.918281 
L 797.404063 451.918281 
" style="fill: none; stroke: #4c566a; stroke-width: 1.8; stroke-linejoin: miter; stroke-linecap: square"/>
   </g>
   <g id="patch_11">
    <path d="M 246.864062 274.088281 
L 797.404063 274.088281 
" style="fill: none; stroke: #4c566a; stroke-width: 1.8; stroke-linejoin: miter; stroke-linecap: square"/>
   </g>
   <g id="legend_1">
    <g id="line2d_91">
     <path d="M 694.386875 341.234531 
L 704.386875 341.234531 
L 714.386875 341.234531 
" style="fill: none; stroke: #bf616a; stroke-width: 2; stroke-linecap: square"/>
    </g>
    <g id="text_18">
     <text style="font-size: 10px; font-family: 'Courier New'; text-anchor: start" x="722.386875" y="344.734531" transform="rotate(-0 722.386875 344.734531)">Sensitivity</text>
    </g>
    <g id="line2d_92">
     <path d="M 694.386875 355.118906 
L 704.386875 355.118906 
L 714.386875 355.118906 
" style="fill: none; stroke: #5e81ac; stroke-width: 2; stroke-linecap: square"/>
    </g>
    <g id="text_19">
     <text style="font-size: 10px; font-family: 'Courier New'; text-anchor: start" x="722.386875" y="358.618906" transform="rotate(-0 722.386875 358.618906)">Specificity</text>
    </g>
    <g id="line2d_93">
     <path d="M 694.386875 369.003281 
L 704.386875 369.003281 
L 714.386875 369.003281 
" style="fill: none; stroke: #a3be8c; stroke-width: 2; stroke-linecap: square"/>
    </g>
    <g id="text_20">
     <text style="font-size: 10px; font-family: 'Courier New'; text-anchor: start" x="722.386875" y="372.503281" transform="rotate(-0 722.386875 372.503281)">PPV</text>
    </g>
    <g id="line2d_94">
     <path d="M 694.386875 382.887656 
L 704.386875 382.887656 
L 714.386875 382.887656 
" style="fill: none; stroke: #b48ead; stroke-width: 2; stroke-linecap: square"/>
    </g>
    <g id="text_21">
     <text style="font-size: 10px; font-family: 'Courier New'; text-anchor: start" x="722.386875" y="386.387656" transform="rotate(-0 722.386875 386.387656)">NPV</text>
    </g>
   </g>
  </g>
 </g>
 <defs>
  <clipPath id="pa08780c239">
   <rect x="246.864062" y="58.098281" width="550.54" height="177.83"/>
  </clipPath>
  <clipPath id="pce356c2a76">
   <rect x="246.864062" y="274.088281" width="550.54" height="177.83"/>
  </clipPath>
 </defs>
</svg>
