<?xml version="1.0" encoding="utf-8" standalone="no"?>
<!DOCTYPE svg PUBLIC "-//W3C//DTD SVG 1.1//EN"
  "http://www.w3.org/Graphics/SVG/1.1/DTD/svg11.dtd">
<svg xmlns:xlink="http://www.w3.org/1999/xlink" width="846.216563pt" height="537.206043pt" viewBox="0 0 846.216563 537.206043" xmlns="http://www.w3.org/2000/svg" version="1.1">
 <metadata>
  <rdf:RDF xmlns:dc="http://purl.org/dc/elements/1.1/" xmlns:cc="http://creativecommons.org/ns#" xmlns:rdf="http://www.w3.org/1999/02/22-rdf-syntax-ns#">
   <cc:Work>
    <dc:type rdf:resource="http://purl.org/dc/dcmitype/StillImage"/>
    <dc:date>2025-12-28T16:55:32.627882</dc:date>
    <dc:format>image/svg+xml</dc:format>
    <dc:creator>
     <cc:Agent>
      <dc:title>Matplotlib v3.10.3, https://matplotlib.org/</dc:title>
     </cc:Agent>
    </dc:creator>
   </cc:Work>
  </rdf:RDF>
 </metadata>
 <defs>
  <style type="text/css">*{stroke-linejoin: round; stroke-linecap: butt}</style>
 </defs>
 <g id="figure_1">
  <g id="patch_1">
   <path d="M 0 537.206043 
L 846.216563 537.206043 
L 846.216563 0 
L 0 0 
z
" style="fill: #ffffff"/>
  </g>
  <g id="axes_1">
   <g id="patch_2">
    <path d="M 147.838281 270.459174 
L 698.378281 270.459174 
L 698.378281 121.545586 
L 147.838281 121.545586 
z
" style="fill: #ffffff"/>
   </g>
   <g id="matplotlib.axis_1">
    <g id="xtick_1">
     <g id="line2d_1">
      <path d="M 172.862827 270.459174 
L 172.862827 121.545586 
" clip-path="url(#p84e9f04b46)" style="fill: none; stroke: #4c566a; stroke-opacity: 0.3; stroke-width: 0.8; stroke-linecap: square"/>
     </g>
     <g id="line2d_2">
      <defs>
       <path id="ma65560592c" d="M 0 0 
L 0 9 
" style="stroke: #000000; stroke-width: 2.4"/>
      </defs>
      <g>
       <use xlink:href="#ma65560592c" x="172.862827" y="270.459174" style="stroke: #000000; stroke-width: 2.4"/>
      </g>
     </g>
    </g>
    <g id="xtick_2">
     <g id="line2d_3">
      <path d="M 272.961009 270.459174 
L 272.961009 121.545586 
" clip-path="url(#p84e9f04b46)" style="fill: none; stroke: #4c566a; stroke-opacity: 0.3; stroke-width: 0.8; stroke-linecap: square"/>
     </g>
     <g id="line2d_4">
      <g>
       <use xlink:href="#ma65560592c" x="272.961009" y="270.459174" style="stroke: #000000; stroke-width: 2.4"/>
      </g>
     </g>
    </g>
    <g id="xtick_3">
     <g id="line2d_5">
      <path d="M 373.05919 270.459174 
L 373.05919 121.545586 
" clip-path="url(#p84e9f04b46)" style="fill: none; stroke: #4c566a; stroke-opacity: 0.3; stroke-width: 0.8; stroke-linecap: square"/>
     </g>
     <g id="line2d_6">
      <g>
       <use xlink:href="#ma65560592c" x="373.05919" y="270.459174" style="stroke: #000000; stroke-width: 2.4"/>
      </g>
     </g>
    </g>
    <g id="xtick_4">
     <g id="line2d_7">
      <path d="M 473.157372 270.459174 
L 473.157372 121.545586 
" clip-path="url(#p84e9f04b46)" style="fill: none; stroke: #4c566a; stroke-opacity: 0.3; stroke-width: 0.8; stroke-linecap: square"/>
     </g>
     <g id="line2d_8">
      <g>
       <use xlink:href="#ma65560592c" x="473.157372" y="270.459174" style="stroke: #000000; stroke-width: 2.4"/>
      </g>
     </g>
    </g>
    <g id="xtick_5">
     <g id="line2d_9">
      <path d="M 573.255554 270.459174 
L 573.255554 121.545586 
" clip-path="url(#p84e9f04b46)" style="fill: none; stroke: #4c566a; stroke-opacity: 0.3; stroke-width: 0.8; stroke-linecap: square"/>
     </g>
     <g id="line2d_10">
      <g>
       <use xlink:href="#ma65560592c" x="573.255554" y="270.459174" style="stroke: #000000; stroke-width: 2.4"/>
      </g>
     </g>
    </g>
    <g id="xtick_6">
     <g id="line2d_11">
      <path d="M 673.353736 270.459174 
L 673.353736 121.545586 
" clip-path="url(#p84e9f04b46)" style="fill: none; stroke: #4c566a; stroke-opacity: 0.3; stroke-width: 0.8; stroke-linecap: square"/>
     </g>
     <g id="line2d_12">
      <g>
       <use xlink:href="#ma65560592c" x="673.353736" y="270.459174" style="stroke: #000000; stroke-width: 2.4"/>
      </g>
     </g>
    </g>
    <g id="xtick_7">
     <g id="line2d_13">
      <defs>
       <path id="m5d110f854f" d="M 0 0 
L 0 6 
" style="stroke: #000000; stroke-width: 1.5"/>
      </defs>
      <g>
       <use xlink:href="#m5d110f854f" x="147.838281" y="270.459174" style="stroke: #000000; stroke-width: 1.5"/>
      </g>
     </g>
    </g>
    <g id="xtick_8">
     <g id="line2d_14">
      <g>
       <use xlink:href="#m5d110f854f" x="197.887372" y="270.459174" style="stroke: #000000; stroke-width: 1.5"/>
      </g>
     </g>
    </g>
    <g id="xtick_9">
     <g id="line2d_15">
      <g>
       <use xlink:href="#m5d110f854f" x="222.911918" y="270.459174" style="stroke: #000000; stroke-width: 1.5"/>
      </g>
     </g>
    </g>
    <g id="xtick_10">
     <g id="line2d_16">
      <g>
       <use xlink:href="#m5d110f854f" x="247.936463" y="270.459174" style="stroke: #000000; stroke-width: 1.5"/>
      </g>
     </g>
    </g>
    <g id="xtick_11">
     <g id="line2d_17">
      <g>
       <use xlink:href="#m5d110f854f" x="297.985554" y="270.459174" style="stroke: #000000; stroke-width: 1.5"/>
      </g>
     </g>
    </g>
    <g id="xtick_12">
     <g id="line2d_18">
      <g>
       <use xlink:href="#m5d110f854f" x="323.010099" y="270.459174" style="stroke: #000000; stroke-width: 1.5"/>
      </g>
     </g>
    </g>
    <g id="xtick_13">
     <g id="line2d_19">
      <g>
       <use xlink:href="#m5d110f854f" x="348.034645" y="270.459174" style="stroke: #000000; stroke-width: 1.5"/>
      </g>
     </g>
    </g>
    <g id="xtick_14">
     <g id="line2d_20">
      <g>
       <use xlink:href="#m5d110f854f" x="398.083736" y="270.459174" style="stroke: #000000; stroke-width: 1.5"/>
      </g>
     </g>
    </g>
    <g id="xtick_15">
     <g id="line2d_21">
      <g>
       <use xlink:href="#m5d110f854f" x="423.108281" y="270.459174" style="stroke: #000000; stroke-width: 1.5"/>
      </g>
     </g>
    </g>
    <g id="xtick_16">
     <g id="line2d_22">
      <g>
       <use xlink:href="#m5d110f854f" x="448.132827" y="270.459174" style="stroke: #000000; stroke-width: 1.5"/>
      </g>
     </g>
    </g>
    <g id="xtick_17">
     <g id="line2d_23">
      <g>
       <use xlink:href="#m5d110f854f" x="498.181918" y="270.459174" style="stroke: #000000; stroke-width: 1.5"/>
      </g>
     </g>
    </g>
    <g id="xtick_18">
     <g id="line2d_24">
      <g>
       <use xlink:href="#m5d110f854f" x="523.206463" y="270.459174" style="stroke: #000000; stroke-width: 1.5"/>
      </g>
     </g>
    </g>
    <g id="xtick_19">
     <g id="line2d_25">
      <g>
       <use xlink:href="#m5d110f854f" x="548.231009" y="270.459174" style="stroke: #000000; stroke-width: 1.5"/>
      </g>
     </g>
    </g>
    <g id="xtick_20">
     <g id="line2d_26">
      <g>
       <use xlink:href="#m5d110f854f" x="598.280099" y="270.459174" style="stroke: #000000; stroke-width: 1.5"/>
      </g>
     </g>
    </g>
    <g id="xtick_21">
     <g id="line2d_27">
      <g>
       <use xlink:href="#m5d110f854f" x="623.304645" y="270.459174" style="stroke: #000000; stroke-width: 1.5"/>
      </g>
     </g>
    </g>
    <g id="xtick_22">
     <g id="line2d_28">
      <g>
       <use xlink:href="#m5d110f854f" x="648.32919" y="270.459174" style="stroke: #000000; stroke-width: 1.5"/>
      </g>
     </g>
    </g>
    <g id="xtick_23">
     <g id="line2d_29">
      <g>
       <use xlink:href="#m5d110f854f" x="698.378281" y="270.459174" style="stroke: #000000; stroke-width: 1.5"/>
      </g>
     </g>
    </g>
   </g>
   <g id="matplotlib.axis_2">
    <g id="ytick_1">
     <g id="line2d_30">
      <path d="M 147.838281 260.747863 
L 698.378281 260.747863 
" clip-path="url(#p84e9f04b46)" style="fill: none; stroke: #4c566a; stroke-opacity: 0.3; stroke-width: 0.8; stroke-linecap: square"/>
     </g>
     <g id="line2d_31">
      <defs>
       <path id="m1273217eec" d="M 0 0 
L -9 0 
" style="stroke: #000000; stroke-width: 2.4"/>
      </defs>
      <g>
       <use xlink:href="#m1273217eec" x="147.838281" y="260.747863" style="stroke: #000000; stroke-width: 2.4"/>
      </g>
     </g>
     <g id="text_1">
      <text style="font-size: 24px; font-family: 'Courier New'; text-anchor: end" x="135.338281" y="268.101613" transform="rotate(-0 135.338281 268.101613)">−0.2</text>
     </g>
    </g>
    <g id="ytick_2">
     <g id="line2d_32">
      <path d="M 147.838281 205.514459 
L 698.378281 205.514459 
" clip-path="url(#p84e9f04b46)" style="fill: none; stroke: #4c566a; stroke-opacity: 0.3; stroke-width: 0.8; stroke-linecap: square"/>
     </g>
     <g id="line2d_33">
      <g>
       <use xlink:href="#m1273217eec" x="147.838281" y="205.514459" style="stroke: #000000; stroke-width: 2.4"/>
      </g>
     </g>
     <g id="text_2">
      <text style="font-size: 24px; font-family: 'Courier New'; text-anchor: end" x="135.338281" y="212.868209" transform="rotate(-0 135.338281 212.868209)">−0.1</text>
     </g>
    </g>
    <g id="ytick_3">
     <g id="line2d_34">
      <path d="M 147.838281 150.281056 
L 698.378281 150.281056 
" clip-path="url(#p84e9f04b46)" style="fill: none; stroke: #4c566a; stroke-opacity: 0.3; stroke-width: 0.8; stroke-linecap: square"/>
     </g>
     <g id="line2d_35">
      <g>
       <use xlink:href="#m1273217eec" x="147.838281" y="150.281056" style="stroke: #000000; stroke-width: 2.4"/>
      </g>
     </g>
     <g id="text_3">
      <text style="font-size: 24px; font-family: 'Courier New'; text-anchor: end" x="135.338281" y="157.634806" transform="rotate(-0 135.338281 157.634806)">0.0</text>
     </g>
    </g>
    <g id="ytick_4">
     <g id="line2d_36">
      <defs>
       <path id="m9dc1912eb9" d="M 0 0 
L -6 0 
" style="stroke: #000000; stroke-width: 1.5"/>
      </defs>
      <g>
       <use xlink:href="#m9dc1912eb9" x="147.838281" y="249.701182" style="stroke: #000000; stroke-width: 1.5"/>
      </g>
     </g>
    </g>
    <g id="ytick_5">
     <g id="line2d_37">
      <g>
       <use xlink:href="#m9dc1912eb9" x="147.838281" y="238.654501" style="stroke: #000000; stroke-width: 1.5"/>
      </g>
     </g>
    </g>
    <g id="ytick_6">
     <g id="line2d_38">
      <g>
       <use xlink:href="#m9dc1912eb9" x="147.838281" y="227.60782" style="stroke: #000000; stroke-width: 1.5"/>
      </g>
     </g>
    </g>
    <g id="ytick_7">
     <g id="line2d_39">
      <g>
       <use xlink:href="#m9dc1912eb9" x="147.838281" y="216.56114" style="stroke: #000000; stroke-width: 1.5"/>
      </g>
     </g>
    </g>
    <g id="ytick_8">
     <g id="line2d_40">
      <g>
       <use xlink:href="#m9dc1912eb9" x="147.838281" y="194.467778" style="stroke: #000000; stroke-width: 1.5"/>
      </g>
     </g>
    </g>
    <g id="ytick_9">
     <g id="line2d_41">
      <g>
       <use xlink:href="#m9dc1912eb9" x="147.838281" y="183.421098" style="stroke: #000000; stroke-width: 1.5"/>
      </g>
     </g>
    </g>
    <g id="ytick_10">
     <g id="line2d_42">
      <g>
       <use xlink:href="#m9dc1912eb9" x="147.838281" y="172.374417" style="stroke: #000000; stroke-width: 1.5"/>
      </g>
     </g>
    </g>
    <g id="ytick_11">
     <g id="line2d_43">
      <g>
       <use xlink:href="#m9dc1912eb9" x="147.838281" y="161.327736" style="stroke: #000000; stroke-width: 1.5"/>
      </g>
     </g>
    </g>
    <g id="ytick_12">
     <g id="line2d_44">
      <g>
       <use xlink:href="#m9dc1912eb9" x="147.838281" y="139.234375" style="stroke: #000000; stroke-width: 1.5"/>
      </g>
     </g>
    </g>
    <g id="ytick_13">
     <g id="line2d_45">
      <g>
       <use xlink:href="#m9dc1912eb9" x="147.838281" y="128.187694" style="stroke: #000000; stroke-width: 1.5"/>
      </g>
     </g>
    </g>
    <g id="text_4">
     <text style="font-weight: 600; font-size: 27px; font-family: 'Courier New'; text-anchor: middle" x="54.078594" y="196.00238" transform="rotate(-90 54.078594 196.00238)">Youden index</text>
    </g>
   </g>
   <g id="line2d_46">
    <path d="M 172.862827 150.281056 
L 173.863809 128.314386 
L 175.865772 214.341995 
L 176.866754 208.620444 
L 177.867736 219.144011 
L 178.868718 216.896259 
L 179.869699 205.350986 
L 181.871663 175.312842 
L 182.872645 197.381683 
L 183.873627 234.571766 
L 185.87559 220.67657 
L 186.876572 219.552694 
L 187.877554 263.690375 
L 188.878536 256.742777 
L 189.879518 246.32138 
L 190.880499 232.426184 
L 191.881481 211.58339 
L 192.882463 204.635792 
L 193.883445 194.214395 
L 194.884427 194.214395 
L 199.889336 176.845401 
L 202.892281 176.845401 
L 203.893263 173.371602 
L 204.894245 173.371602 
L 205.895227 166.424004 
L 207.89719 159.476406 
L 209.899154 159.476406 
L 210.900136 152.528808 
L 211.901118 152.528808 
L 212.902099 149.055009 
L 214.904063 149.055009 
L 215.905045 145.58121 
L 216.906027 145.58121 
L 217.907009 161.826329 
L 231.920754 161.826329 
L 232.921736 158.35253 
L 234.923699 158.35253 
L 235.924681 154.878731 
L 236.925663 154.878731 
L 237.926645 151.404932 
L 246.935481 151.404932 
L 247.936463 147.931133 
L 267.956099 147.931133 
L 268.957081 140.983535 
L 278.966899 140.983535 
L 279.967881 137.509736 
L 352.038572 137.509736 
L 353.039554 153.754855 
L 532.215299 153.754855 
L 533.216281 150.281056 
L 673.353736 150.281056 
L 673.353736 150.281056 
" clip-path="url(#p84e9f04b46)" style="fill: none; stroke: #81a1c1; stroke-width: 2; stroke-linecap: square"/>
   </g>
   <g id="line2d_47">
    <path d="M 187.877554 270.459174 
L 187.877554 121.545586 
" clip-path="url(#p84e9f04b46)" style="fill: none; stroke-dasharray: 5.55,2.4; stroke-dashoffset: 0; stroke: #bf616a; stroke-width: 1.5"/>
   </g>
   <g id="line2d_48">
    <path d="M 173.863809 270.459174 
L 173.863809 121.545586 
" clip-path="url(#p84e9f04b46)" style="fill: none; stroke-dasharray: 5.55,2.4; stroke-dashoffset: 0; stroke: #bf616a; stroke-width: 1.5"/>
   </g>
   <g id="patch_3">
    <path d="M 147.838281 270.459174 
L 147.838281 121.545586 
" style="fill: none; stroke: #4c566a; stroke-width: 1.8; stroke-linejoin: miter; stroke-linecap: square"/>
   </g>
   <g id="patch_4">
    <path d="M 698.378281 270.459174 
L 698.378281 121.545586 
" style="fill: none; stroke: #4c566a; stroke-width: 1.8; stroke-linejoin: miter; stroke-linecap: square"/>
   </g>
   <g id="patch_5">
    <path d="M 147.838281 270.459174 
L 698.378281 270.459174 
" style="fill: none; stroke: #4c566a; stroke-width: 1.8; stroke-linejoin: miter; stroke-linecap: square"/>
   </g>
   <g id="patch_6">
    <path d="M 147.838281 121.545586 
L 698.378281 121.545586 
" style="fill: none; stroke: #4c566a; stroke-width: 1.8; stroke-linejoin: miter; stroke-linecap: square"/>
   </g>
   <g id="text_5">
    <text style="font-size: 10px; font-family: 'Courier New'; fill: #bf616a" transform="translate(185.993179 139.234375) rotate(-90)">High threshold = 0.030</text>
   </g>
   <g id="text_6">
    <text style="font-size: 10px; font-family: 'Courier New'; fill: #bf616a" transform="translate(171.979434 139.234375) rotate(-90)">Low threshold = 0.002</text>
   </g>
   <g id="text_7">
    <text style="font-weight: 600; font-size: 33px; font-family: 'Courier New'; text-anchor: middle" x="423.108281" y="91.545586" transform="rotate(-0 423.108281 91.545586)">DISPAIR-FRS Youden index across thresholds</text>
   </g>
  </g>
  <g id="axes_2">
   <g id="patch_7">
    <path d="M 147.838281 457.532762 
L 698.378281 457.532762 
L 698.378281 308.619174 
L 147.838281 308.619174 
z
" style="fill: #ffffff"/>
   </g>
   <g id="matplotlib.axis_3">
    <g id="xtick_24">
     <g id="line2d_49">
      <path d="M 172.862827 457.532762 
L 172.862827 308.619174 
" clip-path="url(#p7358905f39)" style="fill: none; stroke: #4c566a; stroke-opacity: 0.3; stroke-width: 0.8; stroke-linecap: square"/>
     </g>
     <g id="line2d_50">
      <g>
       <use xlink:href="#ma65560592c" x="172.862827" y="457.532762" style="stroke: #000000; stroke-width: 2.4"/>
      </g>
     </g>
     <g id="text_8">
      <text style="font-size: 24px; font-family: 'Courier New'; text-anchor: middle" x="172.862827" y="484.740262" transform="rotate(-0 172.862827 484.740262)">0.0</text>
     </g>
    </g>
    <g id="xtick_25">
     <g id="line2d_51">
      <path d="M 272.961009 457.532762 
L 272.961009 308.619174 
" clip-path="url(#p7358905f39)" style="fill: none; stroke: #4c566a; stroke-opacity: 0.3; stroke-width: 0.8; stroke-linecap: square"/>
     </g>
     <g id="line2d_52">
      <g>
       <use xlink:href="#ma65560592c" x="272.961009" y="457.532762" style="stroke: #000000; stroke-width: 2.4"/>
      </g>
     </g>
     <g id="text_9">
      <text style="font-size: 24px; font-family: 'Courier New'; text-anchor: middle" x="272.961009" y="484.740262" transform="rotate(-0 272.961009 484.740262)">0.2</text>
     </g>
    </g>
    <g id="xtick_26">
     <g id="line2d_53">
      <path d="M 373.05919 457.532762 
L 373.05919 308.619174 
" clip-path="url(#p7358905f39)" style="fill: none; stroke: #4c566a; stroke-opacity: 0.3; stroke-width: 0.8; stroke-linecap: square"/>
     </g>
     <g id="line2d_54">
      <g>
       <use xlink:href="#ma65560592c" x="373.05919" y="457.532762" style="stroke: #000000; stroke-width: 2.4"/>
      </g>
     </g>
     <g id="text_10">
      <text style="font-size: 24px; font-family: 'Courier New'; text-anchor: middle" x="373.05919" y="484.740262" transform="rotate(-0 373.05919 484.740262)">0.4</text>
     </g>
    </g>
    <g id="xtick_27">
     <g id="line2d_55">
      <path d="M 473.157372 457.532762 
L 473.157372 308.619174 
" clip-path="url(#p7358905f39)" style="fill: none; stroke: #4c566a; stroke-opacity: 0.3; stroke-width: 0.8; stroke-linecap: square"/>
     </g>
     <g id="line2d_56">
      <g>
       <use xlink:href="#ma65560592c" x="473.157372" y="457.532762" style="stroke: #000000; stroke-width: 2.4"/>
      </g>
     </g>
     <g id="text_11">
      <text style="font-size: 24px; font-family: 'Courier New'; text-anchor: middle" x="473.157372" y="484.740262" transform="rotate(-0 473.157372 484.740262)">0.6</text>
     </g>
    </g>
    <g id="xtick_28">
     <g id="line2d_57">
      <path d="M 573.255554 457.532762 
L 573.255554 308.619174 
" clip-path="url(#p7358905f39)" style="fill: none; stroke: #4c566a; stroke-opacity: 0.3; stroke-width: 0.8; stroke-linecap: square"/>
     </g>
     <g id="line2d_58">
      <g>
       <use xlink:href="#ma65560592c" x="573.255554" y="457.532762" style="stroke: #000000; stroke-width: 2.4"/>
      </g>
     </g>
     <g id="text_12">
      <text style="font-size: 24px; font-family: 'Courier New'; text-anchor: middle" x="573.255554" y="484.740262" transform="rotate(-0 573.255554 484.740262)">0.8</text>
     </g>
    </g>
    <g id="xtick_29">
     <g id="line2d_59">
      <path d="M 673.353736 457.532762 
L 673.353736 308.619174 
" clip-path="url(#p7358905f39)" style="fill: none; stroke: #4c566a; stroke-opacity: 0.3; stroke-width: 0.8; stroke-linecap: square"/>
     </g>
     <g id="line2d_60">
      <g>
       <use xlink:href="#ma65560592c" x="673.353736" y="457.532762" style="stroke: #000000; stroke-width: 2.4"/>
      </g>
     </g>
     <g id="text_13">
      <text style="font-size: 24px; font-family: 'Courier New'; text-anchor: middle" x="673.353736" y="484.740262" transform="rotate(-0 673.353736 484.740262)">1.0</text>
     </g>
    </g>
    <g id="xtick_30">
     <g id="line2d_61">
      <g>
       <use xlink:href="#m5d110f854f" x="147.838281" y="457.532762" style="stroke: #000000; stroke-width: 1.5"/>
      </g>
     </g>
    </g>
    <g id="xtick_31">
     <g id="line2d_62">
      <g>
       <use xlink:href="#m5d110f854f" x="197.887372" y="457.532762" style="stroke: #000000; stroke-width: 1.5"/>
      </g>
     </g>
    </g>
    <g id="xtick_32">
     <g id="line2d_63">
      <g>
       <use xlink:href="#m5d110f854f" x="222.911918" y="457.532762" style="stroke: #000000; stroke-width: 1.5"/>
      </g>
     </g>
    </g>
    <g id="xtick_33">
     <g id="line2d_64">
      <g>
       <use xlink:href="#m5d110f854f" x="247.936463" y="457.532762" style="stroke: #000000; stroke-width: 1.5"/>
      </g>
     </g>
    </g>
    <g id="xtick_34">
     <g id="line2d_65">
      <g>
       <use xlink:href="#m5d110f854f" x="297.985554" y="457.532762" style="stroke: #000000; stroke-width: 1.5"/>
      </g>
     </g>
    </g>
    <g id="xtick_35">
     <g id="line2d_66">
      <g>
       <use xlink:href="#m5d110f854f" x="323.010099" y="457.532762" style="stroke: #000000; stroke-width: 1.5"/>
      </g>
     </g>
    </g>
    <g id="xtick_36">
     <g id="line2d_67">
      <g>
       <use xlink:href="#m5d110f854f" x="348.034645" y="457.532762" style="stroke: #000000; stroke-width: 1.5"/>
      </g>
     </g>
    </g>
    <g id="xtick_37">
     <g id="line2d_68">
      <g>
       <use xlink:href="#m5d110f854f" x="398.083736" y="457.532762" style="stroke: #000000; stroke-width: 1.5"/>
      </g>
     </g>
    </g>
    <g id="xtick_38">
     <g id="line2d_69">
      <g>
       <use xlink:href="#m5d110f854f" x="423.108281" y="457.532762" style="stroke: #000000; stroke-width: 1.5"/>
      </g>
     </g>
    </g>
    <g id="xtick_39">
     <g id="line2d_70">
      <g>
       <use xlink:href="#m5d110f854f" x="448.132827" y="457.532762" style="stroke: #000000; stroke-width: 1.5"/>
      </g>
     </g>
    </g>
    <g id="xtick_40">
     <g id="line2d_71">
      <g>
       <use xlink:href="#m5d110f854f" x="498.181918" y="457.532762" style="stroke: #000000; stroke-width: 1.5"/>
      </g>
     </g>
    </g>
    <g id="xtick_41">
     <g id="line2d_72">
      <g>
       <use xlink:href="#m5d110f854f" x="523.206463" y="457.532762" style="stroke: #000000; stroke-width: 1.5"/>
      </g>
     </g>
    </g>
    <g id="xtick_42">
     <g id="line2d_73">
      <g>
       <use xlink:href="#m5d110f854f" x="548.231009" y="457.532762" style="stroke: #000000; stroke-width: 1.5"/>
      </g>
     </g>
    </g>
    <g id="xtick_43">
     <g id="line2d_74">
      <g>
       <use xlink:href="#m5d110f854f" x="598.280099" y="457.532762" style="stroke: #000000; stroke-width: 1.5"/>
      </g>
     </g>
    </g>
    <g id="xtick_44">
     <g id="line2d_75">
      <g>
       <use xlink:href="#m5d110f854f" x="623.304645" y="457.532762" style="stroke: #000000; stroke-width: 1.5"/>
      </g>
     </g>
    </g>
    <g id="xtick_45">
     <g id="line2d_76">
      <g>
       <use xlink:href="#m5d110f854f" x="648.32919" y="457.532762" style="stroke: #000000; stroke-width: 1.5"/>
      </g>
     </g>
    </g>
    <g id="xtick_46">
     <g id="line2d_77">
      <g>
       <use xlink:href="#m5d110f854f" x="698.378281" y="457.532762" style="stroke: #000000; stroke-width: 1.5"/>
      </g>
     </g>
    </g>
    <g id="text_14">
     <text style="font-weight: 600; font-size: 27px; font-family: 'Courier New'; text-anchor: middle" x="423.108281" y="524.361355" transform="rotate(-0 423.108281 524.361355)">Threshold</text>
    </g>
   </g>
   <g id="matplotlib.axis_4">
    <g id="ytick_14">
     <g id="line2d_78">
      <path d="M 147.838281 450.763962 
L 698.378281 450.763962 
" clip-path="url(#p7358905f39)" style="fill: none; stroke: #4c566a; stroke-opacity: 0.3; stroke-width: 0.8; stroke-linecap: square"/>
     </g>
     <g id="line2d_79">
      <g>
       <use xlink:href="#m1273217eec" x="147.838281" y="450.763962" style="stroke: #000000; stroke-width: 2.4"/>
      </g>
     </g>
     <g id="text_15">
      <text style="font-size: 24px; font-family: 'Courier New'; text-anchor: end" x="135.338281" y="458.117712" transform="rotate(-0 135.338281 458.117712)">0.0</text>
     </g>
    </g>
    <g id="ytick_15">
     <g id="line2d_80">
      <path d="M 147.838281 383.075968 
L 698.378281 383.075968 
" clip-path="url(#p7358905f39)" style="fill: none; stroke: #4c566a; stroke-opacity: 0.3; stroke-width: 0.8; stroke-linecap: square"/>
     </g>
     <g id="line2d_81">
      <g>
       <use xlink:href="#m1273217eec" x="147.838281" y="383.075968" style="stroke: #000000; stroke-width: 2.4"/>
      </g>
     </g>
     <g id="text_16">
      <text style="font-size: 24px; font-family: 'Courier New'; text-anchor: end" x="135.338281" y="390.429718" transform="rotate(-0 135.338281 390.429718)">0.5</text>
     </g>
    </g>
    <g id="ytick_16">
     <g id="line2d_82">
      <path d="M 147.838281 315.387973 
L 698.378281 315.387973 
" clip-path="url(#p7358905f39)" style="fill: none; stroke: #4c566a; stroke-opacity: 0.3; stroke-width: 0.8; stroke-linecap: square"/>
     </g>
     <g id="line2d_83">
      <g>
       <use xlink:href="#m1273217eec" x="147.838281" y="315.387973" style="stroke: #000000; stroke-width: 2.4"/>
      </g>
     </g>
     <g id="text_17">
      <text style="font-size: 24px; font-family: 'Courier New'; text-anchor: end" x="135.338281" y="322.741723" transform="rotate(-0 135.338281 322.741723)">1.0</text>
     </g>
    </g>
    <g id="ytick_17">
     <g id="line2d_84">
      <g>
       <use xlink:href="#m9dc1912eb9" x="147.838281" y="437.226363" style="stroke: #000000; stroke-width: 1.5"/>
      </g>
     </g>
    </g>
    <g id="ytick_18">
     <g id="line2d_85">
      <g>
       <use xlink:href="#m9dc1912eb9" x="147.838281" y="423.688764" style="stroke: #000000; stroke-width: 1.5"/>
      </g>
     </g>
    </g>
    <g id="ytick_19">
     <g id="line2d_86">
      <g>
       <use xlink:href="#m9dc1912eb9" x="147.838281" y="410.151166" style="stroke: #000000; stroke-width: 1.5"/>
      </g>
     </g>
    </g>
    <g id="ytick_20">
     <g id="line2d_87">
      <g>
       <use xlink:href="#m9dc1912eb9" x="147.838281" y="396.613567" style="stroke: #000000; stroke-width: 1.5"/>
      </g>
     </g>
    </g>
    <g id="ytick_21">
     <g id="line2d_88">
      <g>
       <use xlink:href="#m9dc1912eb9" x="147.838281" y="369.538369" style="stroke: #000000; stroke-width: 1.5"/>
      </g>
     </g>
    </g>
    <g id="ytick_22">
     <g id="line2d_89">
      <g>
       <use xlink:href="#m9dc1912eb9" x="147.838281" y="356.00077" style="stroke: #000000; stroke-width: 1.5"/>
      </g>
     </g>
    </g>
    <g id="ytick_23">
     <g id="line2d_90">
      <g>
       <use xlink:href="#m9dc1912eb9" x="147.838281" y="342.463171" style="stroke: #000000; stroke-width: 1.5"/>
      </g>
     </g>
    </g>
    <g id="ytick_24">
     <g id="line2d_91">
      <g>
       <use xlink:href="#m9dc1912eb9" x="147.838281" y="328.925572" style="stroke: #000000; stroke-width: 1.5"/>
      </g>
     </g>
    </g>
    <g id="text_18">
     <text style="font-weight: 600; font-size: 27px; font-family: 'Courier New'; text-anchor: middle" x="68.482344" y="383.075968" transform="rotate(-90 68.482344 383.075968)">Value</text>
    </g>
   </g>
   <g id="line2d_92">
    <path d="M 172.862827 315.387973 
L 173.863809 319.36962 
L 174.86479 347.241147 
L 175.865772 359.186087 
L 176.866754 367.149381 
L 177.867736 379.094321 
L 178.868718 387.057615 
L 181.871663 399.002555 
L 182.872645 406.965848 
L 183.873627 422.892435 
L 185.87559 422.892435 
L 186.876572 426.874082 
L 187.877554 442.800669 
L 216.906027 442.800669 
L 217.907009 446.782316 
L 352.038572 446.782316 
L 353.039554 450.763962 
L 673.353736 450.763962 
L 673.353736 450.763962 
" clip-path="url(#p7358905f39)" style="fill: none; stroke: #bf616a; stroke-width: 2; stroke-linecap: square"/>
   </g>
   <g id="line2d_93">
    <path d="M 172.862827 450.763962 
L 173.863809 441.398328 
L 174.86479 423.51848 
L 175.865772 422.667059 
L 178.868718 395.421577 
L 179.869699 388.610206 
L 181.871663 373.284623 
L 182.872645 370.730359 
L 183.873627 363.918988 
L 185.87559 360.513303 
L 186.876572 356.256196 
L 187.877554 351.147669 
L 188.878536 349.444826 
L 189.879518 346.890562 
L 190.880499 343.484877 
L 191.881481 338.376349 
L 192.882463 336.673506 
L 193.883445 334.119242 
L 194.884427 334.119242 
L 199.889336 329.862136 
L 202.892281 329.862136 
L 203.893263 329.010714 
L 204.894245 329.010714 
L 205.895227 327.307872 
L 207.89719 325.605029 
L 209.899154 325.605029 
L 210.900136 323.902187 
L 211.901118 323.902187 
L 212.902099 323.050765 
L 214.904063 323.050765 
L 215.905045 322.199344 
L 231.920754 322.199344 
L 232.921736 321.347923 
L 234.923699 321.347923 
L 235.924681 320.496501 
L 236.925663 320.496501 
L 237.926645 319.64508 
L 246.935481 319.64508 
L 247.936463 318.793659 
L 267.956099 318.793659 
L 268.957081 317.090816 
L 278.966899 317.090816 
L 279.967881 316.239395 
L 532.215299 316.239395 
L 533.216281 315.387973 
L 673.353736 315.387973 
L 673.353736 315.387973 
" clip-path="url(#p7358905f39)" style="fill: none; stroke: #5e81ac; stroke-width: 2; stroke-linecap: square"/>
   </g>
   <g id="line2d_94">
    <path d="M 172.862827 426.915342 
L 173.863809 426.082152 
L 174.86479 427.758892 
L 175.865772 429.866998 
L 176.866754 429.860317 
L 177.867736 430.790456 
L 178.868718 431.072909 
L 179.869699 430.658617 
L 180.870681 429.936887 
L 181.871663 429.036952 
L 182.872645 431.170069 
L 183.873627 435.957213 
L 185.87559 434.970097 
L 186.876572 435.722186 
L 187.877554 444.610508 
L 188.878536 444.317487 
L 189.879518 443.821604 
L 190.880499 443.028191 
L 191.881481 441.427687 
L 192.882463 440.736111 
L 193.883445 439.48263 
L 194.884427 439.48263 
L 196.88639 438.457054 
L 198.888354 437.226363 
L 199.889336 436.513858 
L 202.892281 436.513858 
L 203.893263 435.722186 
L 204.894245 435.722186 
L 205.895227 433.841964 
L 207.89719 431.424535 
L 209.899154 431.424535 
L 210.900136 428.201297 
L 211.901118 428.201297 
L 212.902099 426.150146 
L 214.904063 426.150146 
L 215.905045 423.688764 
L 216.906027 423.688764 
L 217.907009 435.722186 
L 231.920754 435.722186 
L 232.921736 433.841964 
L 234.923699 433.841964 
L 235.924681 431.424535 
L 236.925663 431.424535 
L 237.926645 428.201297 
L 246.935481 428.201297 
L 247.936463 423.688764 
L 267.956099 423.688764 
L 268.957081 405.638633 
L 278.966899 405.638633 
L 279.967881 383.075968 
L 352.038572 383.075968 
L 353.039554 450.763962 
L 532.215299 450.763962 
L 532.215299 450.763962 
" clip-path="url(#p7358905f39)" style="fill: none; stroke: #a3be8c; stroke-width: 2; stroke-linecap: square"/>
   </g>
   <g id="line2d_95">
    <path d="M 173.863809 326.669306 
L 174.86479 342.463171 
L 175.865772 349.231971 
L 176.866754 346.263199 
L 177.867736 345.895239 
L 178.868718 344.746622 
L 180.870681 341.932285 
L 181.871663 340.770971 
L 182.872645 342.000347 
L 183.873627 343.722483 
L 185.87559 342.870317 
L 186.876572 342.657957 
L 187.877554 344.462011 
L 188.878536 344.076925 
L 189.879518 343.518049 
L 190.880499 342.805895 
L 191.881481 341.802801 
L 192.882463 341.48455 
L 193.883445 341.021297 
L 194.884427 341.021297 
L 199.889336 340.284707 
L 202.892281 340.284707 
L 203.893263 340.14244 
L 204.894245 340.14244 
L 205.895227 339.862728 
L 207.89719 339.589268 
L 209.899154 339.589268 
L 210.900136 339.32185 
L 211.901118 339.32185 
L 212.902099 339.190345 
L 214.904063 339.190345 
L 215.905045 339.060278 
L 216.906027 339.060278 
L 217.907009 339.667363 
L 231.920754 339.667363 
L 232.921736 339.536123 
L 234.923699 339.536123 
L 235.924681 339.406294 
L 236.925663 339.406294 
L 237.926645 339.277854 
L 246.935481 339.277854 
L 247.936463 339.15078 
L 267.956099 339.15078 
L 268.957081 338.900645 
L 278.966899 338.900645 
L 279.967881 338.777542 
L 352.038572 338.777542 
L 353.039554 339.360805 
L 532.215299 339.360805 
L 533.216281 339.236593 
L 673.353736 339.236593 
L 673.353736 339.236593 
" clip-path="url(#p7358905f39)" style="fill: none; stroke: #b48ead; stroke-width: 2; stroke-linecap: square"/>
   </g>
   <g id="line2d_96">
    <path d="M 173.863809 457.532762 
L 173.863809 308.619174 
" clip-path="url(#p7358905f39)" style="fill: none; stroke-dasharray: 3.7,1.6; stroke-dashoffset: 0; stroke: #4c566a"/>
   </g>
   <g id="line2d_97">
    <path d="M 187.877554 457.532762 
L 187.877554 308.619174 
" clip-path="url(#p7358905f39)" style="fill: none; stroke-dasharray: 3.7,1.6; stroke-dashoffset: 0; stroke: #4c566a"/>
   </g>
   <g id="patch_8">
    <path d="M 147.838281 457.532762 
L 147.838281 308.619174 
" style="fill: none; stroke: #4c566a; stroke-width: 1.8; stroke-linejoin: miter; stroke-linecap: square"/>
   </g>
   <g id="patch_9">
    <path d="M 698.378281 457.532762 
L 698.378281 308.619174 
" style="fill: none; stroke: #4c566a; stroke-width: 1.8; stroke-linejoin: miter; stroke-linecap: square"/>
   </g>
   <g id="patch_10">
    <path d="M 147.838281 457.532762 
L 698.378281 457.532762 
" style="fill: none; stroke: #4c566a; stroke-width: 1.8; stroke-linejoin: miter; stroke-linecap: square"/>
   </g>
   <g id="patch_11">
    <path d="M 147.838281 308.619174 
L 698.378281 308.619174 
" style="fill: none; stroke: #4c566a; stroke-width: 1.8; stroke-linejoin: miter; stroke-linecap: square"/>
   </g>
   <g id="legend_1">
    <g id="line2d_98">
     <path d="M 595.361094 361.307218 
L 605.361094 361.307218 
L 615.361094 361.307218 
" style="fill: none; stroke: #bf616a; stroke-width: 2; stroke-linecap: square"/>
    </g>
    <g id="text_19">
     <text style="font-size: 10px; font-family: 'Courier New'; text-anchor: start" x="623.361094" y="364.807218" transform="rotate(-0 623.361094 364.807218)">Sensitivity</text>
    </g>
    <g id="line2d_99">
     <path d="M 595.361094 375.191593 
L 605.361094 375.191593 
L 615.361094 375.191593 
" style="fill: none; stroke: #5e81ac; stroke-width: 2; stroke-linecap: square"/>
    </g>
    <g id="text_20">
     <text style="font-size: 10px; font-family: 'Courier New'; text-anchor: start" x="623.361094" y="378.691593" transform="rotate(-0 623.361094 378.691593)">Specificity</text>
    </g>
    <g id="line2d_100">
     <path d="M 595.361094 389.075968 
L 605.361094 389.075968 
L 615.361094 389.075968 
" style="fill: none; stroke: #a3be8c; stroke-width: 2; stroke-linecap: square"/>
    </g>
    <g id="text_21">
     <text style="font-size: 10px; font-family: 'Courier New'; text-anchor: start" x="623.361094" y="392.575968" transform="rotate(-0 623.361094 392.575968)">PPV</text>
    </g>
    <g id="line2d_101">
     <path d="M 595.361094 402.960343 
L 605.361094 402.960343 
L 615.361094 402.960343 
" style="fill: none; stroke: #b48ead; stroke-width: 2; stroke-linecap: square"/>
    </g>
    <g id="text_22">
     <text style="font-size: 10px; font-family: 'Courier New'; text-anchor: start" x="623.361094" y="406.460343" transform="rotate(-0 623.361094 406.460343)">NPV</text>
    </g>
   </g>
  </g>
 </g>
 <defs>
  <clipPath id="p84e9f04b46">
   <rect x="147.838281" y="121.545586" width="550.54" height="148.913588"/>
  </clipPath>
  <clipPath id="p7358905f39">
   <rect x="147.838281" y="308.619174" width="550.54" height="148.913588"/>
  </clipPath>
 </defs>
</svg>
