<?xml version="1.0" encoding="utf-8" standalone="no"?>
<!DOCTYPE svg PUBLIC "-//W3C//DTD SVG 1.1//EN"
  "http://www.w3.org/Graphics/SVG/1.1/DTD/svg11.dtd">
<svg xmlns:xlink="http://www.w3.org/1999/xlink" width="1004.657813pt" height="531.591562pt" viewBox="0 0 1004.657813 531.591562" xmlns="http://www.w3.org/2000/svg" version="1.1">
 <metadata>
  <rdf:RDF xmlns:dc="http://purl.org/dc/elements/1.1/" xmlns:cc="http://creativecommons.org/ns#" xmlns:rdf="http://www.w3.org/1999/02/22-rdf-syntax-ns#">
   <cc:Work>
    <dc:type rdf:resource="http://purl.org/dc/dcmitype/StillImage"/>
    <dc:date>2025-12-28T16:55:34.536645</dc:date>
    <dc:format>image/svg+xml</dc:format>
    <dc:creator>
     <cc:Agent>
      <dc:title>Matplotlib v3.10.3, https://matplotlib.org/</dc:title>
     </cc:Agent>
    </dc:creator>
   </cc:Work>
  </rdf:RDF>
 </metadata>
 <defs>
  <style type="text/css">*{stroke-linejoin: round; stroke-linecap: butt}</style>
 </defs>
 <g id="figure_1">
  <g id="patch_1">
   <path d="M 0 531.591562 
L 1004.657813 531.591562 
L 1004.657813 0 
L 0 0 
z
" style="fill: #ffffff"/>
  </g>
  <g id="axes_1">
   <g id="patch_2">
    <path d="M 219.858906 235.928281 
L 784.798906 235.928281 
L 784.798906 58.098281 
L 219.858906 58.098281 
z
" style="fill: #ffffff"/>
   </g>
   <g id="matplotlib.axis_1">
    <g id="xtick_1">
     <g id="line2d_1">
      <path d="M 245.537997 235.928281 
L 245.537997 58.098281 
" clip-path="url(#p2035bdbfc5)" style="fill: none; stroke: #4c566a; stroke-opacity: 0.3; stroke-width: 0.8; stroke-linecap: square"/>
     </g>
     <g id="line2d_2">
      <defs>
       <path id="m15aca70dcf" d="M 0 0 
L 0 9 
" style="stroke: #000000; stroke-width: 2.4"/>
      </defs>
      <g>
       <use xlink:href="#m15aca70dcf" x="245.537997" y="235.928281" style="stroke: #000000; stroke-width: 2.4"/>
      </g>
     </g>
    </g>
    <g id="xtick_2">
     <g id="line2d_3">
      <path d="M 348.254361 235.928281 
L 348.254361 58.098281 
" clip-path="url(#p2035bdbfc5)" style="fill: none; stroke: #4c566a; stroke-opacity: 0.3; stroke-width: 0.8; stroke-linecap: square"/>
     </g>
     <g id="line2d_4">
      <g>
       <use xlink:href="#m15aca70dcf" x="348.254361" y="235.928281" style="stroke: #000000; stroke-width: 2.4"/>
      </g>
     </g>
    </g>
    <g id="xtick_3">
     <g id="line2d_5">
      <path d="M 450.970724 235.928281 
L 450.970724 58.098281 
" clip-path="url(#p2035bdbfc5)" style="fill: none; stroke: #4c566a; stroke-opacity: 0.3; stroke-width: 0.8; stroke-linecap: square"/>
     </g>
     <g id="line2d_6">
      <g>
       <use xlink:href="#m15aca70dcf" x="450.970724" y="235.928281" style="stroke: #000000; stroke-width: 2.4"/>
      </g>
     </g>
    </g>
    <g id="xtick_4">
     <g id="line2d_7">
      <path d="M 553.687088 235.928281 
L 553.687088 58.098281 
" clip-path="url(#p2035bdbfc5)" style="fill: none; stroke: #4c566a; stroke-opacity: 0.3; stroke-width: 0.8; stroke-linecap: square"/>
     </g>
     <g id="line2d_8">
      <g>
       <use xlink:href="#m15aca70dcf" x="553.687088" y="235.928281" style="stroke: #000000; stroke-width: 2.4"/>
      </g>
     </g>
    </g>
    <g id="xtick_5">
     <g id="line2d_9">
      <path d="M 656.403452 235.928281 
L 656.403452 58.098281 
" clip-path="url(#p2035bdbfc5)" style="fill: none; stroke: #4c566a; stroke-opacity: 0.3; stroke-width: 0.8; stroke-linecap: square"/>
     </g>
     <g id="line2d_10">
      <g>
       <use xlink:href="#m15aca70dcf" x="656.403452" y="235.928281" style="stroke: #000000; stroke-width: 2.4"/>
      </g>
     </g>
    </g>
    <g id="xtick_6">
     <g id="line2d_11">
      <path d="M 759.119815 235.928281 
L 759.119815 58.098281 
" clip-path="url(#p2035bdbfc5)" style="fill: none; stroke: #4c566a; stroke-opacity: 0.3; stroke-width: 0.8; stroke-linecap: square"/>
     </g>
     <g id="line2d_12">
      <g>
       <use xlink:href="#m15aca70dcf" x="759.119815" y="235.928281" style="stroke: #000000; stroke-width: 2.4"/>
      </g>
     </g>
    </g>
    <g id="xtick_7">
     <g id="line2d_13">
      <defs>
       <path id="m6f32cae2eb" d="M 0 0 
L 0 6 
" style="stroke: #000000; stroke-width: 1.5"/>
      </defs>
      <g>
       <use xlink:href="#m6f32cae2eb" x="219.858906" y="235.928281" style="stroke: #000000; stroke-width: 1.5"/>
      </g>
     </g>
    </g>
    <g id="xtick_8">
     <g id="line2d_14">
      <g>
       <use xlink:href="#m6f32cae2eb" x="271.217088" y="235.928281" style="stroke: #000000; stroke-width: 1.5"/>
      </g>
     </g>
    </g>
    <g id="xtick_9">
     <g id="line2d_15">
      <g>
       <use xlink:href="#m6f32cae2eb" x="296.896179" y="235.928281" style="stroke: #000000; stroke-width: 1.5"/>
      </g>
     </g>
    </g>
    <g id="xtick_10">
     <g id="line2d_16">
      <g>
       <use xlink:href="#m6f32cae2eb" x="322.57527" y="235.928281" style="stroke: #000000; stroke-width: 1.5"/>
      </g>
     </g>
    </g>
    <g id="xtick_11">
     <g id="line2d_17">
      <g>
       <use xlink:href="#m6f32cae2eb" x="373.933452" y="235.928281" style="stroke: #000000; stroke-width: 1.5"/>
      </g>
     </g>
    </g>
    <g id="xtick_12">
     <g id="line2d_18">
      <g>
       <use xlink:href="#m6f32cae2eb" x="399.612543" y="235.928281" style="stroke: #000000; stroke-width: 1.5"/>
      </g>
     </g>
    </g>
    <g id="xtick_13">
     <g id="line2d_19">
      <g>
       <use xlink:href="#m6f32cae2eb" x="425.291634" y="235.928281" style="stroke: #000000; stroke-width: 1.5"/>
      </g>
     </g>
    </g>
    <g id="xtick_14">
     <g id="line2d_20">
      <g>
       <use xlink:href="#m6f32cae2eb" x="476.649815" y="235.928281" style="stroke: #000000; stroke-width: 1.5"/>
      </g>
     </g>
    </g>
    <g id="xtick_15">
     <g id="line2d_21">
      <g>
       <use xlink:href="#m6f32cae2eb" x="502.328906" y="235.928281" style="stroke: #000000; stroke-width: 1.5"/>
      </g>
     </g>
    </g>
    <g id="xtick_16">
     <g id="line2d_22">
      <g>
       <use xlink:href="#m6f32cae2eb" x="528.007997" y="235.928281" style="stroke: #000000; stroke-width: 1.5"/>
      </g>
     </g>
    </g>
    <g id="xtick_17">
     <g id="line2d_23">
      <g>
       <use xlink:href="#m6f32cae2eb" x="579.366179" y="235.928281" style="stroke: #000000; stroke-width: 1.5"/>
      </g>
     </g>
    </g>
    <g id="xtick_18">
     <g id="line2d_24">
      <g>
       <use xlink:href="#m6f32cae2eb" x="605.04527" y="235.928281" style="stroke: #000000; stroke-width: 1.5"/>
      </g>
     </g>
    </g>
    <g id="xtick_19">
     <g id="line2d_25">
      <g>
       <use xlink:href="#m6f32cae2eb" x="630.724361" y="235.928281" style="stroke: #000000; stroke-width: 1.5"/>
      </g>
     </g>
    </g>
    <g id="xtick_20">
     <g id="line2d_26">
      <g>
       <use xlink:href="#m6f32cae2eb" x="682.082543" y="235.928281" style="stroke: #000000; stroke-width: 1.5"/>
      </g>
     </g>
    </g>
    <g id="xtick_21">
     <g id="line2d_27">
      <g>
       <use xlink:href="#m6f32cae2eb" x="707.761634" y="235.928281" style="stroke: #000000; stroke-width: 1.5"/>
      </g>
     </g>
    </g>
    <g id="xtick_22">
     <g id="line2d_28">
      <g>
       <use xlink:href="#m6f32cae2eb" x="733.440724" y="235.928281" style="stroke: #000000; stroke-width: 1.5"/>
      </g>
     </g>
    </g>
    <g id="xtick_23">
     <g id="line2d_29">
      <g>
       <use xlink:href="#m6f32cae2eb" x="784.798906" y="235.928281" style="stroke: #000000; stroke-width: 1.5"/>
      </g>
     </g>
    </g>
   </g>
   <g id="matplotlib.axis_2">
    <g id="ytick_1">
     <g id="line2d_30">
      <path d="M 219.858906 177.433858 
L 784.798906 177.433858 
" clip-path="url(#p2035bdbfc5)" style="fill: none; stroke: #4c566a; stroke-opacity: 0.3; stroke-width: 0.8; stroke-linecap: square"/>
     </g>
     <g id="line2d_31">
      <defs>
       <path id="m18beab9ca1" d="M 0 0 
L -9 0 
" style="stroke: #000000; stroke-width: 2.4"/>
      </defs>
      <g>
       <use xlink:href="#m18beab9ca1" x="219.858906" y="177.433858" style="stroke: #000000; stroke-width: 2.4"/>
      </g>
     </g>
     <g id="text_1">
      <text style="font-size: 24px; font-family: 'Courier New'; text-anchor: end" x="207.358906" y="184.787608" transform="rotate(-0 207.358906 184.787608)">0.0</text>
     </g>
    </g>
    <g id="ytick_2">
     <g id="line2d_32">
      <path d="M 219.858906 96.304042 
L 784.798906 96.304042 
" clip-path="url(#p2035bdbfc5)" style="fill: none; stroke: #4c566a; stroke-opacity: 0.3; stroke-width: 0.8; stroke-linecap: square"/>
     </g>
     <g id="line2d_33">
      <g>
       <use xlink:href="#m18beab9ca1" x="219.858906" y="96.304042" style="stroke: #000000; stroke-width: 2.4"/>
      </g>
     </g>
     <g id="text_2">
      <text style="font-size: 24px; font-family: 'Courier New'; text-anchor: end" x="207.358906" y="103.657792" transform="rotate(-0 207.358906 103.657792)">0.1</text>
     </g>
    </g>
    <g id="ytick_3">
     <g id="line2d_34">
      <defs>
       <path id="m5de910a721" d="M 0 0 
L -6 0 
" style="stroke: #000000; stroke-width: 1.5"/>
      </defs>
      <g>
       <use xlink:href="#m5de910a721" x="219.858906" y="226.111747" style="stroke: #000000; stroke-width: 1.5"/>
      </g>
     </g>
    </g>
    <g id="ytick_4">
     <g id="line2d_35">
      <g>
       <use xlink:href="#m5de910a721" x="219.858906" y="209.885784" style="stroke: #000000; stroke-width: 1.5"/>
      </g>
     </g>
    </g>
    <g id="ytick_5">
     <g id="line2d_36">
      <g>
       <use xlink:href="#m5de910a721" x="219.858906" y="193.659821" style="stroke: #000000; stroke-width: 1.5"/>
      </g>
     </g>
    </g>
    <g id="ytick_6">
     <g id="line2d_37">
      <g>
       <use xlink:href="#m5de910a721" x="219.858906" y="161.207895" style="stroke: #000000; stroke-width: 1.5"/>
      </g>
     </g>
    </g>
    <g id="ytick_7">
     <g id="line2d_38">
      <g>
       <use xlink:href="#m5de910a721" x="219.858906" y="144.981932" style="stroke: #000000; stroke-width: 1.5"/>
      </g>
     </g>
    </g>
    <g id="ytick_8">
     <g id="line2d_39">
      <g>
       <use xlink:href="#m5de910a721" x="219.858906" y="128.755969" style="stroke: #000000; stroke-width: 1.5"/>
      </g>
     </g>
    </g>
    <g id="ytick_9">
     <g id="line2d_40">
      <g>
       <use xlink:href="#m5de910a721" x="219.858906" y="112.530005" style="stroke: #000000; stroke-width: 1.5"/>
      </g>
     </g>
    </g>
    <g id="ytick_10">
     <g id="line2d_41">
      <g>
       <use xlink:href="#m5de910a721" x="219.858906" y="80.078079" style="stroke: #000000; stroke-width: 1.5"/>
      </g>
     </g>
    </g>
    <g id="ytick_11">
     <g id="line2d_42">
      <g>
       <use xlink:href="#m5de910a721" x="219.858906" y="63.852116" style="stroke: #000000; stroke-width: 1.5"/>
      </g>
     </g>
    </g>
    <g id="text_3">
     <text style="font-weight: 600; font-size: 27px; font-family: 'Courier New'; text-anchor: middle" x="140.502969" y="147.013281" transform="rotate(-90 140.502969 147.013281)">Youden index</text>
    </g>
   </g>
   <g id="line2d_43">
    <path d="M 245.537997 177.433858 
L 259.918288 177.433858 
L 260.945452 170.728915 
L 261.972615 157.319028 
L 262.999779 157.319028 
L 264.026943 150.614084 
L 265.054106 150.614084 
L 266.08127 143.909141 
L 267.108434 167.252277 
L 268.135597 153.84239 
L 269.162761 147.137447 
L 270.189924 133.72756 
L 271.217088 127.022617 
L 272.244252 143.66081 
L 274.298579 143.66081 
L 275.325743 153.594059 
L 276.352906 140.184172 
L 278.407234 126.774285 
L 281.488724 126.774285 
L 282.515888 120.069342 
L 285.597379 120.069342 
L 286.624543 106.659455 
L 287.651706 106.659455 
L 288.67887 93.249568 
L 289.706034 103.182818 
L 290.733197 83.067987 
L 291.760361 76.363044 
L 292.787524 93.001237 
L 296.896179 93.001237 
L 298.950506 66.181463 
L 299.97767 89.5246 
L 302.031997 76.114713 
L 303.059161 92.752906 
L 304.086324 122.800985 
L 305.113488 116.096042 
L 306.140652 139.439178 
L 307.167815 156.077371 
L 308.194979 149.372428 
L 309.222143 135.962541 
L 310.249306 115.847711 
L 311.27647 115.847711 
L 312.303634 139.190847 
L 313.330797 132.485904 
L 314.357961 155.82904 
L 315.385124 149.124097 
L 316.412288 172.467233 
L 317.439452 152.352403 
L 318.466615 168.990596 
L 319.493779 155.580709 
L 320.520943 155.580709 
L 321.548106 172.218902 
L 322.57527 172.218902 
L 323.602434 165.513959 
L 325.656761 138.694185 
L 326.683924 162.037321 
L 327.711088 155.332378 
L 329.765415 155.332378 
L 330.792579 128.512604 
L 334.901234 128.512604 
L 335.928397 121.807661 
L 336.955561 145.150797 
L 337.982724 175.198877 
L 339.009888 168.493933 
L 341.064215 168.493933 
L 342.091379 198.542013 
L 343.118543 198.542013 
L 344.145706 185.132126 
L 345.17287 178.427183 
L 346.200034 178.427183 
L 347.227197 171.722239 
L 348.254361 171.722239 
L 349.281524 195.065376 
L 351.335852 195.065376 
L 352.363015 188.360432 
L 355.444506 188.360432 
L 356.47167 181.655489 
L 358.525997 181.655489 
L 359.553161 174.950546 
L 360.580324 161.540659 
L 361.607488 184.883795 
L 362.634652 171.473908 
L 363.661815 164.768965 
L 364.688979 164.768965 
L 365.716143 151.359078 
L 366.743306 151.359078 
L 367.77047 144.654134 
L 370.851961 144.654134 
L 371.879124 174.702214 
L 372.906288 161.292327 
L 373.933452 154.587384 
L 374.960615 154.587384 
L 375.987779 141.177497 
L 377.014943 141.177497 
L 378.042106 164.520634 
L 384.205088 164.520634 
L 385.232252 157.81569 
L 386.259415 157.81569 
L 387.286579 187.86377 
L 388.313743 187.86377 
L 389.340906 181.158827 
L 398.585379 181.158827 
L 399.612543 211.206906 
L 402.694034 211.206906 
L 403.721197 204.501963 
L 412.96567 204.501963 
L 413.992834 197.79702 
L 417.074324 197.79702 
L 418.101488 227.845099 
L 419.128652 227.845099 
L 420.155815 221.140156 
L 422.210143 221.140156 
L 423.237306 214.435213 
L 429.400288 214.435213 
L 430.427452 207.730269 
L 433.508943 207.730269 
L 434.536106 201.025326 
L 440.699088 201.025326 
L 441.726252 194.320382 
L 462.269524 194.320382 
L 463.296688 187.615439 
L 464.323852 187.615439 
L 465.351015 180.910495 
L 473.568324 180.910495 
L 474.595488 174.205552 
L 483.839961 174.205552 
L 484.867124 167.500608 
L 513.627706 167.500608 
L 514.65487 160.795665 
L 515.682034 160.795665 
L 516.709197 154.090722 
L 535.198143 154.090722 
L 536.225306 184.138801 
L 627.64287 184.138801 
L 628.670034 177.433858 
L 759.119815 177.433858 
L 759.119815 177.433858 
" clip-path="url(#p2035bdbfc5)" style="fill: none; stroke: #81a1c1; stroke-width: 2; stroke-linecap: square"/>
   </g>
   <g id="line2d_44">
    <path d="M 418.101488 235.928281 
L 418.101488 58.098281 
" clip-path="url(#p2035bdbfc5)" style="fill: none; stroke-dasharray: 5.55,2.4; stroke-dashoffset: 0; stroke: #bf616a; stroke-width: 1.5"/>
   </g>
   <g id="line2d_45">
    <path d="M 298.950506 235.928281 
L 298.950506 58.098281 
" clip-path="url(#p2035bdbfc5)" style="fill: none; stroke-dasharray: 5.55,2.4; stroke-dashoffset: 0; stroke: #bf616a; stroke-width: 1.5"/>
   </g>
   <g id="patch_3">
    <path d="M 219.858906 235.928281 
L 219.858906 58.098281 
" style="fill: none; stroke: #4c566a; stroke-width: 1.8; stroke-linejoin: miter; stroke-linecap: square"/>
   </g>
   <g id="patch_4">
    <path d="M 784.798906 235.928281 
L 784.798906 58.098281 
" style="fill: none; stroke: #4c566a; stroke-width: 1.8; stroke-linejoin: miter; stroke-linecap: square"/>
   </g>
   <g id="patch_5">
    <path d="M 219.858906 235.928281 
L 784.798906 235.928281 
" style="fill: none; stroke: #4c566a; stroke-width: 1.8; stroke-linejoin: miter; stroke-linecap: square"/>
   </g>
   <g id="patch_6">
    <path d="M 219.858906 58.098281 
L 784.798906 58.098281 
" style="fill: none; stroke: #4c566a; stroke-width: 1.8; stroke-linejoin: miter; stroke-linecap: square"/>
   </g>
   <g id="text_4">
    <text style="font-size: 10px; font-family: 'Courier New'; fill: #bf616a" transform="translate(416.217113 161.207895) rotate(-90)">High threshold = 0.336</text>
   </g>
   <g id="text_5">
    <text style="font-size: 10px; font-family: 'Courier New'; fill: #bf616a" transform="translate(297.066131 161.207895) rotate(-90)">Low threshold = 0.104</text>
   </g>
   <g id="text_6">
    <text style="font-weight: 600; font-size: 33px; font-family: 'Courier New'; text-anchor: middle" x="502.328906" y="28.098281" transform="rotate(-0 502.328906 28.098281)">DISPAIR-FRS refined Youden index across thresholds</text>
   </g>
  </g>
  <g id="axes_2">
   <g id="patch_7">
    <path d="M 219.858906 451.918281 
L 784.798906 451.918281 
L 784.798906 274.088281 
L 219.858906 274.088281 
z
" style="fill: #ffffff"/>
   </g>
   <g id="matplotlib.axis_3">
    <g id="xtick_24">
     <g id="line2d_46">
      <path d="M 245.537997 451.918281 
L 245.537997 274.088281 
" clip-path="url(#pd716520b3f)" style="fill: none; stroke: #4c566a; stroke-opacity: 0.3; stroke-width: 0.8; stroke-linecap: square"/>
     </g>
     <g id="line2d_47">
      <g>
       <use xlink:href="#m15aca70dcf" x="245.537997" y="451.918281" style="stroke: #000000; stroke-width: 2.4"/>
      </g>
     </g>
     <g id="text_7">
      <text style="font-size: 24px; font-family: 'Courier New'; text-anchor: middle" x="245.537997" y="479.125781" transform="rotate(-0 245.537997 479.125781)">0.0</text>
     </g>
    </g>
    <g id="xtick_25">
     <g id="line2d_48">
      <path d="M 348.254361 451.918281 
L 348.254361 274.088281 
" clip-path="url(#pd716520b3f)" style="fill: none; stroke: #4c566a; stroke-opacity: 0.3; stroke-width: 0.8; stroke-linecap: square"/>
     </g>
     <g id="line2d_49">
      <g>
       <use xlink:href="#m15aca70dcf" x="348.254361" y="451.918281" style="stroke: #000000; stroke-width: 2.4"/>
      </g>
     </g>
     <g id="text_8">
      <text style="font-size: 24px; font-family: 'Courier New'; text-anchor: middle" x="348.254361" y="479.125781" transform="rotate(-0 348.254361 479.125781)">0.2</text>
     </g>
    </g>
    <g id="xtick_26">
     <g id="line2d_50">
      <path d="M 450.970724 451.918281 
L 450.970724 274.088281 
" clip-path="url(#pd716520b3f)" style="fill: none; stroke: #4c566a; stroke-opacity: 0.3; stroke-width: 0.8; stroke-linecap: square"/>
     </g>
     <g id="line2d_51">
      <g>
       <use xlink:href="#m15aca70dcf" x="450.970724" y="451.918281" style="stroke: #000000; stroke-width: 2.4"/>
      </g>
     </g>
     <g id="text_9">
      <text style="font-size: 24px; font-family: 'Courier New'; text-anchor: middle" x="450.970724" y="479.125781" transform="rotate(-0 450.970724 479.125781)">0.4</text>
     </g>
    </g>
    <g id="xtick_27">
     <g id="line2d_52">
      <path d="M 553.687088 451.918281 
L 553.687088 274.088281 
" clip-path="url(#pd716520b3f)" style="fill: none; stroke: #4c566a; stroke-opacity: 0.3; stroke-width: 0.8; stroke-linecap: square"/>
     </g>
     <g id="line2d_53">
      <g>
       <use xlink:href="#m15aca70dcf" x="553.687088" y="451.918281" style="stroke: #000000; stroke-width: 2.4"/>
      </g>
     </g>
     <g id="text_10">
      <text style="font-size: 24px; font-family: 'Courier New'; text-anchor: middle" x="553.687088" y="479.125781" transform="rotate(-0 553.687088 479.125781)">0.6</text>
     </g>
    </g>
    <g id="xtick_28">
     <g id="line2d_54">
      <path d="M 656.403452 451.918281 
L 656.403452 274.088281 
" clip-path="url(#pd716520b3f)" style="fill: none; stroke: #4c566a; stroke-opacity: 0.3; stroke-width: 0.8; stroke-linecap: square"/>
     </g>
     <g id="line2d_55">
      <g>
       <use xlink:href="#m15aca70dcf" x="656.403452" y="451.918281" style="stroke: #000000; stroke-width: 2.4"/>
      </g>
     </g>
     <g id="text_11">
      <text style="font-size: 24px; font-family: 'Courier New'; text-anchor: middle" x="656.403452" y="479.125781" transform="rotate(-0 656.403452 479.125781)">0.8</text>
     </g>
    </g>
    <g id="xtick_29">
     <g id="line2d_56">
      <path d="M 759.119815 451.918281 
L 759.119815 274.088281 
" clip-path="url(#pd716520b3f)" style="fill: none; stroke: #4c566a; stroke-opacity: 0.3; stroke-width: 0.8; stroke-linecap: square"/>
     </g>
     <g id="line2d_57">
      <g>
       <use xlink:href="#m15aca70dcf" x="759.119815" y="451.918281" style="stroke: #000000; stroke-width: 2.4"/>
      </g>
     </g>
     <g id="text_12">
      <text style="font-size: 24px; font-family: 'Courier New'; text-anchor: middle" x="759.119815" y="479.125781" transform="rotate(-0 759.119815 479.125781)">1.0</text>
     </g>
    </g>
    <g id="xtick_30">
     <g id="line2d_58">
      <g>
       <use xlink:href="#m6f32cae2eb" x="219.858906" y="451.918281" style="stroke: #000000; stroke-width: 1.5"/>
      </g>
     </g>
    </g>
    <g id="xtick_31">
     <g id="line2d_59">
      <g>
       <use xlink:href="#m6f32cae2eb" x="271.217088" y="451.918281" style="stroke: #000000; stroke-width: 1.5"/>
      </g>
     </g>
    </g>
    <g id="xtick_32">
     <g id="line2d_60">
      <g>
       <use xlink:href="#m6f32cae2eb" x="296.896179" y="451.918281" style="stroke: #000000; stroke-width: 1.5"/>
      </g>
     </g>
    </g>
    <g id="xtick_33">
     <g id="line2d_61">
      <g>
       <use xlink:href="#m6f32cae2eb" x="322.57527" y="451.918281" style="stroke: #000000; stroke-width: 1.5"/>
      </g>
     </g>
    </g>
    <g id="xtick_34">
     <g id="line2d_62">
      <g>
       <use xlink:href="#m6f32cae2eb" x="373.933452" y="451.918281" style="stroke: #000000; stroke-width: 1.5"/>
      </g>
     </g>
    </g>
    <g id="xtick_35">
     <g id="line2d_63">
      <g>
       <use xlink:href="#m6f32cae2eb" x="399.612543" y="451.918281" style="stroke: #000000; stroke-width: 1.5"/>
      </g>
     </g>
    </g>
    <g id="xtick_36">
     <g id="line2d_64">
      <g>
       <use xlink:href="#m6f32cae2eb" x="425.291634" y="451.918281" style="stroke: #000000; stroke-width: 1.5"/>
      </g>
     </g>
    </g>
    <g id="xtick_37">
     <g id="line2d_65">
      <g>
       <use xlink:href="#m6f32cae2eb" x="476.649815" y="451.918281" style="stroke: #000000; stroke-width: 1.5"/>
      </g>
     </g>
    </g>
    <g id="xtick_38">
     <g id="line2d_66">
      <g>
       <use xlink:href="#m6f32cae2eb" x="502.328906" y="451.918281" style="stroke: #000000; stroke-width: 1.5"/>
      </g>
     </g>
    </g>
    <g id="xtick_39">
     <g id="line2d_67">
      <g>
       <use xlink:href="#m6f32cae2eb" x="528.007997" y="451.918281" style="stroke: #000000; stroke-width: 1.5"/>
      </g>
     </g>
    </g>
    <g id="xtick_40">
     <g id="line2d_68">
      <g>
       <use xlink:href="#m6f32cae2eb" x="579.366179" y="451.918281" style="stroke: #000000; stroke-width: 1.5"/>
      </g>
     </g>
    </g>
    <g id="xtick_41">
     <g id="line2d_69">
      <g>
       <use xlink:href="#m6f32cae2eb" x="605.04527" y="451.918281" style="stroke: #000000; stroke-width: 1.5"/>
      </g>
     </g>
    </g>
    <g id="xtick_42">
     <g id="line2d_70">
      <g>
       <use xlink:href="#m6f32cae2eb" x="630.724361" y="451.918281" style="stroke: #000000; stroke-width: 1.5"/>
      </g>
     </g>
    </g>
    <g id="xtick_43">
     <g id="line2d_71">
      <g>
       <use xlink:href="#m6f32cae2eb" x="682.082543" y="451.918281" style="stroke: #000000; stroke-width: 1.5"/>
      </g>
     </g>
    </g>
    <g id="xtick_44">
     <g id="line2d_72">
      <g>
       <use xlink:href="#m6f32cae2eb" x="707.761634" y="451.918281" style="stroke: #000000; stroke-width: 1.5"/>
      </g>
     </g>
    </g>
    <g id="xtick_45">
     <g id="line2d_73">
      <g>
       <use xlink:href="#m6f32cae2eb" x="733.440724" y="451.918281" style="stroke: #000000; stroke-width: 1.5"/>
      </g>
     </g>
    </g>
    <g id="xtick_46">
     <g id="line2d_74">
      <g>
       <use xlink:href="#m6f32cae2eb" x="784.798906" y="451.918281" style="stroke: #000000; stroke-width: 1.5"/>
      </g>
     </g>
    </g>
    <g id="text_13">
     <text style="font-weight: 600; font-size: 27px; font-family: 'Courier New'; text-anchor: middle" x="502.328906" y="518.746875" transform="rotate(-0 502.328906 518.746875)">Threshold</text>
    </g>
   </g>
   <g id="matplotlib.axis_4">
    <g id="ytick_12">
     <g id="line2d_75">
      <path d="M 219.858906 443.835099 
L 784.798906 443.835099 
" clip-path="url(#pd716520b3f)" style="fill: none; stroke: #4c566a; stroke-opacity: 0.3; stroke-width: 0.8; stroke-linecap: square"/>
     </g>
     <g id="line2d_76">
      <g>
       <use xlink:href="#m18beab9ca1" x="219.858906" y="443.835099" style="stroke: #000000; stroke-width: 2.4"/>
      </g>
     </g>
     <g id="text_14">
      <text style="font-size: 24px; font-family: 'Courier New'; text-anchor: end" x="207.358906" y="451.188849" transform="rotate(-0 207.358906 451.188849)">0.0</text>
     </g>
    </g>
    <g id="ytick_13">
     <g id="line2d_77">
      <path d="M 219.858906 363.003281 
L 784.798906 363.003281 
" clip-path="url(#pd716520b3f)" style="fill: none; stroke: #4c566a; stroke-opacity: 0.3; stroke-width: 0.8; stroke-linecap: square"/>
     </g>
     <g id="line2d_78">
      <g>
       <use xlink:href="#m18beab9ca1" x="219.858906" y="363.003281" style="stroke: #000000; stroke-width: 2.4"/>
      </g>
     </g>
     <g id="text_15">
      <text style="font-size: 24px; font-family: 'Courier New'; text-anchor: end" x="207.358906" y="370.357031" transform="rotate(-0 207.358906 370.357031)">0.5</text>
     </g>
    </g>
    <g id="ytick_14">
     <g id="line2d_79">
      <path d="M 219.858906 282.171463 
L 784.798906 282.171463 
" clip-path="url(#pd716520b3f)" style="fill: none; stroke: #4c566a; stroke-opacity: 0.3; stroke-width: 0.8; stroke-linecap: square"/>
     </g>
     <g id="line2d_80">
      <g>
       <use xlink:href="#m18beab9ca1" x="219.858906" y="282.171463" style="stroke: #000000; stroke-width: 2.4"/>
      </g>
     </g>
     <g id="text_16">
      <text style="font-size: 24px; font-family: 'Courier New'; text-anchor: end" x="207.358906" y="289.525213" transform="rotate(-0 207.358906 289.525213)">1.0</text>
     </g>
    </g>
    <g id="ytick_15">
     <g id="line2d_81">
      <g>
       <use xlink:href="#m5de910a721" x="219.858906" y="427.668736" style="stroke: #000000; stroke-width: 1.5"/>
      </g>
     </g>
    </g>
    <g id="ytick_16">
     <g id="line2d_82">
      <g>
       <use xlink:href="#m5de910a721" x="219.858906" y="411.502372" style="stroke: #000000; stroke-width: 1.5"/>
      </g>
     </g>
    </g>
    <g id="ytick_17">
     <g id="line2d_83">
      <g>
       <use xlink:href="#m5de910a721" x="219.858906" y="395.336009" style="stroke: #000000; stroke-width: 1.5"/>
      </g>
     </g>
    </g>
    <g id="ytick_18">
     <g id="line2d_84">
      <g>
       <use xlink:href="#m5de910a721" x="219.858906" y="379.169645" style="stroke: #000000; stroke-width: 1.5"/>
      </g>
     </g>
    </g>
    <g id="ytick_19">
     <g id="line2d_85">
      <g>
       <use xlink:href="#m5de910a721" x="219.858906" y="346.836918" style="stroke: #000000; stroke-width: 1.5"/>
      </g>
     </g>
    </g>
    <g id="ytick_20">
     <g id="line2d_86">
      <g>
       <use xlink:href="#m5de910a721" x="219.858906" y="330.670554" style="stroke: #000000; stroke-width: 1.5"/>
      </g>
     </g>
    </g>
    <g id="ytick_21">
     <g id="line2d_87">
      <g>
       <use xlink:href="#m5de910a721" x="219.858906" y="314.50419" style="stroke: #000000; stroke-width: 1.5"/>
      </g>
     </g>
    </g>
    <g id="ytick_22">
     <g id="line2d_88">
      <g>
       <use xlink:href="#m5de910a721" x="219.858906" y="298.337827" style="stroke: #000000; stroke-width: 1.5"/>
      </g>
     </g>
    </g>
    <g id="text_17">
     <text style="font-weight: 600; font-size: 27px; font-family: 'Courier New'; text-anchor: middle" x="140.502969" y="363.003281" transform="rotate(-90 140.502969 363.003281)">Value</text>
    </g>
   </g>
   <g id="line2d_89">
    <path d="M 245.537997 282.171463 
L 266.08127 282.171463 
L 267.108434 288.159005 
L 271.217088 288.159005 
L 272.244252 294.146547 
L 274.298579 294.146547 
L 275.325743 300.134089 
L 288.67887 300.134089 
L 289.706034 306.121631 
L 291.760361 306.121631 
L 292.787524 312.109174 
L 298.950506 312.109174 
L 299.97767 318.096716 
L 302.031997 318.096716 
L 304.086324 330.0718 
L 305.113488 330.0718 
L 307.167815 342.046884 
L 311.27647 342.046884 
L 312.303634 348.034426 
L 313.330797 348.034426 
L 314.357961 354.021968 
L 315.385124 354.021968 
L 316.412288 360.00951 
L 317.439452 360.00951 
L 318.466615 365.997052 
L 320.520943 365.997052 
L 321.548106 371.984594 
L 325.656761 371.984594 
L 326.683924 377.972136 
L 335.928397 377.972136 
L 337.982724 389.947221 
L 341.064215 389.947221 
L 342.091379 395.934763 
L 348.254361 395.934763 
L 349.281524 401.922305 
L 360.580324 401.922305 
L 361.607488 407.909847 
L 370.851961 407.909847 
L 371.879124 413.897389 
L 377.014943 413.897389 
L 378.042106 419.884931 
L 386.259415 419.884931 
L 387.286579 425.872473 
L 398.585379 425.872473 
L 399.612543 431.860015 
L 417.074324 431.860015 
L 418.101488 437.847557 
L 535.198143 437.847557 
L 536.225306 443.835099 
L 759.119815 443.835099 
L 759.119815 443.835099 
" clip-path="url(#pd716520b3f)" style="fill: none; stroke: #bf616a; stroke-width: 2; stroke-linecap: square"/>
   </g>
   <g id="line2d_90">
    <path d="M 245.537997 443.835099 
L 259.918288 443.835099 
L 260.945452 442.499036 
L 261.972615 439.82691 
L 262.999779 439.82691 
L 264.026943 438.490847 
L 265.054106 438.490847 
L 267.108434 435.818721 
L 268.135597 433.146595 
L 269.162761 431.810531 
L 270.189924 429.138405 
L 271.217088 427.802342 
L 272.244252 425.130216 
L 274.298579 425.130216 
L 275.325743 421.122027 
L 276.352906 418.4499 
L 278.407234 415.777774 
L 281.488724 415.777774 
L 282.515888 414.441711 
L 285.597379 414.441711 
L 286.624543 411.769585 
L 287.651706 411.769585 
L 288.67887 409.097459 
L 290.733197 401.08108 
L 291.760361 399.745017 
L 292.787524 397.072891 
L 296.896179 397.072891 
L 298.950506 391.728638 
L 302.031997 387.720449 
L 303.059161 385.048323 
L 304.086324 385.048323 
L 306.140652 382.376196 
L 307.167815 379.70407 
L 308.194979 378.368007 
L 309.222143 375.695881 
L 310.249306 371.687691 
L 311.27647 371.687691 
L 316.412288 365.007376 
L 317.439452 360.999187 
L 319.493779 355.654934 
L 320.520943 355.654934 
L 321.548106 352.982808 
L 322.57527 352.982808 
L 323.602434 351.646745 
L 325.656761 346.302492 
L 327.711088 343.630366 
L 329.765415 343.630366 
L 330.792579 338.286114 
L 334.901234 338.286114 
L 336.955561 335.613987 
L 337.982724 335.613987 
L 339.009888 334.277924 
L 343.118543 334.277924 
L 344.145706 331.605798 
L 345.17287 330.269735 
L 346.200034 330.269735 
L 347.227197 328.933672 
L 348.254361 328.933672 
L 349.281524 327.597609 
L 351.335852 327.597609 
L 352.363015 326.261546 
L 355.444506 326.261546 
L 356.47167 324.925483 
L 358.525997 324.925483 
L 359.553161 323.589419 
L 360.580324 320.917293 
L 361.607488 319.58123 
L 362.634652 316.909104 
L 363.661815 315.573041 
L 364.688979 315.573041 
L 365.716143 312.900915 
L 366.743306 312.900915 
L 367.77047 311.564851 
L 371.879124 311.564851 
L 372.906288 308.892725 
L 373.933452 307.556662 
L 374.960615 307.556662 
L 375.987779 304.884536 
L 377.014943 304.884536 
L 378.042106 303.548473 
L 384.205088 303.548473 
L 385.232252 302.21241 
L 388.313743 302.21241 
L 389.340906 300.876347 
L 402.694034 300.876347 
L 403.721197 299.540284 
L 412.96567 299.540284 
L 413.992834 298.20422 
L 419.128652 298.20422 
L 420.155815 296.868157 
L 422.210143 296.868157 
L 423.237306 295.532094 
L 429.400288 295.532094 
L 430.427452 294.196031 
L 433.508943 294.196031 
L 434.536106 292.859968 
L 440.699088 292.859968 
L 441.726252 291.523905 
L 462.269524 291.523905 
L 463.296688 290.187842 
L 464.323852 290.187842 
L 465.351015 288.851779 
L 473.568324 288.851779 
L 474.595488 287.515716 
L 483.839961 287.515716 
L 484.867124 286.179652 
L 513.627706 286.179652 
L 514.65487 284.843589 
L 515.682034 284.843589 
L 516.709197 283.507526 
L 627.64287 283.507526 
L 628.670034 282.171463 
L 759.119815 282.171463 
L 759.119815 282.171463 
" clip-path="url(#pd716520b3f)" style="fill: none; stroke: #5e81ac; stroke-width: 2; stroke-linecap: square"/>
   </g>
   <g id="line2d_91">
    <path d="M 245.537997 414.342409 
L 259.918288 414.342409 
L 260.945452 414.141778 
L 261.972615 413.732215 
L 262.999779 413.732215 
L 264.026943 413.523168 
L 265.054106 413.523168 
L 266.08127 413.311196 
L 267.108434 414.024784 
L 268.135597 413.595858 
L 269.162761 413.376733 
L 270.189924 412.928816 
L 271.217088 412.699881 
L 272.244252 413.216986 
L 274.298579 413.216986 
L 275.325743 413.523168 
L 276.352906 413.042026 
L 278.407234 412.545363 
L 281.488724 412.545363 
L 282.515888 412.290975 
L 285.597379 412.290975 
L 286.624543 411.769585 
L 287.651706 411.769585 
L 288.67887 411.230669 
L 289.706034 411.502372 
L 290.733197 410.636317 
L 291.760361 410.337229 
L 292.787524 410.903618 
L 296.896179 410.903618 
L 298.950506 409.637023 
L 299.97767 410.55141 
L 302.031997 409.885736 
L 303.059161 410.502391 
L 304.086324 411.839171 
L 305.113488 411.502372 
L 306.140652 412.545363 
L 307.167815 413.298635 
L 308.194979 412.955528 
L 309.222143 412.245653 
L 310.249306 411.117459 
L 311.27647 411.117459 
L 312.303634 412.290975 
L 313.330797 411.901542 
L 314.357961 413.139472 
L 315.385124 412.745939 
L 316.412288 414.054956 
L 317.439452 412.831114 
L 318.466615 413.811853 
L 319.493779 412.928816 
L 320.520943 412.928816 
L 321.548106 413.989505 
L 322.57527 413.989505 
L 323.602434 413.523168 
L 325.656761 411.502372 
L 326.683924 413.174755 
L 327.711088 412.636854 
L 329.765415 412.636854 
L 330.792579 410.282269 
L 334.901234 410.282269 
L 335.928397 409.637023 
L 336.955561 411.502372 
L 337.982724 414.141778 
L 339.009888 413.523168 
L 341.064215 413.523168 
L 342.091379 416.317885 
L 343.118543 416.317885 
L 344.145706 415.094897 
L 345.17287 414.441711 
L 346.200034 414.441711 
L 347.227197 413.758144 
L 348.254361 413.758144 
L 349.281524 416.233991 
L 351.335852 416.233991 
L 352.363015 415.543963 
L 355.444506 415.543963 
L 356.47167 414.818549 
L 358.525997 414.818549 
L 359.553161 414.054956 
L 360.580324 412.400503 
L 361.607488 415.306222 
L 362.634652 413.523168 
L 363.661815 412.545363 
L 364.688979 412.545363 
L 365.716143 410.387451 
L 366.743306 410.387451 
L 367.77047 409.192892 
L 370.851961 409.192892 
L 371.879124 413.897389 
L 372.906288 411.502372 
L 373.933452 410.155175 
L 374.960615 410.155175 
L 375.987779 407.093364 
L 377.014943 407.093364 
L 378.042106 411.502372 
L 384.205088 411.502372 
L 385.232252 409.80065 
L 386.259415 409.80065 
L 387.286579 416.89116 
L 388.313743 416.89116 
L 389.340906 415.306222 
L 398.585379 415.306222 
L 399.612543 423.627145 
L 402.694034 423.627145 
L 403.721197 422.279948 
L 412.96567 422.279948 
L 413.992834 420.740294 
L 417.074324 420.740294 
L 418.101488 431.399435 
L 419.128652 431.399435 
L 420.155815 430.36313 
L 422.210143 430.36313 
L 423.237306 429.138405 
L 429.400288 429.138405 
L 430.427452 427.668736 
L 433.508943 427.668736 
L 434.536106 425.872473 
L 440.699088 425.872473 
L 441.726252 423.627145 
L 462.269524 423.627145 
L 463.296688 420.740294 
L 464.323852 420.740294 
L 465.351015 416.89116 
L 473.568324 416.89116 
L 474.595488 411.502372 
L 483.839961 411.502372 
L 484.867124 403.41919 
L 513.627706 403.41919 
L 514.65487 389.947221 
L 515.682034 389.947221 
L 516.709197 363.003281 
L 535.198143 363.003281 
L 536.225306 443.835099 
L 627.64287 443.835099 
L 627.64287 443.835099 
" clip-path="url(#pd716520b3f)" style="fill: none; stroke: #a3be8c; stroke-width: 2; stroke-linecap: square"/>
   </g>
   <g id="line2d_92">
    <path d="M 260.945452 282.171463 
L 266.08127 282.171463 
L 267.108434 305.266268 
L 268.135597 300.134089 
L 269.162761 298.337827 
L 270.189924 295.643433 
L 271.217088 294.607127 
L 272.244252 302.379418 
L 274.298579 302.379418 
L 275.325743 306.421009 
L 276.352906 304.216504 
L 278.407234 302.379418 
L 281.488724 302.379418 
L 282.515888 301.571099 
L 285.597379 301.571099 
L 286.624543 300.134089 
L 287.651706 300.134089 
L 288.67887 298.895288 
L 289.706034 301.767055 
L 290.733197 300.134089 
L 291.760361 299.648613 
L 292.787524 302.379418 
L 296.896179 302.379418 
L 298.950506 300.542331 
L 299.97767 303.258024 
L 302.031997 302.379418 
L 303.059161 304.36059 
L 304.086324 307.042792 
L 305.113488 306.573521 
L 306.140652 308.625513 
L 307.167815 310.044504 
L 308.194979 309.572079 
L 309.222143 308.673699 
L 310.249306 307.431406 
L 311.27647 307.431406 
L 312.303634 309.115402 
L 313.330797 308.713254 
L 314.357961 310.286878 
L 315.385124 309.885229 
L 316.412288 311.360731 
L 317.439452 310.19316 
L 318.466615 311.188013 
L 319.493779 310.462599 
L 320.520943 310.462599 
L 321.548106 311.387783 
L 322.57527 311.387783 
L 323.602434 311.03997 
L 325.656761 309.727765 
L 326.683924 310.911665 
L 327.711088 310.595839 
L 329.765415 310.595839 
L 330.792579 309.399023 
L 334.901234 309.399023 
L 335.928397 309.115402 
L 336.955561 310.215155 
L 337.982724 311.564851 
L 339.009888 311.270918 
L 341.064215 311.270918 
L 342.091379 312.583434 
L 343.118543 312.583434 
L 344.145706 311.992911 
L 345.17287 311.706166 
L 346.200034 311.706166 
L 347.227197 311.424883 
L 348.254361 311.424883 
L 349.281524 312.388965 
L 351.335852 312.388965 
L 352.363015 312.109174 
L 355.444506 312.109174 
L 356.47167 311.834516 
L 358.525997 311.834516 
L 359.553161 311.564851 
L 360.580324 311.03997 
L 361.607488 311.951607 
L 362.634652 311.438156 
L 363.661815 311.188013 
L 364.688979 311.188013 
L 365.716143 310.70034 
L 366.743306 310.70034 
L 367.77047 310.462599 
L 370.851961 310.462599 
L 371.879124 311.564851 
L 372.906288 311.08691 
L 373.933452 310.853721 
L 374.960615 310.853721 
L 375.987779 310.398447 
L 377.014943 310.398447 
L 378.042106 311.220398 
L 384.205088 311.220398 
L 385.232252 310.995212 
L 386.259415 310.995212 
L 387.286579 312.017057 
L 388.313743 312.017057 
L 389.340906 311.789229 
L 398.585379 311.789229 
L 399.612543 312.789576 
L 402.694034 312.789576 
L 403.721197 312.559365 
L 412.96567 312.559365 
L 413.992834 312.332589 
L 417.074324 312.332589 
L 418.101488 313.306682 
L 419.128652 313.306682 
L 420.155815 313.077746 
L 422.210143 313.077746 
L 423.237306 312.852153 
L 429.400288 312.852153 
L 430.427452 312.629829 
L 433.508943 312.629829 
L 434.536106 312.410704 
L 440.699088 312.410704 
L 441.726252 312.19471 
L 462.269524 312.19471 
L 463.296688 311.981779 
L 464.323852 311.981779 
L 465.351015 311.771847 
L 473.568324 311.771847 
L 474.595488 311.564851 
L 483.839961 311.564851 
L 484.867124 311.360731 
L 513.627706 311.360731 
L 514.65487 311.159425 
L 515.682034 311.159425 
L 516.709197 310.960878 
L 535.198143 310.960878 
L 536.225306 311.864784 
L 627.64287 311.864784 
L 628.670034 311.664153 
L 759.119815 311.664153 
L 759.119815 311.664153 
" clip-path="url(#pd716520b3f)" style="fill: none; stroke: #b48ead; stroke-width: 2; stroke-linecap: square"/>
   </g>
   <g id="line2d_93">
    <path d="M 298.950506 451.918281 
L 298.950506 274.088281 
" clip-path="url(#pd716520b3f)" style="fill: none; stroke-dasharray: 3.7,1.6; stroke-dashoffset: 0; stroke: #4c566a"/>
   </g>
   <g id="line2d_94">
    <path d="M 418.101488 451.918281 
L 418.101488 274.088281 
" clip-path="url(#pd716520b3f)" style="fill: none; stroke-dasharray: 3.7,1.6; stroke-dashoffset: 0; stroke: #4c566a"/>
   </g>
   <g id="patch_8">
    <path d="M 219.858906 451.918281 
L 219.858906 274.088281 
" style="fill: none; stroke: #4c566a; stroke-width: 1.8; stroke-linejoin: miter; stroke-linecap: square"/>
   </g>
   <g id="patch_9">
    <path d="M 784.798906 451.918281 
L 784.798906 274.088281 
" style="fill: none; stroke: #4c566a; stroke-width: 1.8; stroke-linejoin: miter; stroke-linecap: square"/>
   </g>
   <g id="patch_10">
    <path d="M 219.858906 451.918281 
L 784.798906 451.918281 
" style="fill: none; stroke: #4c566a; stroke-width: 1.8; stroke-linejoin: miter; stroke-linecap: square"/>
   </g>
   <g id="patch_11">
    <path d="M 219.858906 274.088281 
L 784.798906 274.088281 
" style="fill: none; stroke: #4c566a; stroke-width: 1.8; stroke-linejoin: miter; stroke-linecap: square"/>
   </g>
   <g id="legend_1">
    <g id="line2d_95">
     <path d="M 681.781719 341.234531 
L 691.781719 341.234531 
L 701.781719 341.234531 
" style="fill: none; stroke: #bf616a; stroke-width: 2; stroke-linecap: square"/>
    </g>
    <g id="text_18">
     <text style="font-size: 10px; font-family: 'Courier New'; text-anchor: start" x="709.781719" y="344.734531" transform="rotate(-0 709.781719 344.734531)">Sensitivity</text>
    </g>
    <g id="line2d_96">
     <path d="M 681.781719 355.118906 
L 691.781719 355.118906 
L 701.781719 355.118906 
" style="fill: none; stroke: #5e81ac; stroke-width: 2; stroke-linecap: square"/>
    </g>
    <g id="text_19">
     <text style="font-size: 10px; font-family: 'Courier New'; text-anchor: start" x="709.781719" y="358.618906" transform="rotate(-0 709.781719 358.618906)">Specificity</text>
    </g>
    <g id="line2d_97">
     <path d="M 681.781719 369.003281 
L 691.781719 369.003281 
L 701.781719 369.003281 
" style="fill: none; stroke: #a3be8c; stroke-width: 2; stroke-linecap: square"/>
    </g>
    <g id="text_20">
     <text style="font-size: 10px; font-family: 'Courier New'; text-anchor: start" x="709.781719" y="372.503281" transform="rotate(-0 709.781719 372.503281)">PPV</text>
    </g>
    <g id="line2d_98">
     <path d="M 681.781719 382.887656 
L 691.781719 382.887656 
L 701.781719 382.887656 
" style="fill: none; stroke: #b48ead; stroke-width: 2; stroke-linecap: square"/>
    </g>
    <g id="text_21">
     <text style="font-size: 10px; font-family: 'Courier New'; text-anchor: start" x="709.781719" y="386.387656" transform="rotate(-0 709.781719 386.387656)">NPV</text>
    </g>
   </g>
  </g>
 </g>
 <defs>
  <clipPath id="p2035bdbfc5">
   <rect x="219.858906" y="58.098281" width="564.94" height="177.83"/>
  </clipPath>
  <clipPath id="pd716520b3f">
   <rect x="219.858906" y="274.088281" width="564.94" height="177.83"/>
  </clipPath>
 </defs>
</svg>
