<?xml version="1.0" encoding="utf-8" standalone="no"?>
<!DOCTYPE svg PUBLIC "-//W3C//DTD SVG 1.1//EN"
  "http://www.w3.org/Graphics/SVG/1.1/DTD/svg11.dtd">
<svg xmlns:xlink="http://www.w3.org/1999/xlink" width="1064.073281pt" height="531.591562pt" viewBox="0 0 1064.073281 531.591562" xmlns="http://www.w3.org/2000/svg" version="1.1">
 <metadata>
  <rdf:RDF xmlns:dc="http://purl.org/dc/elements/1.1/" xmlns:cc="http://creativecommons.org/ns#" xmlns:rdf="http://www.w3.org/1999/02/22-rdf-syntax-ns#">
   <cc:Work>
    <dc:type rdf:resource="http://purl.org/dc/dcmitype/StillImage"/>
    <dc:date>2025-12-28T16:55:26.925059</dc:date>
    <dc:format>image/svg+xml</dc:format>
    <dc:creator>
     <cc:Agent>
      <dc:title>Matplotlib v3.10.3, https://matplotlib.org/</dc:title>
     </cc:Agent>
    </dc:creator>
   </cc:Work>
  </rdf:RDF>
 </metadata>
 <defs>
  <style type="text/css">*{stroke-linejoin: round; stroke-linecap: butt}</style>
 </defs>
 <g id="figure_1">
  <g id="patch_1">
   <path d="M 0 531.591562 
L 1064.073281 531.591562 
L 1064.073281 0 
L 0 0 
z
" style="fill: #ffffff"/>
  </g>
  <g id="axes_1">
   <g id="patch_2">
    <path d="M 249.566641 235.928281 
L 814.506641 235.928281 
L 814.506641 58.098281 
L 249.566641 58.098281 
z
" style="fill: #ffffff"/>
   </g>
   <g id="matplotlib.axis_1">
    <g id="xtick_1">
     <g id="line2d_1">
      <path d="M 275.245732 235.928281 
L 275.245732 58.098281 
" clip-path="url(#pfb4caeef58)" style="fill: none; stroke: #4c566a; stroke-opacity: 0.3; stroke-width: 0.8; stroke-linecap: square"/>
     </g>
     <g id="line2d_2">
      <defs>
       <path id="m0a01001699" d="M 0 0 
L 0 9 
" style="stroke: #000000; stroke-width: 2.4"/>
      </defs>
      <g>
       <use xlink:href="#m0a01001699" x="275.245732" y="235.928281" style="stroke: #000000; stroke-width: 2.4"/>
      </g>
     </g>
    </g>
    <g id="xtick_2">
     <g id="line2d_3">
      <path d="M 377.962095 235.928281 
L 377.962095 58.098281 
" clip-path="url(#pfb4caeef58)" style="fill: none; stroke: #4c566a; stroke-opacity: 0.3; stroke-width: 0.8; stroke-linecap: square"/>
     </g>
     <g id="line2d_4">
      <g>
       <use xlink:href="#m0a01001699" x="377.962095" y="235.928281" style="stroke: #000000; stroke-width: 2.4"/>
      </g>
     </g>
    </g>
    <g id="xtick_3">
     <g id="line2d_5">
      <path d="M 480.678459 235.928281 
L 480.678459 58.098281 
" clip-path="url(#pfb4caeef58)" style="fill: none; stroke: #4c566a; stroke-opacity: 0.3; stroke-width: 0.8; stroke-linecap: square"/>
     </g>
     <g id="line2d_6">
      <g>
       <use xlink:href="#m0a01001699" x="480.678459" y="235.928281" style="stroke: #000000; stroke-width: 2.4"/>
      </g>
     </g>
    </g>
    <g id="xtick_4">
     <g id="line2d_7">
      <path d="M 583.394822 235.928281 
L 583.394822 58.098281 
" clip-path="url(#pfb4caeef58)" style="fill: none; stroke: #4c566a; stroke-opacity: 0.3; stroke-width: 0.8; stroke-linecap: square"/>
     </g>
     <g id="line2d_8">
      <g>
       <use xlink:href="#m0a01001699" x="583.394822" y="235.928281" style="stroke: #000000; stroke-width: 2.4"/>
      </g>
     </g>
    </g>
    <g id="xtick_5">
     <g id="line2d_9">
      <path d="M 686.111186 235.928281 
L 686.111186 58.098281 
" clip-path="url(#pfb4caeef58)" style="fill: none; stroke: #4c566a; stroke-opacity: 0.3; stroke-width: 0.8; stroke-linecap: square"/>
     </g>
     <g id="line2d_10">
      <g>
       <use xlink:href="#m0a01001699" x="686.111186" y="235.928281" style="stroke: #000000; stroke-width: 2.4"/>
      </g>
     </g>
    </g>
    <g id="xtick_6">
     <g id="line2d_11">
      <path d="M 788.82755 235.928281 
L 788.82755 58.098281 
" clip-path="url(#pfb4caeef58)" style="fill: none; stroke: #4c566a; stroke-opacity: 0.3; stroke-width: 0.8; stroke-linecap: square"/>
     </g>
     <g id="line2d_12">
      <g>
       <use xlink:href="#m0a01001699" x="788.82755" y="235.928281" style="stroke: #000000; stroke-width: 2.4"/>
      </g>
     </g>
    </g>
    <g id="xtick_7">
     <g id="line2d_13">
      <defs>
       <path id="m2c9dcf0da9" d="M 0 0 
L 0 6 
" style="stroke: #000000; stroke-width: 1.5"/>
      </defs>
      <g>
       <use xlink:href="#m2c9dcf0da9" x="249.566641" y="235.928281" style="stroke: #000000; stroke-width: 1.5"/>
      </g>
     </g>
    </g>
    <g id="xtick_8">
     <g id="line2d_14">
      <g>
       <use xlink:href="#m2c9dcf0da9" x="300.924822" y="235.928281" style="stroke: #000000; stroke-width: 1.5"/>
      </g>
     </g>
    </g>
    <g id="xtick_9">
     <g id="line2d_15">
      <g>
       <use xlink:href="#m2c9dcf0da9" x="326.603913" y="235.928281" style="stroke: #000000; stroke-width: 1.5"/>
      </g>
     </g>
    </g>
    <g id="xtick_10">
     <g id="line2d_16">
      <g>
       <use xlink:href="#m2c9dcf0da9" x="352.283004" y="235.928281" style="stroke: #000000; stroke-width: 1.5"/>
      </g>
     </g>
    </g>
    <g id="xtick_11">
     <g id="line2d_17">
      <g>
       <use xlink:href="#m2c9dcf0da9" x="403.641186" y="235.928281" style="stroke: #000000; stroke-width: 1.5"/>
      </g>
     </g>
    </g>
    <g id="xtick_12">
     <g id="line2d_18">
      <g>
       <use xlink:href="#m2c9dcf0da9" x="429.320277" y="235.928281" style="stroke: #000000; stroke-width: 1.5"/>
      </g>
     </g>
    </g>
    <g id="xtick_13">
     <g id="line2d_19">
      <g>
       <use xlink:href="#m2c9dcf0da9" x="454.999368" y="235.928281" style="stroke: #000000; stroke-width: 1.5"/>
      </g>
     </g>
    </g>
    <g id="xtick_14">
     <g id="line2d_20">
      <g>
       <use xlink:href="#m2c9dcf0da9" x="506.35755" y="235.928281" style="stroke: #000000; stroke-width: 1.5"/>
      </g>
     </g>
    </g>
    <g id="xtick_15">
     <g id="line2d_21">
      <g>
       <use xlink:href="#m2c9dcf0da9" x="532.036641" y="235.928281" style="stroke: #000000; stroke-width: 1.5"/>
      </g>
     </g>
    </g>
    <g id="xtick_16">
     <g id="line2d_22">
      <g>
       <use xlink:href="#m2c9dcf0da9" x="557.715732" y="235.928281" style="stroke: #000000; stroke-width: 1.5"/>
      </g>
     </g>
    </g>
    <g id="xtick_17">
     <g id="line2d_23">
      <g>
       <use xlink:href="#m2c9dcf0da9" x="609.073913" y="235.928281" style="stroke: #000000; stroke-width: 1.5"/>
      </g>
     </g>
    </g>
    <g id="xtick_18">
     <g id="line2d_24">
      <g>
       <use xlink:href="#m2c9dcf0da9" x="634.753004" y="235.928281" style="stroke: #000000; stroke-width: 1.5"/>
      </g>
     </g>
    </g>
    <g id="xtick_19">
     <g id="line2d_25">
      <g>
       <use xlink:href="#m2c9dcf0da9" x="660.432095" y="235.928281" style="stroke: #000000; stroke-width: 1.5"/>
      </g>
     </g>
    </g>
    <g id="xtick_20">
     <g id="line2d_26">
      <g>
       <use xlink:href="#m2c9dcf0da9" x="711.790277" y="235.928281" style="stroke: #000000; stroke-width: 1.5"/>
      </g>
     </g>
    </g>
    <g id="xtick_21">
     <g id="line2d_27">
      <g>
       <use xlink:href="#m2c9dcf0da9" x="737.469368" y="235.928281" style="stroke: #000000; stroke-width: 1.5"/>
      </g>
     </g>
    </g>
    <g id="xtick_22">
     <g id="line2d_28">
      <g>
       <use xlink:href="#m2c9dcf0da9" x="763.148459" y="235.928281" style="stroke: #000000; stroke-width: 1.5"/>
      </g>
     </g>
    </g>
    <g id="xtick_23">
     <g id="line2d_29">
      <g>
       <use xlink:href="#m2c9dcf0da9" x="814.506641" y="235.928281" style="stroke: #000000; stroke-width: 1.5"/>
      </g>
     </g>
    </g>
   </g>
   <g id="matplotlib.axis_2">
    <g id="ytick_1">
     <g id="line2d_30">
      <path d="M 249.566641 227.845099 
L 814.506641 227.845099 
" clip-path="url(#pfb4caeef58)" style="fill: none; stroke: #4c566a; stroke-opacity: 0.3; stroke-width: 0.8; stroke-linecap: square"/>
     </g>
     <g id="line2d_31">
      <defs>
       <path id="ma021b19353" d="M 0 0 
L -9 0 
" style="stroke: #000000; stroke-width: 2.4"/>
      </defs>
      <g>
       <use xlink:href="#ma021b19353" x="249.566641" y="227.845099" style="stroke: #000000; stroke-width: 2.4"/>
      </g>
     </g>
     <g id="text_1">
      <text style="font-size: 24px; font-family: 'Courier New'; text-anchor: end" x="237.066641" y="235.198849" transform="rotate(-0 237.066641 235.198849)">0.0</text>
     </g>
    </g>
    <g id="ytick_2">
     <g id="line2d_32">
      <path d="M 249.566641 132.700386 
L 814.506641 132.700386 
" clip-path="url(#pfb4caeef58)" style="fill: none; stroke: #4c566a; stroke-opacity: 0.3; stroke-width: 0.8; stroke-linecap: square"/>
     </g>
     <g id="line2d_33">
      <g>
       <use xlink:href="#ma021b19353" x="249.566641" y="132.700386" style="stroke: #000000; stroke-width: 2.4"/>
      </g>
     </g>
     <g id="text_2">
      <text style="font-size: 24px; font-family: 'Courier New'; text-anchor: end" x="237.066641" y="140.054136" transform="rotate(-0 237.066641 140.054136)">0.2</text>
     </g>
    </g>
    <g id="ytick_3">
     <g id="line2d_34">
      <defs>
       <path id="m209cf5e66f" d="M 0 0 
L -6 0 
" style="stroke: #000000; stroke-width: 1.5"/>
      </defs>
      <g>
       <use xlink:href="#m209cf5e66f" x="249.566641" y="204.058921" style="stroke: #000000; stroke-width: 1.5"/>
      </g>
     </g>
    </g>
    <g id="ytick_4">
     <g id="line2d_35">
      <g>
       <use xlink:href="#m209cf5e66f" x="249.566641" y="180.272743" style="stroke: #000000; stroke-width: 1.5"/>
      </g>
     </g>
    </g>
    <g id="ytick_5">
     <g id="line2d_36">
      <g>
       <use xlink:href="#m209cf5e66f" x="249.566641" y="156.486564" style="stroke: #000000; stroke-width: 1.5"/>
      </g>
     </g>
    </g>
    <g id="ytick_6">
     <g id="line2d_37">
      <g>
       <use xlink:href="#m209cf5e66f" x="249.566641" y="108.914208" style="stroke: #000000; stroke-width: 1.5"/>
      </g>
     </g>
    </g>
    <g id="ytick_7">
     <g id="line2d_38">
      <g>
       <use xlink:href="#m209cf5e66f" x="249.566641" y="85.128029" style="stroke: #000000; stroke-width: 1.5"/>
      </g>
     </g>
    </g>
    <g id="ytick_8">
     <g id="line2d_39">
      <g>
       <use xlink:href="#m209cf5e66f" x="249.566641" y="61.341851" style="stroke: #000000; stroke-width: 1.5"/>
      </g>
     </g>
    </g>
    <g id="text_3">
     <text style="font-weight: 600; font-size: 27px; font-family: 'Courier New'; text-anchor: middle" x="170.210703" y="147.013281" transform="rotate(-90 170.210703 147.013281)">Youden index</text>
    </g>
   </g>
   <g id="line2d_40">
    <path d="M 275.245732 227.845099 
L 276.272895 81.627033 
L 307.087804 81.627033 
L 308.114968 101.191423 
L 309.142132 101.191423 
L 310.169295 98.102308 
L 311.196459 98.102308 
L 312.223622 91.92408 
L 322.495259 91.92408 
L 323.522422 90.894376 
L 330.712568 90.894376 
L 331.739732 106.339946 
L 335.848386 106.339946 
L 336.87555 103.250832 
L 337.902713 97.072604 
L 345.092859 97.072604 
L 346.120022 69.270577 
L 351.255841 69.270577 
L 352.283004 66.181463 
L 355.364495 66.181463 
L 356.391659 99.132013 
L 357.418822 99.132013 
L 358.445986 110.458765 
L 377.962095 110.458765 
L 378.989259 97.072604 
L 380.016422 97.072604 
L 381.043586 89.864671 
L 382.07075 89.864671 
L 383.097913 99.132013 
L 403.641186 99.132013 
L 404.66835 88.834966 
L 419.048641 88.834966 
L 420.075804 121.785516 
L 421.102968 121.785516 
L 422.130132 130.023154 
L 434.456095 130.023154 
L 435.483259 144.43902 
L 445.754895 144.43902 
L 446.782059 138.260791 
L 458.080859 138.260791 
L 459.108022 132.082563 
L 480.678459 132.082563 
L 481.705622 146.498429 
L 508.411877 146.498429 
L 509.439041 169.151932 
L 510.466204 169.151932 
L 511.493368 166.062818 
L 532.036641 166.062818 
L 533.063804 188.716321 
L 555.661404 188.716321 
L 556.688568 185.627207 
L 583.394822 185.627207 
L 584.421986 205.191596 
L 649.133295 205.191596 
L 650.160459 219.607462 
L 660.432095 219.607462 
L 661.459259 216.518348 
L 788.82755 216.518348 
L 788.82755 216.518348 
" clip-path="url(#pfb4caeef58)" style="fill: none; stroke: #81a1c1; stroke-width: 2; stroke-linecap: square"/>
   </g>
   <g id="line2d_41">
    <path d="M 352.283004 235.928281 
L 352.283004 58.098281 
" clip-path="url(#pfb4caeef58)" style="fill: none; stroke-dasharray: 5.55,2.4; stroke-dashoffset: 0; stroke: #bf616a; stroke-width: 1.5"/>
   </g>
   <g id="line2d_42">
    <path d="M 275.245732 235.928281 
L 275.245732 58.098281 
" clip-path="url(#pfb4caeef58)" style="fill: none; stroke-dasharray: 5.55,2.4; stroke-dashoffset: 0; stroke: #bf616a; stroke-width: 1.5"/>
   </g>
   <g id="patch_3">
    <path d="M 249.566641 235.928281 
L 249.566641 58.098281 
" style="fill: none; stroke: #4c566a; stroke-width: 1.8; stroke-linejoin: miter; stroke-linecap: square"/>
   </g>
   <g id="patch_4">
    <path d="M 814.506641 235.928281 
L 814.506641 58.098281 
" style="fill: none; stroke: #4c566a; stroke-width: 1.8; stroke-linejoin: miter; stroke-linecap: square"/>
   </g>
   <g id="patch_5">
    <path d="M 249.566641 235.928281 
L 814.506641 235.928281 
" style="fill: none; stroke: #4c566a; stroke-width: 1.8; stroke-linejoin: miter; stroke-linecap: square"/>
   </g>
   <g id="patch_6">
    <path d="M 249.566641 58.098281 
L 814.506641 58.098281 
" style="fill: none; stroke: #4c566a; stroke-width: 1.8; stroke-linejoin: miter; stroke-linecap: square"/>
   </g>
   <g id="text_4">
    <text style="font-size: 10px; font-family: 'Courier New'; fill: #bf616a" transform="translate(350.398629 218.330628) rotate(-90)">High threshold = 0.150</text>
   </g>
   <g id="text_5">
    <text style="font-size: 10px; font-family: 'Courier New'; fill: #bf616a" transform="translate(273.361357 218.330628) rotate(-90)">Low threshold = 0.000</text>
   </g>
   <g id="text_6">
    <text style="font-weight: 600; font-size: 33px; font-family: 'Courier New'; text-anchor: middle" x="532.036641" y="28.098281" transform="rotate(-0 532.036641 28.098281)">Radiomics + all scores Youden index across thresholds</text>
   </g>
  </g>
  <g id="axes_2">
   <g id="patch_7">
    <path d="M 249.566641 451.918281 
L 814.506641 451.918281 
L 814.506641 274.088281 
L 249.566641 274.088281 
z
" style="fill: #ffffff"/>
   </g>
   <g id="matplotlib.axis_3">
    <g id="xtick_24">
     <g id="line2d_43">
      <path d="M 275.245732 451.918281 
L 275.245732 274.088281 
" clip-path="url(#p1048a04b76)" style="fill: none; stroke: #4c566a; stroke-opacity: 0.3; stroke-width: 0.8; stroke-linecap: square"/>
     </g>
     <g id="line2d_44">
      <g>
       <use xlink:href="#m0a01001699" x="275.245732" y="451.918281" style="stroke: #000000; stroke-width: 2.4"/>
      </g>
     </g>
     <g id="text_7">
      <text style="font-size: 24px; font-family: 'Courier New'; text-anchor: middle" x="275.245732" y="479.125781" transform="rotate(-0 275.245732 479.125781)">0.0</text>
     </g>
    </g>
    <g id="xtick_25">
     <g id="line2d_45">
      <path d="M 377.962095 451.918281 
L 377.962095 274.088281 
" clip-path="url(#p1048a04b76)" style="fill: none; stroke: #4c566a; stroke-opacity: 0.3; stroke-width: 0.8; stroke-linecap: square"/>
     </g>
     <g id="line2d_46">
      <g>
       <use xlink:href="#m0a01001699" x="377.962095" y="451.918281" style="stroke: #000000; stroke-width: 2.4"/>
      </g>
     </g>
     <g id="text_8">
      <text style="font-size: 24px; font-family: 'Courier New'; text-anchor: middle" x="377.962095" y="479.125781" transform="rotate(-0 377.962095 479.125781)">0.2</text>
     </g>
    </g>
    <g id="xtick_26">
     <g id="line2d_47">
      <path d="M 480.678459 451.918281 
L 480.678459 274.088281 
" clip-path="url(#p1048a04b76)" style="fill: none; stroke: #4c566a; stroke-opacity: 0.3; stroke-width: 0.8; stroke-linecap: square"/>
     </g>
     <g id="line2d_48">
      <g>
       <use xlink:href="#m0a01001699" x="480.678459" y="451.918281" style="stroke: #000000; stroke-width: 2.4"/>
      </g>
     </g>
     <g id="text_9">
      <text style="font-size: 24px; font-family: 'Courier New'; text-anchor: middle" x="480.678459" y="479.125781" transform="rotate(-0 480.678459 479.125781)">0.4</text>
     </g>
    </g>
    <g id="xtick_27">
     <g id="line2d_49">
      <path d="M 583.394822 451.918281 
L 583.394822 274.088281 
" clip-path="url(#p1048a04b76)" style="fill: none; stroke: #4c566a; stroke-opacity: 0.3; stroke-width: 0.8; stroke-linecap: square"/>
     </g>
     <g id="line2d_50">
      <g>
       <use xlink:href="#m0a01001699" x="583.394822" y="451.918281" style="stroke: #000000; stroke-width: 2.4"/>
      </g>
     </g>
     <g id="text_10">
      <text style="font-size: 24px; font-family: 'Courier New'; text-anchor: middle" x="583.394822" y="479.125781" transform="rotate(-0 583.394822 479.125781)">0.6</text>
     </g>
    </g>
    <g id="xtick_28">
     <g id="line2d_51">
      <path d="M 686.111186 451.918281 
L 686.111186 274.088281 
" clip-path="url(#p1048a04b76)" style="fill: none; stroke: #4c566a; stroke-opacity: 0.3; stroke-width: 0.8; stroke-linecap: square"/>
     </g>
     <g id="line2d_52">
      <g>
       <use xlink:href="#m0a01001699" x="686.111186" y="451.918281" style="stroke: #000000; stroke-width: 2.4"/>
      </g>
     </g>
     <g id="text_11">
      <text style="font-size: 24px; font-family: 'Courier New'; text-anchor: middle" x="686.111186" y="479.125781" transform="rotate(-0 686.111186 479.125781)">0.8</text>
     </g>
    </g>
    <g id="xtick_29">
     <g id="line2d_53">
      <path d="M 788.82755 451.918281 
L 788.82755 274.088281 
" clip-path="url(#p1048a04b76)" style="fill: none; stroke: #4c566a; stroke-opacity: 0.3; stroke-width: 0.8; stroke-linecap: square"/>
     </g>
     <g id="line2d_54">
      <g>
       <use xlink:href="#m0a01001699" x="788.82755" y="451.918281" style="stroke: #000000; stroke-width: 2.4"/>
      </g>
     </g>
     <g id="text_12">
      <text style="font-size: 24px; font-family: 'Courier New'; text-anchor: middle" x="788.82755" y="479.125781" transform="rotate(-0 788.82755 479.125781)">1.0</text>
     </g>
    </g>
    <g id="xtick_30">
     <g id="line2d_55">
      <g>
       <use xlink:href="#m2c9dcf0da9" x="249.566641" y="451.918281" style="stroke: #000000; stroke-width: 1.5"/>
      </g>
     </g>
    </g>
    <g id="xtick_31">
     <g id="line2d_56">
      <g>
       <use xlink:href="#m2c9dcf0da9" x="300.924822" y="451.918281" style="stroke: #000000; stroke-width: 1.5"/>
      </g>
     </g>
    </g>
    <g id="xtick_32">
     <g id="line2d_57">
      <g>
       <use xlink:href="#m2c9dcf0da9" x="326.603913" y="451.918281" style="stroke: #000000; stroke-width: 1.5"/>
      </g>
     </g>
    </g>
    <g id="xtick_33">
     <g id="line2d_58">
      <g>
       <use xlink:href="#m2c9dcf0da9" x="352.283004" y="451.918281" style="stroke: #000000; stroke-width: 1.5"/>
      </g>
     </g>
    </g>
    <g id="xtick_34">
     <g id="line2d_59">
      <g>
       <use xlink:href="#m2c9dcf0da9" x="403.641186" y="451.918281" style="stroke: #000000; stroke-width: 1.5"/>
      </g>
     </g>
    </g>
    <g id="xtick_35">
     <g id="line2d_60">
      <g>
       <use xlink:href="#m2c9dcf0da9" x="429.320277" y="451.918281" style="stroke: #000000; stroke-width: 1.5"/>
      </g>
     </g>
    </g>
    <g id="xtick_36">
     <g id="line2d_61">
      <g>
       <use xlink:href="#m2c9dcf0da9" x="454.999368" y="451.918281" style="stroke: #000000; stroke-width: 1.5"/>
      </g>
     </g>
    </g>
    <g id="xtick_37">
     <g id="line2d_62">
      <g>
       <use xlink:href="#m2c9dcf0da9" x="506.35755" y="451.918281" style="stroke: #000000; stroke-width: 1.5"/>
      </g>
     </g>
    </g>
    <g id="xtick_38">
     <g id="line2d_63">
      <g>
       <use xlink:href="#m2c9dcf0da9" x="532.036641" y="451.918281" style="stroke: #000000; stroke-width: 1.5"/>
      </g>
     </g>
    </g>
    <g id="xtick_39">
     <g id="line2d_64">
      <g>
       <use xlink:href="#m2c9dcf0da9" x="557.715732" y="451.918281" style="stroke: #000000; stroke-width: 1.5"/>
      </g>
     </g>
    </g>
    <g id="xtick_40">
     <g id="line2d_65">
      <g>
       <use xlink:href="#m2c9dcf0da9" x="609.073913" y="451.918281" style="stroke: #000000; stroke-width: 1.5"/>
      </g>
     </g>
    </g>
    <g id="xtick_41">
     <g id="line2d_66">
      <g>
       <use xlink:href="#m2c9dcf0da9" x="634.753004" y="451.918281" style="stroke: #000000; stroke-width: 1.5"/>
      </g>
     </g>
    </g>
    <g id="xtick_42">
     <g id="line2d_67">
      <g>
       <use xlink:href="#m2c9dcf0da9" x="660.432095" y="451.918281" style="stroke: #000000; stroke-width: 1.5"/>
      </g>
     </g>
    </g>
    <g id="xtick_43">
     <g id="line2d_68">
      <g>
       <use xlink:href="#m2c9dcf0da9" x="711.790277" y="451.918281" style="stroke: #000000; stroke-width: 1.5"/>
      </g>
     </g>
    </g>
    <g id="xtick_44">
     <g id="line2d_69">
      <g>
       <use xlink:href="#m2c9dcf0da9" x="737.469368" y="451.918281" style="stroke: #000000; stroke-width: 1.5"/>
      </g>
     </g>
    </g>
    <g id="xtick_45">
     <g id="line2d_70">
      <g>
       <use xlink:href="#m2c9dcf0da9" x="763.148459" y="451.918281" style="stroke: #000000; stroke-width: 1.5"/>
      </g>
     </g>
    </g>
    <g id="xtick_46">
     <g id="line2d_71">
      <g>
       <use xlink:href="#m2c9dcf0da9" x="814.506641" y="451.918281" style="stroke: #000000; stroke-width: 1.5"/>
      </g>
     </g>
    </g>
    <g id="text_13">
     <text style="font-weight: 600; font-size: 27px; font-family: 'Courier New'; text-anchor: middle" x="532.036641" y="518.746875" transform="rotate(-0 532.036641 518.746875)">Threshold</text>
    </g>
   </g>
   <g id="matplotlib.axis_4">
    <g id="ytick_9">
     <g id="line2d_72">
      <path d="M 249.566641 443.835099 
L 814.506641 443.835099 
" clip-path="url(#p1048a04b76)" style="fill: none; stroke: #4c566a; stroke-opacity: 0.3; stroke-width: 0.8; stroke-linecap: square"/>
     </g>
     <g id="line2d_73">
      <g>
       <use xlink:href="#ma021b19353" x="249.566641" y="443.835099" style="stroke: #000000; stroke-width: 2.4"/>
      </g>
     </g>
     <g id="text_14">
      <text style="font-size: 24px; font-family: 'Courier New'; text-anchor: end" x="237.066641" y="451.188849" transform="rotate(-0 237.066641 451.188849)">0.0</text>
     </g>
    </g>
    <g id="ytick_10">
     <g id="line2d_74">
      <path d="M 249.566641 363.003281 
L 814.506641 363.003281 
" clip-path="url(#p1048a04b76)" style="fill: none; stroke: #4c566a; stroke-opacity: 0.3; stroke-width: 0.8; stroke-linecap: square"/>
     </g>
     <g id="line2d_75">
      <g>
       <use xlink:href="#ma021b19353" x="249.566641" y="363.003281" style="stroke: #000000; stroke-width: 2.4"/>
      </g>
     </g>
     <g id="text_15">
      <text style="font-size: 24px; font-family: 'Courier New'; text-anchor: end" x="237.066641" y="370.357031" transform="rotate(-0 237.066641 370.357031)">0.5</text>
     </g>
    </g>
    <g id="ytick_11">
     <g id="line2d_76">
      <path d="M 249.566641 282.171463 
L 814.506641 282.171463 
" clip-path="url(#p1048a04b76)" style="fill: none; stroke: #4c566a; stroke-opacity: 0.3; stroke-width: 0.8; stroke-linecap: square"/>
     </g>
     <g id="line2d_77">
      <g>
       <use xlink:href="#ma021b19353" x="249.566641" y="282.171463" style="stroke: #000000; stroke-width: 2.4"/>
      </g>
     </g>
     <g id="text_16">
      <text style="font-size: 24px; font-family: 'Courier New'; text-anchor: end" x="237.066641" y="289.525213" transform="rotate(-0 237.066641 289.525213)">1.0</text>
     </g>
    </g>
    <g id="ytick_12">
     <g id="line2d_78">
      <g>
       <use xlink:href="#m209cf5e66f" x="249.566641" y="427.668736" style="stroke: #000000; stroke-width: 1.5"/>
      </g>
     </g>
    </g>
    <g id="ytick_13">
     <g id="line2d_79">
      <g>
       <use xlink:href="#m209cf5e66f" x="249.566641" y="411.502372" style="stroke: #000000; stroke-width: 1.5"/>
      </g>
     </g>
    </g>
    <g id="ytick_14">
     <g id="line2d_80">
      <g>
       <use xlink:href="#m209cf5e66f" x="249.566641" y="395.336009" style="stroke: #000000; stroke-width: 1.5"/>
      </g>
     </g>
    </g>
    <g id="ytick_15">
     <g id="line2d_81">
      <g>
       <use xlink:href="#m209cf5e66f" x="249.566641" y="379.169645" style="stroke: #000000; stroke-width: 1.5"/>
      </g>
     </g>
    </g>
    <g id="ytick_16">
     <g id="line2d_82">
      <g>
       <use xlink:href="#m209cf5e66f" x="249.566641" y="346.836918" style="stroke: #000000; stroke-width: 1.5"/>
      </g>
     </g>
    </g>
    <g id="ytick_17">
     <g id="line2d_83">
      <g>
       <use xlink:href="#m209cf5e66f" x="249.566641" y="330.670554" style="stroke: #000000; stroke-width: 1.5"/>
      </g>
     </g>
    </g>
    <g id="ytick_18">
     <g id="line2d_84">
      <g>
       <use xlink:href="#m209cf5e66f" x="249.566641" y="314.50419" style="stroke: #000000; stroke-width: 1.5"/>
      </g>
     </g>
    </g>
    <g id="ytick_19">
     <g id="line2d_85">
      <g>
       <use xlink:href="#m209cf5e66f" x="249.566641" y="298.337827" style="stroke: #000000; stroke-width: 1.5"/>
      </g>
     </g>
    </g>
    <g id="text_17">
     <text style="font-weight: 600; font-size: 27px; font-family: 'Courier New'; text-anchor: middle" x="170.210703" y="363.003281" transform="rotate(-90 170.210703 363.003281)">Value</text>
    </g>
   </g>
   <g id="line2d_86">
    <path d="M 275.245732 282.171463 
L 276.272895 287.070361 
L 307.087804 287.070361 
L 308.114968 296.868157 
L 322.495259 296.868157 
L 323.522422 301.767055 
L 330.712568 301.767055 
L 331.739732 316.46375 
L 355.364495 316.46375 
L 356.391659 336.059342 
L 357.418822 336.059342 
L 358.445986 340.95824 
L 377.962095 340.95824 
L 378.989259 345.857138 
L 380.016422 345.857138 
L 381.043586 350.756036 
L 382.07075 350.756036 
L 383.097913 365.45273 
L 403.641186 365.45273 
L 404.66835 370.351628 
L 419.048641 370.351628 
L 420.075804 389.947221 
L 421.102968 389.947221 
L 422.130132 394.846119 
L 434.456095 394.846119 
L 435.483259 399.745017 
L 480.678459 399.745017 
L 481.705622 404.643915 
L 508.411877 404.643915 
L 509.439041 414.441711 
L 532.036641 414.441711 
L 533.063804 424.239507 
L 583.394822 424.239507 
L 584.421986 434.037303 
L 649.133295 434.037303 
L 650.160459 438.936201 
L 788.82755 438.936201 
L 788.82755 438.936201 
" clip-path="url(#p1048a04b76)" style="fill: none; stroke: #bf616a; stroke-width: 2; stroke-linecap: square"/>
   </g>
   <g id="line2d_87">
    <path d="M 275.245732 443.835099 
L 276.272895 389.247378 
L 307.087804 389.247378 
L 308.114968 386.098086 
L 309.142132 386.098086 
L 310.169295 385.048323 
L 311.196459 385.048323 
L 312.223622 382.948795 
L 322.495259 382.948795 
L 323.522422 377.699975 
L 330.712568 377.699975 
L 331.739732 368.252101 
L 335.848386 368.252101 
L 336.87555 367.202337 
L 337.902713 365.102809 
L 345.092859 365.102809 
L 346.120022 355.654934 
L 351.255841 355.654934 
L 352.283004 354.60517 
L 355.364495 354.60517 
L 356.391659 346.207059 
L 357.418822 346.207059 
L 358.445986 345.157295 
L 377.962095 345.157295 
L 378.989259 335.709421 
L 380.016422 335.709421 
L 381.043586 328.361073 
L 382.07075 328.361073 
L 383.097913 316.813671 
L 403.641186 316.813671 
L 404.66835 308.41556 
L 419.048641 308.41556 
L 420.075804 300.017449 
L 421.102968 300.017449 
L 422.130132 297.917921 
L 445.754895 297.917921 
L 446.782059 295.818393 
L 458.080859 295.818393 
L 459.108022 293.718866 
L 508.411877 293.718866 
L 509.439041 291.619338 
L 510.466204 291.619338 
L 511.493368 290.569574 
L 532.036641 290.569574 
L 533.063804 288.470046 
L 555.661404 288.470046 
L 556.688568 287.420282 
L 583.394822 287.420282 
L 584.421986 284.270991 
L 660.432095 284.270991 
L 661.459259 283.221227 
L 788.82755 283.221227 
L 788.82755 283.221227 
" clip-path="url(#p1048a04b76)" style="fill: none; stroke: #5e81ac; stroke-width: 2; stroke-linecap: square"/>
   </g>
   <g id="line2d_88">
    <path d="M 275.245732 415.306222 
L 276.272895 405.228858 
L 307.087804 405.228858 
L 308.114968 406.238905 
L 309.142132 406.238905 
L 310.169295 405.945185 
L 311.196459 405.945185 
L 312.223622 405.343757 
L 322.495259 405.343757 
L 323.522422 404.766387 
L 330.712568 404.766387 
L 331.739732 404.916076 
L 335.848386 404.916076 
L 336.87555 404.552347 
L 337.902713 403.804104 
L 345.092859 403.804104 
L 346.120022 400.051198 
L 351.255841 400.051198 
L 352.283004 399.590315 
L 355.364495 399.590315 
L 356.391659 400.984497 
L 357.418822 400.984497 
L 358.445986 401.922305 
L 377.962095 401.922305 
L 378.989259 398.296047 
L 380.016422 398.296047 
L 381.043586 395.0794 
L 382.07075 395.0794 
L 383.097913 391.046973 
L 403.641186 391.046973 
L 404.66835 383.211236 
L 419.048641 383.211236 
L 420.075804 380.324385 
L 421.102968 380.324385 
L 422.130132 379.169645 
L 434.456095 379.169645 
L 435.483259 383.211236 
L 445.754895 383.211236 
L 446.782059 377.699975 
L 458.080859 377.699975 
L 459.108022 371.086463 
L 480.678459 371.086463 
L 481.705622 375.7662 
L 508.411877 375.7662 
L 509.439041 379.169645 
L 510.466204 379.169645 
L 511.493368 374.550684 
L 532.036641 374.550684 
L 533.063804 379.169645 
L 555.661404 379.169645 
L 556.688568 371.984594 
L 583.394822 371.984594 
L 584.421986 363.003281 
L 649.133295 363.003281 
L 650.160459 389.947221 
L 660.432095 389.947221 
L 661.459259 363.003281 
L 788.82755 363.003281 
L 788.82755 363.003281 
" clip-path="url(#p1048a04b76)" style="fill: none; stroke: #a3be8c; stroke-width: 2; stroke-linecap: square"/>
   </g>
   <g id="line2d_89">
    <path d="M 276.272895 285.22172 
L 307.087804 285.22172 
L 308.114968 290.533375 
L 309.142132 290.533375 
L 310.169295 290.391648 
L 311.196459 290.391648 
L 312.223622 290.122134 
L 322.495259 290.122134 
L 323.522422 291.823023 
L 330.712568 291.823023 
L 331.739732 296.496089 
L 335.848386 296.496089 
L 336.87555 296.317031 
L 337.902713 295.972017 
L 345.092859 295.972017 
L 346.120022 294.607127 
L 351.255841 294.607127 
L 352.283004 294.471957 
L 355.364495 294.471957 
L 356.391659 299.270502 
L 357.418822 299.270502 
L 358.445986 300.473007 
L 377.962095 300.473007 
L 378.989259 300.28894 
L 380.016422 300.28894 
L 381.043586 300.423809 
L 382.07075 300.423809 
L 383.097913 302.086549 
L 403.641186 302.086549 
L 404.66835 301.96701 
L 419.048641 301.96701 
L 420.075804 304.540017 
L 421.102968 304.540017 
L 422.130132 305.123708 
L 434.456095 305.123708 
L 435.483259 305.974698 
L 445.754895 305.974698 
L 446.782059 305.686174 
L 458.080859 305.686174 
L 459.108022 305.404561 
L 480.678459 305.404561 
L 481.705622 306.228552 
L 508.411877 306.228552 
L 509.439041 307.548894 
L 510.466204 307.548894 
L 511.493368 307.402204 
L 532.036641 307.402204 
L 533.063804 308.658726 
L 555.661404 308.658726 
L 556.688568 308.509921 
L 583.394822 308.509921 
L 584.421986 309.557106 
L 649.133295 309.557106 
L 650.160459 310.286878 
L 660.432095 310.286878 
L 661.459259 310.134903 
L 788.82755 310.134903 
L 788.82755 310.134903 
" clip-path="url(#p1048a04b76)" style="fill: none; stroke: #b48ead; stroke-width: 2; stroke-linecap: square"/>
   </g>
   <g id="line2d_90">
    <path d="M 275.245732 451.918281 
L 275.245732 274.088281 
" clip-path="url(#p1048a04b76)" style="fill: none; stroke-dasharray: 3.7,1.6; stroke-dashoffset: 0; stroke: #4c566a"/>
   </g>
   <g id="line2d_91">
    <path d="M 352.283004 451.918281 
L 352.283004 274.088281 
" clip-path="url(#p1048a04b76)" style="fill: none; stroke-dasharray: 3.7,1.6; stroke-dashoffset: 0; stroke: #4c566a"/>
   </g>
   <g id="patch_8">
    <path d="M 249.566641 451.918281 
L 249.566641 274.088281 
" style="fill: none; stroke: #4c566a; stroke-width: 1.8; stroke-linejoin: miter; stroke-linecap: square"/>
   </g>
   <g id="patch_9">
    <path d="M 814.506641 451.918281 
L 814.506641 274.088281 
" style="fill: none; stroke: #4c566a; stroke-width: 1.8; stroke-linejoin: miter; stroke-linecap: square"/>
   </g>
   <g id="patch_10">
    <path d="M 249.566641 451.918281 
L 814.506641 451.918281 
" style="fill: none; stroke: #4c566a; stroke-width: 1.8; stroke-linejoin: miter; stroke-linecap: square"/>
   </g>
   <g id="patch_11">
    <path d="M 249.566641 274.088281 
L 814.506641 274.088281 
" style="fill: none; stroke: #4c566a; stroke-width: 1.8; stroke-linejoin: miter; stroke-linecap: square"/>
   </g>
   <g id="legend_1">
    <g id="line2d_92">
     <path d="M 711.489453 341.234531 
L 721.489453 341.234531 
L 731.489453 341.234531 
" style="fill: none; stroke: #bf616a; stroke-width: 2; stroke-linecap: square"/>
    </g>
    <g id="text_18">
     <text style="font-size: 10px; font-family: 'Courier New'; text-anchor: start" x="739.489453" y="344.734531" transform="rotate(-0 739.489453 344.734531)">Sensitivity</text>
    </g>
    <g id="line2d_93">
     <path d="M 711.489453 355.118906 
L 721.489453 355.118906 
L 731.489453 355.118906 
" style="fill: none; stroke: #5e81ac; stroke-width: 2; stroke-linecap: square"/>
    </g>
    <g id="text_19">
     <text style="font-size: 10px; font-family: 'Courier New'; text-anchor: start" x="739.489453" y="358.618906" transform="rotate(-0 739.489453 358.618906)">Specificity</text>
    </g>
    <g id="line2d_94">
     <path d="M 711.489453 369.003281 
L 721.489453 369.003281 
L 731.489453 369.003281 
" style="fill: none; stroke: #a3be8c; stroke-width: 2; stroke-linecap: square"/>
    </g>
    <g id="text_20">
     <text style="font-size: 10px; font-family: 'Courier New'; text-anchor: start" x="739.489453" y="372.503281" transform="rotate(-0 739.489453 372.503281)">PPV</text>
    </g>
    <g id="line2d_95">
     <path d="M 711.489453 382.887656 
L 721.489453 382.887656 
L 731.489453 382.887656 
" style="fill: none; stroke: #b48ead; stroke-width: 2; stroke-linecap: square"/>
    </g>
    <g id="text_21">
     <text style="font-size: 10px; font-family: 'Courier New'; text-anchor: start" x="739.489453" y="386.387656" transform="rotate(-0 739.489453 386.387656)">NPV</text>
    </g>
   </g>
  </g>
 </g>
 <defs>
  <clipPath id="pfb4caeef58">
   <rect x="249.566641" y="58.098281" width="564.94" height="177.83"/>
  </clipPath>
  <clipPath id="p1048a04b76">
   <rect x="249.566641" y="274.088281" width="564.94" height="177.83"/>
  </clipPath>
 </defs>
</svg>
