<?xml version="1.0" encoding="utf-8" standalone="no"?>
<!DOCTYPE svg PUBLIC "-//W3C//DTD SVG 1.1//EN"
  "http://www.w3.org/Graphics/SVG/1.1/DTD/svg11.dtd">
<svg xmlns:xlink="http://www.w3.org/1999/xlink" width="1004.657813pt" height="531.591562pt" viewBox="0 0 1004.657813 531.591562" xmlns="http://www.w3.org/2000/svg" version="1.1">
 <metadata>
  <rdf:RDF xmlns:dc="http://purl.org/dc/elements/1.1/" xmlns:cc="http://creativecommons.org/ns#" xmlns:rdf="http://www.w3.org/1999/02/22-rdf-syntax-ns#">
   <cc:Work>
    <dc:type rdf:resource="http://purl.org/dc/dcmitype/StillImage"/>
    <dc:date>2025-12-28T16:55:16.935014</dc:date>
    <dc:format>image/svg+xml</dc:format>
    <dc:creator>
     <cc:Agent>
      <dc:title>Matplotlib v3.10.3, https://matplotlib.org/</dc:title>
     </cc:Agent>
    </dc:creator>
   </cc:Work>
  </rdf:RDF>
 </metadata>
 <defs>
  <style type="text/css">*{stroke-linejoin: round; stroke-linecap: butt}</style>
 </defs>
 <g id="figure_1">
  <g id="patch_1">
   <path d="M 0 531.591562 
L 1004.657813 531.591562 
L 1004.657813 0 
L 0 0 
z
" style="fill: #ffffff"/>
  </g>
  <g id="axes_1">
   <g id="patch_2">
    <path d="M 219.858906 235.928281 
L 784.798906 235.928281 
L 784.798906 58.098281 
L 219.858906 58.098281 
z
" style="fill: #ffffff"/>
   </g>
   <g id="matplotlib.axis_1">
    <g id="xtick_1">
     <g id="line2d_1">
      <path d="M 245.537997 235.928281 
L 245.537997 58.098281 
" clip-path="url(#p701d3d2728)" style="fill: none; stroke: #4c566a; stroke-opacity: 0.3; stroke-width: 0.8; stroke-linecap: square"/>
     </g>
     <g id="line2d_2">
      <defs>
       <path id="me919803021" d="M 0 0 
L 0 9 
" style="stroke: #000000; stroke-width: 2.4"/>
      </defs>
      <g>
       <use xlink:href="#me919803021" x="245.537997" y="235.928281" style="stroke: #000000; stroke-width: 2.4"/>
      </g>
     </g>
    </g>
    <g id="xtick_2">
     <g id="line2d_3">
      <path d="M 348.254361 235.928281 
L 348.254361 58.098281 
" clip-path="url(#p701d3d2728)" style="fill: none; stroke: #4c566a; stroke-opacity: 0.3; stroke-width: 0.8; stroke-linecap: square"/>
     </g>
     <g id="line2d_4">
      <g>
       <use xlink:href="#me919803021" x="348.254361" y="235.928281" style="stroke: #000000; stroke-width: 2.4"/>
      </g>
     </g>
    </g>
    <g id="xtick_3">
     <g id="line2d_5">
      <path d="M 450.970724 235.928281 
L 450.970724 58.098281 
" clip-path="url(#p701d3d2728)" style="fill: none; stroke: #4c566a; stroke-opacity: 0.3; stroke-width: 0.8; stroke-linecap: square"/>
     </g>
     <g id="line2d_6">
      <g>
       <use xlink:href="#me919803021" x="450.970724" y="235.928281" style="stroke: #000000; stroke-width: 2.4"/>
      </g>
     </g>
    </g>
    <g id="xtick_4">
     <g id="line2d_7">
      <path d="M 553.687088 235.928281 
L 553.687088 58.098281 
" clip-path="url(#p701d3d2728)" style="fill: none; stroke: #4c566a; stroke-opacity: 0.3; stroke-width: 0.8; stroke-linecap: square"/>
     </g>
     <g id="line2d_8">
      <g>
       <use xlink:href="#me919803021" x="553.687088" y="235.928281" style="stroke: #000000; stroke-width: 2.4"/>
      </g>
     </g>
    </g>
    <g id="xtick_5">
     <g id="line2d_9">
      <path d="M 656.403452 235.928281 
L 656.403452 58.098281 
" clip-path="url(#p701d3d2728)" style="fill: none; stroke: #4c566a; stroke-opacity: 0.3; stroke-width: 0.8; stroke-linecap: square"/>
     </g>
     <g id="line2d_10">
      <g>
       <use xlink:href="#me919803021" x="656.403452" y="235.928281" style="stroke: #000000; stroke-width: 2.4"/>
      </g>
     </g>
    </g>
    <g id="xtick_6">
     <g id="line2d_11">
      <path d="M 759.119815 235.928281 
L 759.119815 58.098281 
" clip-path="url(#p701d3d2728)" style="fill: none; stroke: #4c566a; stroke-opacity: 0.3; stroke-width: 0.8; stroke-linecap: square"/>
     </g>
     <g id="line2d_12">
      <g>
       <use xlink:href="#me919803021" x="759.119815" y="235.928281" style="stroke: #000000; stroke-width: 2.4"/>
      </g>
     </g>
    </g>
    <g id="xtick_7">
     <g id="line2d_13">
      <defs>
       <path id="m8c54464f69" d="M 0 0 
L 0 6 
" style="stroke: #000000; stroke-width: 1.5"/>
      </defs>
      <g>
       <use xlink:href="#m8c54464f69" x="219.858906" y="235.928281" style="stroke: #000000; stroke-width: 1.5"/>
      </g>
     </g>
    </g>
    <g id="xtick_8">
     <g id="line2d_14">
      <g>
       <use xlink:href="#m8c54464f69" x="271.217088" y="235.928281" style="stroke: #000000; stroke-width: 1.5"/>
      </g>
     </g>
    </g>
    <g id="xtick_9">
     <g id="line2d_15">
      <g>
       <use xlink:href="#m8c54464f69" x="296.896179" y="235.928281" style="stroke: #000000; stroke-width: 1.5"/>
      </g>
     </g>
    </g>
    <g id="xtick_10">
     <g id="line2d_16">
      <g>
       <use xlink:href="#m8c54464f69" x="322.57527" y="235.928281" style="stroke: #000000; stroke-width: 1.5"/>
      </g>
     </g>
    </g>
    <g id="xtick_11">
     <g id="line2d_17">
      <g>
       <use xlink:href="#m8c54464f69" x="373.933452" y="235.928281" style="stroke: #000000; stroke-width: 1.5"/>
      </g>
     </g>
    </g>
    <g id="xtick_12">
     <g id="line2d_18">
      <g>
       <use xlink:href="#m8c54464f69" x="399.612543" y="235.928281" style="stroke: #000000; stroke-width: 1.5"/>
      </g>
     </g>
    </g>
    <g id="xtick_13">
     <g id="line2d_19">
      <g>
       <use xlink:href="#m8c54464f69" x="425.291634" y="235.928281" style="stroke: #000000; stroke-width: 1.5"/>
      </g>
     </g>
    </g>
    <g id="xtick_14">
     <g id="line2d_20">
      <g>
       <use xlink:href="#m8c54464f69" x="476.649815" y="235.928281" style="stroke: #000000; stroke-width: 1.5"/>
      </g>
     </g>
    </g>
    <g id="xtick_15">
     <g id="line2d_21">
      <g>
       <use xlink:href="#m8c54464f69" x="502.328906" y="235.928281" style="stroke: #000000; stroke-width: 1.5"/>
      </g>
     </g>
    </g>
    <g id="xtick_16">
     <g id="line2d_22">
      <g>
       <use xlink:href="#m8c54464f69" x="528.007997" y="235.928281" style="stroke: #000000; stroke-width: 1.5"/>
      </g>
     </g>
    </g>
    <g id="xtick_17">
     <g id="line2d_23">
      <g>
       <use xlink:href="#m8c54464f69" x="579.366179" y="235.928281" style="stroke: #000000; stroke-width: 1.5"/>
      </g>
     </g>
    </g>
    <g id="xtick_18">
     <g id="line2d_24">
      <g>
       <use xlink:href="#m8c54464f69" x="605.04527" y="235.928281" style="stroke: #000000; stroke-width: 1.5"/>
      </g>
     </g>
    </g>
    <g id="xtick_19">
     <g id="line2d_25">
      <g>
       <use xlink:href="#m8c54464f69" x="630.724361" y="235.928281" style="stroke: #000000; stroke-width: 1.5"/>
      </g>
     </g>
    </g>
    <g id="xtick_20">
     <g id="line2d_26">
      <g>
       <use xlink:href="#m8c54464f69" x="682.082543" y="235.928281" style="stroke: #000000; stroke-width: 1.5"/>
      </g>
     </g>
    </g>
    <g id="xtick_21">
     <g id="line2d_27">
      <g>
       <use xlink:href="#m8c54464f69" x="707.761634" y="235.928281" style="stroke: #000000; stroke-width: 1.5"/>
      </g>
     </g>
    </g>
    <g id="xtick_22">
     <g id="line2d_28">
      <g>
       <use xlink:href="#m8c54464f69" x="733.440724" y="235.928281" style="stroke: #000000; stroke-width: 1.5"/>
      </g>
     </g>
    </g>
    <g id="xtick_23">
     <g id="line2d_29">
      <g>
       <use xlink:href="#m8c54464f69" x="784.798906" y="235.928281" style="stroke: #000000; stroke-width: 1.5"/>
      </g>
     </g>
    </g>
   </g>
   <g id="matplotlib.axis_2">
    <g id="ytick_1">
     <g id="line2d_30">
      <path d="M 219.858906 227.845099 
L 784.798906 227.845099 
" clip-path="url(#p701d3d2728)" style="fill: none; stroke: #4c566a; stroke-opacity: 0.3; stroke-width: 0.8; stroke-linecap: square"/>
     </g>
     <g id="line2d_31">
      <defs>
       <path id="mc0c23d944b" d="M 0 0 
L -9 0 
" style="stroke: #000000; stroke-width: 2.4"/>
      </defs>
      <g>
       <use xlink:href="#mc0c23d944b" x="219.858906" y="227.845099" style="stroke: #000000; stroke-width: 2.4"/>
      </g>
     </g>
     <g id="text_1">
      <text style="font-size: 24px; font-family: 'Courier New'; text-anchor: end" x="207.358906" y="235.198849" transform="rotate(-0 207.358906 235.198849)">0.0</text>
     </g>
    </g>
    <g id="ytick_2">
     <g id="line2d_32">
      <path d="M 219.858906 153.528085 
L 784.798906 153.528085 
" clip-path="url(#p701d3d2728)" style="fill: none; stroke: #4c566a; stroke-opacity: 0.3; stroke-width: 0.8; stroke-linecap: square"/>
     </g>
     <g id="line2d_33">
      <g>
       <use xlink:href="#mc0c23d944b" x="219.858906" y="153.528085" style="stroke: #000000; stroke-width: 2.4"/>
      </g>
     </g>
     <g id="text_2">
      <text style="font-size: 24px; font-family: 'Courier New'; text-anchor: end" x="207.358906" y="160.881835" transform="rotate(-0 207.358906 160.881835)">0.2</text>
     </g>
    </g>
    <g id="ytick_3">
     <g id="line2d_34">
      <path d="M 219.858906 79.21107 
L 784.798906 79.21107 
" clip-path="url(#p701d3d2728)" style="fill: none; stroke: #4c566a; stroke-opacity: 0.3; stroke-width: 0.8; stroke-linecap: square"/>
     </g>
     <g id="line2d_35">
      <g>
       <use xlink:href="#mc0c23d944b" x="219.858906" y="79.21107" style="stroke: #000000; stroke-width: 2.4"/>
      </g>
     </g>
     <g id="text_3">
      <text style="font-size: 24px; font-family: 'Courier New'; text-anchor: end" x="207.358906" y="86.56482" transform="rotate(-0 207.358906 86.56482)">0.4</text>
     </g>
    </g>
    <g id="ytick_4">
     <g id="line2d_36">
      <defs>
       <path id="m394d068ffd" d="M 0 0 
L -6 0 
" style="stroke: #000000; stroke-width: 1.5"/>
      </defs>
      <g>
       <use xlink:href="#m394d068ffd" x="219.858906" y="209.265846" style="stroke: #000000; stroke-width: 1.5"/>
      </g>
     </g>
    </g>
    <g id="ytick_5">
     <g id="line2d_37">
      <g>
       <use xlink:href="#m394d068ffd" x="219.858906" y="190.686592" style="stroke: #000000; stroke-width: 1.5"/>
      </g>
     </g>
    </g>
    <g id="ytick_6">
     <g id="line2d_38">
      <g>
       <use xlink:href="#m394d068ffd" x="219.858906" y="172.107338" style="stroke: #000000; stroke-width: 1.5"/>
      </g>
     </g>
    </g>
    <g id="ytick_7">
     <g id="line2d_39">
      <g>
       <use xlink:href="#m394d068ffd" x="219.858906" y="134.948831" style="stroke: #000000; stroke-width: 1.5"/>
      </g>
     </g>
    </g>
    <g id="ytick_8">
     <g id="line2d_40">
      <g>
       <use xlink:href="#m394d068ffd" x="219.858906" y="116.369577" style="stroke: #000000; stroke-width: 1.5"/>
      </g>
     </g>
    </g>
    <g id="ytick_9">
     <g id="line2d_41">
      <g>
       <use xlink:href="#m394d068ffd" x="219.858906" y="97.790323" style="stroke: #000000; stroke-width: 1.5"/>
      </g>
     </g>
    </g>
    <g id="ytick_10">
     <g id="line2d_42">
      <g>
       <use xlink:href="#m394d068ffd" x="219.858906" y="60.631816" style="stroke: #000000; stroke-width: 1.5"/>
      </g>
     </g>
    </g>
    <g id="text_4">
     <text style="font-weight: 600; font-size: 27px; font-family: 'Courier New'; text-anchor: middle" x="140.502969" y="147.013281" transform="rotate(-90 140.502969 147.013281)">Youden index</text>
    </g>
   </g>
   <g id="line2d_43">
    <path d="M 245.537997 227.845099 
L 246.565161 140.176759 
L 247.592324 137.763869 
L 259.918288 137.763869 
L 260.945452 135.350979 
L 261.972615 143.393946 
L 271.217088 143.393946 
L 272.244252 138.568166 
L 275.325743 138.568166 
L 276.352906 126.503715 
L 277.38007 126.503715 
L 278.407234 112.026375 
L 287.651706 112.026375 
L 288.67887 109.613485 
L 291.760361 109.613485 
L 292.787524 124.895122 
L 309.222143 124.895122 
L 310.249306 120.069342 
L 311.27647 131.329496 
L 313.330797 131.329496 
L 314.357961 124.090825 
L 318.466615 124.090825 
L 319.493779 128.916606 
L 324.629597 128.916606 
L 325.656761 118.460748 
L 330.792579 118.460748 
L 331.819743 116.047858 
L 337.982724 116.047858 
L 339.009888 98.353331 
L 342.091379 98.353331 
L 343.118543 78.245914 
L 347.227197 78.245914 
L 348.254361 75.833023 
L 349.281524 66.181463 
L 391.395234 66.181463 
L 392.422397 86.288881 
L 416.047161 86.288881 
L 417.074324 97.549034 
L 469.45967 97.549034 
L 470.486834 124.090825 
L 478.704143 124.090825 
L 479.731306 141.785353 
L 481.785634 141.785353 
L 482.812797 159.47988 
L 490.002943 159.47988 
L 491.030106 163.501364 
L 502.328906 163.501364 
L 503.35607 194.868935 
L 521.845015 194.868935 
L 522.872179 190.043155 
L 536.225306 190.043155 
L 537.25247 201.303308 
L 612.235415 201.303308 
L 613.262579 196.477528 
L 644.077488 196.477528 
L 645.104652 207.737682 
L 654.349124 207.737682 
L 655.376288 205.324792 
L 744.739524 205.324792 
L 745.766688 216.584946 
L 759.119815 216.584946 
L 759.119815 216.584946 
" clip-path="url(#p701d3d2728)" style="fill: none; stroke: #81a1c1; stroke-width: 2; stroke-linecap: square"/>
   </g>
   <g id="line2d_44">
    <path d="M 349.281524 235.928281 
L 349.281524 58.098281 
" clip-path="url(#p701d3d2728)" style="fill: none; stroke-dasharray: 5.55,2.4; stroke-dashoffset: 0; stroke: #bf616a; stroke-width: 1.5"/>
   </g>
   <g id="line2d_45">
    <path d="M 245.537997 235.928281 
L 245.537997 58.098281 
" clip-path="url(#p701d3d2728)" style="fill: none; stroke-dasharray: 5.55,2.4; stroke-dashoffset: 0; stroke: #bf616a; stroke-width: 1.5"/>
   </g>
   <g id="patch_3">
    <path d="M 219.858906 235.928281 
L 219.858906 58.098281 
" style="fill: none; stroke: #4c566a; stroke-width: 1.8; stroke-linejoin: miter; stroke-linecap: square"/>
   </g>
   <g id="patch_4">
    <path d="M 784.798906 235.928281 
L 784.798906 58.098281 
" style="fill: none; stroke: #4c566a; stroke-width: 1.8; stroke-linejoin: miter; stroke-linecap: square"/>
   </g>
   <g id="patch_5">
    <path d="M 219.858906 235.928281 
L 784.798906 235.928281 
" style="fill: none; stroke: #4c566a; stroke-width: 1.8; stroke-linejoin: miter; stroke-linecap: square"/>
   </g>
   <g id="patch_6">
    <path d="M 219.858906 58.098281 
L 784.798906 58.098281 
" style="fill: none; stroke: #4c566a; stroke-width: 1.8; stroke-linejoin: miter; stroke-linecap: square"/>
   </g>
   <g id="text_5">
    <text style="font-size: 10px; font-family: 'Courier New'; fill: #bf616a" transform="translate(347.397149 220.413398) rotate(-90)">High threshold = 0.202</text>
   </g>
   <g id="text_6">
    <text style="font-size: 10px; font-family: 'Courier New'; fill: #bf616a" transform="translate(243.653622 220.413398) rotate(-90)">Low threshold = 0.000</text>
   </g>
   <g id="text_7">
    <text style="font-weight: 600; font-size: 33px; font-family: 'Courier New'; text-anchor: middle" x="502.328906" y="28.098281" transform="rotate(-0 502.328906 28.098281)">Radiomics + DISPAIR Youden index across thresholds</text>
   </g>
  </g>
  <g id="axes_2">
   <g id="patch_7">
    <path d="M 219.858906 451.918281 
L 784.798906 451.918281 
L 784.798906 274.088281 
L 219.858906 274.088281 
z
" style="fill: #ffffff"/>
   </g>
   <g id="matplotlib.axis_3">
    <g id="xtick_24">
     <g id="line2d_46">
      <path d="M 245.537997 451.918281 
L 245.537997 274.088281 
" clip-path="url(#pab18dd83e1)" style="fill: none; stroke: #4c566a; stroke-opacity: 0.3; stroke-width: 0.8; stroke-linecap: square"/>
     </g>
     <g id="line2d_47">
      <g>
       <use xlink:href="#me919803021" x="245.537997" y="451.918281" style="stroke: #000000; stroke-width: 2.4"/>
      </g>
     </g>
     <g id="text_8">
      <text style="font-size: 24px; font-family: 'Courier New'; text-anchor: middle" x="245.537997" y="479.125781" transform="rotate(-0 245.537997 479.125781)">0.0</text>
     </g>
    </g>
    <g id="xtick_25">
     <g id="line2d_48">
      <path d="M 348.254361 451.918281 
L 348.254361 274.088281 
" clip-path="url(#pab18dd83e1)" style="fill: none; stroke: #4c566a; stroke-opacity: 0.3; stroke-width: 0.8; stroke-linecap: square"/>
     </g>
     <g id="line2d_49">
      <g>
       <use xlink:href="#me919803021" x="348.254361" y="451.918281" style="stroke: #000000; stroke-width: 2.4"/>
      </g>
     </g>
     <g id="text_9">
      <text style="font-size: 24px; font-family: 'Courier New'; text-anchor: middle" x="348.254361" y="479.125781" transform="rotate(-0 348.254361 479.125781)">0.2</text>
     </g>
    </g>
    <g id="xtick_26">
     <g id="line2d_50">
      <path d="M 450.970724 451.918281 
L 450.970724 274.088281 
" clip-path="url(#pab18dd83e1)" style="fill: none; stroke: #4c566a; stroke-opacity: 0.3; stroke-width: 0.8; stroke-linecap: square"/>
     </g>
     <g id="line2d_51">
      <g>
       <use xlink:href="#me919803021" x="450.970724" y="451.918281" style="stroke: #000000; stroke-width: 2.4"/>
      </g>
     </g>
     <g id="text_10">
      <text style="font-size: 24px; font-family: 'Courier New'; text-anchor: middle" x="450.970724" y="479.125781" transform="rotate(-0 450.970724 479.125781)">0.4</text>
     </g>
    </g>
    <g id="xtick_27">
     <g id="line2d_52">
      <path d="M 553.687088 451.918281 
L 553.687088 274.088281 
" clip-path="url(#pab18dd83e1)" style="fill: none; stroke: #4c566a; stroke-opacity: 0.3; stroke-width: 0.8; stroke-linecap: square"/>
     </g>
     <g id="line2d_53">
      <g>
       <use xlink:href="#me919803021" x="553.687088" y="451.918281" style="stroke: #000000; stroke-width: 2.4"/>
      </g>
     </g>
     <g id="text_11">
      <text style="font-size: 24px; font-family: 'Courier New'; text-anchor: middle" x="553.687088" y="479.125781" transform="rotate(-0 553.687088 479.125781)">0.6</text>
     </g>
    </g>
    <g id="xtick_28">
     <g id="line2d_54">
      <path d="M 656.403452 451.918281 
L 656.403452 274.088281 
" clip-path="url(#pab18dd83e1)" style="fill: none; stroke: #4c566a; stroke-opacity: 0.3; stroke-width: 0.8; stroke-linecap: square"/>
     </g>
     <g id="line2d_55">
      <g>
       <use xlink:href="#me919803021" x="656.403452" y="451.918281" style="stroke: #000000; stroke-width: 2.4"/>
      </g>
     </g>
     <g id="text_12">
      <text style="font-size: 24px; font-family: 'Courier New'; text-anchor: middle" x="656.403452" y="479.125781" transform="rotate(-0 656.403452 479.125781)">0.8</text>
     </g>
    </g>
    <g id="xtick_29">
     <g id="line2d_56">
      <path d="M 759.119815 451.918281 
L 759.119815 274.088281 
" clip-path="url(#pab18dd83e1)" style="fill: none; stroke: #4c566a; stroke-opacity: 0.3; stroke-width: 0.8; stroke-linecap: square"/>
     </g>
     <g id="line2d_57">
      <g>
       <use xlink:href="#me919803021" x="759.119815" y="451.918281" style="stroke: #000000; stroke-width: 2.4"/>
      </g>
     </g>
     <g id="text_13">
      <text style="font-size: 24px; font-family: 'Courier New'; text-anchor: middle" x="759.119815" y="479.125781" transform="rotate(-0 759.119815 479.125781)">1.0</text>
     </g>
    </g>
    <g id="xtick_30">
     <g id="line2d_58">
      <g>
       <use xlink:href="#m8c54464f69" x="219.858906" y="451.918281" style="stroke: #000000; stroke-width: 1.5"/>
      </g>
     </g>
    </g>
    <g id="xtick_31">
     <g id="line2d_59">
      <g>
       <use xlink:href="#m8c54464f69" x="271.217088" y="451.918281" style="stroke: #000000; stroke-width: 1.5"/>
      </g>
     </g>
    </g>
    <g id="xtick_32">
     <g id="line2d_60">
      <g>
       <use xlink:href="#m8c54464f69" x="296.896179" y="451.918281" style="stroke: #000000; stroke-width: 1.5"/>
      </g>
     </g>
    </g>
    <g id="xtick_33">
     <g id="line2d_61">
      <g>
       <use xlink:href="#m8c54464f69" x="322.57527" y="451.918281" style="stroke: #000000; stroke-width: 1.5"/>
      </g>
     </g>
    </g>
    <g id="xtick_34">
     <g id="line2d_62">
      <g>
       <use xlink:href="#m8c54464f69" x="373.933452" y="451.918281" style="stroke: #000000; stroke-width: 1.5"/>
      </g>
     </g>
    </g>
    <g id="xtick_35">
     <g id="line2d_63">
      <g>
       <use xlink:href="#m8c54464f69" x="399.612543" y="451.918281" style="stroke: #000000; stroke-width: 1.5"/>
      </g>
     </g>
    </g>
    <g id="xtick_36">
     <g id="line2d_64">
      <g>
       <use xlink:href="#m8c54464f69" x="425.291634" y="451.918281" style="stroke: #000000; stroke-width: 1.5"/>
      </g>
     </g>
    </g>
    <g id="xtick_37">
     <g id="line2d_65">
      <g>
       <use xlink:href="#m8c54464f69" x="476.649815" y="451.918281" style="stroke: #000000; stroke-width: 1.5"/>
      </g>
     </g>
    </g>
    <g id="xtick_38">
     <g id="line2d_66">
      <g>
       <use xlink:href="#m8c54464f69" x="502.328906" y="451.918281" style="stroke: #000000; stroke-width: 1.5"/>
      </g>
     </g>
    </g>
    <g id="xtick_39">
     <g id="line2d_67">
      <g>
       <use xlink:href="#m8c54464f69" x="528.007997" y="451.918281" style="stroke: #000000; stroke-width: 1.5"/>
      </g>
     </g>
    </g>
    <g id="xtick_40">
     <g id="line2d_68">
      <g>
       <use xlink:href="#m8c54464f69" x="579.366179" y="451.918281" style="stroke: #000000; stroke-width: 1.5"/>
      </g>
     </g>
    </g>
    <g id="xtick_41">
     <g id="line2d_69">
      <g>
       <use xlink:href="#m8c54464f69" x="605.04527" y="451.918281" style="stroke: #000000; stroke-width: 1.5"/>
      </g>
     </g>
    </g>
    <g id="xtick_42">
     <g id="line2d_70">
      <g>
       <use xlink:href="#m8c54464f69" x="630.724361" y="451.918281" style="stroke: #000000; stroke-width: 1.5"/>
      </g>
     </g>
    </g>
    <g id="xtick_43">
     <g id="line2d_71">
      <g>
       <use xlink:href="#m8c54464f69" x="682.082543" y="451.918281" style="stroke: #000000; stroke-width: 1.5"/>
      </g>
     </g>
    </g>
    <g id="xtick_44">
     <g id="line2d_72">
      <g>
       <use xlink:href="#m8c54464f69" x="707.761634" y="451.918281" style="stroke: #000000; stroke-width: 1.5"/>
      </g>
     </g>
    </g>
    <g id="xtick_45">
     <g id="line2d_73">
      <g>
       <use xlink:href="#m8c54464f69" x="733.440724" y="451.918281" style="stroke: #000000; stroke-width: 1.5"/>
      </g>
     </g>
    </g>
    <g id="xtick_46">
     <g id="line2d_74">
      <g>
       <use xlink:href="#m8c54464f69" x="784.798906" y="451.918281" style="stroke: #000000; stroke-width: 1.5"/>
      </g>
     </g>
    </g>
    <g id="text_14">
     <text style="font-weight: 600; font-size: 27px; font-family: 'Courier New'; text-anchor: middle" x="502.328906" y="518.746875" transform="rotate(-0 502.328906 518.746875)">Threshold</text>
    </g>
   </g>
   <g id="matplotlib.axis_4">
    <g id="ytick_11">
     <g id="line2d_75">
      <path d="M 219.858906 443.835099 
L 784.798906 443.835099 
" clip-path="url(#pab18dd83e1)" style="fill: none; stroke: #4c566a; stroke-opacity: 0.3; stroke-width: 0.8; stroke-linecap: square"/>
     </g>
     <g id="line2d_76">
      <g>
       <use xlink:href="#mc0c23d944b" x="219.858906" y="443.835099" style="stroke: #000000; stroke-width: 2.4"/>
      </g>
     </g>
     <g id="text_15">
      <text style="font-size: 24px; font-family: 'Courier New'; text-anchor: end" x="207.358906" y="451.188849" transform="rotate(-0 207.358906 451.188849)">0.0</text>
     </g>
    </g>
    <g id="ytick_12">
     <g id="line2d_77">
      <path d="M 219.858906 363.003281 
L 784.798906 363.003281 
" clip-path="url(#pab18dd83e1)" style="fill: none; stroke: #4c566a; stroke-opacity: 0.3; stroke-width: 0.8; stroke-linecap: square"/>
     </g>
     <g id="line2d_78">
      <g>
       <use xlink:href="#mc0c23d944b" x="219.858906" y="363.003281" style="stroke: #000000; stroke-width: 2.4"/>
      </g>
     </g>
     <g id="text_16">
      <text style="font-size: 24px; font-family: 'Courier New'; text-anchor: end" x="207.358906" y="370.357031" transform="rotate(-0 207.358906 370.357031)">0.5</text>
     </g>
    </g>
    <g id="ytick_13">
     <g id="line2d_79">
      <path d="M 219.858906 282.171463 
L 784.798906 282.171463 
" clip-path="url(#pab18dd83e1)" style="fill: none; stroke: #4c566a; stroke-opacity: 0.3; stroke-width: 0.8; stroke-linecap: square"/>
     </g>
     <g id="line2d_80">
      <g>
       <use xlink:href="#mc0c23d944b" x="219.858906" y="282.171463" style="stroke: #000000; stroke-width: 2.4"/>
      </g>
     </g>
     <g id="text_17">
      <text style="font-size: 24px; font-family: 'Courier New'; text-anchor: end" x="207.358906" y="289.525213" transform="rotate(-0 207.358906 289.525213)">1.0</text>
     </g>
    </g>
    <g id="ytick_14">
     <g id="line2d_81">
      <g>
       <use xlink:href="#m394d068ffd" x="219.858906" y="427.668736" style="stroke: #000000; stroke-width: 1.5"/>
      </g>
     </g>
    </g>
    <g id="ytick_15">
     <g id="line2d_82">
      <g>
       <use xlink:href="#m394d068ffd" x="219.858906" y="411.502372" style="stroke: #000000; stroke-width: 1.5"/>
      </g>
     </g>
    </g>
    <g id="ytick_16">
     <g id="line2d_83">
      <g>
       <use xlink:href="#m394d068ffd" x="219.858906" y="395.336009" style="stroke: #000000; stroke-width: 1.5"/>
      </g>
     </g>
    </g>
    <g id="ytick_17">
     <g id="line2d_84">
      <g>
       <use xlink:href="#m394d068ffd" x="219.858906" y="379.169645" style="stroke: #000000; stroke-width: 1.5"/>
      </g>
     </g>
    </g>
    <g id="ytick_18">
     <g id="line2d_85">
      <g>
       <use xlink:href="#m394d068ffd" x="219.858906" y="346.836918" style="stroke: #000000; stroke-width: 1.5"/>
      </g>
     </g>
    </g>
    <g id="ytick_19">
     <g id="line2d_86">
      <g>
       <use xlink:href="#m394d068ffd" x="219.858906" y="330.670554" style="stroke: #000000; stroke-width: 1.5"/>
      </g>
     </g>
    </g>
    <g id="ytick_20">
     <g id="line2d_87">
      <g>
       <use xlink:href="#m394d068ffd" x="219.858906" y="314.50419" style="stroke: #000000; stroke-width: 1.5"/>
      </g>
     </g>
    </g>
    <g id="ytick_21">
     <g id="line2d_88">
      <g>
       <use xlink:href="#m394d068ffd" x="219.858906" y="298.337827" style="stroke: #000000; stroke-width: 1.5"/>
      </g>
     </g>
    </g>
    <g id="text_18">
     <text style="font-weight: 600; font-size: 27px; font-family: 'Courier New'; text-anchor: middle" x="140.502969" y="363.003281" transform="rotate(-90 140.502969 363.003281)">Value</text>
    </g>
   </g>
   <g id="line2d_89">
    <path d="M 245.537997 282.171463 
L 246.565161 287.070361 
L 260.945452 287.070361 
L 261.972615 296.868157 
L 291.760361 296.868157 
L 292.787524 306.665953 
L 310.249306 306.665953 
L 311.27647 326.261546 
L 318.466615 326.261546 
L 319.493779 340.95824 
L 324.629597 340.95824 
L 325.656761 345.857138 
L 337.982724 345.857138 
L 339.009888 350.756036 
L 342.091379 350.756036 
L 343.118543 355.654934 
L 391.395234 355.654934 
L 392.422397 365.45273 
L 416.047161 365.45273 
L 417.074324 370.351628 
L 469.45967 370.351628 
L 470.486834 385.048323 
L 478.704143 385.048323 
L 479.731306 394.846119 
L 481.785634 394.846119 
L 482.812797 404.643915 
L 490.002943 404.643915 
L 491.030106 409.542813 
L 502.328906 409.542813 
L 503.35607 424.239507 
L 536.225306 424.239507 
L 537.25247 429.138405 
L 644.077488 429.138405 
L 645.104652 434.037303 
L 744.739524 434.037303 
L 745.766688 438.936201 
L 759.119815 438.936201 
L 759.119815 438.936201 
" clip-path="url(#pab18dd83e1)" style="fill: none; stroke: #bf616a; stroke-width: 2; stroke-linecap: square"/>
   </g>
   <g id="line2d_90">
    <path d="M 245.537997 443.835099 
L 246.565161 400.794781 
L 247.592324 399.745017 
L 259.918288 399.745017 
L 260.945452 398.695253 
L 261.972615 392.39667 
L 271.217088 392.39667 
L 272.244252 390.297142 
L 275.325743 390.297142 
L 276.352906 385.048323 
L 277.38007 385.048323 
L 278.407234 378.749739 
L 287.651706 378.749739 
L 288.67887 377.699975 
L 291.760361 377.699975 
L 292.787524 374.550684 
L 309.222143 374.550684 
L 310.249306 372.451156 
L 311.27647 357.754462 
L 313.330797 357.754462 
L 314.357961 354.60517 
L 318.466615 354.60517 
L 319.493779 342.008004 
L 324.629597 342.008004 
L 325.656761 332.560129 
L 330.792579 332.560129 
L 331.819743 331.510365 
L 337.982724 331.510365 
L 339.009888 318.913199 
L 342.091379 318.913199 
L 343.118543 305.266268 
L 347.227197 305.266268 
L 348.254361 304.216504 
L 349.281524 300.017449 
L 391.395234 300.017449 
L 392.422397 298.967685 
L 469.45967 298.967685 
L 470.486834 295.818393 
L 478.704143 295.818393 
L 479.731306 293.718866 
L 481.785634 293.718866 
L 482.812797 291.619338 
L 490.002943 291.619338 
L 491.030106 288.470046 
L 502.328906 288.470046 
L 503.35607 287.420282 
L 521.845015 287.420282 
L 522.872179 285.320755 
L 612.235415 285.320755 
L 613.262579 283.221227 
L 654.349124 283.221227 
L 655.376288 282.171463 
L 759.119815 282.171463 
L 759.119815 282.171463 
" clip-path="url(#pab18dd83e1)" style="fill: none; stroke: #5e81ac; stroke-width: 2; stroke-linecap: square"/>
   </g>
   <g id="line2d_91">
    <path d="M 245.537997 415.306222 
L 246.565161 408.157607 
L 247.592324 407.909847 
L 259.918288 407.909847 
L 260.945452 407.658621 
L 261.972615 407.909847 
L 271.217088 407.909847 
L 272.244252 407.369618 
L 275.325743 407.369618 
L 276.352906 405.945185 
L 277.38007 405.945185 
L 278.407234 404.081746 
L 287.651706 404.081746 
L 288.67887 403.753206 
L 291.760361 403.753206 
L 292.787524 404.812842 
L 309.222143 404.812842 
L 311.27647 403.41919 
L 313.330797 403.41919 
L 314.357961 402.115451 
L 318.466615 402.115451 
L 319.493779 400.310274 
L 324.629597 400.310274 
L 325.656761 396.286971 
L 330.792579 396.286971 
L 331.819743 395.577298 
L 337.982724 395.577298 
L 339.009888 386.95345 
L 342.091379 386.95345 
L 343.118543 371.086463 
L 347.227197 371.086463 
L 348.254361 369.221113 
L 349.281524 360.693801 
L 391.395234 360.693801 
L 392.422397 363.003281 
L 416.047161 363.003281 
L 417.074324 365.610759 
L 469.45967 365.610759 
L 470.486834 366.236554 
L 478.704143 366.236554 
L 479.731306 366.852415 
L 481.785634 366.852415 
L 482.812797 367.758094 
L 490.002943 367.758094 
L 491.030106 356.785449 
L 502.328906 356.785449 
L 503.35607 371.984594 
L 521.845015 371.984594 
L 522.872179 351.455879 
L 536.225306 351.455879 
L 537.25247 363.003281 
L 612.235415 363.003281 
L 613.262579 322.587372 
L 644.077488 322.587372 
L 645.104652 336.059342 
L 654.349124 336.059342 
L 655.376288 282.171463 
L 759.119815 282.171463 
L 759.119815 282.171463 
" clip-path="url(#pab18dd83e1)" style="fill: none; stroke: #a3be8c; stroke-width: 2; stroke-linecap: square"/>
   </g>
   <g id="line2d_92">
    <path d="M 246.565161 286.020597 
L 248.619488 285.931083 
L 260.945452 285.845637 
L 261.972615 291.498211 
L 271.217088 291.498211 
L 272.244252 291.152776 
L 275.325743 291.152776 
L 276.352906 290.391648 
L 277.38007 290.391648 
L 278.407234 289.632862 
L 287.651706 289.632862 
L 288.67887 289.51981 
L 291.760361 289.51981 
L 292.787524 293.556226 
L 309.222143 293.556226 
L 310.249306 293.244315 
L 311.27647 298.160174 
L 313.330797 298.160174 
L 314.357961 297.649896 
L 318.466615 297.649896 
L 319.493779 299.969295 
L 324.629597 299.969295 
L 325.656761 299.832196 
L 330.792579 299.832196 
L 331.819743 299.685024 
L 337.982724 299.685024 
L 339.009888 299.188688 
L 342.091379 299.188688 
L 343.118543 298.667752 
L 347.227197 298.667752 
L 348.254361 298.556291 
L 349.281524 298.125111 
L 391.395234 298.125111 
L 392.422397 299.902314 
L 416.047161 299.902314 
L 417.074324 300.82496 
L 469.45967 300.82496 
L 470.486834 303.12786 
L 478.704143 303.12786 
L 479.731306 304.570642 
L 481.785634 304.570642 
L 482.812797 305.945527 
L 490.002943 305.945527 
L 491.030106 306.328098 
L 502.328906 306.328098 
L 503.35607 308.509921 
L 521.845015 308.509921 
L 522.872179 308.217271 
L 536.225306 308.217271 
L 537.25247 308.966541 
L 612.235415 308.966541 
L 613.262579 308.673699 
L 644.077488 308.673699 
L 645.104652 309.408271 
L 654.349124 309.408271 
L 655.376288 309.261045 
L 744.739524 309.261045 
L 745.766688 309.984562 
L 759.119815 309.984562 
L 759.119815 309.984562 
" clip-path="url(#pab18dd83e1)" style="fill: none; stroke: #b48ead; stroke-width: 2; stroke-linecap: square"/>
   </g>
   <g id="line2d_93">
    <path d="M 245.537997 451.918281 
L 245.537997 274.088281 
" clip-path="url(#pab18dd83e1)" style="fill: none; stroke-dasharray: 3.7,1.6; stroke-dashoffset: 0; stroke: #4c566a"/>
   </g>
   <g id="line2d_94">
    <path d="M 349.281524 451.918281 
L 349.281524 274.088281 
" clip-path="url(#pab18dd83e1)" style="fill: none; stroke-dasharray: 3.7,1.6; stroke-dashoffset: 0; stroke: #4c566a"/>
   </g>
   <g id="patch_8">
    <path d="M 219.858906 451.918281 
L 219.858906 274.088281 
" style="fill: none; stroke: #4c566a; stroke-width: 1.8; stroke-linejoin: miter; stroke-linecap: square"/>
   </g>
   <g id="patch_9">
    <path d="M 784.798906 451.918281 
L 784.798906 274.088281 
" style="fill: none; stroke: #4c566a; stroke-width: 1.8; stroke-linejoin: miter; stroke-linecap: square"/>
   </g>
   <g id="patch_10">
    <path d="M 219.858906 451.918281 
L 784.798906 451.918281 
" style="fill: none; stroke: #4c566a; stroke-width: 1.8; stroke-linejoin: miter; stroke-linecap: square"/>
   </g>
   <g id="patch_11">
    <path d="M 219.858906 274.088281 
L 784.798906 274.088281 
" style="fill: none; stroke: #4c566a; stroke-width: 1.8; stroke-linejoin: miter; stroke-linecap: square"/>
   </g>
   <g id="legend_1">
    <g id="line2d_95">
     <path d="M 681.781719 341.234531 
L 691.781719 341.234531 
L 701.781719 341.234531 
" style="fill: none; stroke: #bf616a; stroke-width: 2; stroke-linecap: square"/>
    </g>
    <g id="text_19">
     <text style="font-size: 10px; font-family: 'Courier New'; text-anchor: start" x="709.781719" y="344.734531" transform="rotate(-0 709.781719 344.734531)">Sensitivity</text>
    </g>
    <g id="line2d_96">
     <path d="M 681.781719 355.118906 
L 691.781719 355.118906 
L 701.781719 355.118906 
" style="fill: none; stroke: #5e81ac; stroke-width: 2; stroke-linecap: square"/>
    </g>
    <g id="text_20">
     <text style="font-size: 10px; font-family: 'Courier New'; text-anchor: start" x="709.781719" y="358.618906" transform="rotate(-0 709.781719 358.618906)">Specificity</text>
    </g>
    <g id="line2d_97">
     <path d="M 681.781719 369.003281 
L 691.781719 369.003281 
L 701.781719 369.003281 
" style="fill: none; stroke: #a3be8c; stroke-width: 2; stroke-linecap: square"/>
    </g>
    <g id="text_21">
     <text style="font-size: 10px; font-family: 'Courier New'; text-anchor: start" x="709.781719" y="372.503281" transform="rotate(-0 709.781719 372.503281)">PPV</text>
    </g>
    <g id="line2d_98">
     <path d="M 681.781719 382.887656 
L 691.781719 382.887656 
L 701.781719 382.887656 
" style="fill: none; stroke: #b48ead; stroke-width: 2; stroke-linecap: square"/>
    </g>
    <g id="text_22">
     <text style="font-size: 10px; font-family: 'Courier New'; text-anchor: start" x="709.781719" y="386.387656" transform="rotate(-0 709.781719 386.387656)">NPV</text>
    </g>
   </g>
  </g>
 </g>
 <defs>
  <clipPath id="p701d3d2728">
   <rect x="219.858906" y="58.098281" width="564.94" height="177.83"/>
  </clipPath>
  <clipPath id="pab18dd83e1">
   <rect x="219.858906" y="274.088281" width="564.94" height="177.83"/>
  </clipPath>
 </defs>
</svg>
