<?xml version="1.0" encoding="utf-8" standalone="no"?>
<!DOCTYPE svg PUBLIC "-//W3C//DTD SVG 1.1//EN"
  "http://www.w3.org/Graphics/SVG/1.1/DTD/svg11.dtd">
<svg xmlns:xlink="http://www.w3.org/1999/xlink" width="1242.319687pt" height="531.591562pt" viewBox="0 0 1242.319687 531.591562" xmlns="http://www.w3.org/2000/svg" version="1.1">
 <metadata>
  <rdf:RDF xmlns:dc="http://purl.org/dc/elements/1.1/" xmlns:cc="http://creativecommons.org/ns#" xmlns:rdf="http://www.w3.org/1999/02/22-rdf-syntax-ns#">
   <cc:Work>
    <dc:type rdf:resource="http://purl.org/dc/dcmitype/StillImage"/>
    <dc:date>2025-12-28T16:55:06.844011</dc:date>
    <dc:format>image/svg+xml</dc:format>
    <dc:creator>
     <cc:Agent>
      <dc:title>Matplotlib v3.10.3, https://matplotlib.org/</dc:title>
     </cc:Agent>
    </dc:creator>
   </cc:Work>
  </rdf:RDF>
 </metadata>
 <defs>
  <style type="text/css">*{stroke-linejoin: round; stroke-linecap: butt}</style>
 </defs>
 <g id="figure_1">
  <g id="patch_1">
   <path d="M 0 531.591562 
L 1242.319687 531.591562 
L 1242.319687 0 
L 0 0 
z
" style="fill: #ffffff"/>
  </g>
  <g id="axes_1">
   <g id="patch_2">
    <path d="M 338.689844 235.928281 
L 903.629844 235.928281 
L 903.629844 58.098281 
L 338.689844 58.098281 
z
" style="fill: #ffffff"/>
   </g>
   <g id="matplotlib.axis_1">
    <g id="xtick_1">
     <g id="line2d_1">
      <path d="M 364.368935 235.928281 
L 364.368935 58.098281 
" clip-path="url(#p0ffd294efc)" style="fill: none; stroke: #4c566a; stroke-opacity: 0.3; stroke-width: 0.8; stroke-linecap: square"/>
     </g>
     <g id="line2d_2">
      <defs>
       <path id="m64ada8bf43" d="M 0 0 
L 0 9 
" style="stroke: #000000; stroke-width: 2.4"/>
      </defs>
      <g>
       <use xlink:href="#m64ada8bf43" x="364.368935" y="235.928281" style="stroke: #000000; stroke-width: 2.4"/>
      </g>
     </g>
    </g>
    <g id="xtick_2">
     <g id="line2d_3">
      <path d="M 467.085298 235.928281 
L 467.085298 58.098281 
" clip-path="url(#p0ffd294efc)" style="fill: none; stroke: #4c566a; stroke-opacity: 0.3; stroke-width: 0.8; stroke-linecap: square"/>
     </g>
     <g id="line2d_4">
      <g>
       <use xlink:href="#m64ada8bf43" x="467.085298" y="235.928281" style="stroke: #000000; stroke-width: 2.4"/>
      </g>
     </g>
    </g>
    <g id="xtick_3">
     <g id="line2d_5">
      <path d="M 569.801662 235.928281 
L 569.801662 58.098281 
" clip-path="url(#p0ffd294efc)" style="fill: none; stroke: #4c566a; stroke-opacity: 0.3; stroke-width: 0.8; stroke-linecap: square"/>
     </g>
     <g id="line2d_6">
      <g>
       <use xlink:href="#m64ada8bf43" x="569.801662" y="235.928281" style="stroke: #000000; stroke-width: 2.4"/>
      </g>
     </g>
    </g>
    <g id="xtick_4">
     <g id="line2d_7">
      <path d="M 672.518026 235.928281 
L 672.518026 58.098281 
" clip-path="url(#p0ffd294efc)" style="fill: none; stroke: #4c566a; stroke-opacity: 0.3; stroke-width: 0.8; stroke-linecap: square"/>
     </g>
     <g id="line2d_8">
      <g>
       <use xlink:href="#m64ada8bf43" x="672.518026" y="235.928281" style="stroke: #000000; stroke-width: 2.4"/>
      </g>
     </g>
    </g>
    <g id="xtick_5">
     <g id="line2d_9">
      <path d="M 775.234389 235.928281 
L 775.234389 58.098281 
" clip-path="url(#p0ffd294efc)" style="fill: none; stroke: #4c566a; stroke-opacity: 0.3; stroke-width: 0.8; stroke-linecap: square"/>
     </g>
     <g id="line2d_10">
      <g>
       <use xlink:href="#m64ada8bf43" x="775.234389" y="235.928281" style="stroke: #000000; stroke-width: 2.4"/>
      </g>
     </g>
    </g>
    <g id="xtick_6">
     <g id="line2d_11">
      <path d="M 877.950753 235.928281 
L 877.950753 58.098281 
" clip-path="url(#p0ffd294efc)" style="fill: none; stroke: #4c566a; stroke-opacity: 0.3; stroke-width: 0.8; stroke-linecap: square"/>
     </g>
     <g id="line2d_12">
      <g>
       <use xlink:href="#m64ada8bf43" x="877.950753" y="235.928281" style="stroke: #000000; stroke-width: 2.4"/>
      </g>
     </g>
    </g>
    <g id="xtick_7">
     <g id="line2d_13">
      <defs>
       <path id="m07f57d8b5c" d="M 0 0 
L 0 6 
" style="stroke: #000000; stroke-width: 1.5"/>
      </defs>
      <g>
       <use xlink:href="#m07f57d8b5c" x="338.689844" y="235.928281" style="stroke: #000000; stroke-width: 1.5"/>
      </g>
     </g>
    </g>
    <g id="xtick_8">
     <g id="line2d_14">
      <g>
       <use xlink:href="#m07f57d8b5c" x="390.048026" y="235.928281" style="stroke: #000000; stroke-width: 1.5"/>
      </g>
     </g>
    </g>
    <g id="xtick_9">
     <g id="line2d_15">
      <g>
       <use xlink:href="#m07f57d8b5c" x="415.727116" y="235.928281" style="stroke: #000000; stroke-width: 1.5"/>
      </g>
     </g>
    </g>
    <g id="xtick_10">
     <g id="line2d_16">
      <g>
       <use xlink:href="#m07f57d8b5c" x="441.406207" y="235.928281" style="stroke: #000000; stroke-width: 1.5"/>
      </g>
     </g>
    </g>
    <g id="xtick_11">
     <g id="line2d_17">
      <g>
       <use xlink:href="#m07f57d8b5c" x="492.764389" y="235.928281" style="stroke: #000000; stroke-width: 1.5"/>
      </g>
     </g>
    </g>
    <g id="xtick_12">
     <g id="line2d_18">
      <g>
       <use xlink:href="#m07f57d8b5c" x="518.44348" y="235.928281" style="stroke: #000000; stroke-width: 1.5"/>
      </g>
     </g>
    </g>
    <g id="xtick_13">
     <g id="line2d_19">
      <g>
       <use xlink:href="#m07f57d8b5c" x="544.122571" y="235.928281" style="stroke: #000000; stroke-width: 1.5"/>
      </g>
     </g>
    </g>
    <g id="xtick_14">
     <g id="line2d_20">
      <g>
       <use xlink:href="#m07f57d8b5c" x="595.480753" y="235.928281" style="stroke: #000000; stroke-width: 1.5"/>
      </g>
     </g>
    </g>
    <g id="xtick_15">
     <g id="line2d_21">
      <g>
       <use xlink:href="#m07f57d8b5c" x="621.159844" y="235.928281" style="stroke: #000000; stroke-width: 1.5"/>
      </g>
     </g>
    </g>
    <g id="xtick_16">
     <g id="line2d_22">
      <g>
       <use xlink:href="#m07f57d8b5c" x="646.838935" y="235.928281" style="stroke: #000000; stroke-width: 1.5"/>
      </g>
     </g>
    </g>
    <g id="xtick_17">
     <g id="line2d_23">
      <g>
       <use xlink:href="#m07f57d8b5c" x="698.197116" y="235.928281" style="stroke: #000000; stroke-width: 1.5"/>
      </g>
     </g>
    </g>
    <g id="xtick_18">
     <g id="line2d_24">
      <g>
       <use xlink:href="#m07f57d8b5c" x="723.876207" y="235.928281" style="stroke: #000000; stroke-width: 1.5"/>
      </g>
     </g>
    </g>
    <g id="xtick_19">
     <g id="line2d_25">
      <g>
       <use xlink:href="#m07f57d8b5c" x="749.555298" y="235.928281" style="stroke: #000000; stroke-width: 1.5"/>
      </g>
     </g>
    </g>
    <g id="xtick_20">
     <g id="line2d_26">
      <g>
       <use xlink:href="#m07f57d8b5c" x="800.91348" y="235.928281" style="stroke: #000000; stroke-width: 1.5"/>
      </g>
     </g>
    </g>
    <g id="xtick_21">
     <g id="line2d_27">
      <g>
       <use xlink:href="#m07f57d8b5c" x="826.592571" y="235.928281" style="stroke: #000000; stroke-width: 1.5"/>
      </g>
     </g>
    </g>
    <g id="xtick_22">
     <g id="line2d_28">
      <g>
       <use xlink:href="#m07f57d8b5c" x="852.271662" y="235.928281" style="stroke: #000000; stroke-width: 1.5"/>
      </g>
     </g>
    </g>
    <g id="xtick_23">
     <g id="line2d_29">
      <g>
       <use xlink:href="#m07f57d8b5c" x="903.629844" y="235.928281" style="stroke: #000000; stroke-width: 1.5"/>
      </g>
     </g>
    </g>
   </g>
   <g id="matplotlib.axis_2">
    <g id="ytick_1">
     <g id="line2d_30">
      <path d="M 338.689844 227.845099 
L 903.629844 227.845099 
" clip-path="url(#p0ffd294efc)" style="fill: none; stroke: #4c566a; stroke-opacity: 0.3; stroke-width: 0.8; stroke-linecap: square"/>
     </g>
     <g id="line2d_31">
      <defs>
       <path id="ma8700824b5" d="M 0 0 
L -9 0 
" style="stroke: #000000; stroke-width: 2.4"/>
      </defs>
      <g>
       <use xlink:href="#ma8700824b5" x="338.689844" y="227.845099" style="stroke: #000000; stroke-width: 2.4"/>
      </g>
     </g>
     <g id="text_1">
      <text style="font-size: 24px; font-family: 'Courier New'; text-anchor: end" x="326.189844" y="235.198849" transform="rotate(-0 326.189844 235.198849)">0.0</text>
     </g>
    </g>
    <g id="ytick_2">
     <g id="line2d_32">
      <path d="M 338.689844 147.100667 
L 903.629844 147.100667 
" clip-path="url(#p0ffd294efc)" style="fill: none; stroke: #4c566a; stroke-opacity: 0.3; stroke-width: 0.8; stroke-linecap: square"/>
     </g>
     <g id="line2d_33">
      <g>
       <use xlink:href="#ma8700824b5" x="338.689844" y="147.100667" style="stroke: #000000; stroke-width: 2.4"/>
      </g>
     </g>
     <g id="text_2">
      <text style="font-size: 24px; font-family: 'Courier New'; text-anchor: end" x="326.189844" y="154.454417" transform="rotate(-0 326.189844 154.454417)">0.2</text>
     </g>
    </g>
    <g id="ytick_3">
     <g id="line2d_34">
      <path d="M 338.689844 66.356235 
L 903.629844 66.356235 
" clip-path="url(#p0ffd294efc)" style="fill: none; stroke: #4c566a; stroke-opacity: 0.3; stroke-width: 0.8; stroke-linecap: square"/>
     </g>
     <g id="line2d_35">
      <g>
       <use xlink:href="#ma8700824b5" x="338.689844" y="66.356235" style="stroke: #000000; stroke-width: 2.4"/>
      </g>
     </g>
     <g id="text_3">
      <text style="font-size: 24px; font-family: 'Courier New'; text-anchor: end" x="326.189844" y="73.709985" transform="rotate(-0 326.189844 73.709985)">0.4</text>
     </g>
    </g>
    <g id="ytick_4">
     <g id="line2d_36">
      <defs>
       <path id="mbbfc379822" d="M 0 0 
L -6 0 
" style="stroke: #000000; stroke-width: 1.5"/>
      </defs>
      <g>
       <use xlink:href="#mbbfc379822" x="338.689844" y="207.658991" style="stroke: #000000; stroke-width: 1.5"/>
      </g>
     </g>
    </g>
    <g id="ytick_5">
     <g id="line2d_37">
      <g>
       <use xlink:href="#mbbfc379822" x="338.689844" y="187.472883" style="stroke: #000000; stroke-width: 1.5"/>
      </g>
     </g>
    </g>
    <g id="ytick_6">
     <g id="line2d_38">
      <g>
       <use xlink:href="#mbbfc379822" x="338.689844" y="167.286775" style="stroke: #000000; stroke-width: 1.5"/>
      </g>
     </g>
    </g>
    <g id="ytick_7">
     <g id="line2d_39">
      <g>
       <use xlink:href="#mbbfc379822" x="338.689844" y="126.914559" style="stroke: #000000; stroke-width: 1.5"/>
      </g>
     </g>
    </g>
    <g id="ytick_8">
     <g id="line2d_40">
      <g>
       <use xlink:href="#mbbfc379822" x="338.689844" y="106.728451" style="stroke: #000000; stroke-width: 1.5"/>
      </g>
     </g>
    </g>
    <g id="ytick_9">
     <g id="line2d_41">
      <g>
       <use xlink:href="#mbbfc379822" x="338.689844" y="86.542343" style="stroke: #000000; stroke-width: 1.5"/>
      </g>
     </g>
    </g>
    <g id="text_4">
     <text style="font-weight: 600; font-size: 27px; font-family: 'Courier New'; text-anchor: middle" x="259.333906" y="147.013281" transform="rotate(-90 259.333906 147.013281)">Youden index</text>
    </g>
   </g>
   <g id="line2d_42">
    <path d="M 364.368935 227.845099 
L 365.396098 129.97306 
L 379.776389 129.97306 
L 380.803553 127.351488 
L 387.993698 127.351488 
L 389.020862 124.729915 
L 390.048026 124.729915 
L 391.075189 130.846918 
L 402.373989 130.846918 
L 403.401153 124.729915 
L 415.727116 124.729915 
L 416.75428 103.757335 
L 417.781444 66.181463 
L 428.05308 66.181463 
L 429.080244 92.397188 
L 431.134571 92.397188 
L 432.161735 89.775615 
L 438.324716 89.775615 
L 439.35188 87.154043 
L 441.406207 87.154043 
L 442.433371 98.51419 
L 443.460535 115.117483 
L 449.623516 115.117483 
L 450.65068 112.49591 
L 456.813662 112.49591 
L 457.840826 122.9822 
L 462.976644 122.9822 
L 464.003807 120.360628 
L 472.221116 120.360628 
L 473.24828 128.225345 
L 474.275444 128.225345 
L 475.302607 112.49591 
L 484.54708 112.49591 
L 485.574244 107.252765 
L 486.601407 107.252765 
L 487.628571 104.631193 
L 500.981698 104.631193 
L 502.008862 94.144903 
L 550.285553 94.144903 
L 551.312716 113.369768 
L 561.584353 113.369768 
L 562.611516 125.603773 
L 584.181953 125.603773 
L 585.209116 185.89994 
L 590.344935 185.89994 
L 591.372098 183.278367 
L 610.888207 183.278367 
L 611.915371 194.638515 
L 621.159844 194.638515 
L 622.187007 196.38623 
L 657.110571 196.38623 
L 658.137735 191.143085 
L 700.251444 191.143085 
L 701.278607 203.37709 
L 861.516135 203.37709 
L 862.543298 215.611095 
L 877.950753 215.611095 
L 877.950753 215.611095 
" clip-path="url(#p0ffd294efc)" style="fill: none; stroke: #81a1c1; stroke-width: 2; stroke-linecap: square"/>
   </g>
   <g id="line2d_43">
    <path d="M 417.781444 235.928281 
L 417.781444 58.098281 
" clip-path="url(#p0ffd294efc)" style="fill: none; stroke-dasharray: 5.55,2.4; stroke-dashoffset: 0; stroke: #bf616a; stroke-width: 1.5"/>
   </g>
   <g id="line2d_44">
    <path d="M 364.368935 235.928281 
L 364.368935 58.098281 
" clip-path="url(#p0ffd294efc)" style="fill: none; stroke-dasharray: 5.55,2.4; stroke-dashoffset: 0; stroke: #bf616a; stroke-width: 1.5"/>
   </g>
   <g id="patch_3">
    <path d="M 338.689844 235.928281 
L 338.689844 58.098281 
" style="fill: none; stroke: #4c566a; stroke-width: 1.8; stroke-linejoin: miter; stroke-linecap: square"/>
   </g>
   <g id="patch_4">
    <path d="M 903.629844 235.928281 
L 903.629844 58.098281 
" style="fill: none; stroke: #4c566a; stroke-width: 1.8; stroke-linejoin: miter; stroke-linecap: square"/>
   </g>
   <g id="patch_5">
    <path d="M 338.689844 235.928281 
L 903.629844 235.928281 
" style="fill: none; stroke: #4c566a; stroke-width: 1.8; stroke-linejoin: miter; stroke-linecap: square"/>
   </g>
   <g id="patch_6">
    <path d="M 338.689844 58.098281 
L 903.629844 58.098281 
" style="fill: none; stroke: #4c566a; stroke-width: 1.8; stroke-linejoin: miter; stroke-linecap: square"/>
   </g>
   <g id="text_5">
    <text style="font-size: 10px; font-family: 'Courier New'; fill: #bf616a" transform="translate(415.897069 219.770656) rotate(-90)">High threshold = 0.104</text>
   </g>
   <g id="text_6">
    <text style="font-size: 10px; font-family: 'Courier New'; fill: #bf616a" transform="translate(362.48456 219.770656) rotate(-90)">Low threshold = 0.000</text>
   </g>
   <g id="text_7">
    <text style="font-weight: 600; font-size: 33px; font-family: 'Courier New'; text-anchor: middle" x="621.159844" y="28.098281" transform="rotate(-0 621.159844 28.098281)">Radiomics + D-FRS pre-operative Youden index across thresholds</text>
   </g>
  </g>
  <g id="axes_2">
   <g id="patch_7">
    <path d="M 338.689844 451.918281 
L 903.629844 451.918281 
L 903.629844 274.088281 
L 338.689844 274.088281 
z
" style="fill: #ffffff"/>
   </g>
   <g id="matplotlib.axis_3">
    <g id="xtick_24">
     <g id="line2d_45">
      <path d="M 364.368935 451.918281 
L 364.368935 274.088281 
" clip-path="url(#p1442205580)" style="fill: none; stroke: #4c566a; stroke-opacity: 0.3; stroke-width: 0.8; stroke-linecap: square"/>
     </g>
     <g id="line2d_46">
      <g>
       <use xlink:href="#m64ada8bf43" x="364.368935" y="451.918281" style="stroke: #000000; stroke-width: 2.4"/>
      </g>
     </g>
     <g id="text_8">
      <text style="font-size: 24px; font-family: 'Courier New'; text-anchor: middle" x="364.368935" y="479.125781" transform="rotate(-0 364.368935 479.125781)">0.0</text>
     </g>
    </g>
    <g id="xtick_25">
     <g id="line2d_47">
      <path d="M 467.085298 451.918281 
L 467.085298 274.088281 
" clip-path="url(#p1442205580)" style="fill: none; stroke: #4c566a; stroke-opacity: 0.3; stroke-width: 0.8; stroke-linecap: square"/>
     </g>
     <g id="line2d_48">
      <g>
       <use xlink:href="#m64ada8bf43" x="467.085298" y="451.918281" style="stroke: #000000; stroke-width: 2.4"/>
      </g>
     </g>
     <g id="text_9">
      <text style="font-size: 24px; font-family: 'Courier New'; text-anchor: middle" x="467.085298" y="479.125781" transform="rotate(-0 467.085298 479.125781)">0.2</text>
     </g>
    </g>
    <g id="xtick_26">
     <g id="line2d_49">
      <path d="M 569.801662 451.918281 
L 569.801662 274.088281 
" clip-path="url(#p1442205580)" style="fill: none; stroke: #4c566a; stroke-opacity: 0.3; stroke-width: 0.8; stroke-linecap: square"/>
     </g>
     <g id="line2d_50">
      <g>
       <use xlink:href="#m64ada8bf43" x="569.801662" y="451.918281" style="stroke: #000000; stroke-width: 2.4"/>
      </g>
     </g>
     <g id="text_10">
      <text style="font-size: 24px; font-family: 'Courier New'; text-anchor: middle" x="569.801662" y="479.125781" transform="rotate(-0 569.801662 479.125781)">0.4</text>
     </g>
    </g>
    <g id="xtick_27">
     <g id="line2d_51">
      <path d="M 672.518026 451.918281 
L 672.518026 274.088281 
" clip-path="url(#p1442205580)" style="fill: none; stroke: #4c566a; stroke-opacity: 0.3; stroke-width: 0.8; stroke-linecap: square"/>
     </g>
     <g id="line2d_52">
      <g>
       <use xlink:href="#m64ada8bf43" x="672.518026" y="451.918281" style="stroke: #000000; stroke-width: 2.4"/>
      </g>
     </g>
     <g id="text_11">
      <text style="font-size: 24px; font-family: 'Courier New'; text-anchor: middle" x="672.518026" y="479.125781" transform="rotate(-0 672.518026 479.125781)">0.6</text>
     </g>
    </g>
    <g id="xtick_28">
     <g id="line2d_53">
      <path d="M 775.234389 451.918281 
L 775.234389 274.088281 
" clip-path="url(#p1442205580)" style="fill: none; stroke: #4c566a; stroke-opacity: 0.3; stroke-width: 0.8; stroke-linecap: square"/>
     </g>
     <g id="line2d_54">
      <g>
       <use xlink:href="#m64ada8bf43" x="775.234389" y="451.918281" style="stroke: #000000; stroke-width: 2.4"/>
      </g>
     </g>
     <g id="text_12">
      <text style="font-size: 24px; font-family: 'Courier New'; text-anchor: middle" x="775.234389" y="479.125781" transform="rotate(-0 775.234389 479.125781)">0.8</text>
     </g>
    </g>
    <g id="xtick_29">
     <g id="line2d_55">
      <path d="M 877.950753 451.918281 
L 877.950753 274.088281 
" clip-path="url(#p1442205580)" style="fill: none; stroke: #4c566a; stroke-opacity: 0.3; stroke-width: 0.8; stroke-linecap: square"/>
     </g>
     <g id="line2d_56">
      <g>
       <use xlink:href="#m64ada8bf43" x="877.950753" y="451.918281" style="stroke: #000000; stroke-width: 2.4"/>
      </g>
     </g>
     <g id="text_13">
      <text style="font-size: 24px; font-family: 'Courier New'; text-anchor: middle" x="877.950753" y="479.125781" transform="rotate(-0 877.950753 479.125781)">1.0</text>
     </g>
    </g>
    <g id="xtick_30">
     <g id="line2d_57">
      <g>
       <use xlink:href="#m07f57d8b5c" x="338.689844" y="451.918281" style="stroke: #000000; stroke-width: 1.5"/>
      </g>
     </g>
    </g>
    <g id="xtick_31">
     <g id="line2d_58">
      <g>
       <use xlink:href="#m07f57d8b5c" x="390.048026" y="451.918281" style="stroke: #000000; stroke-width: 1.5"/>
      </g>
     </g>
    </g>
    <g id="xtick_32">
     <g id="line2d_59">
      <g>
       <use xlink:href="#m07f57d8b5c" x="415.727116" y="451.918281" style="stroke: #000000; stroke-width: 1.5"/>
      </g>
     </g>
    </g>
    <g id="xtick_33">
     <g id="line2d_60">
      <g>
       <use xlink:href="#m07f57d8b5c" x="441.406207" y="451.918281" style="stroke: #000000; stroke-width: 1.5"/>
      </g>
     </g>
    </g>
    <g id="xtick_34">
     <g id="line2d_61">
      <g>
       <use xlink:href="#m07f57d8b5c" x="492.764389" y="451.918281" style="stroke: #000000; stroke-width: 1.5"/>
      </g>
     </g>
    </g>
    <g id="xtick_35">
     <g id="line2d_62">
      <g>
       <use xlink:href="#m07f57d8b5c" x="518.44348" y="451.918281" style="stroke: #000000; stroke-width: 1.5"/>
      </g>
     </g>
    </g>
    <g id="xtick_36">
     <g id="line2d_63">
      <g>
       <use xlink:href="#m07f57d8b5c" x="544.122571" y="451.918281" style="stroke: #000000; stroke-width: 1.5"/>
      </g>
     </g>
    </g>
    <g id="xtick_37">
     <g id="line2d_64">
      <g>
       <use xlink:href="#m07f57d8b5c" x="595.480753" y="451.918281" style="stroke: #000000; stroke-width: 1.5"/>
      </g>
     </g>
    </g>
    <g id="xtick_38">
     <g id="line2d_65">
      <g>
       <use xlink:href="#m07f57d8b5c" x="621.159844" y="451.918281" style="stroke: #000000; stroke-width: 1.5"/>
      </g>
     </g>
    </g>
    <g id="xtick_39">
     <g id="line2d_66">
      <g>
       <use xlink:href="#m07f57d8b5c" x="646.838935" y="451.918281" style="stroke: #000000; stroke-width: 1.5"/>
      </g>
     </g>
    </g>
    <g id="xtick_40">
     <g id="line2d_67">
      <g>
       <use xlink:href="#m07f57d8b5c" x="698.197116" y="451.918281" style="stroke: #000000; stroke-width: 1.5"/>
      </g>
     </g>
    </g>
    <g id="xtick_41">
     <g id="line2d_68">
      <g>
       <use xlink:href="#m07f57d8b5c" x="723.876207" y="451.918281" style="stroke: #000000; stroke-width: 1.5"/>
      </g>
     </g>
    </g>
    <g id="xtick_42">
     <g id="line2d_69">
      <g>
       <use xlink:href="#m07f57d8b5c" x="749.555298" y="451.918281" style="stroke: #000000; stroke-width: 1.5"/>
      </g>
     </g>
    </g>
    <g id="xtick_43">
     <g id="line2d_70">
      <g>
       <use xlink:href="#m07f57d8b5c" x="800.91348" y="451.918281" style="stroke: #000000; stroke-width: 1.5"/>
      </g>
     </g>
    </g>
    <g id="xtick_44">
     <g id="line2d_71">
      <g>
       <use xlink:href="#m07f57d8b5c" x="826.592571" y="451.918281" style="stroke: #000000; stroke-width: 1.5"/>
      </g>
     </g>
    </g>
    <g id="xtick_45">
     <g id="line2d_72">
      <g>
       <use xlink:href="#m07f57d8b5c" x="852.271662" y="451.918281" style="stroke: #000000; stroke-width: 1.5"/>
      </g>
     </g>
    </g>
    <g id="xtick_46">
     <g id="line2d_73">
      <g>
       <use xlink:href="#m07f57d8b5c" x="903.629844" y="451.918281" style="stroke: #000000; stroke-width: 1.5"/>
      </g>
     </g>
    </g>
    <g id="text_14">
     <text style="font-weight: 600; font-size: 27px; font-family: 'Courier New'; text-anchor: middle" x="621.159844" y="518.746875" transform="rotate(-0 621.159844 518.746875)">Threshold</text>
    </g>
   </g>
   <g id="matplotlib.axis_4">
    <g id="ytick_10">
     <g id="line2d_74">
      <path d="M 338.689844 443.835099 
L 903.629844 443.835099 
" clip-path="url(#p1442205580)" style="fill: none; stroke: #4c566a; stroke-opacity: 0.3; stroke-width: 0.8; stroke-linecap: square"/>
     </g>
     <g id="line2d_75">
      <g>
       <use xlink:href="#ma8700824b5" x="338.689844" y="443.835099" style="stroke: #000000; stroke-width: 2.4"/>
      </g>
     </g>
     <g id="text_15">
      <text style="font-size: 24px; font-family: 'Courier New'; text-anchor: end" x="326.189844" y="451.188849" transform="rotate(-0 326.189844 451.188849)">0.0</text>
     </g>
    </g>
    <g id="ytick_11">
     <g id="line2d_76">
      <path d="M 338.689844 363.003281 
L 903.629844 363.003281 
" clip-path="url(#p1442205580)" style="fill: none; stroke: #4c566a; stroke-opacity: 0.3; stroke-width: 0.8; stroke-linecap: square"/>
     </g>
     <g id="line2d_77">
      <g>
       <use xlink:href="#ma8700824b5" x="338.689844" y="363.003281" style="stroke: #000000; stroke-width: 2.4"/>
      </g>
     </g>
     <g id="text_16">
      <text style="font-size: 24px; font-family: 'Courier New'; text-anchor: end" x="326.189844" y="370.357031" transform="rotate(-0 326.189844 370.357031)">0.5</text>
     </g>
    </g>
    <g id="ytick_12">
     <g id="line2d_78">
      <path d="M 338.689844 282.171463 
L 903.629844 282.171463 
" clip-path="url(#p1442205580)" style="fill: none; stroke: #4c566a; stroke-opacity: 0.3; stroke-width: 0.8; stroke-linecap: square"/>
     </g>
     <g id="line2d_79">
      <g>
       <use xlink:href="#ma8700824b5" x="338.689844" y="282.171463" style="stroke: #000000; stroke-width: 2.4"/>
      </g>
     </g>
     <g id="text_17">
      <text style="font-size: 24px; font-family: 'Courier New'; text-anchor: end" x="326.189844" y="289.525213" transform="rotate(-0 326.189844 289.525213)">1.0</text>
     </g>
    </g>
    <g id="ytick_13">
     <g id="line2d_80">
      <g>
       <use xlink:href="#mbbfc379822" x="338.689844" y="427.668736" style="stroke: #000000; stroke-width: 1.5"/>
      </g>
     </g>
    </g>
    <g id="ytick_14">
     <g id="line2d_81">
      <g>
       <use xlink:href="#mbbfc379822" x="338.689844" y="411.502372" style="stroke: #000000; stroke-width: 1.5"/>
      </g>
     </g>
    </g>
    <g id="ytick_15">
     <g id="line2d_82">
      <g>
       <use xlink:href="#mbbfc379822" x="338.689844" y="395.336009" style="stroke: #000000; stroke-width: 1.5"/>
      </g>
     </g>
    </g>
    <g id="ytick_16">
     <g id="line2d_83">
      <g>
       <use xlink:href="#mbbfc379822" x="338.689844" y="379.169645" style="stroke: #000000; stroke-width: 1.5"/>
      </g>
     </g>
    </g>
    <g id="ytick_17">
     <g id="line2d_84">
      <g>
       <use xlink:href="#mbbfc379822" x="338.689844" y="346.836918" style="stroke: #000000; stroke-width: 1.5"/>
      </g>
     </g>
    </g>
    <g id="ytick_18">
     <g id="line2d_85">
      <g>
       <use xlink:href="#mbbfc379822" x="338.689844" y="330.670554" style="stroke: #000000; stroke-width: 1.5"/>
      </g>
     </g>
    </g>
    <g id="ytick_19">
     <g id="line2d_86">
      <g>
       <use xlink:href="#mbbfc379822" x="338.689844" y="314.50419" style="stroke: #000000; stroke-width: 1.5"/>
      </g>
     </g>
    </g>
    <g id="ytick_20">
     <g id="line2d_87">
      <g>
       <use xlink:href="#mbbfc379822" x="338.689844" y="298.337827" style="stroke: #000000; stroke-width: 1.5"/>
      </g>
     </g>
    </g>
    <g id="text_18">
     <text style="font-weight: 600; font-size: 27px; font-family: 'Courier New'; text-anchor: middle" x="259.333906" y="363.003281" transform="rotate(-90 259.333906 363.003281)">Value</text>
    </g>
   </g>
   <g id="line2d_88">
    <path d="M 364.368935 282.171463 
L 365.396098 287.070361 
L 390.048026 287.070361 
L 391.075189 296.868157 
L 402.373989 296.868157 
L 403.401153 301.767055 
L 416.75428 301.767055 
L 417.781444 306.665953 
L 428.05308 306.665953 
L 429.080244 321.362648 
L 441.406207 321.362648 
L 443.460535 340.95824 
L 456.813662 340.95824 
L 457.840826 355.654934 
L 472.221116 355.654934 
L 473.24828 370.351628 
L 550.285553 370.351628 
L 551.312716 380.149425 
L 561.584353 380.149425 
L 562.611516 385.048323 
L 584.181953 385.048323 
L 585.209116 414.441711 
L 610.888207 414.441711 
L 611.915371 424.239507 
L 621.159844 424.239507 
L 622.187007 429.138405 
L 700.251444 429.138405 
L 701.278607 434.037303 
L 861.516135 434.037303 
L 862.543298 438.936201 
L 877.950753 438.936201 
L 877.950753 438.936201 
" clip-path="url(#p1442205580)" style="fill: none; stroke: #bf616a; stroke-width: 2; stroke-linecap: square"/>
   </g>
   <g id="line2d_89">
    <path d="M 364.368935 443.835099 
L 365.396098 399.745017 
L 379.776389 399.745017 
L 380.803553 398.695253 
L 387.993698 398.695253 
L 389.020862 397.645489 
L 390.048026 397.645489 
L 391.075189 390.297142 
L 402.373989 390.297142 
L 403.401153 382.948795 
L 415.727116 382.948795 
L 416.75428 374.550684 
L 417.781444 354.60517 
L 428.05308 354.60517 
L 429.080244 350.406115 
L 431.134571 350.406115 
L 432.161735 349.356351 
L 438.324716 349.356351 
L 439.35188 348.306587 
L 441.406207 348.306587 
L 442.433371 343.057768 
L 443.460535 339.908476 
L 449.623516 339.908476 
L 450.65068 338.858712 
L 456.813662 338.858712 
L 457.840826 328.361073 
L 462.976644 328.361073 
L 464.003807 327.31131 
L 472.221116 327.31131 
L 473.24828 315.763907 
L 474.275444 315.763907 
L 475.302607 309.465324 
L 484.54708 309.465324 
L 485.574244 307.365796 
L 486.601407 307.365796 
L 487.628571 306.316032 
L 500.981698 306.316032 
L 502.008862 302.116977 
L 550.285553 302.116977 
L 551.312716 300.017449 
L 584.181953 300.017449 
L 585.209116 294.76863 
L 590.344935 294.76863 
L 591.372098 293.718866 
L 610.888207 293.718866 
L 611.915371 288.470046 
L 621.159844 288.470046 
L 622.187007 284.270991 
L 657.110571 284.270991 
L 658.137735 282.171463 
L 877.950753 282.171463 
L 877.950753 282.171463 
" clip-path="url(#p1442205580)" style="fill: none; stroke: #5e81ac; stroke-width: 2; stroke-linecap: square"/>
   </g>
   <g id="line2d_90">
    <path d="M 364.368935 415.306222 
L 365.396098 407.909847 
L 379.776389 407.909847 
L 380.803553 407.658621 
L 387.993698 407.658621 
L 389.020862 407.403857 
L 402.373989 407.369618 
L 403.401153 406.329136 
L 415.727116 406.329136 
L 416.75428 403.764625 
L 417.781444 397.169307 
L 428.05308 397.169307 
L 429.080244 398.928534 
L 431.134571 398.928534 
L 432.161735 398.423966 
L 438.324716 398.423966 
L 439.35188 397.90793 
L 442.433371 397.93061 
L 443.460535 399.164884 
L 449.623516 399.164884 
L 450.65068 398.569281 
L 456.813662 398.569281 
L 457.840826 396.900495 
L 462.976644 396.900495 
L 464.003807 396.131076 
L 472.221116 396.131076 
L 473.24828 392.240322 
L 474.275444 392.240322 
L 475.302607 384.689867 
L 484.54708 384.689867 
L 485.574244 381.656778 
L 486.601407 381.656778 
L 487.628571 380.020506 
L 500.981698 380.020506 
L 502.008862 372.512907 
L 550.285553 372.512907 
L 551.312716 373.780857 
L 561.584353 373.780857 
L 562.611516 376.939802 
L 584.181953 376.939802 
L 585.209116 389.947221 
L 590.344935 389.947221 
L 591.372098 386.777345 
L 610.888207 386.777345 
L 611.915371 379.169645 
L 621.159844 379.169645 
L 622.187007 346.836918 
L 657.110571 346.836918 
L 658.137735 282.171463 
L 877.950753 282.171463 
L 877.950753 282.171463 
" clip-path="url(#p1442205580)" style="fill: none; stroke: #a3be8c; stroke-width: 2; stroke-linecap: square"/>
   </g>
   <g id="line2d_91">
    <path d="M 365.396098 285.931083 
L 387.993698 285.845637 
L 390.048026 285.763988 
L 391.075189 291.152776 
L 402.373989 291.152776 
L 403.401153 292.601375 
L 415.727116 292.601375 
L 416.75428 291.409385 
L 417.781444 291.152776 
L 428.05308 291.152776 
L 429.080244 295.504546 
L 431.134571 295.504546 
L 432.161735 295.368495 
L 438.324716 295.368495 
L 439.35188 295.235191 
L 441.406207 295.235191 
L 443.460535 299.648613 
L 449.623516 299.648613 
L 450.65068 299.492567 
L 456.813662 299.492567 
L 457.840826 301.571099 
L 462.976644 301.571099 
L 464.003807 301.417134 
L 472.221116 301.417134 
L 473.24828 302.956788 
L 474.275444 302.956788 
L 475.302607 302.102596 
L 484.54708 302.102596 
L 485.574244 301.833257 
L 486.601407 301.833257 
L 487.628571 301.701298 
L 500.981698 301.701298 
L 502.008862 301.190714 
L 550.285553 301.190714 
L 551.312716 302.765557 
L 561.584353 302.765557 
L 562.611516 303.658402 
L 584.181953 303.658402 
L 585.209116 307.999381 
L 590.344935 307.999381 
L 591.372098 307.847452 
L 610.888207 307.847452 
L 611.915371 308.658726 
L 621.159844 308.658726 
L 622.187007 308.819315 
L 657.110571 308.819315 
L 658.137735 308.529665 
L 700.251444 308.529665 
L 701.278607 309.261045 
L 861.516135 309.261045 
L 862.543298 309.984562 
L 877.950753 309.984562 
L 877.950753 309.984562 
" clip-path="url(#p1442205580)" style="fill: none; stroke: #b48ead; stroke-width: 2; stroke-linecap: square"/>
   </g>
   <g id="line2d_92">
    <path d="M 364.368935 451.918281 
L 364.368935 274.088281 
" clip-path="url(#p1442205580)" style="fill: none; stroke-dasharray: 3.7,1.6; stroke-dashoffset: 0; stroke: #4c566a"/>
   </g>
   <g id="line2d_93">
    <path d="M 417.781444 451.918281 
L 417.781444 274.088281 
" clip-path="url(#p1442205580)" style="fill: none; stroke-dasharray: 3.7,1.6; stroke-dashoffset: 0; stroke: #4c566a"/>
   </g>
   <g id="patch_8">
    <path d="M 338.689844 451.918281 
L 338.689844 274.088281 
" style="fill: none; stroke: #4c566a; stroke-width: 1.8; stroke-linejoin: miter; stroke-linecap: square"/>
   </g>
   <g id="patch_9">
    <path d="M 903.629844 451.918281 
L 903.629844 274.088281 
" style="fill: none; stroke: #4c566a; stroke-width: 1.8; stroke-linejoin: miter; stroke-linecap: square"/>
   </g>
   <g id="patch_10">
    <path d="M 338.689844 451.918281 
L 903.629844 451.918281 
" style="fill: none; stroke: #4c566a; stroke-width: 1.8; stroke-linejoin: miter; stroke-linecap: square"/>
   </g>
   <g id="patch_11">
    <path d="M 338.689844 274.088281 
L 903.629844 274.088281 
" style="fill: none; stroke: #4c566a; stroke-width: 1.8; stroke-linejoin: miter; stroke-linecap: square"/>
   </g>
   <g id="legend_1">
    <g id="line2d_94">
     <path d="M 800.612656 341.234531 
L 810.612656 341.234531 
L 820.612656 341.234531 
" style="fill: none; stroke: #bf616a; stroke-width: 2; stroke-linecap: square"/>
    </g>
    <g id="text_19">
     <text style="font-size: 10px; font-family: 'Courier New'; text-anchor: start" x="828.612656" y="344.734531" transform="rotate(-0 828.612656 344.734531)">Sensitivity</text>
    </g>
    <g id="line2d_95">
     <path d="M 800.612656 355.118906 
L 810.612656 355.118906 
L 820.612656 355.118906 
" style="fill: none; stroke: #5e81ac; stroke-width: 2; stroke-linecap: square"/>
    </g>
    <g id="text_20">
     <text style="font-size: 10px; font-family: 'Courier New'; text-anchor: start" x="828.612656" y="358.618906" transform="rotate(-0 828.612656 358.618906)">Specificity</text>
    </g>
    <g id="line2d_96">
     <path d="M 800.612656 369.003281 
L 810.612656 369.003281 
L 820.612656 369.003281 
" style="fill: none; stroke: #a3be8c; stroke-width: 2; stroke-linecap: square"/>
    </g>
    <g id="text_21">
     <text style="font-size: 10px; font-family: 'Courier New'; text-anchor: start" x="828.612656" y="372.503281" transform="rotate(-0 828.612656 372.503281)">PPV</text>
    </g>
    <g id="line2d_97">
     <path d="M 800.612656 382.887656 
L 810.612656 382.887656 
L 820.612656 382.887656 
" style="fill: none; stroke: #b48ead; stroke-width: 2; stroke-linecap: square"/>
    </g>
    <g id="text_22">
     <text style="font-size: 10px; font-family: 'Courier New'; text-anchor: start" x="828.612656" y="386.387656" transform="rotate(-0 828.612656 386.387656)">NPV</text>
    </g>
   </g>
  </g>
 </g>
 <defs>
  <clipPath id="p0ffd294efc">
   <rect x="338.689844" y="58.098281" width="564.94" height="177.83"/>
  </clipPath>
  <clipPath id="p1442205580">
   <rect x="338.689844" y="274.088281" width="564.94" height="177.83"/>
  </clipPath>
 </defs>
</svg>
