<?xml version="1.0" encoding="utf-8" standalone="no"?>
<!DOCTYPE svg PUBLIC "-//W3C//DTD SVG 1.1//EN"
  "http://www.w3.org/Graphics/SVG/1.1/DTD/svg11.dtd">
<svg xmlns:xlink="http://www.w3.org/1999/xlink" width="1281.93pt" height="531.591562pt" viewBox="0 0 1281.93 531.591562" xmlns="http://www.w3.org/2000/svg" version="1.1">
 <metadata>
  <rdf:RDF xmlns:dc="http://purl.org/dc/elements/1.1/" xmlns:cc="http://creativecommons.org/ns#" xmlns:rdf="http://www.w3.org/1999/02/22-rdf-syntax-ns#">
   <cc:Work>
    <dc:type rdf:resource="http://purl.org/dc/dcmitype/StillImage"/>
    <dc:date>2025-12-28T16:55:12.028171</dc:date>
    <dc:format>image/svg+xml</dc:format>
    <dc:creator>
     <cc:Agent>
      <dc:title>Matplotlib v3.10.3, https://matplotlib.org/</dc:title>
     </cc:Agent>
    </dc:creator>
   </cc:Work>
  </rdf:RDF>
 </metadata>
 <defs>
  <style type="text/css">*{stroke-linejoin: round; stroke-linecap: butt}</style>
 </defs>
 <g id="figure_1">
  <g id="patch_1">
   <path d="M 0 531.591562 
L 1281.93 531.591562 
L 1281.93 0 
L 0 0 
z
" style="fill: #ffffff"/>
  </g>
  <g id="axes_1">
   <g id="patch_2">
    <path d="M 358.495 235.928281 
L 923.435 235.928281 
L 923.435 58.098281 
L 358.495 58.098281 
z
" style="fill: #ffffff"/>
   </g>
   <g id="matplotlib.axis_1">
    <g id="xtick_1">
     <g id="line2d_1">
      <path d="M 384.174091 235.928281 
L 384.174091 58.098281 
" clip-path="url(#p21bc33e84d)" style="fill: none; stroke: #4c566a; stroke-opacity: 0.3; stroke-width: 0.8; stroke-linecap: square"/>
     </g>
     <g id="line2d_2">
      <defs>
       <path id="me383ff9233" d="M 0 0 
L 0 9 
" style="stroke: #000000; stroke-width: 2.4"/>
      </defs>
      <g>
       <use xlink:href="#me383ff9233" x="384.174091" y="235.928281" style="stroke: #000000; stroke-width: 2.4"/>
      </g>
     </g>
    </g>
    <g id="xtick_2">
     <g id="line2d_3">
      <path d="M 486.890455 235.928281 
L 486.890455 58.098281 
" clip-path="url(#p21bc33e84d)" style="fill: none; stroke: #4c566a; stroke-opacity: 0.3; stroke-width: 0.8; stroke-linecap: square"/>
     </g>
     <g id="line2d_4">
      <g>
       <use xlink:href="#me383ff9233" x="486.890455" y="235.928281" style="stroke: #000000; stroke-width: 2.4"/>
      </g>
     </g>
    </g>
    <g id="xtick_3">
     <g id="line2d_5">
      <path d="M 589.606818 235.928281 
L 589.606818 58.098281 
" clip-path="url(#p21bc33e84d)" style="fill: none; stroke: #4c566a; stroke-opacity: 0.3; stroke-width: 0.8; stroke-linecap: square"/>
     </g>
     <g id="line2d_6">
      <g>
       <use xlink:href="#me383ff9233" x="589.606818" y="235.928281" style="stroke: #000000; stroke-width: 2.4"/>
      </g>
     </g>
    </g>
    <g id="xtick_4">
     <g id="line2d_7">
      <path d="M 692.323182 235.928281 
L 692.323182 58.098281 
" clip-path="url(#p21bc33e84d)" style="fill: none; stroke: #4c566a; stroke-opacity: 0.3; stroke-width: 0.8; stroke-linecap: square"/>
     </g>
     <g id="line2d_8">
      <g>
       <use xlink:href="#me383ff9233" x="692.323182" y="235.928281" style="stroke: #000000; stroke-width: 2.4"/>
      </g>
     </g>
    </g>
    <g id="xtick_5">
     <g id="line2d_9">
      <path d="M 795.039545 235.928281 
L 795.039545 58.098281 
" clip-path="url(#p21bc33e84d)" style="fill: none; stroke: #4c566a; stroke-opacity: 0.3; stroke-width: 0.8; stroke-linecap: square"/>
     </g>
     <g id="line2d_10">
      <g>
       <use xlink:href="#me383ff9233" x="795.039545" y="235.928281" style="stroke: #000000; stroke-width: 2.4"/>
      </g>
     </g>
    </g>
    <g id="xtick_6">
     <g id="line2d_11">
      <path d="M 897.755909 235.928281 
L 897.755909 58.098281 
" clip-path="url(#p21bc33e84d)" style="fill: none; stroke: #4c566a; stroke-opacity: 0.3; stroke-width: 0.8; stroke-linecap: square"/>
     </g>
     <g id="line2d_12">
      <g>
       <use xlink:href="#me383ff9233" x="897.755909" y="235.928281" style="stroke: #000000; stroke-width: 2.4"/>
      </g>
     </g>
    </g>
    <g id="xtick_7">
     <g id="line2d_13">
      <defs>
       <path id="mb3ab9bd8ec" d="M 0 0 
L 0 6 
" style="stroke: #000000; stroke-width: 1.5"/>
      </defs>
      <g>
       <use xlink:href="#mb3ab9bd8ec" x="358.495" y="235.928281" style="stroke: #000000; stroke-width: 1.5"/>
      </g>
     </g>
    </g>
    <g id="xtick_8">
     <g id="line2d_14">
      <g>
       <use xlink:href="#mb3ab9bd8ec" x="409.853182" y="235.928281" style="stroke: #000000; stroke-width: 1.5"/>
      </g>
     </g>
    </g>
    <g id="xtick_9">
     <g id="line2d_15">
      <g>
       <use xlink:href="#mb3ab9bd8ec" x="435.532273" y="235.928281" style="stroke: #000000; stroke-width: 1.5"/>
      </g>
     </g>
    </g>
    <g id="xtick_10">
     <g id="line2d_16">
      <g>
       <use xlink:href="#mb3ab9bd8ec" x="461.211364" y="235.928281" style="stroke: #000000; stroke-width: 1.5"/>
      </g>
     </g>
    </g>
    <g id="xtick_11">
     <g id="line2d_17">
      <g>
       <use xlink:href="#mb3ab9bd8ec" x="512.569545" y="235.928281" style="stroke: #000000; stroke-width: 1.5"/>
      </g>
     </g>
    </g>
    <g id="xtick_12">
     <g id="line2d_18">
      <g>
       <use xlink:href="#mb3ab9bd8ec" x="538.248636" y="235.928281" style="stroke: #000000; stroke-width: 1.5"/>
      </g>
     </g>
    </g>
    <g id="xtick_13">
     <g id="line2d_19">
      <g>
       <use xlink:href="#mb3ab9bd8ec" x="563.927727" y="235.928281" style="stroke: #000000; stroke-width: 1.5"/>
      </g>
     </g>
    </g>
    <g id="xtick_14">
     <g id="line2d_20">
      <g>
       <use xlink:href="#mb3ab9bd8ec" x="615.285909" y="235.928281" style="stroke: #000000; stroke-width: 1.5"/>
      </g>
     </g>
    </g>
    <g id="xtick_15">
     <g id="line2d_21">
      <g>
       <use xlink:href="#mb3ab9bd8ec" x="640.965" y="235.928281" style="stroke: #000000; stroke-width: 1.5"/>
      </g>
     </g>
    </g>
    <g id="xtick_16">
     <g id="line2d_22">
      <g>
       <use xlink:href="#mb3ab9bd8ec" x="666.644091" y="235.928281" style="stroke: #000000; stroke-width: 1.5"/>
      </g>
     </g>
    </g>
    <g id="xtick_17">
     <g id="line2d_23">
      <g>
       <use xlink:href="#mb3ab9bd8ec" x="718.002273" y="235.928281" style="stroke: #000000; stroke-width: 1.5"/>
      </g>
     </g>
    </g>
    <g id="xtick_18">
     <g id="line2d_24">
      <g>
       <use xlink:href="#mb3ab9bd8ec" x="743.681364" y="235.928281" style="stroke: #000000; stroke-width: 1.5"/>
      </g>
     </g>
    </g>
    <g id="xtick_19">
     <g id="line2d_25">
      <g>
       <use xlink:href="#mb3ab9bd8ec" x="769.360455" y="235.928281" style="stroke: #000000; stroke-width: 1.5"/>
      </g>
     </g>
    </g>
    <g id="xtick_20">
     <g id="line2d_26">
      <g>
       <use xlink:href="#mb3ab9bd8ec" x="820.718636" y="235.928281" style="stroke: #000000; stroke-width: 1.5"/>
      </g>
     </g>
    </g>
    <g id="xtick_21">
     <g id="line2d_27">
      <g>
       <use xlink:href="#mb3ab9bd8ec" x="846.397727" y="235.928281" style="stroke: #000000; stroke-width: 1.5"/>
      </g>
     </g>
    </g>
    <g id="xtick_22">
     <g id="line2d_28">
      <g>
       <use xlink:href="#mb3ab9bd8ec" x="872.076818" y="235.928281" style="stroke: #000000; stroke-width: 1.5"/>
      </g>
     </g>
    </g>
    <g id="xtick_23">
     <g id="line2d_29">
      <g>
       <use xlink:href="#mb3ab9bd8ec" x="923.435" y="235.928281" style="stroke: #000000; stroke-width: 1.5"/>
      </g>
     </g>
    </g>
   </g>
   <g id="matplotlib.axis_2">
    <g id="ytick_1">
     <g id="line2d_30">
      <path d="M 358.495 227.845099 
L 923.435 227.845099 
" clip-path="url(#p21bc33e84d)" style="fill: none; stroke: #4c566a; stroke-opacity: 0.3; stroke-width: 0.8; stroke-linecap: square"/>
     </g>
     <g id="line2d_31">
      <defs>
       <path id="m28fa6bb84c" d="M 0 0 
L -9 0 
" style="stroke: #000000; stroke-width: 2.4"/>
      </defs>
      <g>
       <use xlink:href="#m28fa6bb84c" x="358.495" y="227.845099" style="stroke: #000000; stroke-width: 2.4"/>
      </g>
     </g>
     <g id="text_1">
      <text style="font-size: 24px; font-family: 'Courier New'; text-anchor: end" x="345.995" y="235.198849" transform="rotate(-0 345.995 235.198849)">0.0</text>
     </g>
    </g>
    <g id="ytick_2">
     <g id="line2d_32">
      <path d="M 358.495 146.218214 
L 923.435 146.218214 
" clip-path="url(#p21bc33e84d)" style="fill: none; stroke: #4c566a; stroke-opacity: 0.3; stroke-width: 0.8; stroke-linecap: square"/>
     </g>
     <g id="line2d_33">
      <g>
       <use xlink:href="#m28fa6bb84c" x="358.495" y="146.218214" style="stroke: #000000; stroke-width: 2.4"/>
      </g>
     </g>
     <g id="text_2">
      <text style="font-size: 24px; font-family: 'Courier New'; text-anchor: end" x="345.995" y="153.571964" transform="rotate(-0 345.995 153.571964)">0.2</text>
     </g>
    </g>
    <g id="ytick_3">
     <g id="line2d_34">
      <path d="M 358.495 64.591329 
L 923.435 64.591329 
" clip-path="url(#p21bc33e84d)" style="fill: none; stroke: #4c566a; stroke-opacity: 0.3; stroke-width: 0.8; stroke-linecap: square"/>
     </g>
     <g id="line2d_35">
      <g>
       <use xlink:href="#m28fa6bb84c" x="358.495" y="64.591329" style="stroke: #000000; stroke-width: 2.4"/>
      </g>
     </g>
     <g id="text_3">
      <text style="font-size: 24px; font-family: 'Courier New'; text-anchor: end" x="345.995" y="71.945079" transform="rotate(-0 345.995 71.945079)">0.4</text>
     </g>
    </g>
    <g id="ytick_4">
     <g id="line2d_36">
      <defs>
       <path id="mb68ec6198f" d="M 0 0 
L -6 0 
" style="stroke: #000000; stroke-width: 1.5"/>
      </defs>
      <g>
       <use xlink:href="#mb68ec6198f" x="358.495" y="207.438378" style="stroke: #000000; stroke-width: 1.5"/>
      </g>
     </g>
    </g>
    <g id="ytick_5">
     <g id="line2d_37">
      <g>
       <use xlink:href="#mb68ec6198f" x="358.495" y="187.031657" style="stroke: #000000; stroke-width: 1.5"/>
      </g>
     </g>
    </g>
    <g id="ytick_6">
     <g id="line2d_38">
      <g>
       <use xlink:href="#mb68ec6198f" x="358.495" y="166.624935" style="stroke: #000000; stroke-width: 1.5"/>
      </g>
     </g>
    </g>
    <g id="ytick_7">
     <g id="line2d_39">
      <g>
       <use xlink:href="#mb68ec6198f" x="358.495" y="125.811493" style="stroke: #000000; stroke-width: 1.5"/>
      </g>
     </g>
    </g>
    <g id="ytick_8">
     <g id="line2d_40">
      <g>
       <use xlink:href="#mb68ec6198f" x="358.495" y="105.404772" style="stroke: #000000; stroke-width: 1.5"/>
      </g>
     </g>
    </g>
    <g id="ytick_9">
     <g id="line2d_41">
      <g>
       <use xlink:href="#mb68ec6198f" x="358.495" y="84.99805" style="stroke: #000000; stroke-width: 1.5"/>
      </g>
     </g>
    </g>
    <g id="text_4">
     <text style="font-weight: 600; font-size: 27px; font-family: 'Courier New'; text-anchor: middle" x="279.139062" y="147.013281" transform="rotate(-90 279.139062 147.013281)">Youden index</text>
    </g>
   </g>
   <g id="line2d_42">
    <path d="M 384.174091 227.845099 
L 385.201255 105.051408 
L 413.961836 105.051408 
L 414.989 114.768895 
L 417.043327 114.768895 
L 418.070491 111.235263 
L 426.2878 111.235263 
L 427.314964 107.701632 
L 429.369291 107.701632 
L 430.396455 105.051408 
L 440.668091 105.051408 
L 441.695255 108.58504 
L 443.749582 108.58504 
L 444.776745 66.181463 
L 461.211364 66.181463 
L 462.238527 95.333922 
L 466.347182 95.333922 
L 467.374345 98.867553 
L 471.483 98.867553 
L 472.510164 96.21733 
L 488.944782 96.21733 
L 489.971945 109.468448 
L 500.243582 109.468448 
L 501.270745 111.235263 
L 502.297909 111.235263 
L 503.325073 115.652303 
L 505.3794 115.652303 
L 506.406564 120.95275 
L 512.569545 120.95275 
L 513.596709 107.701632 
L 520.786855 107.701632 
L 521.814018 105.051408 
L 527.977 105.051408 
L 529.004164 131.553644 
L 554.683255 131.553644 
L 555.710418 123.602973 
L 564.954891 123.602973 
L 565.982055 130.670236 
L 576.253691 130.670236 
L 577.280855 143.037946 
L 600.905618 143.037946 
L 601.932782 140.387722 
L 612.204418 140.387722 
L 613.231582 137.737499 
L 640.965 137.737499 
L 641.992164 151.872024 
L 692.323182 151.872024 
L 693.350345 164.239734 
L 704.649145 164.239734 
L 705.676309 186.324931 
L 712.866455 186.324931 
L 713.893618 198.69264 
L 726.219582 198.69264 
L 727.246745 205.759903 
L 878.2398 205.759903 
L 879.266964 218.127613 
L 897.755909 218.127613 
L 897.755909 218.127613 
" clip-path="url(#p21bc33e84d)" style="fill: none; stroke: #81a1c1; stroke-width: 2; stroke-linecap: square"/>
   </g>
   <g id="line2d_43">
    <path d="M 444.776745 235.928281 
L 444.776745 58.098281 
" clip-path="url(#p21bc33e84d)" style="fill: none; stroke-dasharray: 5.55,2.4; stroke-dashoffset: 0; stroke: #bf616a; stroke-width: 1.5"/>
   </g>
   <g id="line2d_44">
    <path d="M 384.174091 235.928281 
L 384.174091 58.098281 
" clip-path="url(#p21bc33e84d)" style="fill: none; stroke-dasharray: 5.55,2.4; stroke-dashoffset: 0; stroke: #bf616a; stroke-width: 1.5"/>
   </g>
   <g id="patch_3">
    <path d="M 358.495 235.928281 
L 358.495 58.098281 
" style="fill: none; stroke: #4c566a; stroke-width: 1.8; stroke-linejoin: miter; stroke-linecap: square"/>
   </g>
   <g id="patch_4">
    <path d="M 923.435 235.928281 
L 923.435 58.098281 
" style="fill: none; stroke: #4c566a; stroke-width: 1.8; stroke-linejoin: miter; stroke-linecap: square"/>
   </g>
   <g id="patch_5">
    <path d="M 358.495 235.928281 
L 923.435 235.928281 
" style="fill: none; stroke: #4c566a; stroke-width: 1.8; stroke-linejoin: miter; stroke-linecap: square"/>
   </g>
   <g id="patch_6">
    <path d="M 358.495 58.098281 
L 923.435 58.098281 
" style="fill: none; stroke: #4c566a; stroke-width: 1.8; stroke-linejoin: miter; stroke-linecap: square"/>
   </g>
   <g id="text_5">
    <text style="font-size: 10px; font-family: 'Courier New'; fill: #bf616a" transform="translate(442.89237 219.682411) rotate(-90)">High threshold = 0.118</text>
   </g>
   <g id="text_6">
    <text style="font-size: 10px; font-family: 'Courier New'; fill: #bf616a" transform="translate(382.289716 219.682411) rotate(-90)">Low threshold = 0.000</text>
   </g>
   <g id="text_7">
    <text style="font-weight: 600; font-size: 33px; font-family: 'Courier New'; text-anchor: middle" x="640.965" y="28.098281" transform="rotate(-0 640.965 28.098281)">Radiomics + D-FRS intra-operative Youden index across thresholds</text>
   </g>
  </g>
  <g id="axes_2">
   <g id="patch_7">
    <path d="M 358.495 451.918281 
L 923.435 451.918281 
L 923.435 274.088281 
L 358.495 274.088281 
z
" style="fill: #ffffff"/>
   </g>
   <g id="matplotlib.axis_3">
    <g id="xtick_24">
     <g id="line2d_45">
      <path d="M 384.174091 451.918281 
L 384.174091 274.088281 
" clip-path="url(#p9b3115481f)" style="fill: none; stroke: #4c566a; stroke-opacity: 0.3; stroke-width: 0.8; stroke-linecap: square"/>
     </g>
     <g id="line2d_46">
      <g>
       <use xlink:href="#me383ff9233" x="384.174091" y="451.918281" style="stroke: #000000; stroke-width: 2.4"/>
      </g>
     </g>
     <g id="text_8">
      <text style="font-size: 24px; font-family: 'Courier New'; text-anchor: middle" x="384.174091" y="479.125781" transform="rotate(-0 384.174091 479.125781)">0.0</text>
     </g>
    </g>
    <g id="xtick_25">
     <g id="line2d_47">
      <path d="M 486.890455 451.918281 
L 486.890455 274.088281 
" clip-path="url(#p9b3115481f)" style="fill: none; stroke: #4c566a; stroke-opacity: 0.3; stroke-width: 0.8; stroke-linecap: square"/>
     </g>
     <g id="line2d_48">
      <g>
       <use xlink:href="#me383ff9233" x="486.890455" y="451.918281" style="stroke: #000000; stroke-width: 2.4"/>
      </g>
     </g>
     <g id="text_9">
      <text style="font-size: 24px; font-family: 'Courier New'; text-anchor: middle" x="486.890455" y="479.125781" transform="rotate(-0 486.890455 479.125781)">0.2</text>
     </g>
    </g>
    <g id="xtick_26">
     <g id="line2d_49">
      <path d="M 589.606818 451.918281 
L 589.606818 274.088281 
" clip-path="url(#p9b3115481f)" style="fill: none; stroke: #4c566a; stroke-opacity: 0.3; stroke-width: 0.8; stroke-linecap: square"/>
     </g>
     <g id="line2d_50">
      <g>
       <use xlink:href="#me383ff9233" x="589.606818" y="451.918281" style="stroke: #000000; stroke-width: 2.4"/>
      </g>
     </g>
     <g id="text_10">
      <text style="font-size: 24px; font-family: 'Courier New'; text-anchor: middle" x="589.606818" y="479.125781" transform="rotate(-0 589.606818 479.125781)">0.4</text>
     </g>
    </g>
    <g id="xtick_27">
     <g id="line2d_51">
      <path d="M 692.323182 451.918281 
L 692.323182 274.088281 
" clip-path="url(#p9b3115481f)" style="fill: none; stroke: #4c566a; stroke-opacity: 0.3; stroke-width: 0.8; stroke-linecap: square"/>
     </g>
     <g id="line2d_52">
      <g>
       <use xlink:href="#me383ff9233" x="692.323182" y="451.918281" style="stroke: #000000; stroke-width: 2.4"/>
      </g>
     </g>
     <g id="text_11">
      <text style="font-size: 24px; font-family: 'Courier New'; text-anchor: middle" x="692.323182" y="479.125781" transform="rotate(-0 692.323182 479.125781)">0.6</text>
     </g>
    </g>
    <g id="xtick_28">
     <g id="line2d_53">
      <path d="M 795.039545 451.918281 
L 795.039545 274.088281 
" clip-path="url(#p9b3115481f)" style="fill: none; stroke: #4c566a; stroke-opacity: 0.3; stroke-width: 0.8; stroke-linecap: square"/>
     </g>
     <g id="line2d_54">
      <g>
       <use xlink:href="#me383ff9233" x="795.039545" y="451.918281" style="stroke: #000000; stroke-width: 2.4"/>
      </g>
     </g>
     <g id="text_12">
      <text style="font-size: 24px; font-family: 'Courier New'; text-anchor: middle" x="795.039545" y="479.125781" transform="rotate(-0 795.039545 479.125781)">0.8</text>
     </g>
    </g>
    <g id="xtick_29">
     <g id="line2d_55">
      <path d="M 897.755909 451.918281 
L 897.755909 274.088281 
" clip-path="url(#p9b3115481f)" style="fill: none; stroke: #4c566a; stroke-opacity: 0.3; stroke-width: 0.8; stroke-linecap: square"/>
     </g>
     <g id="line2d_56">
      <g>
       <use xlink:href="#me383ff9233" x="897.755909" y="451.918281" style="stroke: #000000; stroke-width: 2.4"/>
      </g>
     </g>
     <g id="text_13">
      <text style="font-size: 24px; font-family: 'Courier New'; text-anchor: middle" x="897.755909" y="479.125781" transform="rotate(-0 897.755909 479.125781)">1.0</text>
     </g>
    </g>
    <g id="xtick_30">
     <g id="line2d_57">
      <g>
       <use xlink:href="#mb3ab9bd8ec" x="358.495" y="451.918281" style="stroke: #000000; stroke-width: 1.5"/>
      </g>
     </g>
    </g>
    <g id="xtick_31">
     <g id="line2d_58">
      <g>
       <use xlink:href="#mb3ab9bd8ec" x="409.853182" y="451.918281" style="stroke: #000000; stroke-width: 1.5"/>
      </g>
     </g>
    </g>
    <g id="xtick_32">
     <g id="line2d_59">
      <g>
       <use xlink:href="#mb3ab9bd8ec" x="435.532273" y="451.918281" style="stroke: #000000; stroke-width: 1.5"/>
      </g>
     </g>
    </g>
    <g id="xtick_33">
     <g id="line2d_60">
      <g>
       <use xlink:href="#mb3ab9bd8ec" x="461.211364" y="451.918281" style="stroke: #000000; stroke-width: 1.5"/>
      </g>
     </g>
    </g>
    <g id="xtick_34">
     <g id="line2d_61">
      <g>
       <use xlink:href="#mb3ab9bd8ec" x="512.569545" y="451.918281" style="stroke: #000000; stroke-width: 1.5"/>
      </g>
     </g>
    </g>
    <g id="xtick_35">
     <g id="line2d_62">
      <g>
       <use xlink:href="#mb3ab9bd8ec" x="538.248636" y="451.918281" style="stroke: #000000; stroke-width: 1.5"/>
      </g>
     </g>
    </g>
    <g id="xtick_36">
     <g id="line2d_63">
      <g>
       <use xlink:href="#mb3ab9bd8ec" x="563.927727" y="451.918281" style="stroke: #000000; stroke-width: 1.5"/>
      </g>
     </g>
    </g>
    <g id="xtick_37">
     <g id="line2d_64">
      <g>
       <use xlink:href="#mb3ab9bd8ec" x="615.285909" y="451.918281" style="stroke: #000000; stroke-width: 1.5"/>
      </g>
     </g>
    </g>
    <g id="xtick_38">
     <g id="line2d_65">
      <g>
       <use xlink:href="#mb3ab9bd8ec" x="640.965" y="451.918281" style="stroke: #000000; stroke-width: 1.5"/>
      </g>
     </g>
    </g>
    <g id="xtick_39">
     <g id="line2d_66">
      <g>
       <use xlink:href="#mb3ab9bd8ec" x="666.644091" y="451.918281" style="stroke: #000000; stroke-width: 1.5"/>
      </g>
     </g>
    </g>
    <g id="xtick_40">
     <g id="line2d_67">
      <g>
       <use xlink:href="#mb3ab9bd8ec" x="718.002273" y="451.918281" style="stroke: #000000; stroke-width: 1.5"/>
      </g>
     </g>
    </g>
    <g id="xtick_41">
     <g id="line2d_68">
      <g>
       <use xlink:href="#mb3ab9bd8ec" x="743.681364" y="451.918281" style="stroke: #000000; stroke-width: 1.5"/>
      </g>
     </g>
    </g>
    <g id="xtick_42">
     <g id="line2d_69">
      <g>
       <use xlink:href="#mb3ab9bd8ec" x="769.360455" y="451.918281" style="stroke: #000000; stroke-width: 1.5"/>
      </g>
     </g>
    </g>
    <g id="xtick_43">
     <g id="line2d_70">
      <g>
       <use xlink:href="#mb3ab9bd8ec" x="820.718636" y="451.918281" style="stroke: #000000; stroke-width: 1.5"/>
      </g>
     </g>
    </g>
    <g id="xtick_44">
     <g id="line2d_71">
      <g>
       <use xlink:href="#mb3ab9bd8ec" x="846.397727" y="451.918281" style="stroke: #000000; stroke-width: 1.5"/>
      </g>
     </g>
    </g>
    <g id="xtick_45">
     <g id="line2d_72">
      <g>
       <use xlink:href="#mb3ab9bd8ec" x="872.076818" y="451.918281" style="stroke: #000000; stroke-width: 1.5"/>
      </g>
     </g>
    </g>
    <g id="xtick_46">
     <g id="line2d_73">
      <g>
       <use xlink:href="#mb3ab9bd8ec" x="923.435" y="451.918281" style="stroke: #000000; stroke-width: 1.5"/>
      </g>
     </g>
    </g>
    <g id="text_14">
     <text style="font-weight: 600; font-size: 27px; font-family: 'Courier New'; text-anchor: middle" x="640.965" y="518.746875" transform="rotate(-0 640.965 518.746875)">Threshold</text>
    </g>
   </g>
   <g id="matplotlib.axis_4">
    <g id="ytick_10">
     <g id="line2d_74">
      <path d="M 358.495 443.835099 
L 923.435 443.835099 
" clip-path="url(#p9b3115481f)" style="fill: none; stroke: #4c566a; stroke-opacity: 0.3; stroke-width: 0.8; stroke-linecap: square"/>
     </g>
     <g id="line2d_75">
      <g>
       <use xlink:href="#m28fa6bb84c" x="358.495" y="443.835099" style="stroke: #000000; stroke-width: 2.4"/>
      </g>
     </g>
     <g id="text_15">
      <text style="font-size: 24px; font-family: 'Courier New'; text-anchor: end" x="345.995" y="451.188849" transform="rotate(-0 345.995 451.188849)">0.0</text>
     </g>
    </g>
    <g id="ytick_11">
     <g id="line2d_76">
      <path d="M 358.495 363.003281 
L 923.435 363.003281 
" clip-path="url(#p9b3115481f)" style="fill: none; stroke: #4c566a; stroke-opacity: 0.3; stroke-width: 0.8; stroke-linecap: square"/>
     </g>
     <g id="line2d_77">
      <g>
       <use xlink:href="#m28fa6bb84c" x="358.495" y="363.003281" style="stroke: #000000; stroke-width: 2.4"/>
      </g>
     </g>
     <g id="text_16">
      <text style="font-size: 24px; font-family: 'Courier New'; text-anchor: end" x="345.995" y="370.357031" transform="rotate(-0 345.995 370.357031)">0.5</text>
     </g>
    </g>
    <g id="ytick_12">
     <g id="line2d_78">
      <path d="M 358.495 282.171463 
L 923.435 282.171463 
" clip-path="url(#p9b3115481f)" style="fill: none; stroke: #4c566a; stroke-opacity: 0.3; stroke-width: 0.8; stroke-linecap: square"/>
     </g>
     <g id="line2d_79">
      <g>
       <use xlink:href="#m28fa6bb84c" x="358.495" y="282.171463" style="stroke: #000000; stroke-width: 2.4"/>
      </g>
     </g>
     <g id="text_17">
      <text style="font-size: 24px; font-family: 'Courier New'; text-anchor: end" x="345.995" y="289.525213" transform="rotate(-0 345.995 289.525213)">1.0</text>
     </g>
    </g>
    <g id="ytick_13">
     <g id="line2d_80">
      <g>
       <use xlink:href="#mb68ec6198f" x="358.495" y="427.668736" style="stroke: #000000; stroke-width: 1.5"/>
      </g>
     </g>
    </g>
    <g id="ytick_14">
     <g id="line2d_81">
      <g>
       <use xlink:href="#mb68ec6198f" x="358.495" y="411.502372" style="stroke: #000000; stroke-width: 1.5"/>
      </g>
     </g>
    </g>
    <g id="ytick_15">
     <g id="line2d_82">
      <g>
       <use xlink:href="#mb68ec6198f" x="358.495" y="395.336009" style="stroke: #000000; stroke-width: 1.5"/>
      </g>
     </g>
    </g>
    <g id="ytick_16">
     <g id="line2d_83">
      <g>
       <use xlink:href="#mb68ec6198f" x="358.495" y="379.169645" style="stroke: #000000; stroke-width: 1.5"/>
      </g>
     </g>
    </g>
    <g id="ytick_17">
     <g id="line2d_84">
      <g>
       <use xlink:href="#mb68ec6198f" x="358.495" y="346.836918" style="stroke: #000000; stroke-width: 1.5"/>
      </g>
     </g>
    </g>
    <g id="ytick_18">
     <g id="line2d_85">
      <g>
       <use xlink:href="#mb68ec6198f" x="358.495" y="330.670554" style="stroke: #000000; stroke-width: 1.5"/>
      </g>
     </g>
    </g>
    <g id="ytick_19">
     <g id="line2d_86">
      <g>
       <use xlink:href="#mb68ec6198f" x="358.495" y="314.50419" style="stroke: #000000; stroke-width: 1.5"/>
      </g>
     </g>
    </g>
    <g id="ytick_20">
     <g id="line2d_87">
      <g>
       <use xlink:href="#mb68ec6198f" x="358.495" y="298.337827" style="stroke: #000000; stroke-width: 1.5"/>
      </g>
     </g>
    </g>
    <g id="text_18">
     <text style="font-weight: 600; font-size: 27px; font-family: 'Courier New'; text-anchor: middle" x="279.139062" y="363.003281" transform="rotate(-90 279.139062 363.003281)">Value</text>
    </g>
   </g>
   <g id="line2d_88">
    <path d="M 384.174091 282.171463 
L 385.201255 287.070361 
L 413.961836 287.070361 
L 414.989 291.969259 
L 417.043327 291.969259 
L 418.070491 296.868157 
L 426.2878 296.868157 
L 427.314964 301.767055 
L 440.668091 301.767055 
L 441.695255 311.564851 
L 461.211364 311.564851 
L 462.238527 326.261546 
L 466.347182 326.261546 
L 467.374345 336.059342 
L 488.944782 336.059342 
L 489.971945 350.756036 
L 500.243582 350.756036 
L 501.270745 355.654934 
L 502.297909 355.654934 
L 503.325073 360.553832 
L 505.3794 360.553832 
L 506.406564 375.250526 
L 527.977 375.250526 
L 529.004164 389.947221 
L 564.954891 389.947221 
L 565.982055 394.846119 
L 576.253691 394.846119 
L 577.280855 399.745017 
L 640.965 399.745017 
L 641.992164 409.542813 
L 692.323182 409.542813 
L 693.350345 414.441711 
L 704.649145 414.441711 
L 705.676309 424.239507 
L 712.866455 424.239507 
L 713.893618 429.138405 
L 726.219582 429.138405 
L 727.246745 434.037303 
L 878.2398 434.037303 
L 879.266964 438.936201 
L 897.755909 438.936201 
L 897.755909 438.936201 
" clip-path="url(#p9b3115481f)" style="fill: none; stroke: #bf616a; stroke-width: 2; stroke-linecap: square"/>
   </g>
   <g id="line2d_89">
    <path d="M 384.174091 443.835099 
L 385.201255 390.297142 
L 413.961836 390.297142 
L 414.989 389.247378 
L 417.043327 389.247378 
L 418.070491 382.948795 
L 426.2878 382.948795 
L 427.314964 376.650212 
L 429.369291 376.650212 
L 430.396455 375.600448 
L 440.668091 375.600448 
L 441.695255 367.202337 
L 443.749582 367.202337 
L 444.776745 350.406115 
L 461.211364 350.406115 
L 462.238527 347.256823 
L 466.347182 347.256823 
L 467.374345 338.858712 
L 471.483 338.858712 
L 472.510164 337.808948 
L 488.944782 337.808948 
L 489.971945 328.361073 
L 500.243582 328.361073 
L 501.270745 324.162018 
L 502.297909 324.162018 
L 503.325073 321.012726 
L 505.3794 321.012726 
L 506.406564 308.41556 
L 512.569545 308.41556 
L 513.596709 303.166741 
L 520.786855 303.166741 
L 521.814018 302.116977 
L 527.977 302.116977 
L 529.004164 297.917921 
L 554.683255 297.917921 
L 555.710418 294.76863 
L 564.954891 294.76863 
L 565.982055 292.669102 
L 600.905618 292.669102 
L 601.932782 291.619338 
L 612.204418 291.619338 
L 613.231582 290.569574 
L 640.965 290.569574 
L 641.992164 286.370519 
L 704.649145 286.370519 
L 705.676309 285.320755 
L 726.219582 285.320755 
L 727.246745 283.221227 
L 897.755909 283.221227 
L 897.755909 283.221227 
" clip-path="url(#p9b3115481f)" style="fill: none; stroke: #5e81ac; stroke-width: 2; stroke-linecap: square"/>
   </g>
   <g id="line2d_90">
    <path d="M 384.174091 415.306222 
L 385.201255 405.51483 
L 413.961836 405.51483 
L 414.989 406.154101 
L 417.043327 406.154101 
L 418.070491 405.343757 
L 426.2878 405.343757 
L 427.314964 404.438079 
L 429.369291 404.438079 
L 430.396455 404.104206 
L 440.668091 404.104206 
L 441.695255 403.41919 
L 443.749582 403.41919 
L 444.776745 396.390337 
L 461.211364 396.390337 
L 462.238527 398.719666 
L 466.347182 398.719666 
L 467.374345 397.037731 
L 471.483 397.037731 
L 472.510164 396.413766 
L 488.944782 396.413766 
L 489.971945 395.0794 
L 500.243582 395.0794 
L 501.270745 393.663626 
L 502.297909 393.663626 
L 503.325073 392.940992 
L 505.3794 392.940992 
L 506.406564 385.801999 
L 512.569545 385.801999 
L 513.596709 377.26772 
L 520.786855 377.26772 
L 521.814018 375.250526 
L 527.977 375.250526 
L 529.004164 375.438946 
L 554.683255 375.438946 
L 555.710418 366.517708 
L 564.954891 366.517708 
L 565.982055 363.003281 
L 576.253691 363.003281 
L 577.280855 367.257587 
L 600.905618 367.257587 
L 601.932782 363.003281 
L 612.204418 363.003281 
L 613.231582 358.248468 
L 640.965 358.248468 
L 641.992164 340.95824 
L 692.323182 340.95824 
L 693.350345 346.836918 
L 704.649145 346.836918 
L 705.676309 351.455879 
L 712.866455 351.455879 
L 713.893618 363.003281 
L 726.219582 363.003281 
L 727.246745 336.059342 
L 878.2398 336.059342 
L 879.266964 363.003281 
L 897.755909 363.003281 
L 897.755909 363.003281 
" clip-path="url(#p9b3115481f)" style="fill: none; stroke: #a3be8c; stroke-width: 2; stroke-linecap: square"/>
   </g>
   <g id="line2d_91">
    <path d="M 385.201255 285.280379 
L 413.961836 285.280379 
L 414.989 288.159005 
L 417.043327 288.159005 
L 418.070491 290.122134 
L 426.2878 290.122134 
L 427.314964 291.681089 
L 429.369291 291.681089 
L 430.396455 291.543268 
L 440.668091 291.543268 
L 441.695255 294.449714 
L 443.749582 294.449714 
L 444.776745 292.381798 
L 461.211364 292.381798 
L 462.238527 296.577134 
L 466.347182 296.577134 
L 467.374345 298.192184 
L 471.483 298.192184 
L 472.510164 298.049142 
L 488.944782 298.049142 
L 489.971945 300.423809 
L 500.243582 300.423809 
L 501.270745 300.96956 
L 502.297909 300.96956 
L 503.325073 301.61972 
L 505.3794 301.61972 
L 506.406564 302.925579 
L 512.569545 302.925579 
L 513.596709 302.247339 
L 520.786855 302.247339 
L 521.814018 302.116977 
L 527.977 302.116977 
L 529.004164 304.262146 
L 554.683255 304.262146 
L 555.710418 303.858048 
L 564.954891 303.858048 
L 565.982055 304.436515 
L 576.253691 304.436515 
L 577.280855 305.266268 
L 600.905618 305.266268 
L 601.932782 305.129613 
L 612.204418 305.129613 
L 613.231582 304.994565 
L 640.965 304.994565 
L 641.992164 306.053591 
L 692.323182 306.053591 
L 693.350345 306.832018 
L 704.649145 306.832018 
L 705.676309 308.217271 
L 712.866455 308.217271 
L 713.893618 308.966541 
L 726.219582 308.966541 
L 727.246745 309.408271 
L 878.2398 309.408271 
L 879.266964 310.134903 
L 897.755909 310.134903 
L 897.755909 310.134903 
" clip-path="url(#p9b3115481f)" style="fill: none; stroke: #b48ead; stroke-width: 2; stroke-linecap: square"/>
   </g>
   <g id="line2d_92">
    <path d="M 384.174091 451.918281 
L 384.174091 274.088281 
" clip-path="url(#p9b3115481f)" style="fill: none; stroke-dasharray: 3.7,1.6; stroke-dashoffset: 0; stroke: #4c566a"/>
   </g>
   <g id="line2d_93">
    <path d="M 444.776745 451.918281 
L 444.776745 274.088281 
" clip-path="url(#p9b3115481f)" style="fill: none; stroke-dasharray: 3.7,1.6; stroke-dashoffset: 0; stroke: #4c566a"/>
   </g>
   <g id="patch_8">
    <path d="M 358.495 451.918281 
L 358.495 274.088281 
" style="fill: none; stroke: #4c566a; stroke-width: 1.8; stroke-linejoin: miter; stroke-linecap: square"/>
   </g>
   <g id="patch_9">
    <path d="M 923.435 451.918281 
L 923.435 274.088281 
" style="fill: none; stroke: #4c566a; stroke-width: 1.8; stroke-linejoin: miter; stroke-linecap: square"/>
   </g>
   <g id="patch_10">
    <path d="M 358.495 451.918281 
L 923.435 451.918281 
" style="fill: none; stroke: #4c566a; stroke-width: 1.8; stroke-linejoin: miter; stroke-linecap: square"/>
   </g>
   <g id="patch_11">
    <path d="M 358.495 274.088281 
L 923.435 274.088281 
" style="fill: none; stroke: #4c566a; stroke-width: 1.8; stroke-linejoin: miter; stroke-linecap: square"/>
   </g>
   <g id="legend_1">
    <g id="line2d_94">
     <path d="M 820.417813 341.234531 
L 830.417813 341.234531 
L 840.417813 341.234531 
" style="fill: none; stroke: #bf616a; stroke-width: 2; stroke-linecap: square"/>
    </g>
    <g id="text_19">
     <text style="font-size: 10px; font-family: 'Courier New'; text-anchor: start" x="848.417813" y="344.734531" transform="rotate(-0 848.417813 344.734531)">Sensitivity</text>
    </g>
    <g id="line2d_95">
     <path d="M 820.417813 355.118906 
L 830.417813 355.118906 
L 840.417813 355.118906 
" style="fill: none; stroke: #5e81ac; stroke-width: 2; stroke-linecap: square"/>
    </g>
    <g id="text_20">
     <text style="font-size: 10px; font-family: 'Courier New'; text-anchor: start" x="848.417813" y="358.618906" transform="rotate(-0 848.417813 358.618906)">Specificity</text>
    </g>
    <g id="line2d_96">
     <path d="M 820.417813 369.003281 
L 830.417813 369.003281 
L 840.417813 369.003281 
" style="fill: none; stroke: #a3be8c; stroke-width: 2; stroke-linecap: square"/>
    </g>
    <g id="text_21">
     <text style="font-size: 10px; font-family: 'Courier New'; text-anchor: start" x="848.417813" y="372.503281" transform="rotate(-0 848.417813 372.503281)">PPV</text>
    </g>
    <g id="line2d_97">
     <path d="M 820.417813 382.887656 
L 830.417813 382.887656 
L 840.417813 382.887656 
" style="fill: none; stroke: #b48ead; stroke-width: 2; stroke-linecap: square"/>
    </g>
    <g id="text_22">
     <text style="font-size: 10px; font-family: 'Courier New'; text-anchor: start" x="848.417813" y="386.387656" transform="rotate(-0 848.417813 386.387656)">NPV</text>
    </g>
   </g>
  </g>
 </g>
 <defs>
  <clipPath id="p21bc33e84d">
   <rect x="358.495" y="58.098281" width="564.94" height="177.83"/>
  </clipPath>
  <clipPath id="p9b3115481f">
   <rect x="358.495" y="274.088281" width="564.94" height="177.83"/>
  </clipPath>
 </defs>
</svg>
