<?xml version="1.0" encoding="utf-8" standalone="no"?>
<!DOCTYPE svg PUBLIC "-//W3C//DTD SVG 1.1//EN"
  "http://www.w3.org/Graphics/SVG/1.1/DTD/svg11.dtd">
<svg xmlns:xlink="http://www.w3.org/1999/xlink" width="1163.099062pt" height="531.591562pt" viewBox="0 0 1163.099062 531.591562" xmlns="http://www.w3.org/2000/svg" version="1.1">
 <metadata>
  <rdf:RDF xmlns:dc="http://purl.org/dc/elements/1.1/" xmlns:cc="http://creativecommons.org/ns#" xmlns:rdf="http://www.w3.org/1999/02/22-rdf-syntax-ns#">
   <cc:Work>
    <dc:type rdf:resource="http://purl.org/dc/dcmitype/StillImage"/>
    <dc:date>2025-12-28T16:55:21.871934</dc:date>
    <dc:format>image/svg+xml</dc:format>
    <dc:creator>
     <cc:Agent>
      <dc:title>Matplotlib v3.10.3, https://matplotlib.org/</dc:title>
     </cc:Agent>
    </dc:creator>
   </cc:Work>
  </rdf:RDF>
 </metadata>
 <defs>
  <style type="text/css">*{stroke-linejoin: round; stroke-linecap: butt}</style>
 </defs>
 <g id="figure_1">
  <g id="patch_1">
   <path d="M 0 531.591562 
L 1163.099062 531.591562 
L 1163.099062 0 
L 0 0 
z
" style="fill: #ffffff"/>
  </g>
  <g id="axes_1">
   <g id="patch_2">
    <path d="M 299.079531 235.928281 
L 864.019531 235.928281 
L 864.019531 58.098281 
L 299.079531 58.098281 
z
" style="fill: #ffffff"/>
   </g>
   <g id="matplotlib.axis_1">
    <g id="xtick_1">
     <g id="line2d_1">
      <path d="M 324.758622 235.928281 
L 324.758622 58.098281 
" clip-path="url(#p920ec89a8b)" style="fill: none; stroke: #4c566a; stroke-opacity: 0.3; stroke-width: 0.8; stroke-linecap: square"/>
     </g>
     <g id="line2d_2">
      <defs>
       <path id="m8291fb2207" d="M 0 0 
L 0 9 
" style="stroke: #000000; stroke-width: 2.4"/>
      </defs>
      <g>
       <use xlink:href="#m8291fb2207" x="324.758622" y="235.928281" style="stroke: #000000; stroke-width: 2.4"/>
      </g>
     </g>
    </g>
    <g id="xtick_2">
     <g id="line2d_3">
      <path d="M 427.474986 235.928281 
L 427.474986 58.098281 
" clip-path="url(#p920ec89a8b)" style="fill: none; stroke: #4c566a; stroke-opacity: 0.3; stroke-width: 0.8; stroke-linecap: square"/>
     </g>
     <g id="line2d_4">
      <g>
       <use xlink:href="#m8291fb2207" x="427.474986" y="235.928281" style="stroke: #000000; stroke-width: 2.4"/>
      </g>
     </g>
    </g>
    <g id="xtick_3">
     <g id="line2d_5">
      <path d="M 530.191349 235.928281 
L 530.191349 58.098281 
" clip-path="url(#p920ec89a8b)" style="fill: none; stroke: #4c566a; stroke-opacity: 0.3; stroke-width: 0.8; stroke-linecap: square"/>
     </g>
     <g id="line2d_6">
      <g>
       <use xlink:href="#m8291fb2207" x="530.191349" y="235.928281" style="stroke: #000000; stroke-width: 2.4"/>
      </g>
     </g>
    </g>
    <g id="xtick_4">
     <g id="line2d_7">
      <path d="M 632.907713 235.928281 
L 632.907713 58.098281 
" clip-path="url(#p920ec89a8b)" style="fill: none; stroke: #4c566a; stroke-opacity: 0.3; stroke-width: 0.8; stroke-linecap: square"/>
     </g>
     <g id="line2d_8">
      <g>
       <use xlink:href="#m8291fb2207" x="632.907713" y="235.928281" style="stroke: #000000; stroke-width: 2.4"/>
      </g>
     </g>
    </g>
    <g id="xtick_5">
     <g id="line2d_9">
      <path d="M 735.624077 235.928281 
L 735.624077 58.098281 
" clip-path="url(#p920ec89a8b)" style="fill: none; stroke: #4c566a; stroke-opacity: 0.3; stroke-width: 0.8; stroke-linecap: square"/>
     </g>
     <g id="line2d_10">
      <g>
       <use xlink:href="#m8291fb2207" x="735.624077" y="235.928281" style="stroke: #000000; stroke-width: 2.4"/>
      </g>
     </g>
    </g>
    <g id="xtick_6">
     <g id="line2d_11">
      <path d="M 838.34044 235.928281 
L 838.34044 58.098281 
" clip-path="url(#p920ec89a8b)" style="fill: none; stroke: #4c566a; stroke-opacity: 0.3; stroke-width: 0.8; stroke-linecap: square"/>
     </g>
     <g id="line2d_12">
      <g>
       <use xlink:href="#m8291fb2207" x="838.34044" y="235.928281" style="stroke: #000000; stroke-width: 2.4"/>
      </g>
     </g>
    </g>
    <g id="xtick_7">
     <g id="line2d_13">
      <defs>
       <path id="mc101a84072" d="M 0 0 
L 0 6 
" style="stroke: #000000; stroke-width: 1.5"/>
      </defs>
      <g>
       <use xlink:href="#mc101a84072" x="299.079531" y="235.928281" style="stroke: #000000; stroke-width: 1.5"/>
      </g>
     </g>
    </g>
    <g id="xtick_8">
     <g id="line2d_14">
      <g>
       <use xlink:href="#mc101a84072" x="350.437713" y="235.928281" style="stroke: #000000; stroke-width: 1.5"/>
      </g>
     </g>
    </g>
    <g id="xtick_9">
     <g id="line2d_15">
      <g>
       <use xlink:href="#mc101a84072" x="376.116804" y="235.928281" style="stroke: #000000; stroke-width: 1.5"/>
      </g>
     </g>
    </g>
    <g id="xtick_10">
     <g id="line2d_16">
      <g>
       <use xlink:href="#mc101a84072" x="401.795895" y="235.928281" style="stroke: #000000; stroke-width: 1.5"/>
      </g>
     </g>
    </g>
    <g id="xtick_11">
     <g id="line2d_17">
      <g>
       <use xlink:href="#mc101a84072" x="453.154077" y="235.928281" style="stroke: #000000; stroke-width: 1.5"/>
      </g>
     </g>
    </g>
    <g id="xtick_12">
     <g id="line2d_18">
      <g>
       <use xlink:href="#mc101a84072" x="478.833168" y="235.928281" style="stroke: #000000; stroke-width: 1.5"/>
      </g>
     </g>
    </g>
    <g id="xtick_13">
     <g id="line2d_19">
      <g>
       <use xlink:href="#mc101a84072" x="504.512259" y="235.928281" style="stroke: #000000; stroke-width: 1.5"/>
      </g>
     </g>
    </g>
    <g id="xtick_14">
     <g id="line2d_20">
      <g>
       <use xlink:href="#mc101a84072" x="555.87044" y="235.928281" style="stroke: #000000; stroke-width: 1.5"/>
      </g>
     </g>
    </g>
    <g id="xtick_15">
     <g id="line2d_21">
      <g>
       <use xlink:href="#mc101a84072" x="581.549531" y="235.928281" style="stroke: #000000; stroke-width: 1.5"/>
      </g>
     </g>
    </g>
    <g id="xtick_16">
     <g id="line2d_22">
      <g>
       <use xlink:href="#mc101a84072" x="607.228622" y="235.928281" style="stroke: #000000; stroke-width: 1.5"/>
      </g>
     </g>
    </g>
    <g id="xtick_17">
     <g id="line2d_23">
      <g>
       <use xlink:href="#mc101a84072" x="658.586804" y="235.928281" style="stroke: #000000; stroke-width: 1.5"/>
      </g>
     </g>
    </g>
    <g id="xtick_18">
     <g id="line2d_24">
      <g>
       <use xlink:href="#mc101a84072" x="684.265895" y="235.928281" style="stroke: #000000; stroke-width: 1.5"/>
      </g>
     </g>
    </g>
    <g id="xtick_19">
     <g id="line2d_25">
      <g>
       <use xlink:href="#mc101a84072" x="709.944986" y="235.928281" style="stroke: #000000; stroke-width: 1.5"/>
      </g>
     </g>
    </g>
    <g id="xtick_20">
     <g id="line2d_26">
      <g>
       <use xlink:href="#mc101a84072" x="761.303168" y="235.928281" style="stroke: #000000; stroke-width: 1.5"/>
      </g>
     </g>
    </g>
    <g id="xtick_21">
     <g id="line2d_27">
      <g>
       <use xlink:href="#mc101a84072" x="786.982259" y="235.928281" style="stroke: #000000; stroke-width: 1.5"/>
      </g>
     </g>
    </g>
    <g id="xtick_22">
     <g id="line2d_28">
      <g>
       <use xlink:href="#mc101a84072" x="812.661349" y="235.928281" style="stroke: #000000; stroke-width: 1.5"/>
      </g>
     </g>
    </g>
    <g id="xtick_23">
     <g id="line2d_29">
      <g>
       <use xlink:href="#mc101a84072" x="864.019531" y="235.928281" style="stroke: #000000; stroke-width: 1.5"/>
      </g>
     </g>
    </g>
   </g>
   <g id="matplotlib.axis_2">
    <g id="ytick_1">
     <g id="line2d_30">
      <path d="M 299.079531 227.845099 
L 864.019531 227.845099 
" clip-path="url(#p920ec89a8b)" style="fill: none; stroke: #4c566a; stroke-opacity: 0.3; stroke-width: 0.8; stroke-linecap: square"/>
     </g>
     <g id="line2d_31">
      <defs>
       <path id="m4d4136d5a3" d="M 0 0 
L -9 0 
" style="stroke: #000000; stroke-width: 2.4"/>
      </defs>
      <g>
       <use xlink:href="#m4d4136d5a3" x="299.079531" y="227.845099" style="stroke: #000000; stroke-width: 2.4"/>
      </g>
     </g>
     <g id="text_1">
      <text style="font-size: 24px; font-family: 'Courier New'; text-anchor: end" x="286.579531" y="235.198849" transform="rotate(-0 286.579531 235.198849)">0.0</text>
     </g>
    </g>
    <g id="ytick_2">
     <g id="line2d_32">
      <path d="M 299.079531 143.000907 
L 864.019531 143.000907 
" clip-path="url(#p920ec89a8b)" style="fill: none; stroke: #4c566a; stroke-opacity: 0.3; stroke-width: 0.8; stroke-linecap: square"/>
     </g>
     <g id="line2d_33">
      <g>
       <use xlink:href="#m4d4136d5a3" x="299.079531" y="143.000907" style="stroke: #000000; stroke-width: 2.4"/>
      </g>
     </g>
     <g id="text_2">
      <text style="font-size: 24px; font-family: 'Courier New'; text-anchor: end" x="286.579531" y="150.354657" transform="rotate(-0 286.579531 150.354657)">0.2</text>
     </g>
    </g>
    <g id="ytick_3">
     <g id="line2d_34">
      <path d="M 299.079531 58.156714 
L 864.019531 58.156714 
" clip-path="url(#p920ec89a8b)" style="fill: none; stroke: #4c566a; stroke-opacity: 0.3; stroke-width: 0.8; stroke-linecap: square"/>
     </g>
     <g id="line2d_35">
      <g>
       <use xlink:href="#m4d4136d5a3" x="299.079531" y="58.156714" style="stroke: #000000; stroke-width: 2.4"/>
      </g>
     </g>
     <g id="text_3">
      <text style="font-size: 24px; font-family: 'Courier New'; text-anchor: end" x="286.579531" y="65.510464" transform="rotate(-0 286.579531 65.510464)">0.4</text>
     </g>
    </g>
    <g id="ytick_4">
     <g id="line2d_36">
      <defs>
       <path id="m6005ed2386" d="M 0 0 
L -6 0 
" style="stroke: #000000; stroke-width: 1.5"/>
      </defs>
      <g>
       <use xlink:href="#m6005ed2386" x="299.079531" y="206.634051" style="stroke: #000000; stroke-width: 1.5"/>
      </g>
     </g>
    </g>
    <g id="ytick_5">
     <g id="line2d_37">
      <g>
       <use xlink:href="#m6005ed2386" x="299.079531" y="185.423003" style="stroke: #000000; stroke-width: 1.5"/>
      </g>
     </g>
    </g>
    <g id="ytick_6">
     <g id="line2d_38">
      <g>
       <use xlink:href="#m6005ed2386" x="299.079531" y="164.211955" style="stroke: #000000; stroke-width: 1.5"/>
      </g>
     </g>
    </g>
    <g id="ytick_7">
     <g id="line2d_39">
      <g>
       <use xlink:href="#m6005ed2386" x="299.079531" y="121.789858" style="stroke: #000000; stroke-width: 1.5"/>
      </g>
     </g>
    </g>
    <g id="ytick_8">
     <g id="line2d_40">
      <g>
       <use xlink:href="#m6005ed2386" x="299.079531" y="100.57881" style="stroke: #000000; stroke-width: 1.5"/>
      </g>
     </g>
    </g>
    <g id="ytick_9">
     <g id="line2d_41">
      <g>
       <use xlink:href="#m6005ed2386" x="299.079531" y="79.367762" style="stroke: #000000; stroke-width: 1.5"/>
      </g>
     </g>
    </g>
    <g id="text_4">
     <text style="font-weight: 600; font-size: 27px; font-family: 'Courier New'; text-anchor: middle" x="219.723594" y="147.013281" transform="rotate(-90 219.723594 147.013281)">Youden index</text>
    </g>
   </g>
   <g id="line2d_42">
    <path d="M 324.758622 227.845099 
L 325.785786 155.908028 
L 339.138913 155.908028 
L 340.166077 152.402069 
L 341.19324 152.402069 
L 342.220404 148.896111 
L 345.301895 148.896111 
L 346.329059 145.390152 
L 349.410549 145.390152 
L 350.437713 141.884194 
L 354.546368 141.884194 
L 355.573531 143.572248 
L 357.627859 143.572248 
L 358.655022 145.260302 
L 360.709349 145.260302 
L 361.736513 141.754344 
L 363.79084 141.754344 
L 364.818004 134.742427 
L 365.845168 134.742427 
L 366.872331 120.718593 
L 367.899495 87.347064 
L 372.008149 87.347064 
L 373.035313 76.829189 
L 376.116804 76.829189 
L 377.143968 66.181463 
L 381.252622 66.181463 
L 382.279786 109.811167 
L 383.306949 106.305209 
L 413.094695 106.305209 
L 414.121859 107.993263 
L 423.366331 107.993263 
L 424.393495 109.681317 
L 434.665131 109.681317 
L 435.692295 106.175359 
L 436.719459 106.175359 
L 437.746622 107.863413 
L 442.88244 107.863413 
L 443.909604 114.745479 
L 453.154077 114.745479 
L 454.18124 97.215687 
L 461.371386 97.215687 
L 462.398549 93.709729 
L 465.48004 93.709729 
L 466.507204 90.20377 
L 470.615859 90.20377 
L 471.643022 107.603712 
L 495.267786 107.603712 
L 496.294949 109.291766 
L 507.593749 109.291766 
L 508.620913 98.773891 
L 518.892549 98.773891 
L 519.919713 95.267933 
L 548.680295 95.267933 
L 549.707459 110.97982 
L 557.924768 110.97982 
L 558.951931 138.897637 
L 581.549531 138.897637 
L 582.576695 194.73327 
L 601.06564 194.73327 
L 602.092804 206.939199 
L 640.097859 206.939199 
L 641.125022 199.927283 
L 817.797168 199.927283 
L 818.824331 215.63917 
L 838.34044 215.63917 
L 838.34044 215.63917 
" clip-path="url(#p920ec89a8b)" style="fill: none; stroke: #81a1c1; stroke-width: 2; stroke-linecap: square"/>
   </g>
   <g id="line2d_43">
    <path d="M 377.143968 235.928281 
L 377.143968 58.098281 
" clip-path="url(#p920ec89a8b)" style="fill: none; stroke-dasharray: 5.55,2.4; stroke-dashoffset: 0; stroke: #bf616a; stroke-width: 1.5"/>
   </g>
   <g id="line2d_44">
    <path d="M 324.758622 235.928281 
L 324.758622 58.098281 
" clip-path="url(#p920ec89a8b)" style="fill: none; stroke-dasharray: 5.55,2.4; stroke-dashoffset: 0; stroke: #bf616a; stroke-width: 1.5"/>
   </g>
   <g id="patch_3">
    <path d="M 299.079531 235.928281 
L 299.079531 58.098281 
" style="fill: none; stroke: #4c566a; stroke-width: 1.8; stroke-linejoin: miter; stroke-linecap: square"/>
   </g>
   <g id="patch_4">
    <path d="M 864.019531 235.928281 
L 864.019531 58.098281 
" style="fill: none; stroke: #4c566a; stroke-width: 1.8; stroke-linejoin: miter; stroke-linecap: square"/>
   </g>
   <g id="patch_5">
    <path d="M 299.079531 235.928281 
L 864.019531 235.928281 
" style="fill: none; stroke: #4c566a; stroke-width: 1.8; stroke-linejoin: miter; stroke-linecap: square"/>
   </g>
   <g id="patch_6">
    <path d="M 299.079531 58.098281 
L 864.019531 58.098281 
" style="fill: none; stroke: #4c566a; stroke-width: 1.8; stroke-linejoin: miter; stroke-linecap: square"/>
   </g>
   <g id="text_5">
    <text style="font-size: 10px; font-family: 'Courier New'; fill: #bf616a" transform="translate(375.259593 219.36068) rotate(-90)">High threshold = 0.102</text>
   </g>
   <g id="text_6">
    <text style="font-size: 10px; font-family: 'Courier New'; fill: #bf616a" transform="translate(322.874247 219.36068) rotate(-90)">Low threshold = 0.000</text>
   </g>
   <g id="text_7">
    <text style="font-weight: 600; font-size: 33px; font-family: 'Courier New'; text-anchor: middle" x="581.549531" y="28.098281" transform="rotate(-0 581.549531 28.098281)">Radiomics + DISPAIR refined Youden index across thresholds</text>
   </g>
  </g>
  <g id="axes_2">
   <g id="patch_7">
    <path d="M 299.079531 451.918281 
L 864.019531 451.918281 
L 864.019531 274.088281 
L 299.079531 274.088281 
z
" style="fill: #ffffff"/>
   </g>
   <g id="matplotlib.axis_3">
    <g id="xtick_24">
     <g id="line2d_45">
      <path d="M 324.758622 451.918281 
L 324.758622 274.088281 
" clip-path="url(#paacbe256e2)" style="fill: none; stroke: #4c566a; stroke-opacity: 0.3; stroke-width: 0.8; stroke-linecap: square"/>
     </g>
     <g id="line2d_46">
      <g>
       <use xlink:href="#m8291fb2207" x="324.758622" y="451.918281" style="stroke: #000000; stroke-width: 2.4"/>
      </g>
     </g>
     <g id="text_8">
      <text style="font-size: 24px; font-family: 'Courier New'; text-anchor: middle" x="324.758622" y="479.125781" transform="rotate(-0 324.758622 479.125781)">0.0</text>
     </g>
    </g>
    <g id="xtick_25">
     <g id="line2d_47">
      <path d="M 427.474986 451.918281 
L 427.474986 274.088281 
" clip-path="url(#paacbe256e2)" style="fill: none; stroke: #4c566a; stroke-opacity: 0.3; stroke-width: 0.8; stroke-linecap: square"/>
     </g>
     <g id="line2d_48">
      <g>
       <use xlink:href="#m8291fb2207" x="427.474986" y="451.918281" style="stroke: #000000; stroke-width: 2.4"/>
      </g>
     </g>
     <g id="text_9">
      <text style="font-size: 24px; font-family: 'Courier New'; text-anchor: middle" x="427.474986" y="479.125781" transform="rotate(-0 427.474986 479.125781)">0.2</text>
     </g>
    </g>
    <g id="xtick_26">
     <g id="line2d_49">
      <path d="M 530.191349 451.918281 
L 530.191349 274.088281 
" clip-path="url(#paacbe256e2)" style="fill: none; stroke: #4c566a; stroke-opacity: 0.3; stroke-width: 0.8; stroke-linecap: square"/>
     </g>
     <g id="line2d_50">
      <g>
       <use xlink:href="#m8291fb2207" x="530.191349" y="451.918281" style="stroke: #000000; stroke-width: 2.4"/>
      </g>
     </g>
     <g id="text_10">
      <text style="font-size: 24px; font-family: 'Courier New'; text-anchor: middle" x="530.191349" y="479.125781" transform="rotate(-0 530.191349 479.125781)">0.4</text>
     </g>
    </g>
    <g id="xtick_27">
     <g id="line2d_51">
      <path d="M 632.907713 451.918281 
L 632.907713 274.088281 
" clip-path="url(#paacbe256e2)" style="fill: none; stroke: #4c566a; stroke-opacity: 0.3; stroke-width: 0.8; stroke-linecap: square"/>
     </g>
     <g id="line2d_52">
      <g>
       <use xlink:href="#m8291fb2207" x="632.907713" y="451.918281" style="stroke: #000000; stroke-width: 2.4"/>
      </g>
     </g>
     <g id="text_11">
      <text style="font-size: 24px; font-family: 'Courier New'; text-anchor: middle" x="632.907713" y="479.125781" transform="rotate(-0 632.907713 479.125781)">0.6</text>
     </g>
    </g>
    <g id="xtick_28">
     <g id="line2d_53">
      <path d="M 735.624077 451.918281 
L 735.624077 274.088281 
" clip-path="url(#paacbe256e2)" style="fill: none; stroke: #4c566a; stroke-opacity: 0.3; stroke-width: 0.8; stroke-linecap: square"/>
     </g>
     <g id="line2d_54">
      <g>
       <use xlink:href="#m8291fb2207" x="735.624077" y="451.918281" style="stroke: #000000; stroke-width: 2.4"/>
      </g>
     </g>
     <g id="text_12">
      <text style="font-size: 24px; font-family: 'Courier New'; text-anchor: middle" x="735.624077" y="479.125781" transform="rotate(-0 735.624077 479.125781)">0.8</text>
     </g>
    </g>
    <g id="xtick_29">
     <g id="line2d_55">
      <path d="M 838.34044 451.918281 
L 838.34044 274.088281 
" clip-path="url(#paacbe256e2)" style="fill: none; stroke: #4c566a; stroke-opacity: 0.3; stroke-width: 0.8; stroke-linecap: square"/>
     </g>
     <g id="line2d_56">
      <g>
       <use xlink:href="#m8291fb2207" x="838.34044" y="451.918281" style="stroke: #000000; stroke-width: 2.4"/>
      </g>
     </g>
     <g id="text_13">
      <text style="font-size: 24px; font-family: 'Courier New'; text-anchor: middle" x="838.34044" y="479.125781" transform="rotate(-0 838.34044 479.125781)">1.0</text>
     </g>
    </g>
    <g id="xtick_30">
     <g id="line2d_57">
      <g>
       <use xlink:href="#mc101a84072" x="299.079531" y="451.918281" style="stroke: #000000; stroke-width: 1.5"/>
      </g>
     </g>
    </g>
    <g id="xtick_31">
     <g id="line2d_58">
      <g>
       <use xlink:href="#mc101a84072" x="350.437713" y="451.918281" style="stroke: #000000; stroke-width: 1.5"/>
      </g>
     </g>
    </g>
    <g id="xtick_32">
     <g id="line2d_59">
      <g>
       <use xlink:href="#mc101a84072" x="376.116804" y="451.918281" style="stroke: #000000; stroke-width: 1.5"/>
      </g>
     </g>
    </g>
    <g id="xtick_33">
     <g id="line2d_60">
      <g>
       <use xlink:href="#mc101a84072" x="401.795895" y="451.918281" style="stroke: #000000; stroke-width: 1.5"/>
      </g>
     </g>
    </g>
    <g id="xtick_34">
     <g id="line2d_61">
      <g>
       <use xlink:href="#mc101a84072" x="453.154077" y="451.918281" style="stroke: #000000; stroke-width: 1.5"/>
      </g>
     </g>
    </g>
    <g id="xtick_35">
     <g id="line2d_62">
      <g>
       <use xlink:href="#mc101a84072" x="478.833168" y="451.918281" style="stroke: #000000; stroke-width: 1.5"/>
      </g>
     </g>
    </g>
    <g id="xtick_36">
     <g id="line2d_63">
      <g>
       <use xlink:href="#mc101a84072" x="504.512259" y="451.918281" style="stroke: #000000; stroke-width: 1.5"/>
      </g>
     </g>
    </g>
    <g id="xtick_37">
     <g id="line2d_64">
      <g>
       <use xlink:href="#mc101a84072" x="555.87044" y="451.918281" style="stroke: #000000; stroke-width: 1.5"/>
      </g>
     </g>
    </g>
    <g id="xtick_38">
     <g id="line2d_65">
      <g>
       <use xlink:href="#mc101a84072" x="581.549531" y="451.918281" style="stroke: #000000; stroke-width: 1.5"/>
      </g>
     </g>
    </g>
    <g id="xtick_39">
     <g id="line2d_66">
      <g>
       <use xlink:href="#mc101a84072" x="607.228622" y="451.918281" style="stroke: #000000; stroke-width: 1.5"/>
      </g>
     </g>
    </g>
    <g id="xtick_40">
     <g id="line2d_67">
      <g>
       <use xlink:href="#mc101a84072" x="658.586804" y="451.918281" style="stroke: #000000; stroke-width: 1.5"/>
      </g>
     </g>
    </g>
    <g id="xtick_41">
     <g id="line2d_68">
      <g>
       <use xlink:href="#mc101a84072" x="684.265895" y="451.918281" style="stroke: #000000; stroke-width: 1.5"/>
      </g>
     </g>
    </g>
    <g id="xtick_42">
     <g id="line2d_69">
      <g>
       <use xlink:href="#mc101a84072" x="709.944986" y="451.918281" style="stroke: #000000; stroke-width: 1.5"/>
      </g>
     </g>
    </g>
    <g id="xtick_43">
     <g id="line2d_70">
      <g>
       <use xlink:href="#mc101a84072" x="761.303168" y="451.918281" style="stroke: #000000; stroke-width: 1.5"/>
      </g>
     </g>
    </g>
    <g id="xtick_44">
     <g id="line2d_71">
      <g>
       <use xlink:href="#mc101a84072" x="786.982259" y="451.918281" style="stroke: #000000; stroke-width: 1.5"/>
      </g>
     </g>
    </g>
    <g id="xtick_45">
     <g id="line2d_72">
      <g>
       <use xlink:href="#mc101a84072" x="812.661349" y="451.918281" style="stroke: #000000; stroke-width: 1.5"/>
      </g>
     </g>
    </g>
    <g id="xtick_46">
     <g id="line2d_73">
      <g>
       <use xlink:href="#mc101a84072" x="864.019531" y="451.918281" style="stroke: #000000; stroke-width: 1.5"/>
      </g>
     </g>
    </g>
    <g id="text_14">
     <text style="font-weight: 600; font-size: 27px; font-family: 'Courier New'; text-anchor: middle" x="581.549531" y="518.746875" transform="rotate(-0 581.549531 518.746875)">Threshold</text>
    </g>
   </g>
   <g id="matplotlib.axis_4">
    <g id="ytick_10">
     <g id="line2d_74">
      <path d="M 299.079531 443.835099 
L 864.019531 443.835099 
" clip-path="url(#paacbe256e2)" style="fill: none; stroke: #4c566a; stroke-opacity: 0.3; stroke-width: 0.8; stroke-linecap: square"/>
     </g>
     <g id="line2d_75">
      <g>
       <use xlink:href="#m4d4136d5a3" x="299.079531" y="443.835099" style="stroke: #000000; stroke-width: 2.4"/>
      </g>
     </g>
     <g id="text_15">
      <text style="font-size: 24px; font-family: 'Courier New'; text-anchor: end" x="286.579531" y="451.188849" transform="rotate(-0 286.579531 451.188849)">0.0</text>
     </g>
    </g>
    <g id="ytick_11">
     <g id="line2d_76">
      <path d="M 299.079531 363.003281 
L 864.019531 363.003281 
" clip-path="url(#paacbe256e2)" style="fill: none; stroke: #4c566a; stroke-opacity: 0.3; stroke-width: 0.8; stroke-linecap: square"/>
     </g>
     <g id="line2d_77">
      <g>
       <use xlink:href="#m4d4136d5a3" x="299.079531" y="363.003281" style="stroke: #000000; stroke-width: 2.4"/>
      </g>
     </g>
     <g id="text_16">
      <text style="font-size: 24px; font-family: 'Courier New'; text-anchor: end" x="286.579531" y="370.357031" transform="rotate(-0 286.579531 370.357031)">0.5</text>
     </g>
    </g>
    <g id="ytick_12">
     <g id="line2d_78">
      <path d="M 299.079531 282.171463 
L 864.019531 282.171463 
" clip-path="url(#paacbe256e2)" style="fill: none; stroke: #4c566a; stroke-opacity: 0.3; stroke-width: 0.8; stroke-linecap: square"/>
     </g>
     <g id="line2d_79">
      <g>
       <use xlink:href="#m4d4136d5a3" x="299.079531" y="282.171463" style="stroke: #000000; stroke-width: 2.4"/>
      </g>
     </g>
     <g id="text_17">
      <text style="font-size: 24px; font-family: 'Courier New'; text-anchor: end" x="286.579531" y="289.525213" transform="rotate(-0 286.579531 289.525213)">1.0</text>
     </g>
    </g>
    <g id="ytick_13">
     <g id="line2d_80">
      <g>
       <use xlink:href="#m6005ed2386" x="299.079531" y="427.668736" style="stroke: #000000; stroke-width: 1.5"/>
      </g>
     </g>
    </g>
    <g id="ytick_14">
     <g id="line2d_81">
      <g>
       <use xlink:href="#m6005ed2386" x="299.079531" y="411.502372" style="stroke: #000000; stroke-width: 1.5"/>
      </g>
     </g>
    </g>
    <g id="ytick_15">
     <g id="line2d_82">
      <g>
       <use xlink:href="#m6005ed2386" x="299.079531" y="395.336009" style="stroke: #000000; stroke-width: 1.5"/>
      </g>
     </g>
    </g>
    <g id="ytick_16">
     <g id="line2d_83">
      <g>
       <use xlink:href="#m6005ed2386" x="299.079531" y="379.169645" style="stroke: #000000; stroke-width: 1.5"/>
      </g>
     </g>
    </g>
    <g id="ytick_17">
     <g id="line2d_84">
      <g>
       <use xlink:href="#m6005ed2386" x="299.079531" y="346.836918" style="stroke: #000000; stroke-width: 1.5"/>
      </g>
     </g>
    </g>
    <g id="ytick_18">
     <g id="line2d_85">
      <g>
       <use xlink:href="#m6005ed2386" x="299.079531" y="330.670554" style="stroke: #000000; stroke-width: 1.5"/>
      </g>
     </g>
    </g>
    <g id="ytick_19">
     <g id="line2d_86">
      <g>
       <use xlink:href="#m6005ed2386" x="299.079531" y="314.50419" style="stroke: #000000; stroke-width: 1.5"/>
      </g>
     </g>
    </g>
    <g id="ytick_20">
     <g id="line2d_87">
      <g>
       <use xlink:href="#m6005ed2386" x="299.079531" y="298.337827" style="stroke: #000000; stroke-width: 1.5"/>
      </g>
     </g>
    </g>
    <g id="text_18">
     <text style="font-weight: 600; font-size: 27px; font-family: 'Courier New'; text-anchor: middle" x="219.723594" y="363.003281" transform="rotate(-90 219.723594 363.003281)">Value</text>
    </g>
   </g>
   <g id="line2d_88">
    <path d="M 324.758622 282.171463 
L 325.785786 288.159005 
L 354.546368 288.159005 
L 355.573531 294.146547 
L 357.627859 294.146547 
L 358.655022 300.134089 
L 366.872331 300.134089 
L 367.899495 306.121631 
L 376.116804 306.121631 
L 377.143968 318.096716 
L 381.252622 318.096716 
L 382.279786 336.059342 
L 413.094695 336.059342 
L 414.121859 342.046884 
L 423.366331 342.046884 
L 424.393495 348.034426 
L 436.719459 348.034426 
L 437.746622 354.021968 
L 442.88244 354.021968 
L 443.909604 365.997052 
L 470.615859 365.997052 
L 471.643022 377.972136 
L 495.267786 377.972136 
L 496.294949 383.959679 
L 548.680295 383.959679 
L 549.707459 389.947221 
L 557.924768 389.947221 
L 558.951931 401.922305 
L 581.549531 401.922305 
L 582.576695 425.872473 
L 601.06564 425.872473 
L 602.092804 431.860015 
L 817.797168 431.860015 
L 818.824331 437.847557 
L 838.34044 437.847557 
L 838.34044 437.847557 
" clip-path="url(#paacbe256e2)" style="fill: none; stroke: #bf616a; stroke-width: 2; stroke-linecap: square"/>
   </g>
   <g id="line2d_89">
    <path d="M 324.758622 443.835099 
L 325.785786 410.433522 
L 339.138913 410.433522 
L 340.166077 409.097459 
L 341.19324 409.097459 
L 342.220404 407.761395 
L 345.301895 407.761395 
L 346.329059 406.425332 
L 349.410549 406.425332 
L 350.437713 405.089269 
L 354.546368 405.089269 
L 355.573531 399.745017 
L 357.627859 399.745017 
L 358.655022 394.400764 
L 360.709349 394.400764 
L 361.736513 393.064701 
L 363.79084 393.064701 
L 364.818004 390.392575 
L 365.845168 390.392575 
L 366.872331 385.048323 
L 367.899495 366.343439 
L 372.008149 366.343439 
L 373.035313 362.33525 
L 376.116804 362.33525 
L 377.143968 346.302492 
L 381.252622 346.302492 
L 383.306949 343.630366 
L 413.094695 343.630366 
L 414.121859 338.286114 
L 423.366331 338.286114 
L 424.393495 332.941861 
L 434.665131 332.941861 
L 435.692295 331.605798 
L 436.719459 331.605798 
L 437.746622 326.261546 
L 442.88244 326.261546 
L 443.909604 316.909104 
L 453.154077 316.909104 
L 454.18124 310.228788 
L 461.371386 310.228788 
L 462.398549 308.892725 
L 465.48004 308.892725 
L 466.507204 307.556662 
L 470.615859 307.556662 
L 471.643022 302.21241 
L 495.267786 302.21241 
L 496.294949 296.868157 
L 507.593749 296.868157 
L 508.620913 292.859968 
L 518.892549 292.859968 
L 519.919713 291.523905 
L 557.924768 291.523905 
L 558.951931 290.187842 
L 581.549531 290.187842 
L 582.576695 287.515716 
L 601.06564 287.515716 
L 602.092804 286.179652 
L 640.097859 286.179652 
L 641.125022 283.507526 
L 838.34044 283.507526 
L 838.34044 283.507526 
" clip-path="url(#paacbe256e2)" style="fill: none; stroke: #5e81ac; stroke-width: 2; stroke-linecap: square"/>
   </g>
   <g id="line2d_90">
    <path d="M 324.758622 414.342409 
L 325.785786 409.382193 
L 339.138913 409.382193 
L 340.166077 409.097459 
L 341.19324 409.097459 
L 342.220404 408.807978 
L 345.301895 408.807978 
L 346.329059 408.513633 
L 349.410549 408.513633 
L 350.437713 408.214298 
L 354.546368 408.214298 
L 355.573531 408.068808 
L 357.627859 408.068808 
L 358.655022 407.909847 
L 360.709349 407.909847 
L 361.736513 407.574097 
L 363.79084 407.574097 
L 364.818004 406.883411 
L 365.845168 406.883411 
L 366.872331 405.419978 
L 367.899495 400.599476 
L 372.008149 400.599476 
L 373.035313 399.036742 
L 376.116804 399.036742 
L 377.143968 394.633123 
L 381.252622 394.633123 
L 382.279786 399.066708 
L 383.306949 398.367202 
L 413.094695 398.367202 
L 414.121859 397.254052 
L 423.366331 397.254052 
L 424.393495 395.934763 
L 434.665131 395.934763 
L 435.692295 395.030983 
L 436.719459 395.030983 
L 437.746622 393.315213 
L 442.88244 393.315213 
L 443.909604 389.947221 
L 453.154077 389.947221 
L 454.18124 382.022533 
L 461.371386 382.022533 
L 462.398549 380.149425 
L 465.48004 380.149425 
L 466.507204 378.159247 
L 470.615859 378.159247 
L 471.643022 375.438946 
L 495.267786 375.438946 
L 496.294949 366.852415 
L 507.593749 366.852415 
L 508.620913 354.021968 
L 518.892549 354.021968 
L 519.919713 348.738843 
L 548.680295 348.738843 
L 549.707459 352.899304 
L 557.924768 352.899304 
L 558.951931 356.785449 
L 581.549531 356.785449 
L 582.576695 374.550684 
L 601.06564 374.550684 
L 602.092804 379.169645 
L 640.097859 379.169645 
L 641.125022 336.059342 
L 817.797168 336.059342 
L 818.824331 363.003281 
L 838.34044 363.003281 
L 838.34044 363.003281 
" clip-path="url(#paacbe256e2)" style="fill: none; stroke: #a3be8c; stroke-width: 2; stroke-linecap: square"/>
   </g>
   <g id="line2d_91">
    <path d="M 325.785786 288.389295 
L 339.138913 288.389295 
L 340.166077 288.159005 
L 341.19324 288.159005 
L 342.220404 287.945164 
L 345.301895 287.945164 
L 346.329059 287.746071 
L 349.410549 287.746071 
L 350.437713 287.560251 
L 354.546368 287.560251 
L 355.573531 291.409385 
L 357.627859 291.409385 
L 358.655022 294.296236 
L 360.709349 294.296236 
L 361.736513 294.00051 
L 363.79084 294.00051 
L 364.818004 293.450321 
L 365.845168 293.450321 
L 366.872331 292.490419 
L 368.926659 292.601375 
L 372.008149 292.601375 
L 373.035313 292.119995 
L 376.116804 292.119995 
L 377.143968 294.449714 
L 381.252622 294.449714 
L 382.279786 299.701255 
L 383.306949 299.492567 
L 413.094695 299.492567 
L 414.121859 300.335917 
L 423.366331 300.335917 
L 424.393495 301.089548 
L 434.665131 301.089548 
L 435.692295 300.89041 
L 436.719459 300.89041 
L 437.746622 301.571099 
L 442.88244 301.571099 
L 443.909604 302.9356 
L 453.154077 302.9356 
L 454.18124 302.024892 
L 461.371386 302.024892 
L 462.398549 301.852254 
L 465.48004 301.852254 
L 466.507204 301.682592 
L 470.615859 301.682592 
L 471.643022 303.373251 
L 495.267786 303.373251 
L 496.294949 303.811477 
L 507.593749 303.811477 
L 508.620913 303.312092 
L 518.892549 303.312092 
L 519.919713 303.150714 
L 548.680295 303.150714 
L 549.707459 304.216504 
L 557.924768 304.216504 
L 558.951931 306.121631 
L 581.549531 306.121631 
L 582.576695 309.688678 
L 601.06564 309.688678 
L 602.092804 310.434337 
L 640.097859 310.434337 
L 641.125022 310.044504 
L 817.797168 310.044504 
L 818.824331 310.960878 
L 838.34044 310.960878 
L 838.34044 310.960878 
" clip-path="url(#paacbe256e2)" style="fill: none; stroke: #b48ead; stroke-width: 2; stroke-linecap: square"/>
   </g>
   <g id="line2d_92">
    <path d="M 324.758622 451.918281 
L 324.758622 274.088281 
" clip-path="url(#paacbe256e2)" style="fill: none; stroke-dasharray: 3.7,1.6; stroke-dashoffset: 0; stroke: #4c566a"/>
   </g>
   <g id="line2d_93">
    <path d="M 377.143968 451.918281 
L 377.143968 274.088281 
" clip-path="url(#paacbe256e2)" style="fill: none; stroke-dasharray: 3.7,1.6; stroke-dashoffset: 0; stroke: #4c566a"/>
   </g>
   <g id="patch_8">
    <path d="M 299.079531 451.918281 
L 299.079531 274.088281 
" style="fill: none; stroke: #4c566a; stroke-width: 1.8; stroke-linejoin: miter; stroke-linecap: square"/>
   </g>
   <g id="patch_9">
    <path d="M 864.019531 451.918281 
L 864.019531 274.088281 
" style="fill: none; stroke: #4c566a; stroke-width: 1.8; stroke-linejoin: miter; stroke-linecap: square"/>
   </g>
   <g id="patch_10">
    <path d="M 299.079531 451.918281 
L 864.019531 451.918281 
" style="fill: none; stroke: #4c566a; stroke-width: 1.8; stroke-linejoin: miter; stroke-linecap: square"/>
   </g>
   <g id="patch_11">
    <path d="M 299.079531 274.088281 
L 864.019531 274.088281 
" style="fill: none; stroke: #4c566a; stroke-width: 1.8; stroke-linejoin: miter; stroke-linecap: square"/>
   </g>
   <g id="legend_1">
    <g id="line2d_94">
     <path d="M 761.002344 341.234531 
L 771.002344 341.234531 
L 781.002344 341.234531 
" style="fill: none; stroke: #bf616a; stroke-width: 2; stroke-linecap: square"/>
    </g>
    <g id="text_19">
     <text style="font-size: 10px; font-family: 'Courier New'; text-anchor: start" x="789.002344" y="344.734531" transform="rotate(-0 789.002344 344.734531)">Sensitivity</text>
    </g>
    <g id="line2d_95">
     <path d="M 761.002344 355.118906 
L 771.002344 355.118906 
L 781.002344 355.118906 
" style="fill: none; stroke: #5e81ac; stroke-width: 2; stroke-linecap: square"/>
    </g>
    <g id="text_20">
     <text style="font-size: 10px; font-family: 'Courier New'; text-anchor: start" x="789.002344" y="358.618906" transform="rotate(-0 789.002344 358.618906)">Specificity</text>
    </g>
    <g id="line2d_96">
     <path d="M 761.002344 369.003281 
L 771.002344 369.003281 
L 781.002344 369.003281 
" style="fill: none; stroke: #a3be8c; stroke-width: 2; stroke-linecap: square"/>
    </g>
    <g id="text_21">
     <text style="font-size: 10px; font-family: 'Courier New'; text-anchor: start" x="789.002344" y="372.503281" transform="rotate(-0 789.002344 372.503281)">PPV</text>
    </g>
    <g id="line2d_97">
     <path d="M 761.002344 382.887656 
L 771.002344 382.887656 
L 781.002344 382.887656 
" style="fill: none; stroke: #b48ead; stroke-width: 2; stroke-linecap: square"/>
    </g>
    <g id="text_22">
     <text style="font-size: 10px; font-family: 'Courier New'; text-anchor: start" x="789.002344" y="386.387656" transform="rotate(-0 789.002344 386.387656)">NPV</text>
    </g>
   </g>
  </g>
 </g>
 <defs>
  <clipPath id="p920ec89a8b">
   <rect x="299.079531" y="58.098281" width="564.94" height="177.83"/>
  </clipPath>
  <clipPath id="paacbe256e2">
   <rect x="299.079531" y="274.088281" width="564.94" height="177.83"/>
  </clipPath>
 </defs>
</svg>
