<?xml version="1.0" encoding="utf-8" standalone="no"?>
<!DOCTYPE svg PUBLIC "-//W3C//DTD SVG 1.1//EN"
  "http://www.w3.org/Graphics/SVG/1.1/DTD/svg11.dtd">
<svg xmlns:xlink="http://www.w3.org/1999/xlink" width="1004.657813pt" height="532.311562pt" viewBox="0 0 1004.657813 532.311562" xmlns="http://www.w3.org/2000/svg" version="1.1">
 <metadata>
  <rdf:RDF xmlns:dc="http://purl.org/dc/elements/1.1/" xmlns:cc="http://creativecommons.org/ns#" xmlns:rdf="http://www.w3.org/1999/02/22-rdf-syntax-ns#">
   <cc:Work>
    <dc:type rdf:resource="http://purl.org/dc/dcmitype/StillImage"/>
    <dc:date>2026-05-05T19:19:37.704114</dc:date>
    <dc:format>image/svg+xml</dc:format>
    <dc:creator>
     <cc:Agent>
      <dc:title>Matplotlib v3.10.6, https://matplotlib.org/</dc:title>
     </cc:Agent>
    </dc:creator>
   </cc:Work>
  </rdf:RDF>
 </metadata>
 <defs>
  <style type="text/css">*{stroke-linejoin: round; stroke-linecap: butt}</style>
 </defs>
 <g id="figure_1">
  <g id="patch_1">
   <path d="M 0 532.311562 
L 1004.657813 532.311562 
L 1004.657813 0 
L 0 0 
z
" style="fill: #ffffff"/>
  </g>
  <g id="axes_1">
   <g id="patch_2">
    <path d="M 219.678906 236.288281 
L 784.978906 236.288281 
L 784.978906 58.098281 
L 219.678906 58.098281 
z
" style="fill: #ffffff"/>
   </g>
   <g id="matplotlib.axis_1">
    <g id="xtick_1">
     <g id="line2d_1">
      <path d="M 245.374361 236.288281 
L 245.374361 58.098281 
" clip-path="url(#pdde6cd69e6)" style="fill: none; stroke: #4c566a; stroke-opacity: 0.3; stroke-width: 0.8; stroke-linecap: square"/>
     </g>
     <g id="line2d_2">
      <defs>
       <path id="mf1e7b468c4" d="M 0 0 
L 0 9 
" style="stroke: #000000; stroke-width: 2.4"/>
      </defs>
      <g>
       <use xlink:href="#mf1e7b468c4" x="245.374361" y="236.288281" style="stroke: #000000; stroke-width: 2.4"/>
      </g>
     </g>
    </g>
    <g id="xtick_2">
     <g id="line2d_3">
      <path d="M 348.156179 236.288281 
L 348.156179 58.098281 
" clip-path="url(#pdde6cd69e6)" style="fill: none; stroke: #4c566a; stroke-opacity: 0.3; stroke-width: 0.8; stroke-linecap: square"/>
     </g>
     <g id="line2d_4">
      <g>
       <use xlink:href="#mf1e7b468c4" x="348.156179" y="236.288281" style="stroke: #000000; stroke-width: 2.4"/>
      </g>
     </g>
    </g>
    <g id="xtick_3">
     <g id="line2d_5">
      <path d="M 450.937997 236.288281 
L 450.937997 58.098281 
" clip-path="url(#pdde6cd69e6)" style="fill: none; stroke: #4c566a; stroke-opacity: 0.3; stroke-width: 0.8; stroke-linecap: square"/>
     </g>
     <g id="line2d_6">
      <g>
       <use xlink:href="#mf1e7b468c4" x="450.937997" y="236.288281" style="stroke: #000000; stroke-width: 2.4"/>
      </g>
     </g>
    </g>
    <g id="xtick_4">
     <g id="line2d_7">
      <path d="M 553.719815 236.288281 
L 553.719815 58.098281 
" clip-path="url(#pdde6cd69e6)" style="fill: none; stroke: #4c566a; stroke-opacity: 0.3; stroke-width: 0.8; stroke-linecap: square"/>
     </g>
     <g id="line2d_8">
      <g>
       <use xlink:href="#mf1e7b468c4" x="553.719815" y="236.288281" style="stroke: #000000; stroke-width: 2.4"/>
      </g>
     </g>
    </g>
    <g id="xtick_5">
     <g id="line2d_9">
      <path d="M 656.501634 236.288281 
L 656.501634 58.098281 
" clip-path="url(#pdde6cd69e6)" style="fill: none; stroke: #4c566a; stroke-opacity: 0.3; stroke-width: 0.8; stroke-linecap: square"/>
     </g>
     <g id="line2d_10">
      <g>
       <use xlink:href="#mf1e7b468c4" x="656.501634" y="236.288281" style="stroke: #000000; stroke-width: 2.4"/>
      </g>
     </g>
    </g>
    <g id="xtick_6">
     <g id="line2d_11">
      <path d="M 759.283452 236.288281 
L 759.283452 58.098281 
" clip-path="url(#pdde6cd69e6)" style="fill: none; stroke: #4c566a; stroke-opacity: 0.3; stroke-width: 0.8; stroke-linecap: square"/>
     </g>
     <g id="line2d_12">
      <g>
       <use xlink:href="#mf1e7b468c4" x="759.283452" y="236.288281" style="stroke: #000000; stroke-width: 2.4"/>
      </g>
     </g>
    </g>
    <g id="xtick_7">
     <g id="line2d_13">
      <defs>
       <path id="me7ad4bd3b3" d="M 0 0 
L 0 6 
" style="stroke: #000000; stroke-width: 1.5"/>
      </defs>
      <g>
       <use xlink:href="#me7ad4bd3b3" x="219.678906" y="236.288281" style="stroke: #000000; stroke-width: 1.5"/>
      </g>
     </g>
    </g>
    <g id="xtick_8">
     <g id="line2d_14">
      <g>
       <use xlink:href="#me7ad4bd3b3" x="271.069815" y="236.288281" style="stroke: #000000; stroke-width: 1.5"/>
      </g>
     </g>
    </g>
    <g id="xtick_9">
     <g id="line2d_15">
      <g>
       <use xlink:href="#me7ad4bd3b3" x="296.76527" y="236.288281" style="stroke: #000000; stroke-width: 1.5"/>
      </g>
     </g>
    </g>
    <g id="xtick_10">
     <g id="line2d_16">
      <g>
       <use xlink:href="#me7ad4bd3b3" x="322.460724" y="236.288281" style="stroke: #000000; stroke-width: 1.5"/>
      </g>
     </g>
    </g>
    <g id="xtick_11">
     <g id="line2d_17">
      <g>
       <use xlink:href="#me7ad4bd3b3" x="373.851634" y="236.288281" style="stroke: #000000; stroke-width: 1.5"/>
      </g>
     </g>
    </g>
    <g id="xtick_12">
     <g id="line2d_18">
      <g>
       <use xlink:href="#me7ad4bd3b3" x="399.547088" y="236.288281" style="stroke: #000000; stroke-width: 1.5"/>
      </g>
     </g>
    </g>
    <g id="xtick_13">
     <g id="line2d_19">
      <g>
       <use xlink:href="#me7ad4bd3b3" x="425.242543" y="236.288281" style="stroke: #000000; stroke-width: 1.5"/>
      </g>
     </g>
    </g>
    <g id="xtick_14">
     <g id="line2d_20">
      <g>
       <use xlink:href="#me7ad4bd3b3" x="476.633452" y="236.288281" style="stroke: #000000; stroke-width: 1.5"/>
      </g>
     </g>
    </g>
    <g id="xtick_15">
     <g id="line2d_21">
      <g>
       <use xlink:href="#me7ad4bd3b3" x="502.328906" y="236.288281" style="stroke: #000000; stroke-width: 1.5"/>
      </g>
     </g>
    </g>
    <g id="xtick_16">
     <g id="line2d_22">
      <g>
       <use xlink:href="#me7ad4bd3b3" x="528.024361" y="236.288281" style="stroke: #000000; stroke-width: 1.5"/>
      </g>
     </g>
    </g>
    <g id="xtick_17">
     <g id="line2d_23">
      <g>
       <use xlink:href="#me7ad4bd3b3" x="579.41527" y="236.288281" style="stroke: #000000; stroke-width: 1.5"/>
      </g>
     </g>
    </g>
    <g id="xtick_18">
     <g id="line2d_24">
      <g>
       <use xlink:href="#me7ad4bd3b3" x="605.110724" y="236.288281" style="stroke: #000000; stroke-width: 1.5"/>
      </g>
     </g>
    </g>
    <g id="xtick_19">
     <g id="line2d_25">
      <g>
       <use xlink:href="#me7ad4bd3b3" x="630.806179" y="236.288281" style="stroke: #000000; stroke-width: 1.5"/>
      </g>
     </g>
    </g>
    <g id="xtick_20">
     <g id="line2d_26">
      <g>
       <use xlink:href="#me7ad4bd3b3" x="682.197088" y="236.288281" style="stroke: #000000; stroke-width: 1.5"/>
      </g>
     </g>
    </g>
    <g id="xtick_21">
     <g id="line2d_27">
      <g>
       <use xlink:href="#me7ad4bd3b3" x="707.892543" y="236.288281" style="stroke: #000000; stroke-width: 1.5"/>
      </g>
     </g>
    </g>
    <g id="xtick_22">
     <g id="line2d_28">
      <g>
       <use xlink:href="#me7ad4bd3b3" x="733.587997" y="236.288281" style="stroke: #000000; stroke-width: 1.5"/>
      </g>
     </g>
    </g>
    <g id="xtick_23">
     <g id="line2d_29">
      <g>
       <use xlink:href="#me7ad4bd3b3" x="784.978906" y="236.288281" style="stroke: #000000; stroke-width: 1.5"/>
      </g>
     </g>
    </g>
   </g>
   <g id="matplotlib.axis_2">
    <g id="ytick_1">
     <g id="line2d_30">
      <path d="M 219.678906 228.188736 
L 784.978906 228.188736 
" clip-path="url(#pdde6cd69e6)" style="fill: none; stroke: #4c566a; stroke-opacity: 0.3; stroke-width: 0.8; stroke-linecap: square"/>
     </g>
     <g id="line2d_31">
      <defs>
       <path id="m75a79feb9d" d="M 0 0 
L -9 0 
" style="stroke: #000000; stroke-width: 2.4"/>
      </defs>
      <g>
       <use xlink:href="#m75a79feb9d" x="219.678906" y="228.188736" style="stroke: #000000; stroke-width: 2.4"/>
      </g>
     </g>
     <g id="text_1">
      <text style="font-size: 24px; font-family: 'Courier New'; text-anchor: end" x="207.178906" y="235.542486" transform="rotate(-0 207.178906 235.542486)">0.0</text>
     </g>
    </g>
    <g id="ytick_2">
     <g id="line2d_32">
      <path d="M 219.678906 154.947348 
L 784.978906 154.947348 
" clip-path="url(#pdde6cd69e6)" style="fill: none; stroke: #4c566a; stroke-opacity: 0.3; stroke-width: 0.8; stroke-linecap: square"/>
     </g>
     <g id="line2d_33">
      <g>
       <use xlink:href="#m75a79feb9d" x="219.678906" y="154.947348" style="stroke: #000000; stroke-width: 2.4"/>
      </g>
     </g>
     <g id="text_2">
      <text style="font-size: 24px; font-family: 'Courier New'; text-anchor: end" x="207.178906" y="162.301098" transform="rotate(-0 207.178906 162.301098)">0.2</text>
     </g>
    </g>
    <g id="ytick_3">
     <g id="line2d_34">
      <path d="M 219.678906 81.705961 
L 784.978906 81.705961 
" clip-path="url(#pdde6cd69e6)" style="fill: none; stroke: #4c566a; stroke-opacity: 0.3; stroke-width: 0.8; stroke-linecap: square"/>
     </g>
     <g id="line2d_35">
      <g>
       <use xlink:href="#m75a79feb9d" x="219.678906" y="81.705961" style="stroke: #000000; stroke-width: 2.4"/>
      </g>
     </g>
     <g id="text_3">
      <text style="font-size: 24px; font-family: 'Courier New'; text-anchor: end" x="207.178906" y="89.059711" transform="rotate(-0 207.178906 89.059711)">0.4</text>
     </g>
    </g>
    <g id="ytick_4">
     <g id="line2d_36">
      <defs>
       <path id="m1ad5ff6f18" d="M 0 0 
L -6 0 
" style="stroke: #000000; stroke-width: 1.5"/>
      </defs>
      <g>
       <use xlink:href="#m1ad5ff6f18" x="219.678906" y="209.878389" style="stroke: #000000; stroke-width: 1.5"/>
      </g>
     </g>
    </g>
    <g id="ytick_5">
     <g id="line2d_37">
      <g>
       <use xlink:href="#m1ad5ff6f18" x="219.678906" y="191.568042" style="stroke: #000000; stroke-width: 1.5"/>
      </g>
     </g>
    </g>
    <g id="ytick_6">
     <g id="line2d_38">
      <g>
       <use xlink:href="#m1ad5ff6f18" x="219.678906" y="173.257695" style="stroke: #000000; stroke-width: 1.5"/>
      </g>
     </g>
    </g>
    <g id="ytick_7">
     <g id="line2d_39">
      <g>
       <use xlink:href="#m1ad5ff6f18" x="219.678906" y="136.637002" style="stroke: #000000; stroke-width: 1.5"/>
      </g>
     </g>
    </g>
    <g id="ytick_8">
     <g id="line2d_40">
      <g>
       <use xlink:href="#m1ad5ff6f18" x="219.678906" y="118.326655" style="stroke: #000000; stroke-width: 1.5"/>
      </g>
     </g>
    </g>
    <g id="ytick_9">
     <g id="line2d_41">
      <g>
       <use xlink:href="#m1ad5ff6f18" x="219.678906" y="100.016308" style="stroke: #000000; stroke-width: 1.5"/>
      </g>
     </g>
    </g>
    <g id="ytick_10">
     <g id="line2d_42">
      <g>
       <use xlink:href="#m1ad5ff6f18" x="219.678906" y="63.395614" style="stroke: #000000; stroke-width: 1.5"/>
      </g>
     </g>
    </g>
    <g id="text_4">
     <text style="font-weight: 600; font-size: 27px; font-family: 'Courier New'; text-anchor: middle" x="140.322969" y="147.193281" transform="rotate(-90 140.322969 147.193281)">Youden index</text>
    </g>
   </g>
   <g id="line2d_43">
    <path d="M 245.374361 228.188736 
L 246.402179 225.885548 
L 247.429997 221.279171 
L 248.457815 218.975983 
L 249.485634 209.76323 
L 250.513452 207.460041 
L 251.54127 200.550476 
L 254.624724 193.640912 
L 255.652543 179.821782 
L 256.680361 177.518594 
L 257.708179 172.912217 
L 258.735997 170.609029 
L 259.763815 161.396276 
L 260.791634 161.396276 
L 261.819452 156.789899 
L 262.84727 156.789899 
L 263.875088 162.355937 
L 264.902906 157.749561 
L 265.930724 165.618787 
L 266.958543 161.012411 
L 267.986361 158.709223 
L 269.014179 161.972073 
L 270.041997 157.365696 
L 271.069815 155.062508 
L 272.097634 155.062508 
L 273.125452 145.849755 
L 274.15327 141.243378 
L 275.181088 141.243378 
L 276.208906 138.94019 
L 277.236724 138.94019 
L 278.264543 134.333813 
L 279.292361 132.030625 
L 280.320179 122.817872 
L 281.347997 122.817872 
L 282.375815 120.514684 
L 284.431452 111.301931 
L 285.45927 108.998742 
L 286.487088 108.998742 
L 287.514906 99.785989 
L 288.542724 99.785989 
L 289.570543 109.958404 
L 290.598361 107.655216 
L 292.653997 107.655216 
L 294.709634 103.048839 
L 295.737452 96.139274 
L 296.76527 93.836086 
L 297.793088 93.836086 
L 300.876543 86.926521 
L 301.904361 82.320145 
L 303.959997 82.320145 
L 304.987815 77.713768 
L 307.043452 77.713768 
L 308.07127 75.41058 
L 309.099088 75.41058 
L 311.154724 66.197827 
L 313.210361 66.197827 
L 314.238179 76.370242 
L 315.265997 84.239468 
L 316.293815 79.633092 
L 321.432906 79.633092 
L 322.460724 89.805507 
L 323.488543 89.805507 
L 324.516361 87.502318 
L 326.571997 87.502318 
L 327.599815 85.19913 
L 328.627634 85.19913 
L 329.655452 78.289565 
L 330.68327 75.986377 
L 331.711088 75.986377 
L 333.766724 71.38 
L 334.794543 81.552415 
L 335.822361 81.552415 
L 336.850179 79.249227 
L 337.877997 79.249227 
L 338.905815 87.118454 
L 341.98927 87.118454 
L 343.017088 82.512077 
L 344.044906 80.208889 
L 346.100543 80.208889 
L 347.128361 77.9057 
L 350.211815 77.9057 
L 351.239634 75.602512 
L 352.267452 75.602512 
L 353.29527 70.996136 
L 355.350906 66.389759 
L 357.406543 66.389759 
L 358.434361 76.562174 
L 362.545634 76.562174 
L 363.573452 86.734589 
L 367.684724 86.734589 
L 368.712543 84.431401 
L 369.740361 84.431401 
L 370.768179 94.603816 
L 371.795997 102.473042 
L 372.823815 102.473042 
L 373.851634 100.169854 
L 374.879452 100.169854 
L 375.90727 97.866666 
L 376.935088 97.866666 
L 381.046361 88.653912 
L 382.074179 88.653912 
L 383.101997 86.350724 
L 385.157634 86.350724 
L 386.185452 84.047536 
L 387.21327 74.834783 
L 388.241088 85.007198 
L 389.268906 92.876424 
L 390.296724 88.270048 
L 392.352361 83.663671 
L 393.380179 89.22971 
L 394.407997 109.574539 
L 396.463634 109.574539 
L 399.547088 102.664974 
L 400.574906 102.664974 
L 401.602724 112.837389 
L 403.658361 108.231013 
L 404.686179 108.231013 
L 405.713997 105.927825 
L 410.853088 105.927825 
L 411.880906 101.321448 
L 412.908724 101.321448 
L 417.019997 92.108695 
L 418.047815 92.108695 
L 419.075634 110.150336 
L 420.103452 107.847148 
L 421.13127 107.847148 
L 422.159088 105.54396 
L 423.186906 113.413186 
L 424.214724 133.758016 
L 425.242543 131.454828 
L 426.270361 131.454828 
L 427.298179 141.627243 
L 428.325997 139.324055 
L 429.353815 139.324055 
L 431.409452 134.717678 
L 433.465088 155.062508 
L 434.492906 152.75932 
L 435.520724 148.152943 
L 436.548543 145.849755 
L 437.576361 145.849755 
L 438.604179 156.02217 
L 442.715452 156.02217 
L 443.74327 176.366999 
L 446.826724 176.366999 
L 447.854543 174.063811 
L 448.882361 174.063811 
L 449.910179 184.236226 
L 454.021452 184.236226 
L 455.04927 194.408641 
L 456.077088 192.105453 
L 460.188361 192.105453 
L 461.216179 202.277868 
L 468.410906 202.277868 
L 469.438724 199.974679 
L 487.939452 199.974679 
L 488.96727 197.671491 
L 550.636361 197.671491 
L 551.664179 207.843906 
L 700.697815 207.843906 
L 701.725634 218.016321 
L 758.255634 218.016321 
L 759.283452 228.188736 
L 759.283452 228.188736 
" clip-path="url(#pdde6cd69e6)" style="fill: none; stroke: #81a1c1; stroke-width: 2; stroke-linecap: square"/>
   </g>
   <g id="line2d_44">
    <path d="M 378.059476 236.288281 
L 378.059476 58.098281 
" clip-path="url(#pdde6cd69e6)" style="fill: none; stroke-dasharray: 5.55,2.4; stroke-dashoffset: 0; stroke: #bf616a; stroke-width: 1.5"/>
   </g>
   <g id="line2d_45">
    <path d="M 283.387363 236.288281 
L 283.387363 58.098281 
" clip-path="url(#pdde6cd69e6)" style="fill: none; stroke-dasharray: 5.55,2.4; stroke-dashoffset: 0; stroke: #bf616a; stroke-width: 1.5"/>
   </g>
   <g id="patch_3">
    <path d="M 219.678906 236.288281 
L 219.678906 58.098281 
" style="fill: none; stroke: #4c566a; stroke-width: 1.8; stroke-linejoin: miter; stroke-linecap: square"/>
   </g>
   <g id="patch_4">
    <path d="M 784.978906 236.288281 
L 784.978906 58.098281 
" style="fill: none; stroke: #4c566a; stroke-width: 1.8; stroke-linejoin: miter; stroke-linecap: square"/>
   </g>
   <g id="patch_5">
    <path d="M 219.678906 236.288281 
L 784.978906 236.288281 
" style="fill: none; stroke: #4c566a; stroke-width: 1.8; stroke-linejoin: miter; stroke-linecap: square"/>
   </g>
   <g id="patch_6">
    <path d="M 219.678906 58.098281 
L 784.978906 58.098281 
" style="fill: none; stroke: #4c566a; stroke-width: 1.8; stroke-linejoin: miter; stroke-linecap: square"/>
   </g>
   <g id="text_5">
    <text style="font-size: 10px; font-family: 'Courier New'; fill: #bf616a" transform="translate(376.175101 220.864597) rotate(-90)">High threshold = 0.258</text>
   </g>
   <g id="text_6">
    <text style="font-size: 10px; font-family: 'Courier New'; fill: #bf616a" transform="translate(281.502988 220.864597) rotate(-90)">Low threshold = 0.074</text>
   </g>
   <g id="text_7">
    <text style="font-weight: 600; font-size: 33px; font-family: 'Courier New'; text-anchor: middle" x="502.328906" y="28.098281" transform="rotate(-0 502.328906 28.098281)">Radiomics signature Youden index across thresholds</text>
   </g>
  </g>
  <g id="axes_2">
   <g id="patch_7">
    <path d="M 219.678906 452.638281 
L 784.978906 452.638281 
L 784.978906 274.448281 
L 219.678906 274.448281 
z
" style="fill: #ffffff"/>
   </g>
   <g id="matplotlib.axis_3">
    <g id="xtick_24">
     <g id="line2d_46">
      <path d="M 245.374361 452.638281 
L 245.374361 274.448281 
" clip-path="url(#pfa468136b8)" style="fill: none; stroke: #4c566a; stroke-opacity: 0.3; stroke-width: 0.8; stroke-linecap: square"/>
     </g>
     <g id="line2d_47">
      <g>
       <use xlink:href="#mf1e7b468c4" x="245.374361" y="452.638281" style="stroke: #000000; stroke-width: 2.4"/>
      </g>
     </g>
     <g id="text_8">
      <text style="font-size: 24px; font-family: 'Courier New'; text-anchor: middle" x="245.374361" y="479.845781" transform="rotate(-0 245.374361 479.845781)">0.0</text>
     </g>
    </g>
    <g id="xtick_25">
     <g id="line2d_48">
      <path d="M 348.156179 452.638281 
L 348.156179 274.448281 
" clip-path="url(#pfa468136b8)" style="fill: none; stroke: #4c566a; stroke-opacity: 0.3; stroke-width: 0.8; stroke-linecap: square"/>
     </g>
     <g id="line2d_49">
      <g>
       <use xlink:href="#mf1e7b468c4" x="348.156179" y="452.638281" style="stroke: #000000; stroke-width: 2.4"/>
      </g>
     </g>
     <g id="text_9">
      <text style="font-size: 24px; font-family: 'Courier New'; text-anchor: middle" x="348.156179" y="479.845781" transform="rotate(-0 348.156179 479.845781)">0.2</text>
     </g>
    </g>
    <g id="xtick_26">
     <g id="line2d_50">
      <path d="M 450.937997 452.638281 
L 450.937997 274.448281 
" clip-path="url(#pfa468136b8)" style="fill: none; stroke: #4c566a; stroke-opacity: 0.3; stroke-width: 0.8; stroke-linecap: square"/>
     </g>
     <g id="line2d_51">
      <g>
       <use xlink:href="#mf1e7b468c4" x="450.937997" y="452.638281" style="stroke: #000000; stroke-width: 2.4"/>
      </g>
     </g>
     <g id="text_10">
      <text style="font-size: 24px; font-family: 'Courier New'; text-anchor: middle" x="450.937997" y="479.845781" transform="rotate(-0 450.937997 479.845781)">0.4</text>
     </g>
    </g>
    <g id="xtick_27">
     <g id="line2d_52">
      <path d="M 553.719815 452.638281 
L 553.719815 274.448281 
" clip-path="url(#pfa468136b8)" style="fill: none; stroke: #4c566a; stroke-opacity: 0.3; stroke-width: 0.8; stroke-linecap: square"/>
     </g>
     <g id="line2d_53">
      <g>
       <use xlink:href="#mf1e7b468c4" x="553.719815" y="452.638281" style="stroke: #000000; stroke-width: 2.4"/>
      </g>
     </g>
     <g id="text_11">
      <text style="font-size: 24px; font-family: 'Courier New'; text-anchor: middle" x="553.719815" y="479.845781" transform="rotate(-0 553.719815 479.845781)">0.6</text>
     </g>
    </g>
    <g id="xtick_28">
     <g id="line2d_54">
      <path d="M 656.501634 452.638281 
L 656.501634 274.448281 
" clip-path="url(#pfa468136b8)" style="fill: none; stroke: #4c566a; stroke-opacity: 0.3; stroke-width: 0.8; stroke-linecap: square"/>
     </g>
     <g id="line2d_55">
      <g>
       <use xlink:href="#mf1e7b468c4" x="656.501634" y="452.638281" style="stroke: #000000; stroke-width: 2.4"/>
      </g>
     </g>
     <g id="text_12">
      <text style="font-size: 24px; font-family: 'Courier New'; text-anchor: middle" x="656.501634" y="479.845781" transform="rotate(-0 656.501634 479.845781)">0.8</text>
     </g>
    </g>
    <g id="xtick_29">
     <g id="line2d_56">
      <path d="M 759.283452 452.638281 
L 759.283452 274.448281 
" clip-path="url(#pfa468136b8)" style="fill: none; stroke: #4c566a; stroke-opacity: 0.3; stroke-width: 0.8; stroke-linecap: square"/>
     </g>
     <g id="line2d_57">
      <g>
       <use xlink:href="#mf1e7b468c4" x="759.283452" y="452.638281" style="stroke: #000000; stroke-width: 2.4"/>
      </g>
     </g>
     <g id="text_13">
      <text style="font-size: 24px; font-family: 'Courier New'; text-anchor: middle" x="759.283452" y="479.845781" transform="rotate(-0 759.283452 479.845781)">1.0</text>
     </g>
    </g>
    <g id="xtick_30">
     <g id="line2d_58">
      <g>
       <use xlink:href="#me7ad4bd3b3" x="219.678906" y="452.638281" style="stroke: #000000; stroke-width: 1.5"/>
      </g>
     </g>
    </g>
    <g id="xtick_31">
     <g id="line2d_59">
      <g>
       <use xlink:href="#me7ad4bd3b3" x="271.069815" y="452.638281" style="stroke: #000000; stroke-width: 1.5"/>
      </g>
     </g>
    </g>
    <g id="xtick_32">
     <g id="line2d_60">
      <g>
       <use xlink:href="#me7ad4bd3b3" x="296.76527" y="452.638281" style="stroke: #000000; stroke-width: 1.5"/>
      </g>
     </g>
    </g>
    <g id="xtick_33">
     <g id="line2d_61">
      <g>
       <use xlink:href="#me7ad4bd3b3" x="322.460724" y="452.638281" style="stroke: #000000; stroke-width: 1.5"/>
      </g>
     </g>
    </g>
    <g id="xtick_34">
     <g id="line2d_62">
      <g>
       <use xlink:href="#me7ad4bd3b3" x="373.851634" y="452.638281" style="stroke: #000000; stroke-width: 1.5"/>
      </g>
     </g>
    </g>
    <g id="xtick_35">
     <g id="line2d_63">
      <g>
       <use xlink:href="#me7ad4bd3b3" x="399.547088" y="452.638281" style="stroke: #000000; stroke-width: 1.5"/>
      </g>
     </g>
    </g>
    <g id="xtick_36">
     <g id="line2d_64">
      <g>
       <use xlink:href="#me7ad4bd3b3" x="425.242543" y="452.638281" style="stroke: #000000; stroke-width: 1.5"/>
      </g>
     </g>
    </g>
    <g id="xtick_37">
     <g id="line2d_65">
      <g>
       <use xlink:href="#me7ad4bd3b3" x="476.633452" y="452.638281" style="stroke: #000000; stroke-width: 1.5"/>
      </g>
     </g>
    </g>
    <g id="xtick_38">
     <g id="line2d_66">
      <g>
       <use xlink:href="#me7ad4bd3b3" x="502.328906" y="452.638281" style="stroke: #000000; stroke-width: 1.5"/>
      </g>
     </g>
    </g>
    <g id="xtick_39">
     <g id="line2d_67">
      <g>
       <use xlink:href="#me7ad4bd3b3" x="528.024361" y="452.638281" style="stroke: #000000; stroke-width: 1.5"/>
      </g>
     </g>
    </g>
    <g id="xtick_40">
     <g id="line2d_68">
      <g>
       <use xlink:href="#me7ad4bd3b3" x="579.41527" y="452.638281" style="stroke: #000000; stroke-width: 1.5"/>
      </g>
     </g>
    </g>
    <g id="xtick_41">
     <g id="line2d_69">
      <g>
       <use xlink:href="#me7ad4bd3b3" x="605.110724" y="452.638281" style="stroke: #000000; stroke-width: 1.5"/>
      </g>
     </g>
    </g>
    <g id="xtick_42">
     <g id="line2d_70">
      <g>
       <use xlink:href="#me7ad4bd3b3" x="630.806179" y="452.638281" style="stroke: #000000; stroke-width: 1.5"/>
      </g>
     </g>
    </g>
    <g id="xtick_43">
     <g id="line2d_71">
      <g>
       <use xlink:href="#me7ad4bd3b3" x="682.197088" y="452.638281" style="stroke: #000000; stroke-width: 1.5"/>
      </g>
     </g>
    </g>
    <g id="xtick_44">
     <g id="line2d_72">
      <g>
       <use xlink:href="#me7ad4bd3b3" x="707.892543" y="452.638281" style="stroke: #000000; stroke-width: 1.5"/>
      </g>
     </g>
    </g>
    <g id="xtick_45">
     <g id="line2d_73">
      <g>
       <use xlink:href="#me7ad4bd3b3" x="733.587997" y="452.638281" style="stroke: #000000; stroke-width: 1.5"/>
      </g>
     </g>
    </g>
    <g id="xtick_46">
     <g id="line2d_74">
      <g>
       <use xlink:href="#me7ad4bd3b3" x="784.978906" y="452.638281" style="stroke: #000000; stroke-width: 1.5"/>
      </g>
     </g>
    </g>
    <g id="text_14">
     <text style="font-weight: 600; font-size: 27px; font-family: 'Courier New'; text-anchor: middle" x="502.328906" y="519.466875" transform="rotate(-0 502.328906 519.466875)">Threshold</text>
    </g>
   </g>
   <g id="matplotlib.axis_4">
    <g id="ytick_11">
     <g id="line2d_75">
      <path d="M 219.678906 444.538736 
L 784.978906 444.538736 
" clip-path="url(#pfa468136b8)" style="fill: none; stroke: #4c566a; stroke-opacity: 0.3; stroke-width: 0.8; stroke-linecap: square"/>
     </g>
     <g id="line2d_76">
      <g>
       <use xlink:href="#m75a79feb9d" x="219.678906" y="444.538736" style="stroke: #000000; stroke-width: 2.4"/>
      </g>
     </g>
     <g id="text_15">
      <text style="font-size: 24px; font-family: 'Courier New'; text-anchor: end" x="207.178906" y="451.892486" transform="rotate(-0 207.178906 451.892486)">0.0</text>
     </g>
    </g>
    <g id="ytick_12">
     <g id="line2d_77">
      <path d="M 219.678906 363.543281 
L 784.978906 363.543281 
" clip-path="url(#pfa468136b8)" style="fill: none; stroke: #4c566a; stroke-opacity: 0.3; stroke-width: 0.8; stroke-linecap: square"/>
     </g>
     <g id="line2d_78">
      <g>
       <use xlink:href="#m75a79feb9d" x="219.678906" y="363.543281" style="stroke: #000000; stroke-width: 2.4"/>
      </g>
     </g>
     <g id="text_16">
      <text style="font-size: 24px; font-family: 'Courier New'; text-anchor: end" x="207.178906" y="370.897031" transform="rotate(-0 207.178906 370.897031)">0.5</text>
     </g>
    </g>
    <g id="ytick_13">
     <g id="line2d_79">
      <path d="M 219.678906 282.547827 
L 784.978906 282.547827 
" clip-path="url(#pfa468136b8)" style="fill: none; stroke: #4c566a; stroke-opacity: 0.3; stroke-width: 0.8; stroke-linecap: square"/>
     </g>
     <g id="line2d_80">
      <g>
       <use xlink:href="#m75a79feb9d" x="219.678906" y="282.547827" style="stroke: #000000; stroke-width: 2.4"/>
      </g>
     </g>
     <g id="text_17">
      <text style="font-size: 24px; font-family: 'Courier New'; text-anchor: end" x="207.178906" y="289.901577" transform="rotate(-0 207.178906 289.901577)">1.0</text>
     </g>
    </g>
    <g id="ytick_14">
     <g id="line2d_81">
      <g>
       <use xlink:href="#m1ad5ff6f18" x="219.678906" y="428.339645" style="stroke: #000000; stroke-width: 1.5"/>
      </g>
     </g>
    </g>
    <g id="ytick_15">
     <g id="line2d_82">
      <g>
       <use xlink:href="#m1ad5ff6f18" x="219.678906" y="412.140554" style="stroke: #000000; stroke-width: 1.5"/>
      </g>
     </g>
    </g>
    <g id="ytick_16">
     <g id="line2d_83">
      <g>
       <use xlink:href="#m1ad5ff6f18" x="219.678906" y="395.941463" style="stroke: #000000; stroke-width: 1.5"/>
      </g>
     </g>
    </g>
    <g id="ytick_17">
     <g id="line2d_84">
      <g>
       <use xlink:href="#m1ad5ff6f18" x="219.678906" y="379.742372" style="stroke: #000000; stroke-width: 1.5"/>
      </g>
     </g>
    </g>
    <g id="ytick_18">
     <g id="line2d_85">
      <g>
       <use xlink:href="#m1ad5ff6f18" x="219.678906" y="347.34419" style="stroke: #000000; stroke-width: 1.5"/>
      </g>
     </g>
    </g>
    <g id="ytick_19">
     <g id="line2d_86">
      <g>
       <use xlink:href="#m1ad5ff6f18" x="219.678906" y="331.145099" style="stroke: #000000; stroke-width: 1.5"/>
      </g>
     </g>
    </g>
    <g id="ytick_20">
     <g id="line2d_87">
      <g>
       <use xlink:href="#m1ad5ff6f18" x="219.678906" y="314.946009" style="stroke: #000000; stroke-width: 1.5"/>
      </g>
     </g>
    </g>
    <g id="ytick_21">
     <g id="line2d_88">
      <g>
       <use xlink:href="#m1ad5ff6f18" x="219.678906" y="298.746918" style="stroke: #000000; stroke-width: 1.5"/>
      </g>
     </g>
    </g>
    <g id="text_18">
     <text style="font-weight: 600; font-size: 27px; font-family: 'Courier New'; text-anchor: middle" x="140.322969" y="363.543281" transform="rotate(-90 140.322969 363.543281)">Value</text>
    </g>
   </g>
   <g id="line2d_89">
    <path d="M 245.374361 282.547827 
L 262.84727 282.547827 
L 263.875088 287.047574 
L 264.902906 287.047574 
L 265.930724 291.547322 
L 267.986361 291.547322 
L 269.014179 296.047069 
L 288.542724 296.047069 
L 289.570543 300.546817 
L 313.210361 300.546817 
L 315.265997 309.546312 
L 321.432906 309.546312 
L 322.460724 314.046059 
L 333.766724 314.046059 
L 334.794543 318.545807 
L 337.877997 318.545807 
L 338.905815 323.045554 
L 357.406543 323.045554 
L 358.434361 327.545301 
L 362.545634 327.545301 
L 363.573452 332.045049 
L 369.740361 332.045049 
L 371.795997 341.044544 
L 387.21327 341.044544 
L 389.268906 350.044039 
L 392.352361 350.044039 
L 393.380179 354.543786 
L 394.407997 363.543281 
L 400.574906 363.543281 
L 401.602724 368.043029 
L 418.047815 368.043029 
L 419.075634 377.042524 
L 422.159088 377.042524 
L 423.186906 381.542271 
L 424.214724 390.541766 
L 426.270361 390.541766 
L 427.298179 395.041514 
L 431.409452 395.041514 
L 433.465088 404.041009 
L 437.576361 404.041009 
L 438.604179 408.540756 
L 442.715452 408.540756 
L 443.74327 417.540251 
L 448.882361 417.540251 
L 449.910179 422.039998 
L 454.021452 422.039998 
L 455.04927 426.539746 
L 460.188361 426.539746 
L 461.216179 431.039493 
L 550.636361 431.039493 
L 551.664179 435.539241 
L 700.697815 435.539241 
L 701.725634 440.038988 
L 758.255634 440.038988 
L 759.283452 444.538736 
L 759.283452 444.538736 
" clip-path="url(#pfa468136b8)" style="fill: none; stroke: #bf616a; stroke-width: 2; stroke-linecap: square"/>
   </g>
   <g id="line2d_90">
    <path d="M 245.374361 444.538736 
L 246.402179 443.519925 
L 247.429997 441.482304 
L 248.457815 440.463493 
L 249.485634 436.38825 
L 250.513452 435.369439 
L 251.54127 432.313007 
L 254.624724 429.256575 
L 255.652543 423.14371 
L 256.680361 422.124899 
L 257.708179 420.087278 
L 258.735997 419.068467 
L 259.763815 414.993224 
L 260.791634 414.993224 
L 261.819452 412.955603 
L 262.84727 412.955603 
L 264.902906 408.88036 
L 265.930724 407.861549 
L 266.958543 405.823927 
L 267.986361 404.805117 
L 269.014179 401.748684 
L 270.041997 399.711063 
L 271.069815 398.692252 
L 272.097634 398.692252 
L 273.125452 394.617009 
L 274.15327 392.579388 
L 275.181088 392.579388 
L 276.208906 391.560577 
L 277.236724 391.560577 
L 278.264543 389.522955 
L 279.292361 388.504145 
L 280.320179 384.428902 
L 281.347997 384.428902 
L 282.375815 383.410091 
L 284.431452 379.334848 
L 285.45927 378.316037 
L 286.487088 378.316037 
L 287.514906 374.240794 
L 289.570543 374.240794 
L 290.598361 373.221983 
L 292.653997 373.221983 
L 294.709634 371.184362 
L 295.737452 368.12793 
L 296.76527 367.109119 
L 297.793088 367.109119 
L 300.876543 364.052687 
L 301.904361 362.015065 
L 303.959997 362.015065 
L 304.987815 359.977444 
L 307.043452 359.977444 
L 308.07127 358.958633 
L 309.099088 358.958633 
L 311.154724 354.88339 
L 314.238179 354.88339 
L 315.265997 353.864579 
L 316.293815 351.826958 
L 323.488543 351.826958 
L 324.516361 350.808147 
L 326.571997 350.808147 
L 327.599815 349.789336 
L 328.627634 349.789336 
L 329.655452 346.732904 
L 330.68327 345.714093 
L 331.711088 345.714093 
L 333.766724 343.676472 
L 335.822361 343.676472 
L 336.850179 342.657661 
L 337.877997 342.657661 
L 338.905815 341.63885 
L 341.98927 341.63885 
L 343.017088 339.601229 
L 344.044906 338.582418 
L 346.100543 338.582418 
L 347.128361 337.563607 
L 350.211815 337.563607 
L 351.239634 336.544796 
L 352.267452 336.544796 
L 353.29527 334.507175 
L 355.350906 332.469553 
L 367.684724 332.469553 
L 368.712543 331.450743 
L 370.768179 331.450743 
L 371.795997 330.431932 
L 372.823815 330.431932 
L 373.851634 329.413121 
L 374.879452 329.413121 
L 375.90727 328.39431 
L 376.935088 328.39431 
L 381.046361 324.319067 
L 382.074179 324.319067 
L 383.101997 323.300257 
L 385.157634 323.300257 
L 386.185452 322.281446 
L 387.21327 318.206203 
L 388.241088 318.206203 
L 389.268906 317.187392 
L 390.296724 315.149771 
L 392.352361 313.112149 
L 393.380179 311.074528 
L 396.463634 311.074528 
L 399.547088 308.018095 
L 401.602724 308.018095 
L 403.658361 305.980474 
L 404.686179 305.980474 
L 405.713997 304.961663 
L 410.853088 304.961663 
L 411.880906 302.924042 
L 412.908724 302.924042 
L 417.019997 298.848799 
L 418.047815 298.848799 
L 420.103452 296.811177 
L 421.13127 296.811177 
L 423.186906 294.773556 
L 424.214724 294.773556 
L 425.242543 293.754745 
L 427.298179 293.754745 
L 428.325997 292.735934 
L 429.353815 292.735934 
L 431.409452 290.698313 
L 433.465088 290.698313 
L 434.492906 289.679502 
L 435.520724 287.64188 
L 436.548543 286.62307 
L 446.826724 286.62307 
L 447.854543 285.604259 
L 455.04927 285.604259 
L 456.077088 284.585448 
L 468.410906 284.585448 
L 469.438724 283.566637 
L 487.939452 283.566637 
L 488.96727 282.547827 
L 759.283452 282.547827 
L 759.283452 282.547827 
" clip-path="url(#pfa468136b8)" style="fill: none; stroke: #5e81ac; stroke-width: 2; stroke-linecap: square"/>
   </g>
   <g id="line2d_91">
    <path d="M 245.374361 414.632722 
L 246.402179 414.478567 
L 247.429997 414.16544 
L 248.457815 414.006418 
L 249.485634 413.35332 
L 250.513452 413.185657 
L 251.54127 412.671672 
L 254.624724 412.140554 
L 255.652543 411.023375 
L 256.680361 410.829645 
L 257.708179 410.435387 
L 258.735997 410.234779 
L 259.763815 409.408177 
L 260.791634 409.408177 
L 261.819452 408.979756 
L 262.84727 408.979756 
L 263.875088 409.323321 
L 264.902906 408.88036 
L 265.930724 409.457902 
L 266.958543 409.005246 
L 267.986361 408.774509 
L 269.014179 408.900736 
L 270.041997 408.419141 
L 271.069815 408.17343 
L 272.097634 408.17343 
L 273.125452 407.156218 
L 274.15327 406.62597 
L 275.181088 406.62597 
L 276.208906 406.355164 
L 277.236724 406.355164 
L 278.264543 405.801779 
L 279.292361 405.519028 
L 280.320179 404.345503 
L 281.347997 404.345503 
L 282.375815 404.041009 
L 284.431452 402.775455 
L 285.45927 402.44661 
L 286.487088 402.44661 
L 287.514906 401.07776 
L 288.542724 401.07776 
L 289.570543 402.049317 
L 290.598361 401.698165 
L 292.653997 401.698165 
L 294.709634 400.978155 
L 295.737452 399.851588 
L 296.76527 399.463005 
L 297.793088 399.463005 
L 300.876543 398.255619 
L 301.904361 397.414108 
L 303.959997 397.414108 
L 304.987815 396.541429 
L 307.043452 396.541429 
L 308.07127 396.092856 
L 309.099088 396.092856 
L 311.154724 394.211463 
L 313.210361 394.211463 
L 314.238179 395.306205 
L 315.265997 395.941463 
L 316.293815 394.949682 
L 321.432906 394.949682 
L 322.460724 396.108464 
L 323.488543 396.108464 
L 324.516361 395.603982 
L 326.571997 395.603982 
L 327.599815 395.088879 
L 328.627634 395.088879 
L 329.655452 393.476384 
L 330.68327 392.915259 
L 331.711088 392.915259 
L 333.766724 391.755181 
L 334.794543 392.996174 
L 335.822361 392.996174 
L 336.850179 392.403731 
L 337.877997 392.403731 
L 338.905815 393.0828 
L 341.98927 393.0828 
L 343.017088 391.842898 
L 344.044906 391.200266 
L 346.100543 391.200266 
L 347.128361 390.541766 
L 350.211815 390.541766 
L 351.239634 389.866804 
L 352.267452 389.866804 
L 353.29527 388.46496 
L 355.350906 386.989334 
L 357.406543 386.989334 
L 358.434361 388.381887 
L 362.545634 388.381887 
L 363.573452 389.812077 
L 367.684724 389.812077 
L 368.712543 389.062397 
L 369.740361 389.062397 
L 370.768179 390.541766 
L 371.795997 391.313151 
L 372.823815 391.313151 
L 373.851634 390.541766 
L 374.879452 390.541766 
L 375.90727 389.747693 
L 376.935088 389.747693 
L 380.018543 387.218876 
L 381.046361 386.323253 
L 382.074179 386.323253 
L 383.101997 385.399198 
L 385.157634 385.399198 
L 386.185452 384.445334 
L 387.21327 380.300962 
L 388.241088 382.015929 
L 389.268906 382.687661 
L 390.296724 380.353659 
L 392.352361 377.836597 
L 393.380179 377.042524 
L 394.407997 381.150989 
L 396.463634 381.150989 
L 398.51927 378.269728 
L 399.547088 376.728588 
L 400.574906 376.728588 
L 401.602724 378.970987 
L 403.658361 375.692599 
L 404.686179 375.692599 
L 405.713997 373.927314 
L 410.853088 373.927314 
L 411.880906 370.11048 
L 412.908724 370.11048 
L 414.964361 365.857437 
L 417.019997 361.088874 
L 418.047815 361.088874 
L 419.075634 363.543281 
L 420.103452 360.750335 
L 421.13127 360.750335 
L 422.159088 357.757892 
L 423.186906 357.312862 
L 424.214724 363.543281 
L 425.242543 360.02174 
L 426.270361 360.02174 
L 427.298179 363.543281 
L 428.325997 359.686355 
L 429.353815 359.686355 
L 431.409452 350.754525 
L 432.43727 354.543786 
L 433.465088 358.778843 
L 434.492906 353.418849 
L 435.520724 340.401723 
L 436.548543 332.391183 
L 437.576361 332.391183 
L 438.604179 336.544796 
L 442.715452 336.544796 
L 443.74327 347.34419 
L 446.826724 347.34419 
L 447.854543 336.544796 
L 448.882361 336.544796 
L 449.910179 343.294418 
L 454.021452 343.294418 
L 455.04927 351.972502 
L 456.077088 336.544796 
L 460.188361 336.544796 
L 461.216179 347.34419 
L 468.410906 347.34419 
L 469.438724 323.045554 
L 487.939452 323.045554 
L 488.96727 282.547827 
L 758.255634 282.547827 
L 758.255634 282.547827 
" clip-path="url(#pfa468136b8)" style="fill: none; stroke: #a3be8c; stroke-width: 2; stroke-linecap: square"/>
   </g>
   <g id="line2d_92">
    <path d="M 246.402179 282.547827 
L 262.84727 282.547827 
L 263.875088 287.312265 
L 264.902906 287.047574 
L 265.930724 291.073664 
L 266.958543 290.647372 
L 267.986361 290.449822 
L 269.014179 293.347221 
L 270.041997 292.887672 
L 271.069815 292.672259 
L 272.097634 292.672259 
L 273.125452 291.893456 
L 274.15327 291.547322 
L 275.181088 291.547322 
L 276.208906 291.383694 
L 277.236724 291.383694 
L 278.264543 291.073664 
L 279.292361 290.926667 
L 280.320179 290.386096 
L 281.347997 290.386096 
L 282.375815 290.26168 
L 284.431452 289.801151 
L 286.487088 289.694484 
L 287.514906 289.297448 
L 288.542724 289.297448 
L 289.570543 291.424041 
L 290.598361 291.304092 
L 292.653997 291.304092 
L 294.709634 291.073664 
L 295.737452 290.749898 
L 299.848724 290.449822 
L 304.987815 289.995685 
L 309.099088 289.91105 
L 311.154724 289.59091 
L 313.210361 289.59091 
L 315.265997 292.778831 
L 316.293815 292.567883 
L 321.432906 292.567883 
L 322.460724 294.118606 
L 323.488543 294.118606 
L 324.516361 294.001729 
L 326.571997 294.001729 
L 327.599815 293.88719 
L 328.627634 293.88719 
L 329.655452 293.556918 
L 332.738906 293.347221 
L 333.766724 293.24534 
L 334.794543 294.659297 
L 335.822361 294.659297 
L 336.850179 294.547153 
L 337.877997 294.547153 
L 338.905815 295.801628 
L 341.98927 295.801628 
L 343.017088 295.564953 
L 344.044906 295.449758 
L 346.100543 295.449758 
L 347.128361 295.336583 
L 350.211815 295.336583 
L 355.350906 294.79924 
L 357.406543 294.79924 
L 358.434361 296.047069 
L 362.545634 296.047069 
L 363.573452 297.274273 
L 367.684724 297.274273 
L 368.712543 297.153564 
L 369.740361 297.153564 
L 371.795997 299.394881 
L 372.823815 299.394881 
L 373.851634 299.261174 
L 374.879452 299.261174 
L 375.90727 299.129573 
L 376.935088 299.129573 
L 381.046361 298.62326 
L 382.074179 298.62326 
L 383.101997 298.501477 
L 385.157634 298.501477 
L 386.185452 298.381525 
L 387.21327 297.919227 
L 389.268906 299.903996 
L 390.296724 299.659542 
L 392.352361 299.42188 
L 393.380179 300.17949 
L 394.407997 302.117198 
L 396.463634 302.117198 
L 399.547088 301.730961 
L 400.574906 301.730961 
L 401.602724 302.664345 
L 403.658361 302.404777 
L 404.686179 302.404777 
L 405.713997 302.277489 
L 410.853088 302.277489 
L 411.880906 302.027746 
L 412.908724 302.027746 
L 417.019997 301.54676 
L 418.047815 301.54676 
L 419.075634 303.164851 
L 420.103452 303.040653 
L 421.13127 303.040653 
L 422.159088 302.917941 
L 423.186906 303.635401 
L 424.214724 305.283393 
L 425.242543 305.151209 
L 426.270361 305.151209 
L 427.298179 305.956918 
L 428.325997 305.822383 
L 429.353815 305.822383 
L 431.409452 305.557899 
L 433.465088 307.119481 
L 434.492906 306.98221 
L 435.520724 306.712216 
L 436.548543 306.579445 
L 437.576361 306.579445 
L 438.604179 307.333321 
L 442.715452 307.333321 
L 443.74327 308.816623 
L 446.826724 308.816623 
L 447.854543 308.675393 
L 448.882361 308.675393 
L 449.910179 309.401935 
L 454.021452 309.401935 
L 455.04927 310.120747 
L 456.077088 309.974859 
L 460.188361 309.974859 
L 461.216179 310.68309 
L 468.410906 310.68309 
L 469.438724 310.535785 
L 487.939452 310.535785 
L 488.96727 310.390014 
L 550.636361 310.390014 
L 551.664179 311.085085 
L 700.697815 311.085085 
L 701.725634 311.772991 
L 758.255634 311.772991 
L 759.283452 312.453841 
L 759.283452 312.453841 
" clip-path="url(#pfa468136b8)" style="fill: none; stroke: #b48ead; stroke-width: 2; stroke-linecap: square"/>
   </g>
   <g id="line2d_93">
    <path d="M 283.387363 452.638281 
L 283.387363 274.448281 
" clip-path="url(#pfa468136b8)" style="fill: none; stroke-dasharray: 3.7,1.6; stroke-dashoffset: 0; stroke: #4c566a"/>
   </g>
   <g id="line2d_94">
    <path d="M 378.059476 452.638281 
L 378.059476 274.448281 
" clip-path="url(#pfa468136b8)" style="fill: none; stroke-dasharray: 3.7,1.6; stroke-dashoffset: 0; stroke: #4c566a"/>
   </g>
   <g id="patch_8">
    <path d="M 219.678906 452.638281 
L 219.678906 274.448281 
" style="fill: none; stroke: #4c566a; stroke-width: 1.8; stroke-linejoin: miter; stroke-linecap: square"/>
   </g>
   <g id="patch_9">
    <path d="M 784.978906 452.638281 
L 784.978906 274.448281 
" style="fill: none; stroke: #4c566a; stroke-width: 1.8; stroke-linejoin: miter; stroke-linecap: square"/>
   </g>
   <g id="patch_10">
    <path d="M 219.678906 452.638281 
L 784.978906 452.638281 
" style="fill: none; stroke: #4c566a; stroke-width: 1.8; stroke-linejoin: miter; stroke-linecap: square"/>
   </g>
   <g id="patch_11">
    <path d="M 219.678906 274.448281 
L 784.978906 274.448281 
" style="fill: none; stroke: #4c566a; stroke-width: 1.8; stroke-linejoin: miter; stroke-linecap: square"/>
   </g>
   <g id="legend_1">
    <g id="line2d_95">
     <path d="M 681.961719 341.774531 
L 691.961719 341.774531 
L 701.961719 341.774531 
" style="fill: none; stroke: #bf616a; stroke-width: 2; stroke-linecap: square"/>
    </g>
    <g id="text_19">
     <text style="font-size: 10px; font-family: 'Courier New'; text-anchor: start" x="709.961719" y="345.274531" transform="rotate(-0 709.961719 345.274531)">Sensitivity</text>
    </g>
    <g id="line2d_96">
     <path d="M 681.961719 355.658906 
L 691.961719 355.658906 
L 701.961719 355.658906 
" style="fill: none; stroke: #5e81ac; stroke-width: 2; stroke-linecap: square"/>
    </g>
    <g id="text_20">
     <text style="font-size: 10px; font-family: 'Courier New'; text-anchor: start" x="709.961719" y="359.158906" transform="rotate(-0 709.961719 359.158906)">Specificity</text>
    </g>
    <g id="line2d_97">
     <path d="M 681.961719 369.543281 
L 691.961719 369.543281 
L 701.961719 369.543281 
" style="fill: none; stroke: #a3be8c; stroke-width: 2; stroke-linecap: square"/>
    </g>
    <g id="text_21">
     <text style="font-size: 10px; font-family: 'Courier New'; text-anchor: start" x="709.961719" y="373.043281" transform="rotate(-0 709.961719 373.043281)">PPV</text>
    </g>
    <g id="line2d_98">
     <path d="M 681.961719 383.427656 
L 691.961719 383.427656 
L 701.961719 383.427656 
" style="fill: none; stroke: #b48ead; stroke-width: 2; stroke-linecap: square"/>
    </g>
    <g id="text_22">
     <text style="font-size: 10px; font-family: 'Courier New'; text-anchor: start" x="709.961719" y="386.927656" transform="rotate(-0 709.961719 386.927656)">NPV</text>
    </g>
   </g>
  </g>
 </g>
 <defs>
  <clipPath id="pdde6cd69e6">
   <rect x="219.678906" y="58.098281" width="565.3" height="178.19"/>
  </clipPath>
  <clipPath id="pfa468136b8">
   <rect x="219.678906" y="274.448281" width="565.3" height="178.19"/>
  </clipPath>
 </defs>
</svg>
