<?xml version="1.0" encoding="UTF-8"?>
<!DOCTYPE svg PUBLIC "-//W3C//DTD SVG 1.1//EN" "http://www.w3.org/Graphics/SVG/1.1/DTD/svg11.dtd">
<!-- Creator: CorelDRAW (Evaluation Version) -->
<svg xmlns="http://www.w3.org/2000/svg" xml:space="preserve" width="81mm" height="81mm" version="1.1" style="shape-rendering:geometricPrecision; text-rendering:geometricPrecision; image-rendering:optimizeQuality; fill-rule:evenodd; clip-rule:evenodd"
viewBox="0 0 195.21 195.21"
 xmlns:xlink="http://www.w3.org/1999/xlink"
 xmlns:xodm="http://www.corel.com/coreldraw/odm/2003">
 <defs>
  <style type="text/css">
   <![CDATA[
    .str2 {stroke:#D2D3D5;stroke-width:2.41;stroke-miterlimit:22.9256}
    .str0 {stroke:#E6E7E8;stroke-width:0.6;stroke-miterlimit:22.9256}
    .str1 {stroke:#D2D3D5;stroke-width:2.41;stroke-linecap:round;stroke-linejoin:round;stroke-miterlimit:10}
    .fil1 {fill:none}
    .fil2 {fill:none;fill-rule:nonzero}
    .fil0 {fill:#FEFEFE}
    .fil4 {fill:#9671BD}
    .fil3 {fill:url(#id0);fill-rule:nonzero}
   ]]>
  </style>
  <linearGradient id="id0" gradientUnits="userSpaceOnUse" x1="88.81" y1="121.1" x2="158.92" y2="55.75">
   <stop offset="0" style="stop-opacity:1; stop-color:#77B5B6"/>
   <stop offset="1" style="stop-opacity:1; stop-color:#9671BD"/>
  </linearGradient>
 </defs>
 <g id="Layer_x0020_1">
  <metadata id="CorelCorpID_0Corel-Layer"/>
  <circle class="fil0" cx="97.6" cy="97.6" r="96.4"/>
  <line class="fil1 str0" x1="121.77" y1="4.26" x2="121.77" y2= "190.95" />
  <line class="fil1 str0" x1="97.67" y1="1.2" x2="97.67" y2= "194" />
  <line class="fil1 str0" x1="25.37" y1="33.76" x2="25.37" y2= "161.45" />
  <line class="fil1 str0" x1="145.87" y1="15.34" x2="145.87" y2= "181.07" />
  <line class="fil1 str0" x1="169.97" y1="33.92" x2="169.97" y2= "161.29" />
  <line class="fil1 str0" x1="49.47" y1="14.06" x2="49.47" y2= "181.15" />
  <line class="fil1 str0" x1="73.57" y1="4.22" x2="73.57" y2= "190.99" />
  <line class="fil1 str0" x1="183.48" y1="141.45" x2="11.73" y2= "141.45" />
  <line class="fil1 str0" x1="124.43" y1="189.65" x2="68.87" y2= "189.65" />
  <line class="fil1 str0" x1="165.99" y1="165.55" x2="29.22" y2= "165.55" />
  <line class="fil1 str0" x1="193.97" y1="93.25" x2="1.23" y2= "93.25" />
  <line class="fil1 str0" x1="191.98" y1="117.35" x2="3.23" y2= "117.35" />
  <line class="fil1 str0" x1="190.16" y1="69.15" x2="5.47" y2= "69.15" />
  <line class="fil1 str0" x1="178.43" y1="45.05" x2="16.78" y2= "45.05" />
  <line class="fil1 str0" x1="156.07" y1="20.95" x2="37.86" y2= "20.95" />
  <polyline class="fil2 str1" points="97.63,194 97.63,193.92 97.63,193.79 97.63,193.66 97.63,193.53 97.63,193.4 97.63,193.27 97.63,193.14 97.63,193.01 97.63,192.88 97.63,192.75 97.63,192.62 97.63,192.49 97.63,192.36 97.63,192.23 97.63,192.1 97.63,191.97 97.63,191.84 97.63,191.7 97.63,191.58 97.63,191.44 97.63,191.31 97.63,191.18 97.63,191.05 97.63,190.92 97.63,190.79 97.63,190.66 97.63,190.53 97.63,190.4 97.63,190.27 97.63,190.14 97.63,190.01 97.63,189.88 97.63,189.75 97.63,189.62 97.63,189.49 97.63,189.36 97.63,189.23 97.63,189.1 97.63,188.97 97.63,188.84 97.63,188.7 97.63,188.58 97.63,188.44 97.63,188.31 97.63,188.18 97.63,188.05 97.63,187.92 97.63,187.79 97.63,187.66 97.63,187.53 97.63,187.4 97.63,187.27 97.63,187.14 97.63,187.01 97.63,186.88 97.63,186.75 97.63,186.62 97.63,186.49 97.63,186.36 97.63,186.23 97.63,186.1 97.63,185.97 97.63,185.84 97.63,185.7 97.63,185.58 97.63,185.44 97.63,185.31 97.63,185.18 97.63,185.05 97.63,184.92 97.63,184.79 97.63,184.66 97.63,184.53 97.63,184.4 97.63,184.27 97.63,184.14 97.63,184.01 97.63,183.88 97.63,183.75 97.63,183.62 97.63,183.49 97.63,183.36 97.63,183.23 97.63,183.09 97.63,182.97 97.63,182.83 97.63,182.7 97.63,182.57 97.63,182.44 97.63,182.31 97.63,182.18 97.63,182.05 97.63,181.92 97.63,181.79 97.63,181.66 97.63,181.53 97.63,181.4 97.63,181.27 97.63,181.14 97.63,181.01 97.63,180.88 97.63,180.75 97.63,180.62 97.63,180.49 97.63,180.36 97.63,180.23 97.63,180.09 97.63,179.97 97.63,179.83 97.63,179.7 97.63,179.57 97.63,179.44 97.63,179.31 97.63,179.18 97.63,179.05 97.63,178.92 97.63,178.79 97.63,178.66 97.63,178.53 97.63,178.4 97.63,178.27 97.63,178.14 97.63,178.01 97.63,177.88 97.63,177.75 97.63,177.62 97.63,177.49 97.63,177.36 97.63,177.23 97.63,177.09 97.63,176.97 97.63,176.83 97.63,176.7 97.63,176.57 97.63,176.44 97.63,176.31 97.63,176.18 97.63,176.05 97.63,175.92 97.63,175.79 97.63,175.66 97.63,175.53 97.63,175.4 97.63,175.27 97.63,175.14 97.63,175.01 97.63,174.88 97.63,174.74 97.63,174.62 97.63,174.48 97.63,174.36 97.63,174.22 97.63,174.09 97.63,173.96 97.63,173.83 97.63,173.7 97.63,173.57 97.63,173.44 97.63,173.31 97.63,173.18 97.63,173.05 97.63,172.92 97.63,172.79 97.63,172.66 97.63,172.53 97.63,172.4 97.63,172.27 97.63,172.14 97.63,172.01 97.63,171.88 97.63,171.74 97.63,171.62 97.63,171.48 97.63,171.35 97.63,171.22 97.63,171.09 97.63,170.96 97.63,170.83 97.63,170.7 97.63,170.57 97.63,170.44 97.64,170.31 97.64,170.18 97.64,170.05 97.64,169.92 97.64,169.79 97.64,169.66 97.64,169.53 97.64,169.4 97.64,169.27 97.64,169.13 97.64,169.01 97.64,168.87 97.64,168.74 97.64,168.62 97.64,168.48 97.64,168.35 97.64,168.22 97.64,168.09 97.64,167.96 97.64,167.83 97.64,167.7 97.64,167.57 97.64,167.44 97.64,167.31 97.64,167.18 97.64,167.05 97.64,166.92 97.64,166.79 97.64,166.66 97.64,166.53 97.64,166.4 97.64,166.27 97.64,166.13 97.64,166.01 97.64,165.87 97.64,165.74 97.64,165.61 97.64,165.48 97.64,165.35 97.64,165.22 97.64,165.09 97.64,164.96 97.64,164.83 97.64,164.7 97.64,164.57 97.64,164.44 97.64,164.31 97.64,164.18 97.64,164.05 97.64,163.92 97.64,163.79 97.64,163.66 97.64,163.53 97.64,163.4 97.64,163.27 97.64,163.13 97.64,163.01 97.64,162.87 97.64,162.74 97.64,162.61 97.64,162.48 97.64,162.35 97.64,162.22 97.65,162.09 97.65,161.96 97.65,161.83 97.65,161.7 97.65,161.57 97.65,161.44 97.65,161.31 97.65,161.18 97.65,161.05 97.65,160.92 97.65,160.79 97.65,160.66 97.65,160.52 97.65,160.4 97.65,160.26 97.65,160.13 97.65,160.01 97.65,159.87 97.65,159.74 97.65,159.61 97.65,159.48 97.65,159.35 97.65,159.22 97.65,159.09 97.65,158.96 97.65,158.83 97.65,158.7 97.65,158.57 97.65,158.44 97.65,158.31 97.65,158.18 97.65,158.05 97.65,157.92 97.65,157.79 97.65,157.66 97.65,157.52 97.65,157.4 97.65,157.26 97.66,157.13 97.66,157 97.66,156.87 97.66,156.74 97.66,156.61 97.66,156.48 97.66,156.35 97.66,156.22 97.66,156.09 97.66,155.96 97.66,155.83 97.66,155.7 97.66,155.57 97.66,155.44 97.66,155.31 97.66,155.18 97.66,155.05 97.66,154.92 97.66,154.79 97.66,154.66 97.66,154.52 97.66,154.4 97.66,154.26 97.66,154.13 97.66,154 97.66,153.87 97.66,153.74 97.66,153.61 97.66,153.48 97.66,153.35 97.66,153.22 97.66,153.09 97.66,152.96 97.66,152.83 97.66,152.7 97.66,152.57 97.67,152.44 97.67,152.31 97.67,152.17 97.67,152.05 97.67,151.91 97.67,151.78 97.67,151.65 97.67,151.52 97.67,151.4 97.67,151.26 97.67,151.13 97.67,151 97.67,150.87 97.67,150.74 97.67,150.61 97.67,150.48 97.67,150.35 97.67,150.22 97.67,150.09 97.67,149.96 97.68,149.83 97.68,149.7 97.68,149.57 97.68,149.44 97.68,149.31 97.68,149.17 97.68,149.05 97.68,148.91 97.68,148.79 97.68,148.65 97.68,148.52 97.68,148.39 97.68,148.26 97.68,148.13 97.68,148 97.68,147.87 97.68,147.74 97.69,147.61 97.69,147.48 97.69,147.35 97.69,147.22 97.69,147.09 97.69,146.96 97.69,146.83 97.69,146.7 97.69,146.57 97.69,146.44 97.69,146.31 97.69,146.17 97.69,146.05 97.69,145.91 97.7,145.78 97.7,145.65 97.7,145.52 97.7,145.39 97.7,145.26 97.7,145.13 97.7,145 97.7,144.87 97.7,144.74 97.7,144.61 97.7,144.48 97.7,144.35 97.7,144.22 97.71,144.09 97.71,143.96 97.71,143.83 97.71,143.7 97.71,143.56 97.71,143.44 97.71,143.3 97.71,143.17 97.71,143.04 97.71,142.91 97.71,142.78 97.71,142.65 97.71,142.52 97.71,142.39 97.71,142.26 97.72,142.13 97.72,142 97.72,141.87 97.72,141.74 97.72,141.61 97.72,141.48 97.72,141.35 97.72,141.22 97.72,141.09 97.73,140.96 97.73,140.83 97.73,140.7 97.73,140.56 97.73,140.44 97.73,140.3 97.73,140.17 97.73,140.04 97.73,139.91 97.74,139.78 97.74,139.65 97.74,139.52 97.74,139.39 97.74,139.26 97.74,139.13 97.74,139 97.74,138.87 97.75,138.74 97.75,138.61 97.75,138.48 97.75,138.35 97.75,138.22 97.75,138.09 97.75,137.96 97.75,137.83 97.76,137.7 97.76,137.56 97.76,137.44 97.76,137.3 97.76,137.17 97.76,137.04 97.76,136.91 97.76,136.78 97.76,136.65 97.77,136.52 97.77,136.39 97.77,136.26 97.77,136.13 97.77,136 97.77,135.87 97.78,135.74 97.78,135.61 97.78,135.48 97.78,135.35 97.78,135.22 97.78,135.09 97.79,134.95 97.79,134.83 97.79,134.69 97.79,134.56 97.79,134.43 97.79,134.3 97.8,134.17 97.8,134.04 97.8,133.91 97.8,133.78 97.8,133.65 97.81,133.52 97.81,133.39 97.81,133.26 97.81,133.13 97.81,133 97.81,132.87 97.82,132.74 97.82,132.61 97.82,132.48 97.82,132.35 97.82,132.22 97.82,132.09 97.83,131.95 97.83,131.83 97.83,131.69 97.83,131.56 97.83,131.43 97.84,131.3 97.84,131.17 97.84,131.04 97.84,130.91 97.85,130.78 97.85,130.65 97.85,130.52 97.85,130.39 97.86,130.26 97.86,130.13 97.86,130 97.86,129.87 97.87,129.74 97.87,129.61 97.87,129.48 97.87,129.35 97.88,129.21 97.88,129.09 97.88,128.95 97.88,128.82 97.88,128.69 97.89,128.56 97.89,128.43 97.89,128.3 97.9,128.17 97.9,128.04 97.9,127.91 97.9,127.78 97.91,127.65 97.91,127.52 97.91,127.39 97.92,127.26 97.92,127.13 97.92,127 97.93,126.87 97.93,126.74 97.93,126.6 97.93,126.48 97.94,126.34 97.94,126.21 97.94,126.08 97.95,125.95 97.95,125.82 97.95,125.69 97.96,125.56 97.96,125.43 97.96,125.3 97.97,125.17 97.97,125.04 97.97,124.91 97.98,124.78 97.98,124.65 97.99,124.52 97.99,124.39 97.99,124.26 97.99,124.13 98,124 98,123.87 98.01,123.74 98.01,123.6 98.01,123.48 98.02,123.34 98.02,123.21 98.03,123.08 98.03,122.95 98.03,122.82 98.04,122.69 98.04,122.56 98.04,122.43 98.05,122.3 98.05,122.17 98.06,122.04 98.06,121.91 98.07,121.78 98.07,121.65 98.08,121.52 98.08,121.39 98.09,121.26 98.09,121.13 98.1,121 98.1,120.87 98.1,120.74 98.11,120.6 98.11,120.48 98.12,120.34 98.12,120.21 98.13,120.08 98.14,119.95 98.14,119.82 98.15,119.69 98.15,119.56 98.15,119.43 98.16,119.3 98.17,119.17 98.17,119.04 98.18,118.91 98.18,118.78 98.19,118.65 98.19,118.52 98.2,118.39 98.21,118.26 98.21,118.13 98.22,117.99 98.22,117.87 98.23,117.73 98.24,117.6 98.24,117.47 98.25,117.34 98.26,117.21 98.26,117.08 98.27,116.95 98.27,116.82 98.28,116.69 98.29,116.56 98.29,116.43 98.3,116.3 98.31,116.17 98.31,116.04 98.32,115.91 98.33,115.78 98.33,115.65 98.34,115.52 98.35,115.39 98.36,115.26 98.36,115.13 98.37,114.99 98.38,114.87 98.38,114.73 98.39,114.6 98.4,114.47 98.41,114.34 98.42,114.21 98.43,114.08 98.43,113.95 98.44,113.82 98.45,113.69 98.46,113.56 98.47,113.43 98.48,113.3 98.48,113.17 98.49,113.04 98.5,112.91 98.51,112.78 98.52,112.65 98.53,112.52 98.54,112.38 98.54,112.26 98.55,112.13 98.56,111.99 98.57,111.87 98.58,111.73 98.59,111.6 98.6,111.47 98.61,111.34 98.62,111.21 98.63,111.08 98.64,110.95 98.65,110.82 98.66,110.69 98.67,110.56 98.68,110.43 98.7,110.3 98.71,110.17 98.72,110.04 98.73,109.91 98.74,109.78 98.75,109.65 98.76,109.52 98.77,109.38 98.78,109.26 98.8,109.12 98.81,108.99 98.82,108.86 98.83,108.73 98.84,108.6 98.86,108.47 98.87,108.34 98.88,108.21 98.89,108.08 98.91,107.95 98.92,107.82 98.93,107.69 98.94,107.56 98.96,107.43 98.97,107.3 98.99,107.17 99,107.04 99.01,106.91 99.03,106.78 99.04,106.65 99.05,106.52 99.07,106.38 99.08,106.26 99.1,106.12 99.11,105.99 99.13,105.86 99.14,105.73 99.16,105.6 99.17,105.47 99.19,105.34 99.21,105.21 99.22,105.08 99.24,104.95 99.25,104.82 99.27,104.69 99.29,104.56 99.3,104.43 99.32,104.3 99.34,104.17 99.35,104.03 99.37,103.91 99.39,103.77 99.41,103.64 99.43,103.52 99.44,103.38 99.46,103.25 99.48,103.12 99.5,102.99 99.52,102.86 99.54,102.73 99.55,102.6 99.58,102.47 99.6,102.34 99.61,102.21 99.63,102.08 99.65,101.95 99.67,101.82 99.7,101.69 99.72,101.56 99.74,101.43 99.76,101.3 99.78,101.17 99.8,101.03 99.82,100.91 99.85,100.77 99.87,100.64 99.89,100.51 99.91,100.38 99.94,100.25 99.96,100.12 99.98,99.99 100.01,99.86 100.03,99.73 100.05,99.6 100.08,99.47 100.1,99.34 100.13,99.21 100.15,99.08 100.18,98.95 100.21,98.82 100.23,98.69 100.26,98.56 100.28,98.43 100.31,98.3 100.34,98.17 100.37,98.03 100.39,97.91 100.42,97.77 100.45,97.64 100.48,97.51 100.51,97.38 100.54,97.25 100.56,97.12 100.59,96.99 100.62,96.86 100.66,96.73 100.68,96.6 100.71,96.47 100.75,96.34 100.78,96.21 100.81,96.08 100.84,95.95 100.87,95.82 100.91,95.69 100.94,95.56 100.97,95.42 101.01,95.3 101.04,95.16 101.07,95.03 101.11,94.91 101.14,94.77 101.18,94.64 101.21,94.51 101.25,94.38 101.29,94.25 101.33,94.12 101.36,93.99 101.4,93.86 101.44,93.73 101.48,93.6 101.51,93.47 101.55,93.34 101.59,93.21 101.63,93.08 101.67,92.95 101.71,92.82 101.76,92.69 101.8,92.56 101.84,92.42 101.88,92.3 101.92,92.16 101.97,92.03 102.01,91.9 102.05,91.77 102.1,91.64 102.14,91.51 102.19,91.38 102.23,91.25 102.28,91.12 102.33,90.99 102.38,90.86 102.42,90.73 102.47,90.6 102.52,90.47 102.57,90.34 102.62,90.21 102.67,90.08 102.72,89.95 102.77,89.82 102.82,89.69 102.88,89.56 102.93,89.42 102.98,89.3 103.04,89.16 103.09,89.03 103.15,88.9 103.2,88.77 103.26,88.64 103.31,88.51 103.37,88.38 103.43,88.25 103.49,88.12 103.55,87.99 103.6,87.86 103.66,87.73 103.72,87.6 103.79,87.47 103.85,87.34 103.91,87.21 103.97,87.08 104.04,86.95 104.1,86.81 104.17,86.69 104.23,86.55 104.3,86.42 104.37,86.3 104.44,86.16 104.5,86.03 104.57,85.9 104.64,85.77 104.71,85.64 104.78,85.51 104.86,85.38 104.93,85.25 105,85.12 105.08,84.99 105.15,84.86 105.23,84.73 105.3,84.6 105.38,84.47 105.46,84.34 105.54,84.21 105.62,84.08 105.7,83.95 105.78,83.81 105.86,83.69 105.94,83.55 106.03,83.42 106.11,83.29 106.2,83.16 106.28,83.03 106.37,82.9 106.46,82.77 106.55,82.64 106.64,82.51 106.72,82.38 106.82,82.25 106.91,82.12 107,81.99 107.1,81.86 107.19,81.73 107.29,81.6 107.38,81.47 107.48,81.34 107.58,81.21 107.68,81.07 107.78,80.95 107.88,80.81 107.99,80.68 108.09,80.55 108.2,80.42 108.31,80.29 108.41,80.16 108.52,80.03 108.63,79.9 108.74,79.77 108.85,79.64 108.97,79.51 109.08,79.38 109.19,79.25 109.31,79.12 109.43,78.99 109.55,78.86 109.67,78.73 109.79,78.6 109.91,78.46 110.03,78.34 110.16,78.2 110.28,78.07 110.41,77.94 110.54,77.81 110.67,77.68 110.8,77.55 110.93,77.42 111.07,77.29 111.2,77.16 111.34,77.03 111.48,76.9 111.61,76.77 111.76,76.64 111.9,76.51 112.04,76.38 112.19,76.25 112.33,76.12 112.48,75.99 112.63,75.86 112.78,75.73 112.93,75.6 113.09,75.46 113.24,75.34 113.4,75.2 113.56,75.07 113.72,74.94 113.88,74.81 114.04,74.68 114.21,74.55 114.38,74.42 114.54,74.29 114.71,74.16 114.89,74.03 115.06,73.9 115.23,73.77 115.41,73.64 115.59,73.51 115.77,73.38 115.95,73.25 116.14,73.12 116.32,72.99 116.51,72.86 116.7,72.73 116.89,72.6 117.09,72.46 117.28,72.34 117.48,72.2 117.68,72.07 117.88,71.94 118.08,71.81 118.29,71.68 118.5,71.55 118.71,71.42 118.92,71.29 119.13,71.16 119.35,71.03 119.57,70.9 119.79,70.77 120.01,70.64 120.24,70.51 120.46,70.38 120.69,70.25 120.92,70.12 121.16,69.99 121.39,69.85 121.63,69.73 121.88,69.59 122.12,69.46 122.37,69.33 122.61,69.2 122.87,69.07 123.12,68.94 123.38,68.81 123.63,68.68 123.89,68.55 124.16,68.42 124.43,68.29 124.7,68.16 124.97,68.03 125.24,67.9 125.52,67.77 125.8,67.64 126.08,67.51 126.37,67.38 126.66,67.25 126.95,67.12 127.24,66.99 127.54,66.85 127.84,66.73 128.15,66.59 128.45,66.46 128.76,66.33 129.08,66.2 129.39,66.07 129.71,65.94 130.03,65.81 130.36,65.68 130.69,65.55 131.02,65.42 131.36,65.29 131.7,65.16 132.04,65.03 132.39,64.9 132.73,64.77 133.09,64.64 133.44,64.51 133.8,64.38 134.17,64.25 134.53,64.12 134.9,63.99 135.28,63.85 135.66,63.73 136.04,63.59 136.43,63.46 136.82,63.33 137.21,63.2 137.61,63.07 138.01,62.94 138.42,62.81 138.83,62.68 139.24,62.55 139.66,62.42 140.08,62.29 140.51,62.16 140.94,62.03 141.37,61.9 141.81,61.77 142.26,61.64 142.71,61.5 143.16,61.38 143.62,61.24 144.08,61.12 144.55,60.98 145.02,60.85 145.49,60.72 145.97,60.59 146.46,60.46 146.95,60.33 147.45,60.2 147.95,60.07 148.45,59.94 148.97,59.81 149.48,59.68 150,59.55 150.53,59.42 151.06,59.29 151.6,59.16 152.14,59.03 152.69,58.9 153.24,58.77 153.8,58.64 154.36,58.5 154.93,58.38 155.51,58.24 156.09,58.12 156.68,57.98 157.27,57.85 157.87,57.72 158.48,57.59 159.09,57.46 159.71,57.33 160.33,57.2 160.96,57.07 161.6,56.94 162.24,56.81 162.89,56.68 163.55,56.55 164.21,56.42 164.88,56.29 165.55,56.16 166.24,56.03 166.93,55.9 167.62,55.77 168.33,55.64 169.04,55.5 169.76,55.38 170.48,55.24 171.21,55.11 171.95,54.98 172.7,54.85 173.45,54.72 174.21,54.59 174.98,54.46 175.76,54.33 176.55,54.2 177.34,54.07 178.14,53.94 178.95,53.81 179.77,53.68 180.6,53.55 181.43,53.42 182.27,53.29 183.12,53.16 "/>
  <polyline class="fil2 str1" points="95.94,116.51 96.07,116.5 96.2,116.49 96.33,116.49 96.46,116.48 96.59,116.47 96.72,116.46 96.85,116.45 96.98,116.44 97.11,116.43 97.24,116.42 97.37,116.41 97.5,116.4 97.63,116.39 97.76,116.38 97.89,116.37 98.02,116.37 98.15,116.35 98.28,116.34 98.42,116.33 98.54,116.32 98.68,116.31 98.81,116.3 98.94,116.29 99.07,116.28 99.2,116.27 99.33,116.26 99.46,116.25 99.59,116.24 99.72,116.23 99.85,116.21 99.98,116.21 100.11,116.19 100.24,116.18 100.37,116.17 100.5,116.16 100.63,116.15 100.77,116.13 100.89,116.12 101.03,116.11 101.16,116.09 101.29,116.08 101.42,116.07 101.55,116.06 101.68,116.04 101.81,116.03 101.94,116.02 102.07,116 102.2,115.99 102.33,115.98 102.46,115.96 102.59,115.95 102.72,115.93 102.85,115.92 102.98,115.91 103.11,115.89 103.24,115.88 103.37,115.86 103.5,115.85 103.63,115.83 103.77,115.82 103.89,115.8 104.03,115.79 104.16,115.77 104.29,115.76 104.42,115.74 104.55,115.72 104.68,115.71 104.81,115.69 104.94,115.67 105.07,115.65 105.2,115.64 105.33,115.62 105.46,115.6 105.59,115.59 105.72,115.57 105.85,115.55 105.98,115.53 106.11,115.52 106.24,115.5 106.37,115.48 106.5,115.46 106.63,115.44 106.77,115.42 106.89,115.4 107.03,115.38 107.16,115.36 107.29,115.34 107.42,115.32 107.55,115.3 107.68,115.28 107.81,115.26 107.94,115.24 108.07,115.22 108.2,115.2 108.33,115.17 108.46,115.15 108.59,115.13 108.72,115.11 108.85,115.09 108.98,115.06 109.11,115.04 109.24,115.02 109.38,114.99 109.5,114.97 109.64,114.94 109.77,114.92 109.9,114.9 110.03,114.87 110.16,114.85 110.29,114.82 110.42,114.8 110.55,114.77 110.68,114.75 110.81,114.72 110.94,114.69 111.07,114.66 111.2,114.64 111.33,114.61 111.46,114.58 111.59,114.56 111.72,114.53 111.85,114.5 111.98,114.47 112.11,114.44 112.24,114.41 112.38,114.38 112.5,114.35 112.64,114.32 112.77,114.29 112.9,114.26 113.03,114.23 113.16,114.2 113.29,114.17 113.42,114.14 113.55,114.1 113.68,114.07 113.81,114.04 113.94,114 114.07,113.97 114.2,113.94 114.33,113.9 114.46,113.87 114.59,113.83 114.72,113.8 114.85,113.76 114.98,113.72 115.11,113.69 115.24,113.65 115.38,113.61 115.5,113.58 115.64,113.54 115.77,113.5 115.9,113.46 116.03,113.42 116.16,113.38 116.29,113.34 116.42,113.3 116.55,113.26 116.68,113.22 116.81,113.18 116.94,113.14 117.07,113.09 117.2,113.05 117.33,113.01 117.46,112.97 117.59,112.92 117.73,112.88 117.85,112.83 117.99,112.79 118.11,112.74 118.25,112.7 118.38,112.65 118.51,112.6 118.64,112.55 118.77,112.5 118.9,112.46 119.03,112.41 119.16,112.36 119.29,112.31 119.42,112.26 119.55,112.2 119.68,112.15 119.81,112.1 119.94,112.05 120.07,111.99 120.2,111.94 120.33,111.89 120.46,111.83 120.59,111.78 120.72,111.72 120.85,111.66 120.99,111.61 121.11,111.55 121.25,111.49 121.38,111.43 121.51,111.37 121.64,111.31 121.77,111.25 121.9,111.19 122.03,111.13 122.16,111.07 122.29,111 122.42,110.94 122.55,110.87 122.68,110.81 122.81,110.74 122.94,110.68 123.07,110.61 123.2,110.54 123.33,110.47 123.46,110.4 123.59,110.33 123.73,110.26 123.85,110.19 123.99,110.12 124.12,110.05 124.25,109.98 124.38,109.9 124.51,109.82 124.64,109.75 124.77,109.67 124.9,109.6 125.03,109.52 125.16,109.44 125.29,109.36 125.42,109.28 125.55,109.2 125.68,109.12 125.81,109.04 125.94,108.95 126.07,108.87 126.2,108.78 126.34,108.7 126.46,108.61 126.6,108.52 126.73,108.43 126.86,108.34 126.99,108.25 127.12,108.16 127.25,108.07 127.38,107.97 127.51,107.88 127.64,107.78 127.77,107.69 127.9,107.59 128.03,107.49 128.16,107.39 128.29,107.29 128.42,107.19 128.55,107.09 128.68,106.99 128.81,106.88 128.94,106.78 129.07,106.67 129.2,106.56 129.34,106.46 129.46,106.35 129.6,106.24 129.73,106.12 129.86,106.01 129.99,105.9 130.12,105.78 130.25,105.67 130.38,105.55 130.51,105.43 130.64,105.31 130.77,105.19 130.9,105.07 131.03,104.94 131.16,104.82 131.29,104.69 131.42,104.57 131.55,104.44 131.68,104.31 131.81,104.18 131.94,104.04 132.07,103.91 132.2,103.77 132.34,103.64 132.46,103.5 132.6,103.36 132.73,103.22 132.86,103.08 132.99,102.93 133.12,102.79 133.25,102.64 133.38,102.49 133.51,102.35 133.64,102.2 133.77,102.04 133.9,101.89 134.03,101.73 134.16,101.58 134.29,101.42 134.42,101.26 134.55,101.1 134.68,100.93 134.81,100.77 134.95,100.6 135.07,100.43 135.21,100.26 135.34,100.09 135.47,99.92 135.6,99.74 135.73,99.57 135.86,99.39 135.99,99.2 136.12,99.02 136.25,98.84 136.38,98.65 136.51,98.47 136.64,98.28 136.77,98.09 136.9,97.89 137.03,97.7 137.16,97.5 137.29,97.3 137.42,97.09 137.55,96.89 137.68,96.69 137.81,96.48 137.95,96.27 138.07,96.06 138.21,95.84 138.34,95.63 138.47,95.41 138.6,95.19 138.73,94.97 138.86,94.74 138.99,94.51 139.12,94.28 139.25,94.05 139.38,93.82 139.51,93.58 139.64,93.34 139.77,93.1 139.9,92.86 140.03,92.61 140.16,92.36 140.29,92.11 140.42,91.86 140.55,91.6 140.68,91.34 140.81,91.08 140.95,90.82 141.07,90.55 141.21,90.28 141.34,90.01 141.47,89.74 141.6,89.46 141.73,89.18 141.86,88.89 141.99,88.61 142.12,88.32 142.25,88.02 142.38,87.73 142.51,87.43 142.64,87.13 142.77,86.83 142.9,86.52 143.03,86.21 143.16,85.9 143.3,85.58 143.42,85.26 143.56,84.94 143.68,84.62 143.82,84.29 143.95,83.96 144.08,83.62 144.21,83.28 144.34,82.94 144.47,82.59 144.6,82.24 144.73,81.89 144.86,81.53 144.99,81.17 145.12,80.81 145.25,80.44 145.38,80.07 145.51,79.7 145.64,79.32 145.77,78.94 145.9,78.55 146.03,78.16 146.16,77.77 146.3,77.37 146.42,76.97 146.56,76.56 146.69,76.15 146.82,75.73 146.95,75.32 147.08,74.9 147.21,74.47 147.34,74.04 147.47,73.6 147.6,73.16 147.73,72.72 147.86,72.27 147.99,71.82 148.12,71.36 148.25,70.9 148.38,70.43 148.51,69.96 148.64,69.48 148.77,69 148.91,68.51 149.03,68.02 149.16,67.53 149.3,67.03 149.42,66.52 149.56,66.01 149.69,65.5 149.82,64.97 149.95,64.45 150.08,63.92 150.21,63.38 150.34,62.84 150.47,62.29 150.6,61.73 150.73,61.18 150.86,60.61 150.99,60.04 151.12,59.47 151.25,58.89 151.38,58.3 151.51,57.7 151.64,57.1 151.77,56.5 151.91,55.89 152.03,55.27 152.17,54.65 152.3,54.01 152.43,53.38 152.56,52.73 152.69,52.09 152.82,51.43 152.95,50.77 153.08,50.1 153.21,49.42 153.34,48.74 153.47,48.05 153.6,47.35 153.73,46.65 153.86,45.94 153.99,45.22 154.12,44.49 154.25,43.77 154.38,43.02 154.51,42.28 154.64,41.52 154.77,40.76 154.91,39.99 155.03,39.21 155.17,38.43 155.3,37.64 155.43,36.83 155.56,36.03 155.69,35.21 155.82,34.38 155.95,33.55 156.08,32.71 156.21,31.86 156.34,30.99 156.47,30.13 156.6,29.25 156.73,28.37 156.86,27.47 156.99,26.57 157.12,25.65 157.25,24.73 157.38,23.8 157.52,22.86 157.61,22.16 "/>
  <polyline class="fil2 str1" points="98.14,116.43 98.01,116.42 97.88,116.41 97.75,116.4 97.61,116.39 97.49,116.38 97.35,116.37 97.22,116.37 97.09,116.35 96.96,116.34 96.83,116.33 96.7,116.32 96.57,116.31 96.44,116.3 96.31,116.29 96.18,116.28 96.05,116.27 95.92,116.26 95.79,116.25 95.66,116.24 95.53,116.23 95.4,116.21 95.26,116.21 95.14,116.19 95,116.18 94.87,116.17 94.74,116.16 94.61,116.15 94.48,116.13 94.35,116.12 94.22,116.11 94.09,116.09 93.96,116.08 93.83,116.07 93.7,116.06 93.57,116.04 93.44,116.03 93.31,116.02 93.18,116 93.05,115.99 92.92,115.98 92.79,115.96 92.66,115.95 92.53,115.93 92.4,115.92 92.26,115.91 92.14,115.89 92,115.88 91.87,115.86 91.74,115.85 91.61,115.83 91.48,115.82 91.35,115.8 91.22,115.79 91.09,115.77 90.96,115.76 90.83,115.74 90.7,115.72 90.57,115.71 90.44,115.69 90.31,115.67 90.18,115.65 90.05,115.64 89.92,115.62 89.79,115.6 89.65,115.59 89.53,115.57 89.4,115.55 89.26,115.53 89.14,115.52 89,115.5 88.87,115.48 88.74,115.46 88.61,115.44 88.48,115.42 88.35,115.4 88.22,115.38 88.09,115.36 87.96,115.34 87.83,115.32 87.7,115.3 87.57,115.28 87.44,115.26 87.31,115.24 87.18,115.22 87.05,115.2 86.92,115.17 86.79,115.15 86.65,115.13 86.53,115.11 86.39,115.09 86.26,115.06 86.13,115.04 86,115.02 85.87,114.99 85.74,114.97 85.61,114.94 85.48,114.92 85.35,114.9 85.22,114.87 85.09,114.85 84.96,114.82 84.83,114.8 84.7,114.77 84.57,114.75 84.44,114.72 84.31,114.69 84.18,114.66 84.05,114.64 83.92,114.61 83.79,114.58 83.65,114.56 83.53,114.53 83.39,114.5 83.26,114.47 83.13,114.44 83,114.41 82.87,114.38 82.74,114.35 82.61,114.32 82.48,114.29 82.35,114.26 82.22,114.23 82.09,114.2 81.96,114.17 81.83,114.14 81.7,114.1 81.57,114.07 81.44,114.04 81.31,114 81.18,113.97 81.04,113.94 80.92,113.9 80.79,113.87 80.65,113.83 80.53,113.8 80.39,113.76 80.26,113.72 80.13,113.69 80,113.65 79.87,113.61 79.74,113.58 79.61,113.54 79.48,113.5 79.35,113.46 79.22,113.42 79.09,113.38 78.96,113.34 78.83,113.3 78.7,113.26 78.57,113.22 78.44,113.18 78.31,113.14 78.18,113.09 78.04,113.05 77.92,113.01 77.78,112.97 77.65,112.92 77.52,112.88 77.39,112.83 77.26,112.79 77.13,112.74 77,112.7 76.87,112.65 76.74,112.6 76.61,112.55 76.48,112.5 76.35,112.46 76.22,112.41 76.09,112.36 75.96,112.31 75.83,112.26 75.7,112.2 75.57,112.15 75.44,112.1 75.31,112.05 75.18,111.99 75.04,111.94 74.92,111.89 74.78,111.83 74.65,111.78 74.52,111.72 74.39,111.66 74.26,111.61 74.13,111.55 74,111.49 73.87,111.43 73.74,111.37 73.61,111.31 73.48,111.25 73.35,111.19 73.22,111.13 73.09,111.07 72.96,111 72.83,110.94 72.7,110.87 72.57,110.81 72.43,110.74 72.31,110.68 72.18,110.61 72.04,110.54 71.91,110.47 71.78,110.4 71.65,110.33 71.52,110.26 71.39,110.19 71.26,110.12 71.13,110.05 71,109.98 70.87,109.9 70.74,109.82 70.61,109.75 70.48,109.67 70.35,109.6 70.22,109.52 70.09,109.44 69.96,109.36 69.83,109.28 69.69,109.2 69.57,109.12 69.43,109.04 69.3,108.95 69.17,108.87 69.04,108.78 68.91,108.7 68.78,108.61 68.65,108.52 68.52,108.43 68.39,108.34 68.26,108.25 68.13,108.16 68,108.07 67.87,107.97 67.74,107.88 67.61,107.78 67.48,107.69 67.35,107.59 67.22,107.49 67.09,107.39 66.96,107.29 66.83,107.19 66.69,107.09 66.57,106.99 66.43,106.88 66.3,106.78 66.17,106.67 66.04,106.56 65.91,106.46 65.78,106.35 65.65,106.24 65.52,106.12 65.39,106.01 65.26,105.9 65.13,105.78 65,105.67 64.87,105.55 64.74,105.43 64.61,105.31 64.48,105.19 64.35,105.07 64.22,104.94 64.08,104.82 63.96,104.69 63.82,104.57 63.69,104.44 63.56,104.31 63.43,104.18 63.3,104.04 63.17,103.91 63.04,103.77 62.91,103.64 62.78,103.5 62.65,103.36 62.52,103.22 62.39,103.08 62.26,102.93 62.13,102.79 62,102.64 61.87,102.49 61.74,102.35 61.61,102.2 61.48,102.04 61.35,101.89 61.22,101.73 61.08,101.58 60.96,101.42 60.82,101.26 60.69,101.1 60.56,100.93 60.43,100.77 60.3,100.6 60.17,100.43 60.04,100.26 59.91,100.09 59.78,99.92 59.65,99.74 59.52,99.57 59.39,99.39 59.26,99.2 59.13,99.02 59,98.84 58.87,98.65 58.74,98.47 58.61,98.28 58.48,98.09 58.35,97.89 58.22,97.7 58.08,97.5 57.96,97.3 57.82,97.09 57.69,96.89 57.56,96.69 57.43,96.48 57.3,96.27 57.17,96.06 57.04,95.84 56.91,95.63 56.78,95.41 56.65,95.19 56.52,94.97 56.39,94.74 56.26,94.51 56.13,94.28 56,94.05 55.87,93.82 55.74,93.58 55.61,93.34 55.47,93.1 55.35,92.86 55.21,92.61 55.08,92.36 54.95,92.11 54.82,91.86 54.69,91.6 54.56,91.34 54.43,91.08 54.3,90.82 54.17,90.55 54.04,90.28 53.91,90.01 53.78,89.74 53.65,89.46 53.52,89.18 53.39,88.89 53.26,88.61 53.13,88.32 53,88.02 52.87,87.73 52.73,87.43 52.61,87.13 52.47,86.83 52.35,86.52 52.21,86.21 52.08,85.9 51.95,85.58 51.82,85.26 51.69,84.94 51.56,84.62 51.43,84.29 51.3,83.96 51.17,83.62 51.04,83.28 50.91,82.94 50.78,82.59 50.65,82.24 50.52,81.89 50.39,81.53 50.26,81.17 50.13,80.81 50,80.44 49.87,80.07 49.74,79.7 49.61,79.32 49.47,78.94 49.35,78.55 49.21,78.16 49.08,77.77 48.95,77.37 48.82,76.97 48.69,76.56 48.56,76.15 48.43,75.73 48.3,75.32 48.17,74.9 48.04,74.47 47.91,74.04 47.78,73.6 47.65,73.16 47.52,72.72 47.39,72.27 47.26,71.82 47.12,71.36 47,70.9 46.86,70.43 46.73,69.96 46.6,69.48 46.47,69 46.34,68.51 46.21,68.02 46.08,67.53 45.95,67.03 45.82,66.52 45.69,66.01 45.56,65.5 45.43,64.97 45.3,64.45 45.17,63.92 45.04,63.38 44.91,62.84 44.78,62.29 44.65,61.73 44.52,61.18 44.39,60.61 44.26,60.04 44.12,59.47 44,58.89 43.86,58.3 43.73,57.7 43.6,57.1 43.47,56.5 43.34,55.89 43.21,55.27 43.08,54.65 42.95,54.01 42.82,53.38 42.69,52.73 42.56,52.09 42.43,51.43 42.3,50.77 42.17,50.1 42.04,49.42 41.91,48.74 41.78,48.05 41.65,47.35 41.52,46.65 41.39,45.94 41.26,45.22 41.12,44.49 41,43.77 40.86,43.02 40.73,42.28 40.6,41.52 40.47,40.76 40.34,39.99 40.21,39.21 40.08,38.43 39.95,37.64 39.82,36.83 39.69,36.03 39.56,35.21 39.43,34.38 39.3,33.55 39.17,32.71 39.04,31.86 38.91,30.99 38.78,30.13 38.65,29.25 38.51,28.37 38.39,27.47 38.25,26.57 38.12,25.65 37.99,24.73 37.86,23.8 37.73,22.86 37.63,22.13 "/>
  <polyline class="fil2 str1" points="97.62,194 97.62,193.92 97.62,193.79 97.62,193.66 97.62,193.53 97.62,193.4 97.62,193.27 97.62,193.14 97.62,193.01 97.62,192.88 97.62,192.75 97.62,192.62 97.62,192.49 97.62,192.36 97.62,192.23 97.62,192.1 97.62,191.97 97.62,191.84 97.62,191.7 97.62,191.58 97.62,191.44 97.62,191.31 97.62,191.18 97.62,191.05 97.62,190.92 97.62,190.79 97.62,190.66 97.62,190.53 97.62,190.4 97.62,190.27 97.62,190.14 97.62,190.01 97.62,189.88 97.62,189.75 97.62,189.62 97.62,189.49 97.62,189.36 97.62,189.23 97.62,189.1 97.62,188.97 97.62,188.84 97.62,188.7 97.62,188.58 97.62,188.44 97.62,188.31 97.62,188.18 97.62,188.05 97.62,187.92 97.62,187.79 97.62,187.66 97.62,187.53 97.62,187.4 97.62,187.27 97.62,187.14 97.62,187.01 97.62,186.88 97.62,186.75 97.62,186.62 97.62,186.49 97.62,186.36 97.62,186.23 97.62,186.1 97.62,185.97 97.62,185.84 97.62,185.7 97.62,185.58 97.62,185.44 97.62,185.31 97.62,185.18 97.62,185.05 97.62,184.92 97.62,184.79 97.62,184.66 97.62,184.53 97.62,184.4 97.62,184.27 97.62,184.14 97.62,184.01 97.62,183.88 97.62,183.75 97.62,183.62 97.62,183.49 97.62,183.36 97.62,183.23 97.62,183.09 97.62,182.97 97.62,182.83 97.62,182.7 97.62,182.57 97.62,182.44 97.62,182.31 97.62,182.18 97.62,182.05 97.62,181.92 97.62,181.79 97.62,181.66 97.62,181.53 97.62,181.4 97.62,181.27 97.62,181.14 97.62,181.01 97.62,180.88 97.62,180.75 97.62,180.62 97.62,180.49 97.62,180.36 97.62,180.23 97.62,180.09 97.62,179.97 97.62,179.83 97.62,179.7 97.62,179.57 97.62,179.44 97.62,179.31 97.62,179.18 97.62,179.05 97.62,178.92 97.62,178.79 97.62,178.66 97.62,178.53 97.62,178.4 97.62,178.27 97.62,178.14 97.62,178.01 97.62,177.88 97.62,177.75 97.62,177.62 97.62,177.49 97.62,177.36 97.62,177.23 97.62,177.09 97.62,176.97 97.62,176.83 97.62,176.7 97.62,176.57 97.62,176.44 97.62,176.31 97.62,176.18 97.62,176.05 97.62,175.92 97.62,175.79 97.62,175.66 97.62,175.53 97.62,175.4 97.62,175.27 97.62,175.14 97.62,175.01 97.61,174.88 97.61,174.74 97.61,174.62 97.61,174.48 97.61,174.36 97.61,174.22 97.61,174.09 97.61,173.96 97.61,173.83 97.61,173.7 97.61,173.57 97.61,173.44 97.61,173.31 97.61,173.18 97.61,173.05 97.61,172.92 97.61,172.79 97.61,172.66 97.61,172.53 97.61,172.4 97.61,172.27 97.61,172.14 97.61,172.01 97.61,171.88 97.61,171.74 97.61,171.62 97.61,171.48 97.61,171.35 97.61,171.22 97.61,171.09 97.61,170.96 97.61,170.83 97.61,170.7 97.61,170.57 97.61,170.44 97.61,170.31 97.61,170.18 97.61,170.05 97.61,169.92 97.61,169.79 97.61,169.66 97.61,169.53 97.61,169.4 97.61,169.27 97.61,169.13 97.61,169.01 97.61,168.87 97.61,168.74 97.61,168.62 97.61,168.48 97.61,168.35 97.61,168.22 97.61,168.09 97.61,167.96 97.61,167.83 97.61,167.7 97.61,167.57 97.61,167.44 97.61,167.31 97.61,167.18 97.61,167.05 97.61,166.92 97.61,166.79 97.61,166.66 97.61,166.53 97.61,166.4 97.61,166.27 97.61,166.13 97.61,166.01 97.61,165.87 97.61,165.74 97.61,165.61 97.61,165.48 97.61,165.35 97.61,165.22 97.61,165.09 97.61,164.96 97.61,164.83 97.61,164.7 97.61,164.57 97.61,164.44 97.6,164.31 97.6,164.18 97.6,164.05 97.6,163.92 97.6,163.79 97.6,163.66 97.6,163.53 97.6,163.4 97.6,163.27 97.6,163.13 97.6,163.01 97.6,162.87 97.6,162.74 97.6,162.61 97.6,162.48 97.6,162.35 97.6,162.22 97.6,162.09 97.6,161.96 97.6,161.83 97.6,161.7 97.6,161.57 97.6,161.44 97.6,161.31 97.6,161.18 97.6,161.05 97.6,160.92 97.6,160.79 97.6,160.66 97.6,160.52 97.6,160.4 97.6,160.26 97.6,160.13 97.6,160.01 97.6,159.87 97.6,159.74 97.6,159.61 97.6,159.48 97.6,159.35 97.6,159.22 97.6,159.09 97.6,158.96 97.6,158.83 97.6,158.7 97.6,158.57 97.6,158.44 97.6,158.31 97.6,158.18 97.6,158.05 97.6,157.92 97.6,157.79 97.6,157.66 97.6,157.52 97.6,157.4 97.6,157.26 97.59,157.13 97.59,157 97.59,156.87 97.59,156.74 97.59,156.61 97.59,156.48 97.59,156.35 97.59,156.22 97.59,156.09 97.59,155.96 97.59,155.83 97.59,155.7 97.59,155.57 97.59,155.44 97.59,155.31 97.59,155.18 97.59,155.05 97.59,154.92 97.59,154.79 97.59,154.66 97.59,154.52 97.59,154.4 97.59,154.26 97.59,154.13 97.59,154 97.59,153.87 97.59,153.74 97.59,153.61 97.58,153.48 97.58,153.35 97.58,153.22 97.58,153.09 97.58,152.96 97.58,152.83 97.58,152.7 97.58,152.57 97.58,152.44 97.58,152.31 97.58,152.17 97.58,152.05 97.58,151.91 97.58,151.78 97.58,151.65 97.58,151.52 97.58,151.4 97.58,151.26 97.58,151.13 97.58,151 97.58,150.87 97.58,150.74 97.57,150.61 97.57,150.48 97.57,150.35 97.57,150.22 97.57,150.09 97.57,149.96 97.57,149.83 97.57,149.7 97.57,149.57 97.57,149.44 97.57,149.31 97.57,149.17 97.57,149.05 97.57,148.91 97.57,148.79 97.57,148.65 97.57,148.52 97.57,148.39 97.56,148.26 97.56,148.13 97.56,148 97.56,147.87 97.56,147.74 97.56,147.61 97.56,147.48 97.56,147.35 97.56,147.22 97.56,147.09 97.56,146.96 97.56,146.83 97.56,146.7 97.56,146.57 97.56,146.44 97.55,146.31 97.55,146.17 97.55,146.05 97.55,145.91 97.55,145.78 97.55,145.65 97.55,145.52 97.55,145.39 97.55,145.26 97.55,145.13 97.55,145 97.55,144.87 97.55,144.74 97.54,144.61 97.54,144.48 97.54,144.35 97.54,144.22 97.54,144.09 97.54,143.96 97.54,143.83 97.54,143.7 97.54,143.56 97.54,143.44 97.54,143.3 97.54,143.17 97.54,143.04 97.54,142.91 97.54,142.78 97.53,142.65 97.53,142.52 97.53,142.39 97.53,142.26 97.53,142.13 97.53,142 97.53,141.87 97.53,141.74 97.53,141.61 97.53,141.48 97.52,141.35 97.52,141.22 97.52,141.09 97.52,140.96 97.52,140.83 97.52,140.7 97.52,140.56 97.52,140.44 97.52,140.3 97.51,140.17 97.51,140.04 97.51,139.91 97.51,139.78 97.51,139.65 97.51,139.52 97.51,139.39 97.51,139.26 97.51,139.13 97.5,139 97.5,138.87 97.5,138.74 97.5,138.61 97.5,138.48 97.5,138.35 97.5,138.22 97.49,138.09 97.49,137.96 97.49,137.83 97.49,137.7 97.49,137.56 97.49,137.44 97.49,137.3 97.49,137.17 97.49,137.04 97.49,136.91 97.48,136.78 97.48,136.65 97.48,136.52 97.48,136.39 97.48,136.26 97.48,136.13 97.47,136 97.47,135.87 97.47,135.74 97.47,135.61 97.47,135.48 97.47,135.35 97.46,135.22 97.46,135.09 97.46,134.95 97.46,134.83 97.46,134.69 97.46,134.56 97.45,134.43 97.45,134.3 97.45,134.17 97.45,134.04 97.45,133.91 97.45,133.78 97.44,133.65 97.44,133.52 97.44,133.39 97.44,133.26 97.44,133.13 97.43,133 97.43,132.87 97.43,132.74 97.43,132.61 97.43,132.48 97.43,132.35 97.42,132.22 97.42,132.09 97.42,131.95 97.42,131.83 97.42,131.69 97.41,131.56 97.41,131.43 97.41,131.3 97.41,131.17 97.4,131.04 97.4,130.91 97.4,130.78 97.4,130.65 97.4,130.52 97.39,130.39 97.39,130.26 97.39,130.13 97.39,130 97.38,129.87 97.38,129.74 97.38,129.61 97.38,129.48 97.38,129.35 97.37,129.21 97.37,129.09 97.37,128.95 97.37,128.82 97.36,128.69 97.36,128.56 97.36,128.43 97.35,128.3 97.35,128.17 97.35,128.04 97.35,127.91 97.34,127.78 97.34,127.65 97.34,127.52 97.33,127.39 97.33,127.26 97.33,127.13 97.32,127 97.32,126.87 97.32,126.74 97.32,126.6 97.31,126.48 97.31,126.34 97.31,126.21 97.3,126.08 97.3,125.95 97.3,125.82 97.29,125.69 97.29,125.56 97.29,125.43 97.28,125.3 97.28,125.17 97.28,125.04 97.27,124.91 97.27,124.78 97.27,124.65 97.26,124.52 97.26,124.39 97.26,124.26 97.25,124.13 97.25,124 97.25,123.87 97.24,123.74 97.24,123.6 97.23,123.48 97.23,123.34 97.22,123.21 97.22,123.08 97.22,122.95 97.21,122.82 97.21,122.69 97.21,122.56 97.2,122.43 97.2,122.3 97.19,122.17 97.19,122.04 97.18,121.91 97.18,121.78 97.17,121.65 97.17,121.52 97.16,121.39 97.16,121.26 97.16,121.13 97.15,121 97.15,120.87 97.14,120.74 97.14,120.6 97.13,120.48 97.13,120.34 97.12,120.21 97.12,120.08 97.11,119.95 97.11,119.82 97.1,119.69 97.1,119.56 97.09,119.43 97.09,119.3 97.08,119.17 97.08,119.04 97.07,118.91 97.06,118.78 97.06,118.65 97.05,118.52 97.05,118.39 97.04,118.26 97.04,118.13 97.03,117.99 97.02,117.87 97.02,117.73 97.01,117.6 97,117.47 97,117.34 96.99,117.21 96.99,117.08 96.98,116.95 96.97,116.82 96.97,116.69 96.96,116.56 96.95,116.43 96.95,116.3 96.94,116.17 96.93,116.04 96.93,115.91 96.92,115.78 96.91,115.65 96.91,115.52 96.9,115.39 96.89,115.26 96.88,115.13 96.87,114.99 96.87,114.87 96.86,114.73 96.85,114.6 96.85,114.47 96.84,114.34 96.83,114.21 96.82,114.08 96.82,113.95 96.81,113.82 96.8,113.69 96.79,113.56 96.78,113.43 96.77,113.3 96.77,113.17 96.76,113.04 96.75,112.91 96.74,112.78 96.73,112.65 96.72,112.52 96.71,112.38 96.7,112.26 96.69,112.13 96.68,111.99 96.67,111.87 96.66,111.73 96.65,111.6 96.65,111.47 96.64,111.34 96.62,111.21 96.61,111.08 96.6,110.95 96.6,110.82 96.58,110.69 96.57,110.56 96.56,110.43 96.55,110.3 96.54,110.17 96.53,110.04 96.52,109.91 96.51,109.78 96.5,109.65 96.49,109.52 96.48,109.38 96.46,109.26 96.45,109.12 96.44,108.99 96.43,108.86 96.42,108.73 96.4,108.6 96.39,108.47 96.38,108.34 96.37,108.21 96.35,108.08 96.34,107.95 96.33,107.82 96.32,107.69 96.3,107.56 96.29,107.43 96.27,107.3 96.26,107.17 96.25,107.04 96.23,106.91 96.22,106.78 96.21,106.65 96.19,106.52 96.18,106.38 96.16,106.26 96.15,106.12 96.13,105.99 96.12,105.86 96.1,105.73 96.09,105.6 96.07,105.47 96.06,105.34 96.04,105.21 96.03,105.08 96.01,104.95 95.99,104.82 95.98,104.69 95.96,104.56 95.94,104.43 95.93,104.3 95.91,104.17 95.89,104.03 95.88,103.91 95.86,103.77 95.84,103.64 95.82,103.52 95.8,103.38 95.79,103.25 95.77,103.12 95.75,102.99 95.73,102.86 95.71,102.73 95.69,102.6 95.67,102.47 95.65,102.34 95.63,102.21 95.61,102.08 95.59,101.95 95.57,101.82 95.55,101.69 95.53,101.56 95.51,101.43 95.49,101.3 95.47,101.17 95.44,101.03 95.42,100.91 95.4,100.77 95.38,100.64 95.36,100.51 95.33,100.38 95.31,100.25 95.29,100.12 95.26,99.99 95.24,99.86 95.21,99.73 95.19,99.6 95.17,99.47 95.14,99.34 95.12,99.21 95.09,99.08 95.07,98.95 95.04,98.82 95.02,98.69 94.99,98.56 94.96,98.43 94.93,98.3 94.91,98.17 94.88,98.03 94.85,97.91 94.83,97.77 94.8,97.64 94.77,97.51 94.74,97.38 94.71,97.25 94.68,97.12 94.65,96.99 94.62,96.86 94.59,96.73 94.56,96.6 94.53,96.47 94.5,96.34 94.47,96.21 94.44,96.08 94.41,95.95 94.37,95.82 94.34,95.69 94.31,95.56 94.27,95.42 94.24,95.3 94.21,95.16 94.17,95.03 94.14,94.91 94.1,94.77 94.07,94.64 94.03,94.51 93.99,94.38 93.96,94.25 93.92,94.12 93.88,93.99 93.85,93.86 93.81,93.73 93.77,93.6 93.73,93.47 93.69,93.34 93.65,93.21 93.61,93.08 93.57,92.95 93.53,92.82 93.49,92.69 93.45,92.56 93.41,92.42 93.37,92.3 93.32,92.16 93.28,92.03 93.24,91.9 93.19,91.77 93.15,91.64 93.1,91.51 93.06,91.38 93.01,91.25 92.97,91.12 92.92,90.99 92.87,90.86 92.82,90.73 92.77,90.6 92.73,90.47 92.68,90.34 92.63,90.21 92.58,90.08 92.53,89.95 92.48,89.82 92.43,89.69 92.37,89.56 92.32,89.42 92.26,89.3 92.21,89.16 92.16,89.03 92.1,88.9 92.05,88.77 91.99,88.64 91.93,88.51 91.88,88.38 91.82,88.25 91.76,88.12 91.7,87.99 91.64,87.86 91.58,87.73 91.52,87.6 91.46,87.47 91.4,87.34 91.34,87.21 91.27,87.08 91.21,86.95 91.15,86.81 91.08,86.69 91.01,86.55 90.95,86.42 90.88,86.3 90.81,86.16 90.74,86.03 90.67,85.9 90.6,85.77 90.54,85.64 90.46,85.51 90.39,85.38 90.32,85.25 90.25,85.12 90.17,84.99 90.09,84.86 90.02,84.73 89.94,84.6 89.87,84.47 89.79,84.34 89.71,84.21 89.63,84.08 89.55,83.95 89.47,83.81 89.39,83.69 89.31,83.55 89.22,83.42 89.14,83.29 89.05,83.16 88.97,83.03 88.88,82.9 88.79,82.77 88.7,82.64 88.61,82.51 88.52,82.38 88.43,82.25 88.34,82.12 88.24,81.99 88.15,81.86 88.05,81.73 87.96,81.6 87.86,81.47 87.76,81.34 87.66,81.21 87.56,81.07 87.46,80.95 87.36,80.81 87.26,80.68 87.15,80.55 87.05,80.42 86.94,80.29 86.83,80.16 86.73,80.03 86.62,79.9 86.51,79.77 86.39,79.64 86.28,79.51 86.17,79.38 86.05,79.25 85.94,79.12 85.82,78.99 85.7,78.86 85.58,78.73 85.46,78.6 85.34,78.46 85.21,78.34 85.09,78.2 84.96,78.07 84.84,77.94 84.71,77.81 84.58,77.68 84.45,77.55 84.31,77.42 84.18,77.29 84.04,77.16 83.91,77.03 83.77,76.9 83.63,76.77 83.49,76.64 83.35,76.51 83.2,76.38 83.06,76.25 82.91,76.12 82.76,75.99 82.62,75.86 82.47,75.73 82.31,75.6 82.16,75.46 82,75.34 81.85,75.2 81.69,75.07 81.53,74.94 81.37,74.81 81.2,74.68 81.04,74.55 80.87,74.42 80.7,74.29 80.53,74.16 80.36,74.03 80.19,73.9 80.01,73.77 79.84,73.64 79.66,73.51 79.48,73.38 79.29,73.25 79.11,73.12 78.92,72.99 78.74,72.86 78.55,72.73 78.36,72.6 78.16,72.46 77.97,72.34 77.77,72.2 77.57,72.07 77.36,71.94 77.16,71.81 76.96,71.68 76.75,71.55 76.54,71.42 76.33,71.29 76.11,71.16 75.9,71.03 75.68,70.9 75.46,70.77 75.24,70.64 75.01,70.51 74.78,70.38 74.55,70.25 74.32,70.12 74.09,69.99 73.85,69.85 73.61,69.73 73.37,69.59 73.13,69.46 72.88,69.33 72.63,69.2 72.38,69.07 72.13,68.94 71.87,68.81 71.61,68.68 71.35,68.55 71.09,68.42 70.82,68.29 70.55,68.16 70.28,68.03 70.01,67.9 69.73,67.77 69.45,67.64 69.16,67.51 68.88,67.38 68.59,67.25 68.3,67.12 68,66.99 67.7,66.85 67.4,66.73 67.1,66.59 66.79,66.46 66.48,66.33 66.17,66.2 65.85,66.07 65.53,65.94 65.21,65.81 64.89,65.68 64.56,65.55 64.23,65.42 63.89,65.29 63.55,65.16 63.21,65.03 62.86,64.9 62.51,64.77 62.16,64.64 61.8,64.51 61.44,64.38 61.08,64.25 60.71,64.12 60.34,63.99 59.97,63.85 59.59,63.73 59.21,63.59 58.82,63.46 58.43,63.33 58.04,63.2 57.64,63.07 57.24,62.94 56.83,62.81 56.42,62.68 56.01,62.55 55.59,62.42 55.17,62.29 54.74,62.16 54.31,62.03 53.87,61.9 53.43,61.77 52.99,61.64 52.54,61.5 52.09,61.38 51.63,61.24 51.17,61.12 50.7,60.98 50.23,60.85 49.75,60.72 49.27,60.59 48.79,60.46 48.29,60.33 47.8,60.2 47.3,60.07 46.79,59.94 46.28,59.81 45.77,59.68 45.24,59.55 44.72,59.42 44.19,59.29 43.65,59.16 43.11,59.03 42.56,58.9 42.01,58.77 41.45,58.64 40.88,58.5 40.31,58.38 39.74,58.24 39.16,58.12 38.57,57.98 37.97,57.85 37.37,57.72 36.77,57.59 36.16,57.46 35.54,57.33 34.92,57.2 34.28,57.07 33.65,56.94 33,56.81 32.36,56.68 31.7,56.55 31.04,56.42 30.37,56.29 29.69,56.16 29.01,56.03 28.32,55.9 27.62,55.77 26.92,55.64 26.21,55.5 25.49,55.38 24.77,55.24 24.04,55.11 23.29,54.98 22.55,54.85 21.79,54.72 21.03,54.59 20.26,54.46 19.49,54.33 18.7,54.2 17.91,54.07 17.1,53.94 16.3,53.81 15.48,53.68 14.65,53.55 13.82,53.42 12.98,53.29 12.13,53.16 "/>
  <polyline class="fil2 str1" points="98.31,117.37 98.32,117.5 98.32,117.63 98.33,117.76 98.34,117.89 98.34,118.02 98.35,118.15 98.36,118.28 98.36,118.41 98.37,118.54 98.38,118.67 98.38,118.8 98.39,118.93 98.4,119.06 98.41,119.19 98.41,119.32 98.42,119.46 98.43,119.58 98.43,119.72 98.44,119.84 98.45,119.98 98.46,120.11 98.47,120.24 98.48,120.37 98.48,120.5 98.49,120.63 98.5,120.76 98.51,120.89 98.52,121.02 98.53,121.15 98.53,121.28 98.54,121.41 98.55,121.54 98.56,121.67 98.57,121.8 98.58,121.93 98.59,122.07 98.6,122.19 98.6,122.32 98.61,122.46 98.62,122.58 98.63,122.72 98.64,122.85 98.65,122.98 98.66,123.11 98.67,123.24 98.68,123.37 98.69,123.5 98.7,123.63 98.71,123.76 98.72,123.89 98.73,124.02 98.75,124.15 98.76,124.28 98.77,124.41 98.78,124.54 98.79,124.67 98.8,124.8 98.81,124.93 98.82,125.07 98.83,125.19 98.85,125.33 98.86,125.46 98.87,125.59 98.88,125.72 98.89,125.85 98.91,125.98 98.92,126.11 98.93,126.24 98.94,126.37 98.96,126.5 98.97,126.63 98.98,126.76 98.99,126.89 99.01,127.02 99.02,127.15 99.04,127.28 99.05,127.41 99.06,127.54 99.08,127.67 99.09,127.8 99.1,127.93 99.12,128.07 99.13,128.19 99.15,128.33 99.16,128.46 99.18,128.59 99.19,128.72 99.21,128.85 99.22,128.98 99.24,129.11 99.26,129.24 99.27,129.37 99.29,129.5 99.3,129.63 99.32,129.76 99.34,129.89 99.35,130.02 99.37,130.15 99.39,130.28 99.4,130.41 99.42,130.54 99.44,130.68 99.46,130.8 99.48,130.93 99.49,131.07 99.51,131.19 99.53,131.33 99.55,131.46 99.57,131.59 99.59,131.72 99.6,131.85 99.63,131.98 99.65,132.11 99.66,132.24 99.68,132.37 99.71,132.5 99.72,132.63 99.75,132.76 99.77,132.89 99.79,133.02 99.81,133.15 99.83,133.28 99.85,133.41 99.88,133.54 99.9,133.68 99.92,133.8 99.94,133.94 99.96,134.07 99.99,134.2 100.01,134.33 100.03,134.46 100.06,134.59 100.08,134.72 100.1,134.85 100.13,134.98 100.15,135.11 100.18,135.24 100.21,135.37 100.23,135.5 100.26,135.63 100.28,135.76 100.31,135.89 100.33,136.02 100.36,136.15 100.39,136.28 100.42,136.41 100.44,136.54 100.47,136.68 100.5,136.8 100.53,136.94 100.56,137.07 100.59,137.2 100.61,137.33 100.64,137.46 100.67,137.59 100.71,137.72 100.73,137.85 100.77,137.98 100.8,138.11 100.83,138.24 100.86,138.37 100.89,138.5 100.92,138.63 100.96,138.76 100.99,138.89 101.02,139.02 101.06,139.15 101.09,139.29 101.12,139.41 101.16,139.54 101.19,139.68 101.23,139.8 101.27,139.94 101.3,140.07 101.34,140.2 101.38,140.33 101.41,140.46 101.45,140.59 101.49,140.72 101.53,140.85 101.56,140.98 101.6,141.11 101.64,141.24 101.68,141.37 101.72,141.5 101.77,141.63 101.81,141.76 101.85,141.89 101.89,142.02 101.93,142.15 101.97,142.29 102.02,142.41 102.06,142.55 102.1,142.68 102.15,142.81 102.19,142.94 102.24,143.07 102.28,143.2 102.33,143.33 102.38,143.46 102.43,143.59 102.47,143.72 102.52,143.85 102.57,143.98 102.62,144.11 102.67,144.24 102.72,144.37 102.77,144.5 102.82,144.63 102.87,144.76 102.93,144.89 102.98,145.03 103.03,145.15 103.09,145.29 103.14,145.42 103.2,145.55 103.25,145.68 103.31,145.81 103.36,145.94 103.42,146.07 103.48,146.2 103.54,146.33 103.6,146.46 103.66,146.59 103.72,146.72 103.77,146.85 103.84,146.98 103.9,147.11 103.96,147.24 104.02,147.37 104.09,147.5 104.15,147.64 104.22,147.76 104.28,147.9 104.35,148.03 104.42,148.15 104.49,148.29 104.55,148.42 104.62,148.55 104.69,148.68 104.76,148.81 104.83,148.94 104.91,149.07 104.98,149.2 105.05,149.33 105.13,149.46 105.2,149.59 105.28,149.72 105.35,149.85 105.43,149.98 105.51,150.11 105.59,150.24 105.67,150.37 105.75,150.5 105.83,150.64 105.91,150.76 105.99,150.9 106.08,151.03 106.16,151.16 106.25,151.29 106.33,151.42 106.42,151.55 106.51,151.68 106.6,151.81 106.69,151.94 106.77,152.07 106.87,152.2 106.96,152.33 107.05,152.46 107.15,152.59 107.24,152.72 107.34,152.85 107.44,152.98 107.53,153.11 107.63,153.24 107.73,153.37 107.83,153.5 107.94,153.64 108.04,153.76 108.14,153.9 108.25,154.03 108.36,154.16 108.46,154.29 108.57,154.42 108.68,154.55 108.79,154.68 108.9,154.81 109.02,154.94 109.13,155.07 109.24,155.2 109.36,155.33 109.48,155.46 109.6,155.59 109.72,155.72 109.84,155.85 109.96,155.98 110.08,156.11 110.21,156.25 110.33,156.37 110.46,156.51 110.59,156.64 110.72,156.77 110.85,156.9 110.98,157.03 111.12,157.16 111.25,157.29 111.39,157.42 111.53,157.55 111.66,157.68 111.81,157.81 111.95,157.94 112.09,158.07 112.24,158.2 112.38,158.33 112.53,158.46 112.68,158.59 112.83,158.72 112.98,158.85 113.14,158.98 113.29,159.11 113.45,159.25 113.61,159.37 113.77,159.51 113.93,159.64 114.09,159.77 114.26,159.9 114.43,160.03 114.59,160.16 114.76,160.29 114.94,160.42 115.11,160.55 115.28,160.68 115.46,160.81 115.64,160.94 115.82,161.07 116,161.2 116.19,161.33 116.37,161.46 116.56,161.59 116.75,161.72 116.94,161.85 117.14,161.98 117.33,162.11 117.53,162.25 117.73,162.37 117.93,162.51 118.13,162.64 118.34,162.77 118.55,162.9 118.76,163.03 118.97,163.16 119.18,163.29 119.4,163.42 119.62,163.55 119.84,163.68 120.06,163.81 120.29,163.94 120.51,164.07 120.74,164.2 120.97,164.33 121.21,164.46 121.45,164.6 121.68,164.72 121.93,164.86 122.17,164.98 122.42,165.12 122.67,165.25 122.92,165.38 123.17,165.51 123.43,165.64 123.68,165.77 123.95,165.9 124.21,166.03 124.48,166.16 124.75,166.29 125.02,166.42 125.29,166.55 125.57,166.68 125.85,166.81 126.13,166.94 126.42,167.07 126.71,167.2 127,167.33 127.29,167.46 127.59,167.6 127.89,167.72 128.2,167.86 128.51,167.98 128.81,168.12 129.13,168.25 129.44,168.38 129.76,168.51 130.08,168.64 130.41,168.77 130.74,168.9 131.07,169.03 131.41,169.16 131.75,169.29 132.09,169.42 132.44,169.55 132.79,169.68 133.14,169.81 133.49,169.94 133.85,170.07 134.22,170.2 134.58,170.33 134.96,170.46 135.33,170.6 135.71,170.72 136.09,170.86 136.48,170.99 136.87,171.12 137.26,171.25 137.66,171.38 138.06,171.51 138.47,171.64 138.88,171.77 139.29,171.9 139.71,172.03 140.13,172.16 140.56,172.29 140.99,172.42 141.42,172.55 141.86,172.68 142.31,172.81 142.76,172.94 143.21,173.07 143.67,173.21 144.13,173.33 144.6,173.47 145.07,173.6 145.54,173.73 146.02,173.86 146.51,173.99 147,174.12 147.5,174.25 148,174.38 148.5,174.51 149.02,174.64 149.53,174.77 150.05,174.9 150.58,175.03 151.11,175.16 151.65,175.29 152.19,175.42 152.74,175.55 153.29,175.68 153.85,175.81 "/>
  <polyline class="fil2 str1" points="97.14,115.02 97.14,115.15 97.13,115.28 97.13,115.41 97.12,115.54 97.11,115.67 97.11,115.8 97.1,115.93 97.1,116.06 97.09,116.19 97.09,116.32 97.08,116.45 97.07,116.58 97.07,116.72 97.06,116.84 97.05,116.98 97.05,117.11 97.04,117.24 97.04,117.37 97.03,117.5 97.02,117.63 97.02,117.76 97.01,117.89 97,118.02 97,118.15 96.99,118.28 96.99,118.41 96.98,118.54 96.97,118.67 96.96,118.8 96.96,118.93 96.95,119.06 96.94,119.19 96.93,119.32 96.93,119.46 96.92,119.58 96.91,119.72 96.9,119.84 96.9,119.98 96.89,120.11 96.88,120.24 96.87,120.37 96.87,120.5 96.86,120.63 96.85,120.76 96.84,120.89 96.83,121.02 96.82,121.15 96.82,121.28 96.81,121.41 96.8,121.54 96.79,121.67 96.78,121.8 96.77,121.93 96.76,122.07 96.75,122.19 96.74,122.32 96.73,122.46 96.72,122.58 96.71,122.72 96.71,122.85 96.7,122.98 96.69,123.11 96.67,123.24 96.66,123.37 96.65,123.5 96.65,123.63 96.63,123.76 96.62,123.89 96.61,124.02 96.6,124.15 96.59,124.28 96.58,124.41 96.57,124.54 96.56,124.67 96.55,124.8 96.54,124.93 96.53,125.07 96.51,125.19 96.5,125.33 96.49,125.46 96.48,125.59 96.47,125.72 96.45,125.85 96.44,125.98 96.43,126.11 96.42,126.24 96.4,126.37 96.39,126.5 96.38,126.63 96.37,126.76 96.35,126.89 96.34,127.02 96.32,127.15 96.31,127.28 96.3,127.41 96.28,127.54 96.27,127.67 96.26,127.8 96.24,127.93 96.23,128.07 96.21,128.19 96.2,128.33 96.18,128.46 96.17,128.59 96.15,128.72 96.14,128.85 96.12,128.98 96.11,129.11 96.09,129.24 96.08,129.37 96.06,129.5 96.04,129.63 96.03,129.76 96.01,129.89 95.99,130.02 95.98,130.15 95.96,130.28 95.94,130.41 95.93,130.54 95.91,130.68 95.89,130.8 95.87,130.93 95.85,131.07 95.84,131.19 95.82,131.33 95.8,131.46 95.78,131.59 95.76,131.72 95.74,131.85 95.72,131.98 95.7,132.11 95.68,132.24 95.66,132.37 95.64,132.5 95.62,132.63 95.6,132.76 95.58,132.89 95.56,133.02 95.54,133.15 95.52,133.28 95.49,133.41 95.47,133.54 95.45,133.68 95.43,133.8 95.41,133.94 95.38,134.07 95.36,134.2 95.34,134.33 95.32,134.46 95.29,134.59 95.26,134.72 95.24,134.85 95.22,134.98 95.19,135.11 95.17,135.24 95.14,135.37 95.12,135.5 95.09,135.63 95.07,135.76 95.04,135.89 95.01,136.02 94.99,136.15 94.96,136.28 94.93,136.41 94.9,136.54 94.88,136.68 94.85,136.8 94.82,136.94 94.79,137.07 94.76,137.2 94.73,137.33 94.71,137.46 94.67,137.59 94.64,137.72 94.61,137.85 94.58,137.98 94.55,138.11 94.52,138.24 94.49,138.37 94.46,138.5 94.43,138.63 94.39,138.76 94.36,138.89 94.32,139.02 94.29,139.15 94.26,139.29 94.22,139.41 94.19,139.54 94.15,139.68 94.12,139.8 94.08,139.94 94.04,140.07 94.01,140.2 93.97,140.33 93.93,140.46 93.9,140.59 93.86,140.72 93.82,140.85 93.78,140.98 93.74,141.11 93.71,141.24 93.66,141.37 93.62,141.5 93.58,141.63 93.54,141.76 93.5,141.89 93.46,142.02 93.42,142.15 93.37,142.29 93.33,142.41 93.29,142.55 93.24,142.68 93.2,142.81 93.15,142.94 93.11,143.07 93.06,143.2 93.02,143.33 92.97,143.46 92.92,143.59 92.87,143.72 92.82,143.85 92.78,143.98 92.73,144.11 92.68,144.24 92.63,144.37 92.58,144.5 92.53,144.63 92.48,144.76 92.42,144.89 92.37,145.03 92.32,145.15 92.26,145.29 92.21,145.42 92.15,145.55 92.1,145.68 92.04,145.81 91.99,145.94 91.93,146.07 91.87,146.2 91.81,146.33 91.75,146.46 91.69,146.59 91.63,146.72 91.57,146.85 91.51,146.98 91.45,147.11 91.39,147.24 91.32,147.37 91.26,147.5 91.2,147.64 91.13,147.76 91.06,147.9 91,148.03 90.93,148.15 90.86,148.29 90.79,148.42 90.72,148.55 90.65,148.68 90.59,148.81 90.51,148.94 90.44,149.07 90.37,149.2 90.3,149.33 90.22,149.46 90.15,149.59 90.07,149.72 89.99,149.85 89.92,149.98 89.84,150.11 89.76,150.24 89.68,150.37 89.6,150.5 89.52,150.64 89.44,150.76 89.36,150.9 89.27,151.03 89.19,151.16 89.1,151.29 89.02,151.42 88.93,151.55 88.84,151.68 88.75,151.81 88.66,151.94 88.57,152.07 88.48,152.2 88.39,152.33 88.29,152.46 88.2,152.59 88.1,152.72 88.01,152.85 87.91,152.98 87.82,153.11 87.71,153.24 87.61,153.37 87.51,153.5 87.41,153.64 87.31,153.76 87.2,153.9 87.1,154.03 86.99,154.16 86.88,154.29 86.78,154.42 86.67,154.55 86.56,154.68 86.44,154.81 86.33,154.94 86.22,155.07 86.1,155.2 85.99,155.33 85.87,155.46 85.75,155.59 85.63,155.72 85.51,155.85 85.39,155.98 85.26,156.11 85.14,156.25 85.01,156.37 84.89,156.51 84.76,156.64 84.63,156.77 84.5,156.9 84.37,157.03 84.23,157.16 84.09,157.29 83.96,157.42 83.82,157.55 83.68,157.68 83.54,157.81 83.4,157.94 83.26,158.07 83.11,158.2 82.96,158.33 82.81,158.46 82.67,158.59 82.52,158.72 82.37,158.85 82.21,158.98 82.05,159.11 81.9,159.25 81.74,159.37 81.58,159.51 81.42,159.64 81.26,159.77 81.09,159.9 80.92,160.03 80.76,160.16 80.59,160.29 80.41,160.42 80.24,160.55 80.06,160.68 79.89,160.81 79.71,160.94 79.53,161.07 79.34,161.2 79.16,161.33 78.98,161.46 78.79,161.59 78.6,161.72 78.41,161.85 78.21,161.98 78.02,162.11 77.82,162.25 77.62,162.37 77.42,162.51 77.21,162.64 77.01,162.77 76.8,162.9 76.59,163.03 76.38,163.16 76.16,163.29 75.95,163.42 75.73,163.55 75.51,163.68 75.29,163.81 75.06,163.94 74.83,164.07 74.6,164.2 74.37,164.33 74.14,164.46 73.9,164.6 73.66,164.72 73.42,164.86 73.18,164.98 72.93,165.12 72.68,165.25 72.43,165.38 72.18,165.51 71.92,165.64 71.66,165.77 71.4,165.9 71.14,166.03 70.87,166.16 70.6,166.29 70.33,166.42 70.06,166.55 69.78,166.68 69.5,166.81 69.21,166.94 68.93,167.07 68.64,167.2 68.35,167.33 68.05,167.46 67.75,167.6 67.45,167.72 67.15,167.86 66.84,167.98 66.53,168.12 66.22,168.25 65.91,168.38 65.58,168.51 65.26,168.64 64.94,168.77 64.61,168.9 64.28,169.03 63.94,169.16 63.6,169.29 63.26,169.42 62.91,169.55 62.56,169.68 62.21,169.81 61.85,169.94 61.49,170.07 61.13,170.2 60.76,170.33 60.39,170.46 60.02,170.6 59.64,170.72 59.26,170.86 58.87,170.99 58.48,171.12 58.09,171.25 57.69,171.38 57.29,171.51 56.88,171.64 56.47,171.77 56.06,171.9 55.64,172.03 55.22,172.16 54.79,172.29 54.36,172.42 53.92,172.55 53.48,172.68 53.04,172.81 52.59,172.94 52.14,173.07 51.68,173.21 51.22,173.33 50.75,173.47 50.28,173.6 49.8,173.73 49.32,173.86 48.84,173.99 48.35,174.12 47.85,174.25 47.35,174.38 46.84,174.51 46.33,174.64 45.82,174.77 45.29,174.9 44.77,175.03 44.24,175.16 43.7,175.29 43.16,175.42 42.61,175.55 42.06,175.68 41.5,175.81 "/>
  <path class="fil3" d="M93.44 193.91c0.07,-21.74 0.21,-43.49 0.21,-65.22l0.25 -8.45 -3.63 -0.35 -0.26 -0.03 -6.31 -1 -4.57 -1.08 -0.28 -0.08 -2.67 -0.83 -2.23 -0.84 -0.23 -0.08 -2.48 -1.1 -0.26 -0.13 -2.09 -1.1 -0.28 -0.16 -2.83 -1.79 -3.99 -3.22 -2.12 -2.11 -0.21 -0.23 -1.83 -2.1 -0.18 -0.23 -1.89 -2.51 -0.13 -0.18 -1.11 -1.65 -0.12 -0.16 -1.69 -2.81 -0.12 -0.2 -1.63 -3.07 -0.08 -0.18 -1.31 -2.75c-0.53,-1.2 -1.03,-2.42 -1.55,-3.62l-0.91 -2.34 -0.03 -0.1 -0.91 -2.51 -0.03 -0.12 -1.4 -4.21 -0.98 -3.21 -0.03 -0.07c-0.52,-1.83 -1.02,-3.64 -1.52,-5.48l-0.02 -0.05 -0.72 -2.82 0 -0.05 -0.59 -2.42 -0.02 -0.03 -0.39 -1.68 0 -0.03 -0.17 -0.73 0 -0.02 -0.48 -2.18 -0.02 -0.03 -0.46 -2.13 0 -0.02 -0.46 -2.2 0 -0.03 -0.14 -0.69 1.43 0.36 2.79 0.7 2.77 0.69 0.49 0.2 0.84 0.4 0.28 0.15 0.16 0.09 0.19 0.18 0.12 0.18 0.21 0.39 0.47 2.13 0 -0 0.16 0.7 0.01 -0 0.39 1.68 -0.01 0 0.57 2.34 0.01 -0 0.72 2.82 -0 0 0.88 3.25 0.59 2.04 -0.01 0 0.96 3.14 1.3 3.89 0 -0 0.88 2.41 0 -0 0.91 2.34 1.34 3.15 1.2 2.52 0 -0 1.6 3.02 1.61 2.67 -0 0 0.96 1.43 1.67 2.22 1.66 1.91 1.69 1.68 3.32 2.67 2.23 1.41 1.79 0.95 2.39 1.06 -0 0 1.58 0.59 2.46 0.77 4.5 1.07 5.57 0.88 3.12 0.3 0.22 -2.91 0.66 -5.89 0.03 -0.23 0.87 -5.15 0.07 -0.3 1.03 -4.24 0.1 -0.35 1.46 -4.37 1.49 -3.38 1.73 -3.16 2.21 -3.23 2.58 -3.04 2.44 -2.38 0.26 -0.25 2.87 -2.35 0.28 -0.2 3.03 -2.08 0.25 -0.16 3.31 -1.96 0.25 -0.13 4.13 -2.08 0.21 -0.1 3.87 -1.7c1.32,-0.53 2.66,-1.05 3.99,-1.55 2.24,-0.79 4.41,-1.52 6.67,-2.25l0.08 -0.03 3.5 -1.04 0.08 -0.02c1.88,-0.52 3.73,-1.03 5.61,-1.52l0.03 -0.02 9.15 -2.29c-1.17,5.03 -2.33,10.04 -3.59,15.05l-0.03 0.1 -1.43 5.19 -0.03 0.13 -1.96 6.22 -1.89 5.21 -1.83 4.38 -0.1 0.2 -1.89 3.94 -0.12 0.23 -1.96 3.52 -0.15 0.25 -2.02 3.12 -0.18 0.26 -2.46 3.21 -2.9 3.13 -3.54 3.07 -3.64 2.47 -4.01 2.1 -4.11 1.62 -0.33 0.12 -3.07 0.92 -0.26 0.07 -3.78 0.87 -0.25 0.05 -4.24 0.72 -0.16 0.02 -3.51 0.44 -1.05 0.1 -0.26 8.75 -0.2 20.14 -0.04 44.85c-1.4,0.06 -2.8,0.1 -4.21,0.1 -1.4,0 -2.78,-0.04 -4.16,-0.1zm9.52 -84.36l-0.16 2.12 2.86 -0.36 -0 -0 4.12 -0.7 3.47 -0.8 2.84 -0.85 3.67 -1.44 3.04 -1.59 2.75 -1.86 2.99 -2.59 2.06 -2.23 2.29 -2.99 1.83 -2.83 1.85 -3.32 1.71 -3.57 -0 -0 1.83 -4.38 1.63 -4.49 1.96 -6.22 0 0 1.37 -4.96 -0.01 -0 0.35 -1.4 -1.07 0.3 0 0.01 -3.5 1.04 -0 -0.01 -3.08 0.99 -3.26 1.15 -3.49 1.35 -3.69 1.62 -3.88 1.96 -3.18 1.88 -2.59 1.78 -2.77 2.27 -1.91 1.86 -2.07 2.44 -1.72 2.51 -1.42 2.59 -1.15 2.62 -1.28 3.82 -0.93 3.84 -0.84 4.95 -0.61 5.48z"/>
  <circle class="fil1 str2" cx="97.6" cy="97.6" r="96.4"/>
  <circle class="fil4" cx="97.6" cy="45.05" r="12.05"/>
 </g>
</svg>
