<?xml version="1.0" encoding="utf-8" standalone="no"?>
<!DOCTYPE svg PUBLIC "-//W3C//DTD SVG 1.1//EN"
  "http://www.w3.org/Graphics/SVG/1.1/DTD/svg11.dtd">
<svg xmlns:xlink="http://www.w3.org/1999/xlink" width="1711.976719pt" height="543.39825pt" viewBox="0 0 1711.976719 543.39825" xmlns="http://www.w3.org/2000/svg" version="1.1">
 <metadata>
  <rdf:RDF xmlns:dc="http://purl.org/dc/elements/1.1/" xmlns:cc="http://creativecommons.org/ns#" xmlns:rdf="http://www.w3.org/1999/02/22-rdf-syntax-ns#">
   <cc:Work>
    <dc:type rdf:resource="http://purl.org/dc/dcmitype/StillImage"/>
    <dc:date>2026-06-16T23:31:04.351594</dc:date>
    <dc:format>image/svg+xml</dc:format>
    <dc:creator>
     <cc:Agent>
      <dc:title>Matplotlib v3.10.6, https://matplotlib.org/</dc:title>
     </cc:Agent>
    </dc:creator>
   </cc:Work>
  </rdf:RDF>
 </metadata>
 <defs>
  <style type="text/css">*{stroke-linejoin: round; stroke-linecap: butt}</style>
 </defs>
 <g id="figure_1">
  <g id="patch_1">
   <path d="M 0 543.39825 
L 1711.976719 543.39825 
L 1711.976719 0 
L 0 0 
z
" style="fill: #ffffff"/>
  </g>
  <g id="axes_1">
   <g id="patch_2">
    <path d="M 57.109063 460.830625 
L 469.126612 460.830625 
L 469.126612 26.054625 
L 57.109063 26.054625 
z
" style="fill: #ffffff"/>
   </g>
   <g id="matplotlib.axis_1">
    <g id="xtick_1">
     <g id="line2d_1">
      <path d="M 75.837133 460.830625 
L 75.837133 26.054625 
" clip-path="url(#p5d8cab6224)" style="fill: none; stroke: #4c566a; stroke-opacity: 0.3; stroke-width: 0.8; stroke-linecap: square"/>
     </g>
     <g id="line2d_2">
      <defs>
       <path id="m7e2f427c73" d="M 0 0 
L 0 3.5 
" style="stroke: #000000; stroke-width: 0.8"/>
      </defs>
      <g>
       <use xlink:href="#m7e2f427c73" x="75.837133" y="460.830625" style="stroke: #000000; stroke-width: 0.8"/>
      </g>
     </g>
     <g id="text_1">
      <text style="font-size: 14px; font-family: 'DejaVu Sans Mono'; text-anchor: middle" x="75.837133" y="478.542812" transform="rotate(-0 75.837133 478.542812)">0.0</text>
     </g>
    </g>
    <g id="xtick_2">
     <g id="line2d_3">
      <path d="M 150.749415 460.830625 
L 150.749415 26.054625 
" clip-path="url(#p5d8cab6224)" style="fill: none; stroke: #4c566a; stroke-opacity: 0.3; stroke-width: 0.8; stroke-linecap: square"/>
     </g>
     <g id="line2d_4">
      <g>
       <use xlink:href="#m7e2f427c73" x="150.749415" y="460.830625" style="stroke: #000000; stroke-width: 0.8"/>
      </g>
     </g>
     <g id="text_2">
      <text style="font-size: 14px; font-family: 'DejaVu Sans Mono'; text-anchor: middle" x="150.749415" y="478.542812" transform="rotate(-0 150.749415 478.542812)">0.2</text>
     </g>
    </g>
    <g id="xtick_3">
     <g id="line2d_5">
      <path d="M 225.661696 460.830625 
L 225.661696 26.054625 
" clip-path="url(#p5d8cab6224)" style="fill: none; stroke: #4c566a; stroke-opacity: 0.3; stroke-width: 0.8; stroke-linecap: square"/>
     </g>
     <g id="line2d_6">
      <g>
       <use xlink:href="#m7e2f427c73" x="225.661696" y="460.830625" style="stroke: #000000; stroke-width: 0.8"/>
      </g>
     </g>
     <g id="text_3">
      <text style="font-size: 14px; font-family: 'DejaVu Sans Mono'; text-anchor: middle" x="225.661696" y="478.542812" transform="rotate(-0 225.661696 478.542812)">0.4</text>
     </g>
    </g>
    <g id="xtick_4">
     <g id="line2d_7">
      <path d="M 300.573978 460.830625 
L 300.573978 26.054625 
" clip-path="url(#p5d8cab6224)" style="fill: none; stroke: #4c566a; stroke-opacity: 0.3; stroke-width: 0.8; stroke-linecap: square"/>
     </g>
     <g id="line2d_8">
      <g>
       <use xlink:href="#m7e2f427c73" x="300.573978" y="460.830625" style="stroke: #000000; stroke-width: 0.8"/>
      </g>
     </g>
     <g id="text_4">
      <text style="font-size: 14px; font-family: 'DejaVu Sans Mono'; text-anchor: middle" x="300.573978" y="478.542812" transform="rotate(-0 300.573978 478.542812)">0.6</text>
     </g>
    </g>
    <g id="xtick_5">
     <g id="line2d_9">
      <path d="M 375.486259 460.830625 
L 375.486259 26.054625 
" clip-path="url(#p5d8cab6224)" style="fill: none; stroke: #4c566a; stroke-opacity: 0.3; stroke-width: 0.8; stroke-linecap: square"/>
     </g>
     <g id="line2d_10">
      <g>
       <use xlink:href="#m7e2f427c73" x="375.486259" y="460.830625" style="stroke: #000000; stroke-width: 0.8"/>
      </g>
     </g>
     <g id="text_5">
      <text style="font-size: 14px; font-family: 'DejaVu Sans Mono'; text-anchor: middle" x="375.486259" y="478.542812" transform="rotate(-0 375.486259 478.542812)">0.8</text>
     </g>
    </g>
    <g id="xtick_6">
     <g id="line2d_11">
      <path d="M 450.398541 460.830625 
L 450.398541 26.054625 
" clip-path="url(#p5d8cab6224)" style="fill: none; stroke: #4c566a; stroke-opacity: 0.3; stroke-width: 0.8; stroke-linecap: square"/>
     </g>
     <g id="line2d_12">
      <g>
       <use xlink:href="#m7e2f427c73" x="450.398541" y="460.830625" style="stroke: #000000; stroke-width: 0.8"/>
      </g>
     </g>
     <g id="text_6">
      <text style="font-size: 14px; font-family: 'DejaVu Sans Mono'; text-anchor: middle" x="450.398541" y="478.542812" transform="rotate(-0 450.398541 478.542812)">1.0</text>
     </g>
    </g>
    <g id="text_7">
     <text style="font-size: 14px; font-family: 'DejaVu Sans Mono'; text-anchor: middle" x="263.117837" y="496.166562" transform="rotate(-0 263.117837 496.166562)">False positive rate</text>
    </g>
   </g>
   <g id="matplotlib.axis_2">
    <g id="ytick_1">
     <g id="line2d_13">
      <path d="M 57.109063 441.06808 
L 469.126612 441.06808 
" clip-path="url(#p5d8cab6224)" style="fill: none; stroke: #4c566a; stroke-opacity: 0.3; stroke-width: 0.8; stroke-linecap: square"/>
     </g>
     <g id="line2d_14">
      <defs>
       <path id="m88d34e5295" d="M 0 0 
L -3.5 0 
" style="stroke: #000000; stroke-width: 0.8"/>
      </defs>
      <g>
       <use xlink:href="#m88d34e5295" x="57.109063" y="441.06808" style="stroke: #000000; stroke-width: 0.8"/>
      </g>
     </g>
     <g id="text_8">
      <text style="font-size: 14px; font-family: 'DejaVu Sans Mono'; text-anchor: end" x="50.109063" y="446.424173" transform="rotate(-0 50.109063 446.424173)">0.0</text>
     </g>
    </g>
    <g id="ytick_2">
     <g id="line2d_15">
      <path d="M 57.109063 362.017898 
L 469.126612 362.017898 
" clip-path="url(#p5d8cab6224)" style="fill: none; stroke: #4c566a; stroke-opacity: 0.3; stroke-width: 0.8; stroke-linecap: square"/>
     </g>
     <g id="line2d_16">
      <g>
       <use xlink:href="#m88d34e5295" x="57.109063" y="362.017898" style="stroke: #000000; stroke-width: 0.8"/>
      </g>
     </g>
     <g id="text_9">
      <text style="font-size: 14px; font-family: 'DejaVu Sans Mono'; text-anchor: end" x="50.109063" y="367.373991" transform="rotate(-0 50.109063 367.373991)">0.2</text>
     </g>
    </g>
    <g id="ytick_3">
     <g id="line2d_17">
      <path d="M 57.109063 282.967716 
L 469.126612 282.967716 
" clip-path="url(#p5d8cab6224)" style="fill: none; stroke: #4c566a; stroke-opacity: 0.3; stroke-width: 0.8; stroke-linecap: square"/>
     </g>
     <g id="line2d_18">
      <g>
       <use xlink:href="#m88d34e5295" x="57.109063" y="282.967716" style="stroke: #000000; stroke-width: 0.8"/>
      </g>
     </g>
     <g id="text_10">
      <text style="font-size: 14px; font-family: 'DejaVu Sans Mono'; text-anchor: end" x="50.109063" y="288.32381" transform="rotate(-0 50.109063 288.32381)">0.4</text>
     </g>
    </g>
    <g id="ytick_4">
     <g id="line2d_19">
      <path d="M 57.109063 203.917534 
L 469.126612 203.917534 
" clip-path="url(#p5d8cab6224)" style="fill: none; stroke: #4c566a; stroke-opacity: 0.3; stroke-width: 0.8; stroke-linecap: square"/>
     </g>
     <g id="line2d_20">
      <g>
       <use xlink:href="#m88d34e5295" x="57.109063" y="203.917534" style="stroke: #000000; stroke-width: 0.8"/>
      </g>
     </g>
     <g id="text_11">
      <text style="font-size: 14px; font-family: 'DejaVu Sans Mono'; text-anchor: end" x="50.109063" y="209.273628" transform="rotate(-0 50.109063 209.273628)">0.6</text>
     </g>
    </g>
    <g id="ytick_5">
     <g id="line2d_21">
      <path d="M 57.109063 124.867352 
L 469.126612 124.867352 
" clip-path="url(#p5d8cab6224)" style="fill: none; stroke: #4c566a; stroke-opacity: 0.3; stroke-width: 0.8; stroke-linecap: square"/>
     </g>
     <g id="line2d_22">
      <g>
       <use xlink:href="#m88d34e5295" x="57.109063" y="124.867352" style="stroke: #000000; stroke-width: 0.8"/>
      </g>
     </g>
     <g id="text_12">
      <text style="font-size: 14px; font-family: 'DejaVu Sans Mono'; text-anchor: end" x="50.109063" y="130.223446" transform="rotate(-0 50.109063 130.223446)">0.8</text>
     </g>
    </g>
    <g id="ytick_6">
     <g id="line2d_23">
      <path d="M 57.109063 45.81717 
L 469.126612 45.81717 
" clip-path="url(#p5d8cab6224)" style="fill: none; stroke: #4c566a; stroke-opacity: 0.3; stroke-width: 0.8; stroke-linecap: square"/>
     </g>
     <g id="line2d_24">
      <g>
       <use xlink:href="#m88d34e5295" x="57.109063" y="45.81717" style="stroke: #000000; stroke-width: 0.8"/>
      </g>
     </g>
     <g id="text_13">
      <text style="font-size: 14px; font-family: 'DejaVu Sans Mono'; text-anchor: end" x="50.109063" y="51.173264" transform="rotate(-0 50.109063 51.173264)">1.0</text>
     </g>
    </g>
    <g id="text_14">
     <text style="font-size: 14px; font-family: 'DejaVu Sans Mono'; text-anchor: middle" x="17.912188" y="243.442625" transform="rotate(-90 17.912188 243.442625)">True positive rate</text>
    </g>
   </g>
   <g id="line2d_25">
    <path d="M 75.837133 441.06808 
L 75.837133 430.088888 
L 75.837133 408.130504 
L 78.192865 408.130504 
L 78.192865 364.213736 
L 82.904329 364.213736 
L 82.904329 342.255352 
L 87.615794 342.255352 
L 87.615794 331.27616 
L 89.971526 331.27616 
L 89.971526 276.380201 
L 92.327258 276.380201 
L 92.327258 254.421817 
L 94.68299 254.421817 
L 94.68299 243.442625 
L 101.750186 243.442625 
L 101.750186 232.463433 
L 106.461651 232.463433 
L 106.461651 221.484241 
L 108.817383 221.484241 
L 108.817383 210.505049 
L 125.307508 210.505049 
L 125.307508 199.525857 
L 130.018972 199.525857 
L 130.018972 188.546665 
L 151.220561 188.546665 
L 151.220561 177.567473 
L 167.710686 177.567473 
L 167.710686 166.588282 
L 179.489346 166.588282 
L 179.489346 155.60909 
L 193.623739 155.60909 
L 193.623739 133.650706 
L 219.536793 133.650706 
L 219.536793 111.692322 
L 226.603989 111.692322 
L 226.603989 100.71313 
L 238.38265 100.71313 
L 238.38265 89.733938 
L 254.872775 89.733938 
L 254.872775 78.754746 
L 278.430096 78.754746 
L 278.430096 67.775554 
L 316.12181 67.775554 
L 316.12181 56.796362 
L 349.10206 56.796362 
L 349.10206 45.81717 
L 450.398541 45.81717 
" clip-path="url(#p5d8cab6224)" style="fill: none; stroke: #5e81ac; stroke-width: 3; stroke-linecap: square"/>
   </g>
   <g id="line2d_26">
    <path d="M 75.837133 441.06808 
L 75.837133 430.088888 
L 75.837133 408.130504 
L 78.192865 408.130504 
L 78.192865 364.213736 
L 85.260061 364.213736 
L 85.260061 342.255352 
L 89.971526 342.255352 
L 89.971526 320.296968 
L 92.327258 320.296968 
L 92.327258 254.421817 
L 101.750186 254.421817 
L 101.750186 243.442625 
L 104.105918 243.442625 
L 104.105918 232.463433 
L 111.173115 232.463433 
L 111.173115 221.484241 
L 115.884579 221.484241 
L 115.884579 210.505049 
L 130.018972 210.505049 
L 130.018972 199.525857 
L 141.797632 199.525857 
L 141.797632 188.546665 
L 165.354954 188.546665 
L 165.354954 177.567473 
L 181.845079 177.567473 
L 181.845079 166.588282 
L 188.912275 166.588282 
L 188.912275 144.629898 
L 200.690936 144.629898 
L 200.690936 133.650706 
L 210.113864 133.650706 
L 210.113864 122.671514 
L 217.181061 122.671514 
L 217.181061 111.692322 
L 226.603989 111.692322 
L 226.603989 100.71313 
L 231.315453 100.71313 
L 231.315453 89.733938 
L 245.449846 89.733938 
L 245.449846 67.775554 
L 266.651435 67.775554 
L 266.651435 56.796362 
L 344.390595 56.796362 
L 344.390595 45.81717 
L 450.398541 45.81717 
" clip-path="url(#p5d8cab6224)" style="fill: none; stroke: #bf616a; stroke-width: 3; stroke-linecap: square"/>
   </g>
   <g id="line2d_27">
    <path d="M 75.837133 441.06808 
L 450.398541 45.81717 
" clip-path="url(#p5d8cab6224)" style="fill: none; stroke-dasharray: 5.55,2.4; stroke-dashoffset: 0; stroke: #4c566a; stroke-opacity: 0.6; stroke-width: 1.5"/>
   </g>
   <g id="patch_3">
    <path d="M 57.109063 460.830625 
L 57.109063 26.054625 
" style="fill: none; stroke: #000000; stroke-width: 0.8; stroke-linejoin: miter; stroke-linecap: square"/>
   </g>
   <g id="patch_4">
    <path d="M 469.126612 460.830625 
L 469.126612 26.054625 
" style="fill: none; stroke: #000000; stroke-width: 0.8; stroke-linejoin: miter; stroke-linecap: square"/>
   </g>
   <g id="patch_5">
    <path d="M 57.109063 460.830625 
L 469.126612 460.830625 
" style="fill: none; stroke: #000000; stroke-width: 0.8; stroke-linejoin: miter; stroke-linecap: square"/>
   </g>
   <g id="patch_6">
    <path d="M 57.109063 26.054625 
L 469.126612 26.054625 
" style="fill: none; stroke: #000000; stroke-width: 0.8; stroke-linejoin: miter; stroke-linecap: square"/>
   </g>
   <g id="text_15">
    <text style="font-size: 16.8px; font-family: 'DejaVu Sans Mono'; text-anchor: middle" x="263.117837" y="20.054625" transform="rotate(-0 263.117837 20.054625)">Apparent ROC curves</text>
   </g>
   <g id="legend_1">
    <g id="patch_7">
     <path d="M 81.864737 455.330625 
L 461.426612 455.330625 
Q 463.626612 455.330625 463.626612 453.130625 
L 463.626612 421.821875 
Q 463.626612 419.621875 461.426612 419.621875 
L 81.864737 419.621875 
Q 79.664737 419.621875 79.664737 421.821875 
L 79.664737 453.130625 
Q 79.664737 455.330625 81.864737 455.330625 
z
" style="fill: #ffffff; opacity: 0.8; stroke: #cccccc; stroke-linejoin: miter"/>
    </g>
    <g id="line2d_28">
     <path d="M 84.064737 428.588594 
L 95.064737 428.588594 
L 106.064737 428.588594 
" style="fill: none; stroke: #5e81ac; stroke-width: 3; stroke-linecap: square"/>
    </g>
    <g id="text_16">
     <text style="font-size: 11px; font-family: 'DejaVu Sans Mono'; text-anchor: start" x="114.864737" y="432.438594" transform="rotate(-0 114.864737 432.438594)">7-rad: .632+ AUC 0.787 [0.685-0.854]</text>
    </g>
    <g id="line2d_29">
     <path d="M 84.064737 444.792969 
L 95.064737 444.792969 
L 106.064737 444.792969 
" style="fill: none; stroke: #bf616a; stroke-width: 3; stroke-linecap: square"/>
    </g>
    <g id="text_17">
     <text style="font-size: 11px; font-family: 'DejaVu Sans Mono'; text-anchor: start" x="114.864737" y="448.642969" transform="rotate(-0 114.864737 448.642969)">7-rad + MPD/thickness: .632+ AUC 0.781 [0.667-0.849]</text>
    </g>
   </g>
  </g>
  <g id="axes_2">
   <g id="patch_8">
    <path d="M 668.612788 460.830625 
L 1080.630337 460.830625 
L 1080.630337 26.054625 
L 668.612788 26.054625 
z
" style="fill: #ffffff"/>
   </g>
   <g id="matplotlib.axis_3">
    <g id="xtick_7">
     <g id="line2d_30">
      <path d="M 681.488336 460.830625 
L 681.488336 26.054625 
" clip-path="url(#pbcbc9be771)" style="fill: none; stroke: #4c566a; stroke-opacity: 0.3; stroke-width: 0.8; stroke-linecap: square"/>
     </g>
     <g id="line2d_31">
      <g>
       <use xlink:href="#m7e2f427c73" x="681.488336" y="460.830625" style="stroke: #000000; stroke-width: 0.8"/>
      </g>
     </g>
     <g id="text_18">
      <text style="font-size: 14px; font-family: 'DejaVu Sans Mono'; text-anchor: middle" x="681.488336" y="478.542812" transform="rotate(-0 681.488336 478.542812)">0.0</text>
     </g>
    </g>
    <g id="xtick_8">
     <g id="line2d_32">
      <path d="M 745.866078 460.830625 
L 745.866078 26.054625 
" clip-path="url(#pbcbc9be771)" style="fill: none; stroke: #4c566a; stroke-opacity: 0.3; stroke-width: 0.8; stroke-linecap: square"/>
     </g>
     <g id="line2d_33">
      <g>
       <use xlink:href="#m7e2f427c73" x="745.866078" y="460.830625" style="stroke: #000000; stroke-width: 0.8"/>
      </g>
     </g>
     <g id="text_19">
      <text style="font-size: 14px; font-family: 'DejaVu Sans Mono'; text-anchor: middle" x="745.866078" y="478.542812" transform="rotate(-0 745.866078 478.542812)">0.1</text>
     </g>
    </g>
    <g id="xtick_9">
     <g id="line2d_34">
      <path d="M 810.24382 460.830625 
L 810.24382 26.054625 
" clip-path="url(#pbcbc9be771)" style="fill: none; stroke: #4c566a; stroke-opacity: 0.3; stroke-width: 0.8; stroke-linecap: square"/>
     </g>
     <g id="line2d_35">
      <g>
       <use xlink:href="#m7e2f427c73" x="810.24382" y="460.830625" style="stroke: #000000; stroke-width: 0.8"/>
      </g>
     </g>
     <g id="text_20">
      <text style="font-size: 14px; font-family: 'DejaVu Sans Mono'; text-anchor: middle" x="810.24382" y="478.542812" transform="rotate(-0 810.24382 478.542812)">0.2</text>
     </g>
    </g>
    <g id="xtick_10">
     <g id="line2d_36">
      <path d="M 874.621563 460.830625 
L 874.621563 26.054625 
" clip-path="url(#pbcbc9be771)" style="fill: none; stroke: #4c566a; stroke-opacity: 0.3; stroke-width: 0.8; stroke-linecap: square"/>
     </g>
     <g id="line2d_37">
      <g>
       <use xlink:href="#m7e2f427c73" x="874.621563" y="460.830625" style="stroke: #000000; stroke-width: 0.8"/>
      </g>
     </g>
     <g id="text_21">
      <text style="font-size: 14px; font-family: 'DejaVu Sans Mono'; text-anchor: middle" x="874.621563" y="478.542812" transform="rotate(-0 874.621563 478.542812)">0.3</text>
     </g>
    </g>
    <g id="xtick_11">
     <g id="line2d_38">
      <path d="M 938.999305 460.830625 
L 938.999305 26.054625 
" clip-path="url(#pbcbc9be771)" style="fill: none; stroke: #4c566a; stroke-opacity: 0.3; stroke-width: 0.8; stroke-linecap: square"/>
     </g>
     <g id="line2d_39">
      <g>
       <use xlink:href="#m7e2f427c73" x="938.999305" y="460.830625" style="stroke: #000000; stroke-width: 0.8"/>
      </g>
     </g>
     <g id="text_22">
      <text style="font-size: 14px; font-family: 'DejaVu Sans Mono'; text-anchor: middle" x="938.999305" y="478.542812" transform="rotate(-0 938.999305 478.542812)">0.4</text>
     </g>
    </g>
    <g id="xtick_12">
     <g id="line2d_40">
      <path d="M 1003.377047 460.830625 
L 1003.377047 26.054625 
" clip-path="url(#pbcbc9be771)" style="fill: none; stroke: #4c566a; stroke-opacity: 0.3; stroke-width: 0.8; stroke-linecap: square"/>
     </g>
     <g id="line2d_41">
      <g>
       <use xlink:href="#m7e2f427c73" x="1003.377047" y="460.830625" style="stroke: #000000; stroke-width: 0.8"/>
      </g>
     </g>
     <g id="text_23">
      <text style="font-size: 14px; font-family: 'DejaVu Sans Mono'; text-anchor: middle" x="1003.377047" y="478.542812" transform="rotate(-0 1003.377047 478.542812)">0.5</text>
     </g>
    </g>
    <g id="xtick_13">
     <g id="line2d_42">
      <path d="M 1067.754789 460.830625 
L 1067.754789 26.054625 
" clip-path="url(#pbcbc9be771)" style="fill: none; stroke: #4c566a; stroke-opacity: 0.3; stroke-width: 0.8; stroke-linecap: square"/>
     </g>
     <g id="line2d_43">
      <g>
       <use xlink:href="#m7e2f427c73" x="1067.754789" y="460.830625" style="stroke: #000000; stroke-width: 0.8"/>
      </g>
     </g>
     <g id="text_24">
      <text style="font-size: 14px; font-family: 'DejaVu Sans Mono'; text-anchor: middle" x="1067.754789" y="478.542812" transform="rotate(-0 1067.754789 478.542812)">0.6</text>
     </g>
    </g>
    <g id="text_25">
     <text style="font-size: 14px; font-family: 'DejaVu Sans Mono'; text-anchor: middle" x="874.621563" y="496.166562" transform="rotate(-0 874.621563 496.166562)">Mean predicted probability</text>
    </g>
   </g>
   <g id="matplotlib.axis_4">
    <g id="ytick_7">
     <g id="line2d_44">
      <path d="M 668.612788 449.537742 
L 1080.630337 449.537742 
" clip-path="url(#pbcbc9be771)" style="fill: none; stroke: #4c566a; stroke-opacity: 0.3; stroke-width: 0.8; stroke-linecap: square"/>
     </g>
     <g id="line2d_45">
      <g>
       <use xlink:href="#m88d34e5295" x="668.612788" y="449.537742" style="stroke: #000000; stroke-width: 0.8"/>
      </g>
     </g>
     <g id="text_26">
      <text style="font-size: 14px; font-family: 'DejaVu Sans Mono'; text-anchor: end" x="661.612788" y="454.893836" transform="rotate(-0 661.612788 454.893836)">0.0</text>
     </g>
    </g>
    <g id="ytick_8">
     <g id="line2d_46">
      <path d="M 668.612788 393.073326 
L 1080.630337 393.073326 
" clip-path="url(#pbcbc9be771)" style="fill: none; stroke: #4c566a; stroke-opacity: 0.3; stroke-width: 0.8; stroke-linecap: square"/>
     </g>
     <g id="line2d_47">
      <g>
       <use xlink:href="#m88d34e5295" x="668.612788" y="393.073326" style="stroke: #000000; stroke-width: 0.8"/>
      </g>
     </g>
     <g id="text_27">
      <text style="font-size: 14px; font-family: 'DejaVu Sans Mono'; text-anchor: end" x="661.612788" y="398.42942" transform="rotate(-0 661.612788 398.42942)">0.1</text>
     </g>
    </g>
    <g id="ytick_9">
     <g id="line2d_48">
      <path d="M 668.612788 336.608911 
L 1080.630337 336.608911 
" clip-path="url(#pbcbc9be771)" style="fill: none; stroke: #4c566a; stroke-opacity: 0.3; stroke-width: 0.8; stroke-linecap: square"/>
     </g>
     <g id="line2d_49">
      <g>
       <use xlink:href="#m88d34e5295" x="668.612788" y="336.608911" style="stroke: #000000; stroke-width: 0.8"/>
      </g>
     </g>
     <g id="text_28">
      <text style="font-size: 14px; font-family: 'DejaVu Sans Mono'; text-anchor: end" x="661.612788" y="341.965004" transform="rotate(-0 661.612788 341.965004)">0.2</text>
     </g>
    </g>
    <g id="ytick_10">
     <g id="line2d_50">
      <path d="M 668.612788 280.144495 
L 1080.630337 280.144495 
" clip-path="url(#pbcbc9be771)" style="fill: none; stroke: #4c566a; stroke-opacity: 0.3; stroke-width: 0.8; stroke-linecap: square"/>
     </g>
     <g id="line2d_51">
      <g>
       <use xlink:href="#m88d34e5295" x="668.612788" y="280.144495" style="stroke: #000000; stroke-width: 0.8"/>
      </g>
     </g>
     <g id="text_29">
      <text style="font-size: 14px; font-family: 'DejaVu Sans Mono'; text-anchor: end" x="661.612788" y="285.500589" transform="rotate(-0 661.612788 285.500589)">0.3</text>
     </g>
    </g>
    <g id="ytick_11">
     <g id="line2d_52">
      <path d="M 668.612788 223.68008 
L 1080.630337 223.68008 
" clip-path="url(#pbcbc9be771)" style="fill: none; stroke: #4c566a; stroke-opacity: 0.3; stroke-width: 0.8; stroke-linecap: square"/>
     </g>
     <g id="line2d_53">
      <g>
       <use xlink:href="#m88d34e5295" x="668.612788" y="223.68008" style="stroke: #000000; stroke-width: 0.8"/>
      </g>
     </g>
     <g id="text_30">
      <text style="font-size: 14px; font-family: 'DejaVu Sans Mono'; text-anchor: end" x="661.612788" y="229.036173" transform="rotate(-0 661.612788 229.036173)">0.4</text>
     </g>
    </g>
    <g id="ytick_12">
     <g id="line2d_54">
      <path d="M 668.612788 167.215664 
L 1080.630337 167.215664 
" clip-path="url(#pbcbc9be771)" style="fill: none; stroke: #4c566a; stroke-opacity: 0.3; stroke-width: 0.8; stroke-linecap: square"/>
     </g>
     <g id="line2d_55">
      <g>
       <use xlink:href="#m88d34e5295" x="668.612788" y="167.215664" style="stroke: #000000; stroke-width: 0.8"/>
      </g>
     </g>
     <g id="text_31">
      <text style="font-size: 14px; font-family: 'DejaVu Sans Mono'; text-anchor: end" x="661.612788" y="172.571758" transform="rotate(-0 661.612788 172.571758)">0.5</text>
     </g>
    </g>
    <g id="ytick_13">
     <g id="line2d_56">
      <path d="M 668.612788 110.751248 
L 1080.630337 110.751248 
" clip-path="url(#pbcbc9be771)" style="fill: none; stroke: #4c566a; stroke-opacity: 0.3; stroke-width: 0.8; stroke-linecap: square"/>
     </g>
     <g id="line2d_57">
      <g>
       <use xlink:href="#m88d34e5295" x="668.612788" y="110.751248" style="stroke: #000000; stroke-width: 0.8"/>
      </g>
     </g>
     <g id="text_32">
      <text style="font-size: 14px; font-family: 'DejaVu Sans Mono'; text-anchor: end" x="661.612788" y="116.107342" transform="rotate(-0 661.612788 116.107342)">0.6</text>
     </g>
    </g>
    <g id="ytick_14">
     <g id="line2d_58">
      <path d="M 668.612788 54.286833 
L 1080.630337 54.286833 
" clip-path="url(#pbcbc9be771)" style="fill: none; stroke: #4c566a; stroke-opacity: 0.3; stroke-width: 0.8; stroke-linecap: square"/>
     </g>
     <g id="line2d_59">
      <g>
       <use xlink:href="#m88d34e5295" x="668.612788" y="54.286833" style="stroke: #000000; stroke-width: 0.8"/>
      </g>
     </g>
     <g id="text_33">
      <text style="font-size: 14px; font-family: 'DejaVu Sans Mono'; text-anchor: end" x="661.612788" y="59.642927" transform="rotate(-0 661.612788 59.642927)">0.7</text>
     </g>
    </g>
    <g id="text_34">
     <text style="font-size: 14px; font-family: 'DejaVu Sans Mono'; text-anchor: middle" x="629.415913" y="243.442625" transform="rotate(-90 629.415913 243.442625)">Observed CR-POPF rate</text>
    </g>
   </g>
   <g id="line2d_60">
    <path d="M 687.914194 449.537742 
L 710.148725 415.316884 
L 744.710201 398.206455 
L 815.218321 343.666963 
L 873.506356 343.666963 
L 978.616534 114.280274 
" clip-path="url(#pbcbc9be771)" style="fill: none; stroke: #5e81ac; stroke-width: 2.6; stroke-linecap: square"/>
   </g>
   <g id="LineCollection_1">
    <path d="M 687.914194 449.537742 
L 687.914194 390.662297 
" clip-path="url(#pbcbc9be771)" style="fill: none; stroke: #5e81ac; stroke-width: 1.5"/>
    <path d="M 710.148725 440.062514 
L 710.148725 338.832226 
" clip-path="url(#pbcbc9be771)" style="fill: none; stroke: #5e81ac; stroke-width: 1.5"/>
    <path d="M 744.710201 431.80569 
L 744.710201 316.436402 
" clip-path="url(#pbcbc9be771)" style="fill: none; stroke: #5e81ac; stroke-width: 1.5"/>
    <path d="M 815.218321 399.343447 
L 815.218321 250.166661 
" clip-path="url(#pbcbc9be771)" style="fill: none; stroke: #5e81ac; stroke-width: 1.5"/>
    <path d="M 873.506356 399.343447 
L 873.506356 250.166661 
" clip-path="url(#pbcbc9be771)" style="fill: none; stroke: #5e81ac; stroke-width: 1.5"/>
    <path d="M 978.616534 210.918981 
L 978.616534 28.988713 
" clip-path="url(#pbcbc9be771)" style="fill: none; stroke: #5e81ac; stroke-width: 1.5"/>
   </g>
   <g id="line2d_61">
    <path d="M 686.172438 449.537742 
L 704.170735 432.427313 
L 738.761436 381.096026 
L 809.659748 326.021833 
L 870.038135 361.312093 
L 1001.749081 114.280274 
" clip-path="url(#pbcbc9be771)" style="fill: none; stroke: #bf616a; stroke-width: 2.6; stroke-linecap: square"/>
   </g>
   <g id="LineCollection_2">
    <path d="M 686.172438 449.537742 
L 686.172438 390.662297 
" clip-path="url(#pbcbc9be771)" style="fill: none; stroke: #bf616a; stroke-width: 1.5"/>
    <path d="M 704.170735 446.505936 
L 704.170735 363.041454 
" clip-path="url(#pbcbc9be771)" style="fill: none; stroke: #bf616a; stroke-width: 1.5"/>
    <path d="M 738.761436 422.343569 
L 738.761436 295.245874 
" clip-path="url(#pbcbc9be771)" style="fill: none; stroke: #bf616a; stroke-width: 1.5"/>
    <path d="M 809.659748 387.292295 
L 809.659748 230.709935 
" clip-path="url(#pbcbc9be771)" style="fill: none; stroke: #bf616a; stroke-width: 1.5"/>
    <path d="M 870.038135 410.778194 
L 870.038135 270.239792 
" clip-path="url(#pbcbc9be771)" style="fill: none; stroke: #bf616a; stroke-width: 1.5"/>
    <path d="M 1001.749081 210.918981 
L 1001.749081 28.988713 
" clip-path="url(#pbcbc9be771)" style="fill: none; stroke: #bf616a; stroke-width: 1.5"/>
   </g>
   <g id="line2d_62">
    <path d="M 681.488336 449.537742 
L 1195.167655 -1 
" clip-path="url(#pbcbc9be771)" style="fill: none; stroke-dasharray: 5.55,2.4; stroke-dashoffset: 0; stroke: #4c566a; stroke-opacity: 0.65; stroke-width: 1.5"/>
   </g>
   <g id="line2d_63">
    <defs>
     <path id="m18eaaf328c" d="M 0 3.5 
C 0.928211 3.5 1.81853 3.131218 2.474874 2.474874 
C 3.131218 1.81853 3.5 0.928211 3.5 0 
C 3.5 -0.928211 3.131218 -1.81853 2.474874 -2.474874 
C 1.81853 -3.131218 0.928211 -3.5 0 -3.5 
C -0.928211 -3.5 -1.81853 -3.131218 -2.474874 -2.474874 
C -3.131218 -1.81853 -3.5 -0.928211 -3.5 0 
C -3.5 0.928211 -3.131218 1.81853 -2.474874 2.474874 
C -1.81853 3.131218 -0.928211 3.5 0 3.5 
z
" style="stroke: #5e81ac; stroke-width: 1.8"/>
    </defs>
    <g clip-path="url(#pbcbc9be771)">
     <use xlink:href="#m18eaaf328c" x="687.914194" y="449.537742" style="fill: #ffffff; stroke: #5e81ac; stroke-width: 1.8"/>
     <use xlink:href="#m18eaaf328c" x="710.148725" y="415.316884" style="fill: #ffffff; stroke: #5e81ac; stroke-width: 1.8"/>
     <use xlink:href="#m18eaaf328c" x="744.710201" y="398.206455" style="fill: #ffffff; stroke: #5e81ac; stroke-width: 1.8"/>
     <use xlink:href="#m18eaaf328c" x="815.218321" y="343.666963" style="fill: #ffffff; stroke: #5e81ac; stroke-width: 1.8"/>
     <use xlink:href="#m18eaaf328c" x="873.506356" y="343.666963" style="fill: #ffffff; stroke: #5e81ac; stroke-width: 1.8"/>
     <use xlink:href="#m18eaaf328c" x="978.616534" y="114.280274" style="fill: #ffffff; stroke: #5e81ac; stroke-width: 1.8"/>
    </g>
   </g>
   <g id="line2d_64">
    <defs>
     <path id="mf10b890e8b" d="M 0 3.5 
C 0.928211 3.5 1.81853 3.131218 2.474874 2.474874 
C 3.131218 1.81853 3.5 0.928211 3.5 0 
C 3.5 -0.928211 3.131218 -1.81853 2.474874 -2.474874 
C 1.81853 -3.131218 0.928211 -3.5 0 -3.5 
C -0.928211 -3.5 -1.81853 -3.131218 -2.474874 -2.474874 
C -3.131218 -1.81853 -3.5 -0.928211 -3.5 0 
C -3.5 0.928211 -3.131218 1.81853 -2.474874 2.474874 
C -1.81853 3.131218 -0.928211 3.5 0 3.5 
z
" style="stroke: #bf616a; stroke-width: 1.8"/>
    </defs>
    <g clip-path="url(#pbcbc9be771)">
     <use xlink:href="#mf10b890e8b" x="686.172438" y="449.537742" style="fill: #ffffff; stroke: #bf616a; stroke-width: 1.8"/>
     <use xlink:href="#mf10b890e8b" x="704.170735" y="432.427313" style="fill: #ffffff; stroke: #bf616a; stroke-width: 1.8"/>
     <use xlink:href="#mf10b890e8b" x="738.761436" y="381.096026" style="fill: #ffffff; stroke: #bf616a; stroke-width: 1.8"/>
     <use xlink:href="#mf10b890e8b" x="809.659748" y="326.021833" style="fill: #ffffff; stroke: #bf616a; stroke-width: 1.8"/>
     <use xlink:href="#mf10b890e8b" x="870.038135" y="361.312093" style="fill: #ffffff; stroke: #bf616a; stroke-width: 1.8"/>
     <use xlink:href="#mf10b890e8b" x="1001.749081" y="114.280274" style="fill: #ffffff; stroke: #bf616a; stroke-width: 1.8"/>
    </g>
   </g>
   <g id="patch_9">
    <path d="M 668.612788 460.830625 
L 668.612788 26.054625 
" style="fill: none; stroke: #000000; stroke-width: 0.8; stroke-linejoin: miter; stroke-linecap: square"/>
   </g>
   <g id="patch_10">
    <path d="M 1080.630337 460.830625 
L 1080.630337 26.054625 
" style="fill: none; stroke: #000000; stroke-width: 0.8; stroke-linejoin: miter; stroke-linecap: square"/>
   </g>
   <g id="patch_11">
    <path d="M 668.612788 460.830625 
L 1080.630337 460.830625 
" style="fill: none; stroke: #000000; stroke-width: 0.8; stroke-linejoin: miter; stroke-linecap: square"/>
   </g>
   <g id="patch_12">
    <path d="M 668.612788 26.054625 
L 1080.630337 26.054625 
" style="fill: none; stroke: #000000; stroke-width: 0.8; stroke-linejoin: miter; stroke-linecap: square"/>
   </g>
   <g id="text_35">
    <text style="font-size: 16.8px; font-family: 'DejaVu Sans Mono'; text-anchor: middle" x="874.621563" y="20.054625" transform="rotate(-0 874.621563 20.054625)">Apparent calibration</text>
   </g>
   <g id="legend_2">
    <g id="patch_13">
     <path d="M 676.312788 83.46775 
L 850.582007 83.46775 
Q 852.782007 83.46775 852.782007 81.26775 
L 852.782007 33.754625 
Q 852.782007 31.554625 850.582007 31.554625 
L 676.312788 31.554625 
Q 674.112788 31.554625 674.112788 33.754625 
L 674.112788 81.26775 
Q 674.112788 83.46775 676.312788 83.46775 
z
" style="fill: #ffffff; opacity: 0.8; stroke: #cccccc; stroke-linejoin: miter"/>
    </g>
    <g id="line2d_65">
     <path d="M 678.512788 40.521344 
L 689.512788 40.521344 
L 700.512788 40.521344 
" style="fill: none; stroke: #5e81ac; stroke-width: 2.6; stroke-linecap: square"/>
    </g>
    <g id="text_36">
     <text style="font-size: 11px; font-family: 'DejaVu Sans Mono'; text-anchor: start" x="709.312788" y="44.371344" transform="rotate(-0 709.312788 44.371344)">7-rad</text>
    </g>
    <g id="line2d_66">
     <path d="M 678.512788 56.725719 
L 689.512788 56.725719 
L 700.512788 56.725719 
" style="fill: none; stroke: #bf616a; stroke-width: 2.6; stroke-linecap: square"/>
    </g>
    <g id="text_37">
     <text style="font-size: 11px; font-family: 'DejaVu Sans Mono'; text-anchor: start" x="709.312788" y="60.575719" transform="rotate(-0 709.312788 60.575719)">7-rad + MPD/thickness</text>
    </g>
    <g id="line2d_67">
     <path d="M 678.512788 72.930094 
L 689.512788 72.930094 
L 700.512788 72.930094 
" style="fill: none; stroke-dasharray: 5.55,2.4; stroke-dashoffset: 0; stroke: #4c566a; stroke-opacity: 0.65; stroke-width: 1.5"/>
    </g>
    <g id="text_38">
     <text style="font-size: 11px; font-family: 'DejaVu Sans Mono'; text-anchor: start" x="709.312788" y="76.780094" transform="rotate(-0 709.312788 76.780094)">Ideal</text>
    </g>
   </g>
  </g>
  <g id="axes_3">
   <g id="patch_14">
    <path d="M 1280.116513 460.830625 
L 1692.134063 460.830625 
L 1692.134063 26.054625 
L 1280.116513 26.054625 
z
" style="fill: #ffffff"/>
   </g>
   <g id="patch_15">
    <path d="M 1017.923528 441.06808 
L 1397.000089 441.06808 
L 1397.000089 375.192928 
L 1017.923528 375.192928 
z
" clip-path="url(#p65cbb7f0e9)" style="fill: #a3be8c; opacity: 0.86"/>
   </g>
   <g id="patch_16">
    <path d="M 1017.923528 358.72414 
L 1427.166548 358.72414 
L 1427.166548 292.848989 
L 1017.923528 292.848989 
z
" clip-path="url(#p65cbb7f0e9)" style="fill: #ebcb8b; opacity: 0.86"/>
   </g>
   <g id="patch_17">
    <path d="M 1017.923528 276.380201 
L 1340.135333 276.380201 
L 1340.135333 210.505049 
L 1017.923528 210.505049 
z
" clip-path="url(#p65cbb7f0e9)" style="fill: #81a1c1; opacity: 0.86"/>
   </g>
   <g id="patch_18">
    <path d="M 1017.923528 194.036261 
L 1607.616883 194.036261 
L 1607.616883 128.16111 
L 1017.923528 128.16111 
z
" clip-path="url(#p65cbb7f0e9)" style="fill: #5e81ac; opacity: 0.86"/>
   </g>
   <g id="patch_19">
    <path d="M 1017.923528 111.692322 
L 1602.967703 111.692322 
L 1602.967703 45.81717 
L 1017.923528 45.81717 
z
" clip-path="url(#p65cbb7f0e9)" style="fill: #bf616a; opacity: 0.86"/>
   </g>
   <g id="matplotlib.axis_5">
    <g id="xtick_14">
     <g id="line2d_68">
      <path d="M 1317.572654 460.830625 
L 1317.572654 26.054625 
" clip-path="url(#p65cbb7f0e9)" style="fill: none; stroke: #4c566a; stroke-opacity: 0.3; stroke-width: 0.8; stroke-linecap: square"/>
     </g>
     <g id="line2d_69">
      <g>
       <use xlink:href="#m7e2f427c73" x="1317.572654" y="460.830625" style="stroke: #000000; stroke-width: 0.8"/>
      </g>
     </g>
     <g id="text_39">
      <text style="font-size: 14px; font-family: 'DejaVu Sans Mono'; text-anchor: middle" x="1317.572654" y="478.542812" transform="rotate(-0 1317.572654 478.542812)">0.4</text>
     </g>
    </g>
    <g id="xtick_15">
     <g id="line2d_70">
      <path d="M 1392.484936 460.830625 
L 1392.484936 26.054625 
" clip-path="url(#p65cbb7f0e9)" style="fill: none; stroke: #4c566a; stroke-opacity: 0.3; stroke-width: 0.8; stroke-linecap: square"/>
     </g>
     <g id="line2d_71">
      <g>
       <use xlink:href="#m7e2f427c73" x="1392.484936" y="460.830625" style="stroke: #000000; stroke-width: 0.8"/>
      </g>
     </g>
     <g id="text_40">
      <text style="font-size: 14px; font-family: 'DejaVu Sans Mono'; text-anchor: middle" x="1392.484936" y="478.542812" transform="rotate(-0 1392.484936 478.542812)">0.5</text>
     </g>
    </g>
    <g id="xtick_16">
     <g id="line2d_72">
      <path d="M 1467.397218 460.830625 
L 1467.397218 26.054625 
" clip-path="url(#p65cbb7f0e9)" style="fill: none; stroke: #4c566a; stroke-opacity: 0.3; stroke-width: 0.8; stroke-linecap: square"/>
     </g>
     <g id="line2d_73">
      <g>
       <use xlink:href="#m7e2f427c73" x="1467.397218" y="460.830625" style="stroke: #000000; stroke-width: 0.8"/>
      </g>
     </g>
     <g id="text_41">
      <text style="font-size: 14px; font-family: 'DejaVu Sans Mono'; text-anchor: middle" x="1467.397218" y="478.542812" transform="rotate(-0 1467.397218 478.542812)">0.6</text>
     </g>
    </g>
    <g id="xtick_17">
     <g id="line2d_74">
      <path d="M 1542.309499 460.830625 
L 1542.309499 26.054625 
" clip-path="url(#p65cbb7f0e9)" style="fill: none; stroke: #4c566a; stroke-opacity: 0.3; stroke-width: 0.8; stroke-linecap: square"/>
     </g>
     <g id="line2d_75">
      <g>
       <use xlink:href="#m7e2f427c73" x="1542.309499" y="460.830625" style="stroke: #000000; stroke-width: 0.8"/>
      </g>
     </g>
     <g id="text_42">
      <text style="font-size: 14px; font-family: 'DejaVu Sans Mono'; text-anchor: middle" x="1542.309499" y="478.542812" transform="rotate(-0 1542.309499 478.542812)">0.7</text>
     </g>
    </g>
    <g id="xtick_18">
     <g id="line2d_76">
      <path d="M 1617.221781 460.830625 
L 1617.221781 26.054625 
" clip-path="url(#p65cbb7f0e9)" style="fill: none; stroke: #4c566a; stroke-opacity: 0.3; stroke-width: 0.8; stroke-linecap: square"/>
     </g>
     <g id="line2d_77">
      <g>
       <use xlink:href="#m7e2f427c73" x="1617.221781" y="460.830625" style="stroke: #000000; stroke-width: 0.8"/>
      </g>
     </g>
     <g id="text_43">
      <text style="font-size: 14px; font-family: 'DejaVu Sans Mono'; text-anchor: middle" x="1617.221781" y="478.542812" transform="rotate(-0 1617.221781 478.542812)">0.8</text>
     </g>
    </g>
    <g id="xtick_19">
     <g id="line2d_78">
      <path d="M 1692.134063 460.830625 
L 1692.134063 26.054625 
" clip-path="url(#p65cbb7f0e9)" style="fill: none; stroke: #4c566a; stroke-opacity: 0.3; stroke-width: 0.8; stroke-linecap: square"/>
     </g>
     <g id="line2d_79">
      <g>
       <use xlink:href="#m7e2f427c73" x="1692.134063" y="460.830625" style="stroke: #000000; stroke-width: 0.8"/>
      </g>
     </g>
     <g id="text_44">
      <text style="font-size: 14px; font-family: 'DejaVu Sans Mono'; text-anchor: middle" x="1692.134063" y="478.542812" transform="rotate(-0 1692.134063 478.542812)">0.9</text>
     </g>
    </g>
    <g id="text_45">
     <text style="font-size: 14px; font-family: 'DejaVu Sans Mono'; text-anchor: middle" x="1486.125288" y="496.166562" transform="rotate(-0 1486.125288 496.166562)">AUC</text>
    </g>
   </g>
   <g id="matplotlib.axis_6">
    <g id="ytick_15">
     <g id="line2d_80">
      <g>
       <use xlink:href="#m88d34e5295" x="1280.116513" y="408.130504" style="stroke: #000000; stroke-width: 0.8"/>
      </g>
     </g>
     <g id="text_46">
      <text style="font-size: 14px; font-family: 'DejaVu Sans Mono'; text-anchor: end" x="1273.116513" y="413.486598" transform="rotate(-0 1273.116513 413.486598)">DP-FRS preoperative</text>
     </g>
    </g>
    <g id="ytick_16">
     <g id="line2d_81">
      <g>
       <use xlink:href="#m88d34e5295" x="1280.116513" y="325.786564" style="stroke: #000000; stroke-width: 0.8"/>
      </g>
     </g>
     <g id="text_47">
      <text style="font-size: 14px; font-family: 'DejaVu Sans Mono'; text-anchor: end" x="1273.116513" y="331.142658" transform="rotate(-0 1273.116513 331.142658)">DP-FRS intraoperative</text>
     </g>
    </g>
    <g id="ytick_17">
     <g id="line2d_82">
      <g>
       <use xlink:href="#m88d34e5295" x="1280.116513" y="243.442625" style="stroke: #000000; stroke-width: 0.8"/>
      </g>
     </g>
     <g id="text_48">
      <text style="font-size: 14px; font-family: 'DejaVu Sans Mono'; text-anchor: end" x="1273.116513" y="248.798719" transform="rotate(-0 1273.116513 248.798719)">DISPAIR</text>
     </g>
    </g>
    <g id="ytick_18">
     <g id="line2d_83">
      <g>
       <use xlink:href="#m88d34e5295" x="1280.116513" y="161.098686" style="stroke: #000000; stroke-width: 0.8"/>
      </g>
     </g>
     <g id="text_49">
      <text style="font-size: 14px; font-family: 'DejaVu Sans Mono'; text-anchor: end" x="1273.116513" y="166.454779" transform="rotate(-0 1273.116513 166.454779)">7-rad</text>
     </g>
    </g>
    <g id="ytick_19">
     <g id="line2d_84">
      <g>
       <use xlink:href="#m88d34e5295" x="1280.116513" y="78.754746" style="stroke: #000000; stroke-width: 0.8"/>
      </g>
     </g>
     <g id="text_50">
      <text style="font-size: 14px; font-family: 'DejaVu Sans Mono'; text-anchor: end" x="1273.116513" y="84.11084" transform="rotate(-0 1273.116513 84.11084)">7-rad + MPD/thickness</text>
     </g>
    </g>
   </g>
   <g id="LineCollection_3">
    <path d="M 1313.106042 408.130504 
L 1479.722812 408.130504 
" clip-path="url(#p65cbb7f0e9)" style="fill: none; stroke: #2e3440; stroke-width: 1.5"/>
    <path d="M 1343.014449 325.786564 
L 1510.795423 325.786564 
" clip-path="url(#p65cbb7f0e9)" style="fill: none; stroke: #2e3440; stroke-width: 1.5"/>
    <path d="M 1265.796074 243.442625 
L 1417.52018 243.442625 
" clip-path="url(#p65cbb7f0e9)" style="fill: none; stroke: #2e3440; stroke-width: 1.5"/>
    <path d="M 1531.26367 161.098686 
L 1657.762806 161.098686 
" clip-path="url(#p65cbb7f0e9)" style="fill: none; stroke: #2e3440; stroke-width: 1.5"/>
    <path d="M 1517.854 78.754746 
L 1654.202761 78.754746 
" clip-path="url(#p65cbb7f0e9)" style="fill: none; stroke: #2e3440; stroke-width: 1.5"/>
   </g>
   <g id="line2d_85">
    <defs>
     <path id="m8f70346ee1" d="M 0 4 
L 0 -4 
" style="stroke: #2e3440"/>
    </defs>
    <g clip-path="url(#p65cbb7f0e9)">
     <use xlink:href="#m8f70346ee1" x="1313.106042" y="408.130504" style="fill: #2e3440; stroke: #2e3440"/>
     <use xlink:href="#m8f70346ee1" x="1343.014449" y="325.786564" style="fill: #2e3440; stroke: #2e3440"/>
     <use xlink:href="#m8f70346ee1" x="1265.796074" y="243.442625" style="fill: #2e3440; stroke: #2e3440"/>
     <use xlink:href="#m8f70346ee1" x="1531.26367" y="161.098686" style="fill: #2e3440; stroke: #2e3440"/>
     <use xlink:href="#m8f70346ee1" x="1517.854" y="78.754746" style="fill: #2e3440; stroke: #2e3440"/>
    </g>
   </g>
   <g id="line2d_86">
    <g clip-path="url(#p65cbb7f0e9)">
     <use xlink:href="#m8f70346ee1" x="1479.722812" y="408.130504" style="fill: #2e3440; stroke: #2e3440"/>
     <use xlink:href="#m8f70346ee1" x="1510.795423" y="325.786564" style="fill: #2e3440; stroke: #2e3440"/>
     <use xlink:href="#m8f70346ee1" x="1417.52018" y="243.442625" style="fill: #2e3440; stroke: #2e3440"/>
     <use xlink:href="#m8f70346ee1" x="1657.762806" y="161.098686" style="fill: #2e3440; stroke: #2e3440"/>
     <use xlink:href="#m8f70346ee1" x="1654.202761" y="78.754746" style="fill: #2e3440; stroke: #2e3440"/>
    </g>
   </g>
   <g id="patch_20">
    <path d="M 1280.116513 460.830625 
L 1280.116513 26.054625 
" style="fill: none; stroke: #000000; stroke-width: 0.8; stroke-linejoin: miter; stroke-linecap: square"/>
   </g>
   <g id="patch_21">
    <path d="M 1692.134063 460.830625 
L 1692.134063 26.054625 
" style="fill: none; stroke: #000000; stroke-width: 0.8; stroke-linejoin: miter; stroke-linecap: square"/>
   </g>
   <g id="patch_22">
    <path d="M 1280.116513 460.830625 
L 1692.134063 460.830625 
" style="fill: none; stroke: #000000; stroke-width: 0.8; stroke-linejoin: miter; stroke-linecap: square"/>
   </g>
   <g id="patch_23">
    <path d="M 1280.116513 26.054625 
L 1692.134063 26.054625 
" style="fill: none; stroke: #000000; stroke-width: 0.8; stroke-linejoin: miter; stroke-linecap: square"/>
   </g>
   <g id="text_51">
    <text style="font-size: 12px; font-family: 'DejaVu Sans Mono'; text-anchor: start" x="1405.989563" y="411.473629" transform="rotate(-0 1405.989563 411.473629)">0.506</text>
   </g>
   <g id="text_52">
    <text style="font-size: 12px; font-family: 'DejaVu Sans Mono'; text-anchor: start" x="1436.156022" y="329.129689" transform="rotate(-0 1436.156022 329.129689)">0.546</text>
   </g>
   <g id="text_53">
    <text style="font-size: 12px; font-family: 'DejaVu Sans Mono'; text-anchor: start" x="1349.124807" y="246.78575" transform="rotate(-0 1349.124807 246.78575)">0.430</text>
   </g>
   <g id="text_54">
    <text style="font-size: 12px; font-family: 'DejaVu Sans Mono'; text-anchor: start" x="1616.606357" y="164.441811" transform="rotate(-0 1616.606357 164.441811)">0.787</text>
   </g>
   <g id="text_55">
    <text style="font-size: 12px; font-family: 'DejaVu Sans Mono'; text-anchor: start" x="1611.957176" y="82.097871" transform="rotate(-0 1611.957176 82.097871)">0.781</text>
   </g>
   <g id="text_56">
    <text style="font-size: 16.8px; font-family: 'DejaVu Sans Mono'; text-anchor: middle" x="1486.125288" y="20.054625" transform="rotate(-0 1486.125288 20.054625)">Published benchmarks and refit models</text>
   </g>
  </g>
  <g id="text_57">
   <text style="font-size: 12px; font-family: 'DejaVu Sans Mono'; text-anchor: start; fill: #4c566a" x="9.179063" y="533.702625" transform="rotate(-0 9.179063 533.702625)">Paired validated comparison, 7-rad + MPD/thickness vs 7-rad: Delta AUC -0.023 [-0.050 to 0.001], bootstrap P=0.064.</text>
  </g>
 </g>
 <defs>
  <clipPath id="p5d8cab6224">
   <rect x="57.109063" y="26.054625" width="412.017549" height="434.776"/>
  </clipPath>
  <clipPath id="pbcbc9be771">
   <rect x="668.612788" y="26.054625" width="412.017549" height="434.776"/>
  </clipPath>
  <clipPath id="p65cbb7f0e9">
   <rect x="1280.116513" y="26.054625" width="412.017549" height="434.776"/>
  </clipPath>
 </defs>
</svg>
