<?xml version="1.0" encoding="UTF-8" standalone="no"?>
<svg
   width="900.67102pt"
   height="750.48901pt"
   viewBox="0 0 900.67098 750.489"
   version="1.1"
   id="svg249"
   sodipodi:docname="head_volume_distribution.svg"
   inkscape:version="1.4.2 (ebf0e940, 2025-05-08)"
   xmlns:inkscape="http://www.inkscape.org/namespaces/inkscape"
   xmlns:sodipodi="http://sodipodi.sourceforge.net/DTD/sodipodi-0.dtd"
   xmlns:xlink="http://www.w3.org/1999/xlink"
   xmlns="http://www.w3.org/2000/svg"
   xmlns:svg="http://www.w3.org/2000/svg"
   xmlns:rdf="http://www.w3.org/1999/02/22-rdf-syntax-ns#"
   xmlns:cc="http://creativecommons.org/ns#"
   xmlns:dc="http://purl.org/dc/elements/1.1/">
  <sodipodi:namedview
     id="namedview1"
     pagecolor="#ffffff"
     bordercolor="#000000"
     borderopacity="0.25"
     inkscape:showpageshadow="2"
     inkscape:pageopacity="0.0"
     inkscape:pagecheckerboard="0"
     inkscape:deskcolor="#d1d1d1"
     inkscape:document-units="pt"
     inkscape:zoom="0.50938086"
     inkscape:cx="521.221"
     inkscape:cy="612.5083"
     inkscape:window-width="1600"
     inkscape:window-height="941"
     inkscape:window-x="0"
     inkscape:window-y="50"
     inkscape:window-maximized="1"
     inkscape:current-layer="axes_1" />
  <metadata
     id="metadata1">
    <rdf:RDF>
      <cc:Work>
        <dc:type
           rdf:resource="http://purl.org/dc/dcmitype/StillImage" />
        <dc:date>2025-07-23T09:59:46.554204</dc:date>
        <dc:format>image/svg+xml</dc:format>
        <dc:creator>
          <cc:Agent>
            <dc:title>Matplotlib v3.10.3, https://matplotlib.org/</dc:title>
          </cc:Agent>
        </dc:creator>
      </cc:Work>
    </rdf:RDF>
  </metadata>
  <defs
     id="defs1">
    <style
       type="text/css"
       id="style1">*{stroke-linejoin: round; stroke-linecap: butt}</style>
  </defs>
  <g
     id="figure_1">
    <g
       id="patch_1"
       style="fill:#fcfcfc;fill-opacity:1"
       transform="translate(24,13.5)">
      <path
         d="M 0,690.48937 H 834.67062 V 0 H 0 Z"
         style="fill:#fcfcfc;fill-opacity:1"
         id="path1" />
    </g>
    <g
       id="axes_1"
       transform="translate(20.651536,18.106129)">
      <g
         id="patch_2">
        <path
           d="M 55.830625,641.84187 H 827.47063 V 26.681875 H 55.830625 Z"
           style="fill:#eceff4"
           id="path2" />
      </g>
      <g
         id="matplotlib.axis_1">
        <g
           id="xtick_1">
          <g
             id="line2d_1">
            <path
               d="M 148.20125,641.84187 V 26.681875"
               clip-path="url(#p36535ebc8e)"
               style="fill:none;stroke:#d8dee9;stroke-width:0.75;stroke-linecap:square;stroke-opacity:0.3"
               id="path3" />
          </g>
          <g
             id="line2d_2">
            <defs
               id="defs3">
              <path
                 id="m2d51c72e59"
                 d="M 0,0 V 3.5"
                 style="stroke:#000000;stroke-width:0.8" />
            </defs>
            <g
               id="g3">
              <use
                 xlink:href="#m2d51c72e59"
                 x="148.20125"
                 y="641.84186"
                 style="stroke:#000000;stroke-width:0.8"
                 id="use3" />
            </g>
          </g>
          <g
             id="text_1">
            <!-- 20 -->
            <g
               transform="matrix(0.18,0,0,-0.18,137.39844,659.8725)"
               id="g5">
              <defs
                 id="defs4">
                <path
                   id="CourierNewPSMT-32"
                   d="m 791,263 h 2015 v 103 q 0,93 37,134 38,41 98,41 56,0 93,-41 38,-41 38,-134 V 0 H 534 v 388 q 800,718 1557,1462 353,347 484,509 131,163 179,286 49,124 49,249 0,337 -272,596 -272,260 -656,260 -344,0 -610,-197 -265,-197 -343,-487 -19,-75 -47,-97 -37,-31 -87,-31 -54,0 -90,35 -35,36 -35,86 0,150 164,406 164,257 453,404 289,147 592,147 491,0 844,-341 353,-341 353,-772 0,-181 -60,-333 -59,-151 -201,-331 Q 2666,2059 2297,1697 1372,784 791,281 Z"
                   transform="scale(0.015625)" />
                <path
                   id="CourierNewPSMT-30"
                   d="m 3125,2284 v -650 q 0,-846 -403,-1340 -316,-388 -797,-388 -231,0 -436,93 -205,92 -348,257 -91,103 -199,331 -108,229 -154,419 -72,269 -72,628 v 650 q 0,850 403,1344 315,388 797,388 234,0 437,-93 203,-92 347,-257 94,-107 200,-335 106,-228 156,-415 69,-269 69,-632 z m -262,-34 q 0,372 -105,692 -105,321 -236,511 -78,110 -203,188 -178,109 -400,109 -441,0 -691,-450 Q 978,2850 978,2250 v -578 q 0,-372 105,-694 105,-322 239,-512 75,-107 200,-185 178,-112 403,-112 438,0 688,451 250,452 250,1052 z"
                   transform="scale(0.015625)" />
              </defs>
              <use
                 xlink:href="#CourierNewPSMT-32"
                 id="use4" />
              <use
                 xlink:href="#CourierNewPSMT-30"
                 transform="translate(60.009766)"
                 id="use5" />
            </g>
          </g>
        </g>
        <g
           id="xtick_2">
          <g
             id="line2d_3">
            <path
               d="M 242.09078,641.84187 V 26.681875"
               clip-path="url(#p36535ebc8e)"
               style="fill:none;stroke:#d8dee9;stroke-width:0.75;stroke-linecap:square;stroke-opacity:0.3"
               id="path5" />
          </g>
          <g
             id="line2d_4">
            <g
               id="g6">
              <use
                 xlink:href="#m2d51c72e59"
                 x="242.09077"
                 y="641.84186"
                 style="stroke:#000000;stroke-width:0.8"
                 id="use6" />
            </g>
          </g>
          <g
             id="text_2">
            <!-- 40 -->
            <g
               transform="matrix(0.18,0,0,-0.18,231.28797,659.8725)"
               id="g8">
              <defs
                 id="defs6">
                <path
                   id="CourierNewPSMT-34"
                   d="M 2409,1097 H 669 v 303 l 1459,2522 h 547 V 1359 h 219 q 97,0 137,-36 41,-35 41,-95 0,-56 -41,-94 -40,-37 -137,-37 H 2675 V 263 h 219 q 97,0 137,-36 41,-36 41,-96 0,-56 -41,-94 Q 2991,0 2894,0 h -975 q -97,0 -138,37 -40,38 -40,94 0,60 40,96 41,36 138,36 h 490 z m 0,262 V 3656 H 2272 L 944,1359 Z"
                   transform="scale(0.015625)" />
              </defs>
              <use
                 xlink:href="#CourierNewPSMT-34"
                 id="use7" />
              <use
                 xlink:href="#CourierNewPSMT-30"
                 transform="translate(60.009766)"
                 id="use8" />
            </g>
          </g>
        </g>
        <g
           id="xtick_3">
          <g
             id="line2d_5">
            <path
               d="M 335.98031,641.84187 V 26.681875"
               clip-path="url(#p36535ebc8e)"
               style="fill:none;stroke:#d8dee9;stroke-width:0.75;stroke-linecap:square;stroke-opacity:0.3"
               id="path8" />
          </g>
          <g
             id="line2d_6">
            <g
               id="g9">
              <use
                 xlink:href="#m2d51c72e59"
                 x="335.98032"
                 y="641.84186"
                 style="stroke:#000000;stroke-width:0.8"
                 id="use9" />
            </g>
          </g>
          <g
             id="text_3">
            <!-- 60 -->
            <g
               transform="matrix(0.18,0,0,-0.18,325.1775,659.8725)"
               id="g11">
              <defs
                 id="defs9">
                <path
                   id="CourierNewPSMT-36"
                   d="m 1138,1659 q 243,360 501,532 258,172 574,172 418,0 743,-349 325,-348 325,-861 0,-469 -297,-858 -296,-389 -818,-389 -341,0 -637,209 -295,210 -463,644 -210,541 -210,1197 0,494 197,919 150,328 400,576 250,249 583,407 333,158 720,158 263,0 438,-107 75,-46 75,-125 0,-56 -35,-92 -34,-36 -87,-36 -41,0 -97,32 -128,62 -319,62 -609,0 -1111,-524 -501,-523 -501,-1245 0,-103 19,-322 z m 59,-434 q 119,-569 373,-813 255,-243 602,-243 350,0 598,273 249,274 249,711 0,410 -250,678 -250,269 -566,269 -303,0 -584,-259 -188,-172 -422,-616 z"
                   transform="scale(0.015625)" />
              </defs>
              <use
                 xlink:href="#CourierNewPSMT-36"
                 id="use10" />
              <use
                 xlink:href="#CourierNewPSMT-30"
                 transform="translate(60.009766)"
                 id="use11" />
            </g>
          </g>
        </g>
        <g
           id="xtick_4">
          <g
             id="line2d_7">
            <path
               d="M 429.86984,641.84187 V 26.681875"
               clip-path="url(#p36535ebc8e)"
               style="fill:none;stroke:#d8dee9;stroke-width:0.75;stroke-linecap:square;stroke-opacity:0.3"
               id="path11" />
          </g>
          <g
             id="line2d_8">
            <g
               id="g12">
              <use
                 xlink:href="#m2d51c72e59"
                 x="429.86984"
                 y="641.84186"
                 style="stroke:#000000;stroke-width:0.8"
                 id="use12" />
            </g>
          </g>
          <g
             id="text_4">
            <!-- 80 -->
            <g
               transform="matrix(0.18,0,0,-0.18,419.06702,659.8725)"
               id="g14">
              <defs
                 id="defs12">
                <path
                   id="CourierNewPSMT-38"
                   d="m 2459,2034 q 329,-159 496,-420 167,-261 167,-561 0,-465 -350,-806 -350,-341 -850,-341 -500,0 -850,341 -350,341 -350,806 0,297 167,558 167,261 499,423 -288,166 -419,344 -181,253 -181,560 0,431 332,754 333,324 802,324 472,0 803,-324 331,-323 331,-754 0,-307 -181,-557 -128,-181 -416,-347 z m 329,894 q 0,338 -252,580 -252,242 -617,242 -363,0 -615,-244 -251,-243 -251,-575 0,-306 248,-536 249,-229 618,-229 372,0 620,229 249,230 249,533 z m 71,-1881 q 0,347 -269,603 -268,256 -668,256 -400,0 -669,-256 -269,-256 -269,-600 0,-356 270,-619 271,-262 668,-262 397,0 667,262 270,263 270,616 z"
                   transform="scale(0.015625)" />
              </defs>
              <use
                 xlink:href="#CourierNewPSMT-38"
                 id="use13" />
              <use
                 xlink:href="#CourierNewPSMT-30"
                 transform="translate(60.009766)"
                 id="use14" />
            </g>
          </g>
        </g>
        <g
           id="xtick_5">
          <g
             id="line2d_9">
            <path
               d="M 523.75936,641.84187 V 26.681875"
               clip-path="url(#p36535ebc8e)"
               style="fill:none;stroke:#d8dee9;stroke-width:0.75;stroke-linecap:square;stroke-opacity:0.3"
               id="path14" />
          </g>
          <g
             id="line2d_10">
            <g
               id="g15">
              <use
                 xlink:href="#m2d51c72e59"
                 x="523.75934"
                 y="641.84186"
                 style="stroke:#000000;stroke-width:0.8"
                 id="use15" />
            </g>
          </g>
          <g
             id="text_5">
            <!-- 100 -->
            <g
               transform="matrix(0.18,0,0,-0.18,507.55514,659.8725)"
               id="g18">
              <defs
                 id="defs15">
                <path
                   id="CourierNewPSMT-31"
                   d="M 2050,3975 V 263 h 900 q 94,0 134,-36 41,-36 41,-96 0,-56 -41,-94 Q 3044,0 2950,0 H 888 q -94,0 -135,37 -40,38 -40,94 0,60 40,96 41,36 135,36 h 900 V 3613 L 931,3344 q -62,-19 -90,-19 -47,0 -86,39 -39,39 -39,92 0,47 31,88 25,25 103,53 z"
                   transform="scale(0.015625)" />
              </defs>
              <use
                 xlink:href="#CourierNewPSMT-31"
                 id="use16" />
              <use
                 xlink:href="#CourierNewPSMT-30"
                 transform="translate(60.009766)"
                 id="use17" />
              <use
                 xlink:href="#CourierNewPSMT-30"
                 transform="translate(120.01953)"
                 id="use18" />
            </g>
          </g>
        </g>
        <g
           id="xtick_6">
          <g
             id="line2d_11">
            <path
               d="M 617.64889,641.84187 V 26.681875"
               clip-path="url(#p36535ebc8e)"
               style="fill:none;stroke:#d8dee9;stroke-width:0.75;stroke-linecap:square;stroke-opacity:0.3"
               id="path18" />
          </g>
          <g
             id="line2d_12">
            <g
               id="g19">
              <use
                 xlink:href="#m2d51c72e59"
                 x="617.64886"
                 y="641.84186"
                 style="stroke:#000000;stroke-width:0.8"
                 id="use19" />
            </g>
          </g>
          <g
             id="text_6">
            <!-- 120 -->
            <g
               transform="matrix(0.18,0,0,-0.18,601.44467,659.8725)"
               id="g22">
              <use
                 xlink:href="#CourierNewPSMT-31"
                 id="use20" />
              <use
                 xlink:href="#CourierNewPSMT-32"
                 transform="translate(60.009766)"
                 id="use21" />
              <use
                 xlink:href="#CourierNewPSMT-30"
                 transform="translate(120.01953)"
                 id="use22" />
            </g>
          </g>
        </g>
        <g
           id="xtick_7">
          <g
             id="line2d_13">
            <path
               d="M 711.53842,641.84187 V 26.681875"
               clip-path="url(#p36535ebc8e)"
               style="fill:none;stroke:#d8dee9;stroke-width:0.75;stroke-linecap:square;stroke-opacity:0.3"
               id="path22" />
          </g>
          <g
             id="line2d_14">
            <g
               id="g23">
              <use
                 xlink:href="#m2d51c72e59"
                 x="711.53839"
                 y="641.84186"
                 style="stroke:#000000;stroke-width:0.8"
                 id="use23" />
            </g>
          </g>
          <g
             id="text_7">
            <!-- 140 -->
            <g
               transform="matrix(0.18,0,0,-0.18,695.3342,659.8725)"
               id="g26">
              <use
                 xlink:href="#CourierNewPSMT-31"
                 id="use24" />
              <use
                 xlink:href="#CourierNewPSMT-34"
                 transform="translate(60.009766)"
                 id="use25" />
              <use
                 xlink:href="#CourierNewPSMT-30"
                 transform="translate(120.01953)"
                 id="use26" />
            </g>
          </g>
        </g>
        <g
           id="xtick_8">
          <g
             id="line2d_15">
            <path
               d="M 805.42795,641.84187 V 26.681875"
               clip-path="url(#p36535ebc8e)"
               style="fill:none;stroke:#d8dee9;stroke-width:0.75;stroke-linecap:square;stroke-opacity:0.3"
               id="path26" />
          </g>
          <g
             id="line2d_16">
            <g
               id="g27">
              <use
                 xlink:href="#m2d51c72e59"
                 x="805.42792"
                 y="641.84186"
                 style="stroke:#000000;stroke-width:0.8"
                 id="use27" />
            </g>
          </g>
          <g
             id="text_8">
            <!-- 160 -->
            <g
               transform="matrix(0.18,0,0,-0.18,789.22373,659.8725)"
               id="g30">
              <use
                 xlink:href="#CourierNewPSMT-31"
                 id="use28" />
              <use
                 xlink:href="#CourierNewPSMT-36"
                 transform="translate(60.009766)"
                 id="use29" />
              <use
                 xlink:href="#CourierNewPSMT-30"
                 transform="translate(120.01953)"
                 id="use30" />
            </g>
          </g>
        </g>
        <g
           id="text_9">
          <!-- Pancreatic Head Volume (mL) -->
        </g>
      </g>
      <g
         id="text_18">
        <g
           id="patch_37"
           transform="matrix(1.293542,0,0,2.2647304,-204.6383,-80.475407)">
          <path
             d="m 518.81831,110.83688 h 270.07032 q 5.4,0 5.4,-5.4 V 57.439875 q 0,-5.4 -5.4,-5.4 H 518.81831 q -5.4,0 -5.4,5.4 v 47.997005 q 0,5.4 5.4,5.4 z"
             style="opacity:0.9;fill:#eceff4;stroke:#4c566a;stroke-linejoin:miter"
             id="path130" />
        </g>
        <!-- n = 205 -->
        <!-- Mean ± SD: 49.1 ± 24.8 mL -->
        <!-- Range: 7.8 - 157.2 mL -->
      </g>
      <g
         id="matplotlib.axis_2">
        <g
           id="ytick_1">
          <g
             id="line2d_17">
            <path
               d="M 55.830625,641.84187 H 827.47063"
               clip-path="url(#p36535ebc8e)"
               style="fill:none;stroke:#d8dee9;stroke-width:0.75;stroke-linecap:square;stroke-opacity:0.3"
               id="path57" />
          </g>
          <g
             id="line2d_18">
            <defs
               id="defs57">
              <path
                 id="mbf3e50fb0e"
                 d="M 0,0 H -3.5"
                 style="stroke:#000000;stroke-width:0.8" />
            </defs>
            <g
               id="g58">
              <use
                 xlink:href="#mbf3e50fb0e"
                 x="55.830624"
                 y="641.84186"
                 style="stroke:#000000;stroke-width:0.8"
                 id="use58" />
            </g>
          </g>
          <g
             id="text_10">
            <!-- 0 -->
            <g
               transform="matrix(0.18,0,0,-0.18,38.027813,647.35719)"
               id="g59">
              <use
                 xlink:href="#CourierNewPSMT-30"
                 id="use59" />
            </g>
          </g>
        </g>
        <g
           id="ytick_2">
          <g
             id="line2d_19">
            <path
               d="M 55.830625,540.83038 H 827.47063"
               clip-path="url(#p36535ebc8e)"
               style="fill:none;stroke:#d8dee9;stroke-width:0.75;stroke-linecap:square;stroke-opacity:0.3"
               id="path59" />
          </g>
          <g
             id="line2d_20">
            <g
               id="g60">
              <use
                 xlink:href="#mbf3e50fb0e"
                 x="55.830624"
                 y="540.83038"
                 style="stroke:#000000;stroke-width:0.8"
                 id="use60" />
            </g>
          </g>
          <g
             id="text_11">
            <!-- 5 -->
            <g
               transform="matrix(0.18,0,0,-0.18,38.027813,546.34569)"
               id="g61">
              <defs
                 id="defs60">
                <path
                   id="CourierNewPSMT-35"
                   d="M 1197,3656 V 2372 q 231,97 443,145 213,49 404,49 494,0 826,-347 333,-347 333,-913 Q 3203,681 2828,293 2453,-94 1891,-94 1519,-94 1175,72 931,188 731,359 613,463 613,531 q 0,57 37,96 38,39 88,39 53,0 112,-57 472,-440 1028,-440 460,0 760,314 300,314 300,836 0,444 -260,714 -259,270 -659,270 -410,0 -819,-215 -100,-50 -141,-50 -56,0 -91,37 -34,38 -34,106 v 1741 h 1832 q 93,0 134,-38 41,-37 41,-96 0,-57 -41,-95 -41,-37 -134,-37 z"
                   transform="scale(0.015625)" />
              </defs>
              <use
                 xlink:href="#CourierNewPSMT-35"
                 id="use61" />
            </g>
          </g>
        </g>
        <g
           id="ytick_3">
          <g
             id="line2d_21">
            <path
               d="M 55.830625,439.81889 H 827.47063"
               clip-path="url(#p36535ebc8e)"
               style="fill:none;stroke:#d8dee9;stroke-width:0.75;stroke-linecap:square;stroke-opacity:0.3"
               id="path61" />
          </g>
          <g
             id="line2d_22">
            <g
               id="g62">
              <use
                 xlink:href="#mbf3e50fb0e"
                 x="55.830624"
                 y="439.81888"
                 style="stroke:#000000;stroke-width:0.8"
                 id="use62" />
            </g>
          </g>
          <g
             id="text_12">
            <!-- 10 -->
            <g
               transform="matrix(0.18,0,0,-0.18,27.225,445.3342)"
               id="g64">
              <use
                 xlink:href="#CourierNewPSMT-31"
                 id="use63" />
              <use
                 xlink:href="#CourierNewPSMT-30"
                 transform="translate(60.009766)"
                 id="use64" />
            </g>
          </g>
        </g>
        <g
           id="ytick_4">
          <g
             id="line2d_23">
            <path
               d="M 55.830625,338.80739 H 827.47063"
               clip-path="url(#p36535ebc8e)"
               style="fill:none;stroke:#d8dee9;stroke-width:0.75;stroke-linecap:square;stroke-opacity:0.3"
               id="path64" />
          </g>
          <g
             id="line2d_24">
            <g
               id="g65">
              <use
                 xlink:href="#mbf3e50fb0e"
                 x="55.830624"
                 y="338.8074"
                 style="stroke:#000000;stroke-width:0.8"
                 id="use65" />
            </g>
          </g>
          <g
             id="text_13">
            <!-- 15 -->
            <g
               transform="matrix(0.18,0,0,-0.18,27.225,344.3227)"
               id="g67">
              <use
                 xlink:href="#CourierNewPSMT-31"
                 id="use66" />
              <use
                 xlink:href="#CourierNewPSMT-35"
                 transform="translate(60.009766)"
                 id="use67" />
            </g>
          </g>
        </g>
        <g
           id="ytick_5">
          <g
             id="line2d_25">
            <path
               d="M 55.830625,237.7959 H 827.47063"
               clip-path="url(#p36535ebc8e)"
               style="fill:none;stroke:#d8dee9;stroke-width:0.75;stroke-linecap:square;stroke-opacity:0.3"
               id="path67" />
          </g>
          <g
             id="line2d_26">
            <g
               id="g68">
              <use
                 xlink:href="#mbf3e50fb0e"
                 x="55.830624"
                 y="237.7959"
                 style="stroke:#000000;stroke-width:0.8"
                 id="use68" />
            </g>
          </g>
          <g
             id="text_14">
            <!-- 20 -->
            <g
               transform="matrix(0.18,0,0,-0.18,27.225,243.31121)"
               id="g70">
              <use
                 xlink:href="#CourierNewPSMT-32"
                 id="use69" />
              <use
                 xlink:href="#CourierNewPSMT-30"
                 transform="translate(60.009766)"
                 id="use70" />
            </g>
          </g>
        </g>
        <g
           id="ytick_6">
          <g
             id="line2d_27">
            <path
               d="M 55.830625,136.7844 H 827.47063"
               clip-path="url(#p36535ebc8e)"
               style="fill:none;stroke:#d8dee9;stroke-width:0.75;stroke-linecap:square;stroke-opacity:0.3"
               id="path70" />
          </g>
          <g
             id="line2d_28">
            <g
               id="g71">
              <use
                 xlink:href="#mbf3e50fb0e"
                 x="55.830624"
                 y="136.78441"
                 style="stroke:#000000;stroke-width:0.8"
                 id="use71" />
            </g>
          </g>
          <g
             id="text_15">
            <!-- 25 -->
            <g
               transform="matrix(0.18,0,0,-0.18,27.225,142.29972)"
               id="g73">
              <use
                 xlink:href="#CourierNewPSMT-32"
                 id="use72" />
              <use
                 xlink:href="#CourierNewPSMT-35"
                 transform="translate(60.009766)"
                 id="use73" />
            </g>
          </g>
        </g>
        <g
           id="ytick_7">
          <g
             id="line2d_29">
            <path
               d="M 55.830625,35.772909 H 827.47063"
               clip-path="url(#p36535ebc8e)"
               style="fill:none;stroke:#d8dee9;stroke-width:0.75;stroke-linecap:square;stroke-opacity:0.3"
               id="path73" />
          </g>
          <g
             id="line2d_30">
            <g
               id="g74">
              <use
                 xlink:href="#mbf3e50fb0e"
                 x="55.830624"
                 y="35.772907"
                 style="stroke:#000000;stroke-width:0.8"
                 id="use74" />
            </g>
          </g>
          <g
             id="text_16">
            <!-- 30 -->
            <g
               transform="matrix(0.18,0,0,-0.18,27.225,41.288222)"
               id="g76">
              <defs
                 id="defs74">
                <path
                   id="CourierNewPSMT-33"
                   d="m 2459,2134 q 363,-162 553,-445 191,-283 191,-589 0,-472 -383,-833 -382,-361 -957,-361 -338,0 -701,144 -362,144 -506,294 -47,50 -47,106 0,50 36,87 36,38 86,38 50,0 113,-47 484,-359 1025,-359 456,0 764,286 308,286 308,636 0,234 -152,459 -151,225 -436,354 -284,130 -575,130 -94,0 -135,36 -40,36 -40,96 0,56 39,93 39,38 117,38 l 225,-3 q 354,0 583,215 230,216 230,500 0,294 -241,519 -240,225 -628,225 -272,0 -500,-94 -228,-93 -365,-256 -50,-62 -77,-76 -27,-14 -61,-14 -53,0 -91,35 -37,36 -37,86 0,125 272,316 378,266 859,266 497,0 816,-299 319,-298 319,-711 0,-262 -154,-497 -153,-234 -450,-375 z"
                   transform="scale(0.015625)" />
              </defs>
              <use
                 xlink:href="#CourierNewPSMT-33"
                 id="use75" />
              <use
                 xlink:href="#CourierNewPSMT-30"
                 transform="translate(60.009766)"
                 id="use76" />
            </g>
          </g>
        </g>
        <g
           id="text_17">
          <!-- Number of Patients -->
          <g
             transform="matrix(0,-0.2,-0.2,0,19.45625,442.29)"
             id="g94">
            <defs
               id="defs76">
              <path
                 id="CourierNewPSMT-4e"
                 d="M 3206,0 H 2869 L 934,3272 V 263 h 485 q 97,0 137,-36 41,-36 41,-96 0,-56 -41,-94 Q 1516,0 1419,0 H 453 q -97,0 -138,37 -40,38 -40,94 0,60 40,96 41,36 138,36 H 672 V 3394 H 319 q -94,0 -135,36 -40,36 -40,95 0,59 40,95 41,36 135,36 h 687 L 2944,378 v 3016 h -485 q -93,0 -134,36 -41,36 -41,95 0,59 39,95 40,36 136,36 h 969 q 94,0 134,-36 41,-36 41,-95 0,-59 -41,-95 -40,-36 -134,-36 h -222 z"
                 transform="scale(0.015625)" />
              <path
                 id="CourierNewPSMT-62"
                 d="M 931,3922 V 2181 q 475,619 1147,619 575,0 984,-417 410,-417 410,-1024 0,-612 -414,-1037 -414,-425 -980,-425 -687,0 -1147,619 V 0 H 316 q -94,0 -135,37 -40,38 -40,94 0,60 40,96 41,36 135,36 H 669 V 3656 H 316 q -94,0 -135,37 -40,38 -40,98 0,56 40,93 41,38 135,38 z M 3209,1347 q 0,497 -341,842 -340,345 -796,345 -456,0 -797,-345 -341,-345 -341,-842 0,-497 341,-843 341,-345 797,-345 456,0 796,345 341,346 341,843 z"
                 transform="scale(0.015625)" />
              <path
                 id="CourierNewPSMT-66"
                 d="M 1747,2441 V 263 h 1153 q 94,0 134,-36 41,-36 41,-96 0,-56 -41,-94 Q 2994,0 2900,0 H 847 q -94,0 -135,37 -40,38 -40,94 0,60 40,96 41,36 135,36 h 634 V 2441 H 913 q -94,0 -135,37 -40,38 -40,97 0,56 40,93 41,38 135,38 h 568 v 397 q 0,331 269,575 269,244 713,244 371,0 793,-69 160,-25 192,-60 33,-34 33,-90 0,-56 -38,-92 -37,-36 -99,-36 -25,0 -85,9 -471,72 -796,72 -344,0 -530,-169 -186,-168 -186,-384 v -397 h 1228 q 94,0 134,-38 41,-37 41,-96 0,-56 -41,-94 -40,-37 -134,-37 z"
                 transform="scale(0.015625)" />
              <path
                 id="CourierNewPSMT-73"
                 d="m 2788,2534 q 0,91 37,131 38,41 94,41 59,0 96,-41 38,-40 38,-137 v -450 q 0,-94 -38,-135 -37,-40 -96,-40 -53,0 -89,34 -36,35 -42,113 -19,188 -194,309 -256,175 -678,175 -441,0 -685,-178 -184,-134 -184,-300 0,-187 219,-312 150,-88 568,-135 547,-59 760,-134 303,-109 451,-303 149,-194 149,-419 0,-334 -322,-595 -322,-261 -944,-261 -622,0 -1019,316 Q 909,106 896,75 884,44 851,22 819,0 778,0 722,0 684,40 647,81 647,175 v 541 q 0,93 36,134 36,41 95,41 56,0 95,-39 40,-39 40,-105 0,-144 71,-241 110,-150 349,-249 239,-98 586,-98 512,0 762,191 250,191 250,403 0,244 -253,391 -256,147 -745,197 -489,50 -702,131 -212,81 -331,243 -119,163 -119,351 0,337 331,535 332,199 791,199 544,0 885,-266 z"
                 transform="scale(0.015625)" />
            </defs>
            <use
               xlink:href="#CourierNewPSMT-4e"
               id="use77" />
            <path
               id="use78"
               d="m 104.05664,0 v 6 q -8.406249,-7.609375 -18.171874,-7.609375 -6,0 -9.125,3.265625 -4.046875,4.296875 -4.046875,10.015625 v 26.46875 h -5.53125 q -1.453125,0 -2.09375,0.578125 -0.640625,0.59375 -0.640625,1.515625 0,0.875 0.640625,1.453125 0.640625,0.59375 2.09375,0.59375 h 9.625 V 11.671875 q 0,-4 2.53125,-6.59375 2.546875,-2.59375 6.359375,-2.59375 10,0 18.359374,9.1875 v 26.46875 h -7.578124 q -1.453125,0 -2.09375,0.578125 -0.640625,0.59375 -0.640625,1.515625 0,0.875 0.640625,1.453125 0.640625,0.59375 2.09375,0.59375 H 108.15039 V 4.109375 h 3.46875 q 1.46875,0 2.09375,-0.5625 0.64063,-0.5625 0.64063,-1.5 0,-0.875 -0.64063,-1.46875 Q 113.08789,0 111.61914,0 Z"
               style="stroke-width:0.015625" />
            <path
               id="use79"
               d="m 131.34765,42.28125 v -4.140625 q 5.21875,5.609375 10.5,5.609375 3.17188,0 5.5625,-1.6875 2.39063,-1.6875 4,-5.09375 2.73438,3.40625 5.54688,5.09375 2.8125,1.6875 5.64062,1.6875 4.4375,0 7.07813,-2.875 3.46875,-3.71875 3.46875,-8.109375 V 4.109375 h 3.46875 q 1.46875,0 2.09375,-0.5625 0.64062,-0.5625 0.64062,-1.5 0,-0.875 -0.64062,-1.46875 Q 178.08203,0 176.61328,0 h -7.5625 v 32.375 q 0,3.125 -1.90625,5.171875 -1.90625,2.046875 -4.40625,2.046875 -2.23438,0 -4.73438,-1.6875 -2.48437,-1.671875 -5.65625,-6.609375 v -27.1875 h 3.42188 q 1.45312,0 2.09375,-0.5625 0.64062,-0.5625 0.64062,-1.5 0,-0.875 -0.64062,-1.46875 Q 157.22265,0 155.76953,0 h -7.57813 v 32.078125 q 0,3.28125 -1.9375,5.390625 -1.92187,2.125 -4.3125,2.125 -2.1875,0 -4.34375,-1.40625 -2.98437,-2 -6.25,-6.890625 v -27.1875 h 3.46875 q 1.46875,0 2.09375,-0.5625 0.64063,-0.5625 0.64063,-1.5 0,-0.875 -0.64063,-1.46875 Q 136.28515,0 134.8164,0 h -11.03124 q -1.46875,0 -2.10938,0.578125 -0.625,0.59375 -0.625,1.46875 0,0.9375 0.625,1.5 0.64063,0.5625 2.10938,0.5625 h 3.46875 v 34.03125 h -3.46875 q -1.46875,0 -2.10938,0.578125 -0.625,0.59375 -0.625,1.515625 0,0.875 0.625,1.453125 0.64063,0.59375 2.10938,0.59375 z"
               style="stroke-width:0.015625" />
            <use
               xlink:href="#CourierNewPSMT-62"
               transform="translate(180.0293)"
               id="use80" />
            <path
               id="use81"
               d="m 292.24218,20.171875 h -41.79687 q 1.0625,-7.96875 6.65625,-12.828125 5.59375,-4.859375 13.84375,-4.859375 4.59375,0 9.625,1.515625 5.03125,1.515625 8.20312,4.015625 0.92188,0.71875 1.60938,0.71875 0.78125,0 1.35937,-0.609375 0.59375,-0.609375 0.59375,-1.4375 0,-0.828125 -0.78125,-1.609375 -2.34375,-2.4375 -8.32812,-4.5625 -5.98438,-2.125 -12.28125,-2.125 -10.54688,0 -17.60938,6.90625 -7.04687,6.90625 -7.04687,16.71875 0,8.9375 6.60937,15.328125 6.625,6.40625 16.39063,6.40625 10.0625,0 16.54687,-6.578125 6.5,-6.5625 6.40625,-17 z m -4.15625,4.140625 q -1.21875,6.796875 -6.42187,11.03125 -5.20313,4.25 -12.375,4.25 -7.17188,0 -12.35938,-4.203125 -5.17187,-4.1875 -6.4375,-11.078125 z"
               style="stroke-width:0.015625" />
            <path
               id="use82"
               d="M 325.14258,42.28125 V 31.9375 q 8.01562,7.21875 11.98437,9.296875 3.98438,2.078125 7.35938,2.078125 3.65625,0 6.79687,-2.46875 3.15625,-2.46875 3.15625,-3.734375 0,-0.921875 -0.60937,-1.53125 -0.60938,-0.609375 -1.53125,-0.609375 -0.48438,0 -0.82813,0.15625 -0.34375,0.171875 -1.28125,1.109375 -1.70312,1.703125 -2.96875,2.328125 -1.26562,0.640625 -2.5,0.640625 -2.67187,0 -6.46875,-2.15625 Q 334.4707,34.90625 325.14258,26.5625 V 4.109375 h 18.17187 q 1.51563,0 2.14063,-0.5625 0.64062,-0.5625 0.64062,-1.5 0,-0.875 -0.64062,-1.46875 Q 344.83008,0 343.31445,0 h -32.1875 Q 309.67383,0 309.0332,0.5625 308.39258,1.125 308.39258,2 q 0,0.828125 0.60937,1.390625 0.625,0.5625 2.125,0.5625 h 9.92188 v 34.1875 h -7.57813 q -1.45312,0 -2.09375,0.578125 -0.64062,0.59375 -0.64062,1.515625 0,0.875 0.60937,1.453125 0.625,0.59375 2.125,0.59375 z"
               style="stroke-width:0.015625" />
            <path
               id="use83"
               d=""
               style="stroke-width:0.015625" />
            <path
               id="use84"
               d="m 473.00586,21.046875 q 0,-9.375 -6.71875,-16.015625 -6.71875,-6.640625 -16.1875,-6.640625 -9.57813,0 -16.26563,6.65625 -6.6875,6.671875 -6.6875,16 0,9.375 6.6875,16.03125 6.6875,6.671875 16.26563,6.671875 9.46875,0 16.1875,-6.640625 6.71875,-6.640625 6.71875,-16.0625 z m -4.15625,0 q 0,7.71875 -5.5,13.125 -5.48438,5.421875 -13.29688,5.421875 -7.8125,0 -13.3125,-5.4375 -5.48437,-5.4375 -5.48437,-13.109375 0,-7.625 5.48437,-13.09375 5.5,-5.46875 13.3125,-5.46875 7.8125,0 13.29688,5.4375 5.5,5.453125 5.5,13.125 z"
               style="stroke-width:0.015625" />
            <use
               xlink:href="#CourierNewPSMT-66"
               transform="translate(480.07812)"
               id="use85" />
            <path
               id="use86"
               d=""
               style="stroke-width:0.015625" />
            <path
               id="use87"
               d="M 621.19141,23.4375 V 4.109375 h 14.0625 q 1.46875,0 2.09375,-0.5625 0.64063,-0.5625 0.64063,-1.5 0,-0.875 -0.64063,-1.46875 Q 636.72266,0 635.25391,0 h -23.6875 q -1.45312,0 -2.09375,0.578125 -0.64062,0.59375 -0.64062,1.46875 0,0.9375 0.64062,1.5 0.64063,0.5625 2.09375,0.5625 h 5.53125 V 53.03125 h -5.53125 q -1.45312,0 -2.09375,0.5625 -0.64062,0.5625 -0.64062,1.484375 0,0.921875 0.64062,1.484375 0.64063,0.5625 2.09375,0.5625 h 23.82813 q 8.45312,0 13.79687,-4.984375 5.34375,-4.96875 5.34375,-11.65625 0,-3.953125 -1.73437,-7.140625 -1.71875,-3.171875 -4.17188,-4.96875 -3.65625,-2.734375 -7.5625,-4.015625 -2.82812,-0.921875 -7.03125,-0.921875 z m 0,4.109375 h 13.09375 q 4.53125,0 8.51563,2.015625 3.98437,2.03125 5.8125,4.953125 1.82812,2.9375 1.82812,5.96875 0,4.828125 -4.15625,8.6875 -4.14062,3.859375 -10.5,3.859375 h -14.59375 z"
               style="stroke-width:0.015625" />
            <path
               id="use88"
               d="m 701.9043,0 v 5.90625 q -8.9375,-7.515625 -19.09375,-7.515625 -7.375,0 -11.53125,3.734375 -4.14063,3.734375 -4.14063,9.15625 0,5.953125 5.46875,10.390625 5.46875,4.453125 15.96875,4.453125 2.82813,0 6.14063,-0.375 3.32812,-0.359375 7.1875,-1.140625 V 31.25 q 0,3.375 -3.125,5.859375 -3.125,2.484375 -9.375,2.484375 -4.78125,0 -13.42188,-2.78125 -1.5625,-0.484375 -2,-0.484375 -0.78125,0 -1.34375,0.578125 -0.5625,0.59375 -0.5625,1.46875 0,0.828125 0.48438,1.328125 0.6875,0.734375 5.51562,2 7.625,2.046875 11.53125,2.046875 7.75,0 12.09375,-3.84375 4.35938,-3.828125 4.35938,-8.65625 V 4.109375 h 5.46875 q 1.51562,0 2.14062,-0.5625 0.64063,-0.5625 0.64063,-1.5 0,-0.875 -0.64063,-1.46875 Q 713.04492,0 711.5293,0 Z m 0,20.40625 q -2.875,0.828125 -6.10938,1.21875 -3.21875,0.390625 -6.78125,0.390625 -8.9375,0 -13.96875,-3.84375 -3.79687,-2.890625 -3.79687,-6.890625 0,-3.71875 2.89062,-6.265625 2.90625,-2.53125 8.48438,-2.53125 5.3125,0 9.875,2.125 4.57812,2.125 9.40625,6.765625 z"
               style="stroke-width:0.015625" />
            <path
               id="use89"
               d="m 741.69532,42.28125 h 22.26562 q 1.46875,0 2.09375,-0.59375 0.64063,-0.578125 0.64063,-1.5 0,-0.875 -0.64063,-1.46875 -0.625,-0.578125 -2.09375,-0.578125 H 741.69532 V 10.84375 q 0,-3.5625 2.85937,-5.96875 2.85938,-2.390625 8.375,-2.390625 4.15625,0 8.98438,1.25 4.82812,1.25 7.51562,2.8125 0.98438,0.625 1.60938,0.625 0.78125,0 1.35937,-0.609375 0.59375,-0.609375 0.59375,-1.4375 0,-0.734375 -0.625,-1.359375 -1.5625,-1.609375 -7.59375,-3.5 -6.03125,-1.875 -11.54687,-1.875 -7.1875,0 -11.4375,3.359375 -4.23438,3.375 -4.23438,9.09375 v 27.296875 h -7.57812 q -1.45313,0 -2.09375,0.578125 -0.64063,0.59375 -0.64063,1.515625 0,0.875 0.64063,1.453125 0.64062,0.59375 2.09375,0.59375 h 7.57812 v 12.109375 q 0,1.46875 0.57813,2.09375 0.59375,0.640625 1.46875,0.640625 0.92187,0 1.5,-0.640625 0.59375,-0.625 0.59375,-2.09375 z"
               style="stroke-width:0.015625" />
            <path
               id="use90"
               d="m 812.1582,63.328125 v -10.59375 h -6.04688 v 10.59375 z M 812.29882,42.28125 V 4.109375 h 16.125 q 1.51563,0 2.14063,-0.5625 0.64062,-0.5625 0.64062,-1.5 0,-0.875 -0.64062,-1.46875 Q 829.93945,0 828.42382,0 H 792.0957 q -1.46875,0 -2.10938,0.578125 -0.625,0.59375 -0.625,1.46875 0,0.9375 0.625,1.5 0.64063,0.5625 2.10938,0.5625 h 16.10937 v 34.03125 h -11.96875 q -1.45312,0 -2.125,0.578125 -0.65625,0.59375 -0.65625,1.46875 0,0.921875 0.625,1.5 0.64063,0.59375 2.15625,0.59375 z"
               style="stroke-width:0.015625" />
            <path
               id="use91"
               d="m 892.33984,20.171875 h -41.79687 q 1.0625,-7.96875 6.65625,-12.828125 5.59375,-4.859375 13.84375,-4.859375 4.59375,0 9.625,1.515625 5.03125,1.515625 8.20312,4.015625 0.92188,0.71875 1.60938,0.71875 0.78125,0 1.35937,-0.609375 0.59375,-0.609375 0.59375,-1.4375 0,-0.828125 -0.78125,-1.609375 -2.34375,-2.4375 -8.32812,-4.5625 -5.98438,-2.125 -12.28125,-2.125 -10.54688,0 -17.60938,6.90625 -7.04687,6.90625 -7.04687,16.71875 0,8.9375 6.60937,15.328125 6.625,6.40625 16.39063,6.40625 10.0625,0 16.54687,-6.578125 6.5,-6.5625 6.40625,-17 z m -4.15625,4.140625 q -1.21875,6.796875 -6.42187,11.03125 -5.20313,4.25 -12.375,4.25 -7.17188,0 -12.35938,-4.203125 -5.17187,-4.1875 -6.4375,-11.078125 z"
               style="stroke-width:0.015625" />
            <path
               id="use92"
               d="m 916.89648,42.28125 v -6.203125 q 4.29687,4.359375 7.76562,6.015625 3.46875,1.65625 7.8125,1.65625 4.6875,0 8.54688,-2 2.73437,-1.46875 4.95312,-4.859375 Q 948.19335,33.5 948.19335,29.9375 V 4.109375 h 3.46875 q 1.46875,0 2.09375,-0.5625 0.64063,-0.5625 0.64063,-1.5 0,-0.875 -0.64063,-1.46875 Q 953.13085,0 951.6621,0 h -10.98437 q -1.51563,0 -2.15625,0.578125 -0.625,0.59375 -0.625,1.46875 0,0.9375 0.625,1.5 0.64062,0.5625 2.15625,0.5625 h 3.42187 V 29.25 q 0,4.34375 -3.1875,7.34375 -3.17187,3 -8.48437,3 -4.0625,0 -7.04688,-1.640625 -2.96875,-1.625 -8.48437,-8.125 V 4.109375 h 4.64062 q 1.46875,0 2.09375,-0.5625 0.64063,-0.5625 0.64063,-1.5 0,-0.875 -0.64063,-1.46875 Q 923.00585,0 921.5371,0 h -13.375 q -1.46875,0 -2.10937,0.578125 -0.625,0.59375 -0.625,1.46875 0,0.9375 0.625,1.5 0.64062,0.5625 2.10937,0.5625 h 4.625 v 34.03125 h -3.45312 q -1.46875,0 -2.10938,0.578125 -0.625,0.59375 -0.625,1.515625 0,0.875 0.625,1.453125 0.64063,0.59375 2.10938,0.59375 z"
               style="stroke-width:0.015625" />
            <path
               id="use93"
               d="M 981.73437,42.28125 H 1004 q 1.4687,0 2.0937,-0.59375 0.6407,-0.578125 0.6407,-1.5 0,-0.875 -0.6407,-1.46875 -0.625,-0.578125 -2.0937,-0.578125 H 981.73437 V 10.84375 q 0,-3.5625 2.85938,-5.96875 2.85937,-2.390625 8.375,-2.390625 4.15625,0 8.98435,1.25 4.8281,1.25 7.5156,2.8125 0.9844,0.625 1.6094,0.625 0.7813,0 1.3594,-0.609375 0.5937,-0.609375 0.5937,-1.4375 0,-0.734375 -0.625,-1.359375 -1.5625,-1.609375 -7.5937,-3.5 -6.03125,-1.875 -11.54688,-1.875 -7.1875,0 -11.4375,3.359375 -4.23437,3.375 -4.23437,9.09375 v 27.296875 h -7.57813 q -1.45312,0 -2.09375,0.578125 -0.64062,0.59375 -0.64062,1.515625 0,0.875 0.64062,1.453125 0.64063,0.59375 2.09375,0.59375 h 7.57813 v 12.109375 q 0,1.46875 0.57812,2.09375 0.59375,0.640625 1.46875,0.640625 0.92188,0 1.5,-0.640625 0.59375,-0.625 0.59375,-2.09375 z"
               style="stroke-width:0.015625" />
            <use
               xlink:href="#CourierNewPSMT-73"
               transform="translate(1020.166)"
               id="use94" />
            <text
               xml:space="preserve"
               style="font-weight:bold;font-size:120px;line-height:1.95;font-family:'Courier New';-inkscape-font-specification:'Courier New, Bold';text-align:start;writing-mode:lr-tb;direction:ltr;text-anchor:start;white-space:pre;inline-size:1975.02;fill:none;stroke:#000000;stroke-width:4.99999;stroke-linejoin:bevel;paint-order:markers fill stroke"
               x="2685.647"
               y="-1431.7668"
               id="text4"
               transform="matrix(0,-1,-1,0,467.76842,427.34399)"><tspan
                 x="2685.647"
                 y="-1431.7668"
                 id="tspan2"><tspan
                   style="font-weight:normal;-inkscape-font-specification:'Courier New';fill:#000000;stroke-width:5;stroke-linejoin:round"
                   id="tspan1">n = 205
</tspan></tspan><tspan
                 x="2685.647"
                 y="-1196.2196"
                 id="tspan7"><tspan
                   style="font-weight:normal;-inkscape-font-specification:'Courier New';fill:#000000;stroke-width:5;stroke-linejoin:round"
                   id="tspan3">Mean ± SD: 49.1 ± 24.8mL
</tspan></tspan><tspan
                 x="2685.647"
                 y="-960.67237"
                 id="tspan9"><tspan
                   style="font-weight:normal;-inkscape-font-specification:'Courier New';fill:#000000;stroke-width:5;stroke-linejoin:round"
                   id="tspan8">Range: [7.8 ; 157.2 mL]</tspan></tspan></text>
          </g>
        </g>
      </g>
      <g
         id="patch_3">
        <path
           d="M 90.90517,641.84187 H 114.2882 V 601.43728 H 90.90517 Z"
           clip-path="url(#p36535ebc8e)"
           style="opacity:0.7;fill:#5e81ac;stroke:#4c566a;stroke-width:2;stroke-linejoin:miter"
           id="path94" />
      </g>
      <g
         id="patch_4">
        <path
           d="m 114.2882,641.84187 h 23.38303 V 581.23498 H 114.2882 Z"
           clip-path="url(#p36535ebc8e)"
           style="opacity:0.7;fill:#5e81ac;stroke:#4c566a;stroke-width:2;stroke-linejoin:miter"
           id="path95" />
      </g>
      <g
         id="patch_5">
        <path
           d="m 137.67123,641.84187 h 23.38303 V 520.62808 h -23.38303 z"
           clip-path="url(#p36535ebc8e)"
           style="opacity:0.7;fill:#5e81ac;stroke:#4c566a;stroke-width:2;stroke-linejoin:miter"
           id="path96" />
      </g>
      <g
         id="patch_6">
        <path
           d="m 161.05426,641.84187 h 23.38303 V 359.00969 h -23.38303 z"
           clip-path="url(#p36535ebc8e)"
           style="opacity:0.7;fill:#5e81ac;stroke:#4c566a;stroke-width:2;stroke-linejoin:miter"
           id="path97" />
      </g>
      <g
         id="patch_7">
        <path
           d="m 184.43729,641.84187 h 23.38303 V 96.379806 h -23.38303 z"
           clip-path="url(#p36535ebc8e)"
           style="opacity:0.7;fill:#5e81ac;stroke:#4c566a;stroke-width:2;stroke-linejoin:miter"
           id="path98" />
      </g>
      <g
         id="patch_8">
        <path
           d="m 207.82032,641.84187 h 23.38303 V 257.9982 h -23.38303 z"
           clip-path="url(#p36535ebc8e)"
           style="opacity:0.7;fill:#5e81ac;stroke:#4c566a;stroke-width:2;stroke-linejoin:miter"
           id="path99" />
      </g>
      <g
         id="patch_9">
        <path
           d="m 231.20335,641.84187 h 23.38303 V 55.975208 h -23.38303 z"
           clip-path="url(#p36535ebc8e)"
           style="opacity:0.7;fill:#5e81ac;stroke:#4c566a;stroke-width:2;stroke-linejoin:miter"
           id="path100" />
      </g>
      <g
         id="patch_10">
        <path
           d="m 254.58638,641.84187 h 23.38303 V 156.9867 h -23.38303 z"
           clip-path="url(#p36535ebc8e)"
           style="opacity:0.7;fill:#5e81ac;stroke:#4c566a;stroke-width:2;stroke-linejoin:miter"
           id="path101" />
      </g>
      <g
         id="patch_11">
        <path
           d="m 277.96941,641.84187 h 23.38303 V 318.60509 h -23.38303 z"
           clip-path="url(#p36535ebc8e)"
           style="opacity:0.7;fill:#5e81ac;stroke:#4c566a;stroke-width:2;stroke-linejoin:miter"
           id="path102" />
      </g>
      <g
         id="patch_12">
        <path
           d="m 301.35244,641.84187 h 23.38303 V 338.80739 h -23.38303 z"
           clip-path="url(#p36535ebc8e)"
           style="opacity:0.7;fill:#5e81ac;stroke:#4c566a;stroke-width:2;stroke-linejoin:miter"
           id="path103" />
      </g>
      <g
         id="patch_13">
        <path
           d="M 324.73547,641.84187 H 348.1185 V 480.22348 h -23.38303 z"
           clip-path="url(#p36535ebc8e)"
           style="opacity:0.7;fill:#5e81ac;stroke:#4c566a;stroke-width:2;stroke-linejoin:miter"
           id="path104" />
      </g>
      <g
         id="patch_14">
        <path
           d="m 348.1185,641.84187 h 23.38303 V 419.61659 H 348.1185 Z"
           clip-path="url(#p36535ebc8e)"
           style="opacity:0.7;fill:#5e81ac;stroke:#4c566a;stroke-width:2;stroke-linejoin:miter"
           id="path105" />
      </g>
      <g
         id="patch_15">
        <path
           d="m 371.50153,641.84187 h 23.38303 v -80.80919 h -23.38303 z"
           clip-path="url(#p36535ebc8e)"
           style="opacity:0.7;fill:#5e81ac;stroke:#4c566a;stroke-width:2;stroke-linejoin:miter"
           id="path106" />
      </g>
      <g
         id="patch_16">
        <path
           d="m 394.88456,641.84187 h 23.38303 v -80.80919 h -23.38303 z"
           clip-path="url(#p36535ebc8e)"
           style="opacity:0.7;fill:#5e81ac;stroke:#4c566a;stroke-width:2;stroke-linejoin:miter"
           id="path107" />
      </g>
      <g
         id="patch_17">
        <path
           d="m 418.26759,641.84187 h 23.38303 V 540.83038 h -23.38303 z"
           clip-path="url(#p36535ebc8e)"
           style="opacity:0.7;fill:#5e81ac;stroke:#4c566a;stroke-width:2;stroke-linejoin:miter"
           id="path108" />
      </g>
      <g
         id="patch_18">
        <path
           d="m 441.65062,641.84187 h 23.38303 v -40.40459 h -23.38303 z"
           clip-path="url(#p36535ebc8e)"
           style="opacity:0.7;fill:#5e81ac;stroke:#4c566a;stroke-width:2;stroke-linejoin:miter"
           id="path109" />
      </g>
      <g
         id="patch_19">
        <path
           d="m 465.03365,641.84187 h 23.38304 v -40.40459 h -23.38304 z"
           clip-path="url(#p36535ebc8e)"
           style="opacity:0.7;fill:#5e81ac;stroke:#4c566a;stroke-width:2;stroke-linejoin:miter"
           id="path110" />
      </g>
      <g
         id="patch_20">
        <path
           d="m 488.41669,641.84187 h 23.38303 v -40.40459 h -23.38303 z"
           clip-path="url(#p36535ebc8e)"
           style="opacity:0.7;fill:#5e81ac;stroke:#4c566a;stroke-width:2;stroke-linejoin:miter"
           id="path111" />
      </g>
      <g
         id="patch_21">
        <path
           d="m 511.79972,641.84187 h 23.38303 v -60.60689 h -23.38303 z"
           clip-path="url(#p36535ebc8e)"
           style="opacity:0.7;fill:#5e81ac;stroke:#4c566a;stroke-width:2;stroke-linejoin:miter"
           id="path112" />
      </g>
      <g
         id="patch_22">
        <path
           d="m 535.18275,641.84187 h 23.38303 v 0 z"
           clip-path="url(#p36535ebc8e)"
           style="opacity:0.7;fill:#5e81ac;stroke:#4c566a;stroke-width:2;stroke-linejoin:miter"
           id="path113" />
      </g>
      <g
         id="patch_23">
        <path
           d="m 558.56578,641.84187 h 23.38303 v 0 z"
           clip-path="url(#p36535ebc8e)"
           style="opacity:0.7;fill:#5e81ac;stroke:#4c566a;stroke-width:2;stroke-linejoin:miter"
           id="path114" />
      </g>
      <g
         id="patch_24">
        <path
           d="m 581.94881,641.84187 h 23.38303 v -80.80919 h -23.38303 z"
           clip-path="url(#p36535ebc8e)"
           style="opacity:0.7;fill:#5e81ac;stroke:#4c566a;stroke-width:2;stroke-linejoin:miter"
           id="path115" />
      </g>
      <g
         id="patch_25">
        <path
           d="m 605.33184,641.84187 h 23.38303 v -20.20229 h -23.38303 z"
           clip-path="url(#p36535ebc8e)"
           style="opacity:0.7;fill:#5e81ac;stroke:#4c566a;stroke-width:2;stroke-linejoin:miter"
           id="path116" />
      </g>
      <g
         id="patch_26">
        <path
           d="M 628.71487,641.84187 H 652.0979 V 621.63958 H 628.71487 Z"
           clip-path="url(#p36535ebc8e)"
           style="opacity:0.7;fill:#5e81ac;stroke:#4c566a;stroke-width:2;stroke-linejoin:miter"
           id="path117" />
      </g>
      <g
         id="patch_27">
        <path
           d="m 652.0979,641.84187 h 23.38303 v 0 z"
           clip-path="url(#p36535ebc8e)"
           style="opacity:0.7;fill:#5e81ac;stroke:#4c566a;stroke-width:2;stroke-linejoin:miter"
           id="path118" />
      </g>
      <g
         id="patch_28">
        <path
           d="m 675.48093,641.84187 h 23.38303 v 0 z"
           clip-path="url(#p36535ebc8e)"
           style="opacity:0.7;fill:#5e81ac;stroke:#4c566a;stroke-width:2;stroke-linejoin:miter"
           id="path119" />
      </g>
      <g
         id="patch_29">
        <path
           d="m 698.86396,641.84187 h 23.38303 v 0 z"
           clip-path="url(#p36535ebc8e)"
           style="opacity:0.7;fill:#5e81ac;stroke:#4c566a;stroke-width:2;stroke-linejoin:miter"
           id="path120" />
      </g>
      <g
         id="patch_30">
        <path
           d="m 722.24699,641.84187 h 23.38303 v -20.20229 h -23.38303 z"
           clip-path="url(#p36535ebc8e)"
           style="opacity:0.7;fill:#5e81ac;stroke:#4c566a;stroke-width:2;stroke-linejoin:miter"
           id="path121" />
      </g>
      <g
         id="patch_31">
        <path
           d="m 745.63002,641.84187 h 23.38303 v 0 z"
           clip-path="url(#p36535ebc8e)"
           style="opacity:0.7;fill:#5e81ac;stroke:#4c566a;stroke-width:2;stroke-linejoin:miter"
           id="path122" />
      </g>
      <g
         id="patch_32">
        <path
           d="m 769.01305,641.84187 h 23.38303 v -40.40459 h -23.38303 z"
           clip-path="url(#p36535ebc8e)"
           style="opacity:0.7;fill:#5e81ac;stroke:#4c566a;stroke-width:2;stroke-linejoin:miter"
           id="path123" />
      </g>
      <g
         id="line2d_31">
        <path
           d="M 284.88799,641.84187 V 26.681875"
           clip-path="url(#p36535ebc8e)"
           style="fill:none;stroke:#a3be8c;stroke-width:3;stroke-dasharray:11.1, 4.8;stroke-dashoffset:0"
           id="path124" />
      </g>
      <g
         id="line2d_32">
        <path
           d="M 258.49328,641.84187 V 26.681875"
           clip-path="url(#p36535ebc8e)"
           style="fill:none;stroke:#b48ead;stroke-width:3;stroke-dasharray:3, 4.95;stroke-dashoffset:0"
           id="path125" />
      </g>
      <g
         id="patch_33">
        <path
           d="M 55.830625,641.84187 V 26.681875"
           style="fill:none;stroke:#4c566a;stroke-width:1.5;stroke-linecap:square;stroke-linejoin:miter"
           id="path126" />
      </g>
      <g
         id="patch_34">
        <path
           d="M 827.47063,641.84187 V 26.681875"
           style="fill:none;stroke:#4c566a;stroke-width:1.5;stroke-linecap:square;stroke-linejoin:miter"
           id="path127" />
      </g>
      <g
         id="patch_35">
        <path
           d="M 55.830625,641.84187 H 827.47063"
           style="fill:none;stroke:#4c566a;stroke-width:1.5;stroke-linecap:square;stroke-linejoin:miter"
           id="path128" />
      </g>
      <g
         id="patch_36">
        <path
           d="M 55.830625,26.681875 H 827.47063"
           style="fill:none;stroke:#4c566a;stroke-width:1.5;stroke-linecap:square;stroke-linejoin:miter"
           id="path129" />
      </g>
      <g
         id="legend_1">
        <g
           id="patch_38">
          <path
             d="M 68.430625,91.065625 H 288.07281 q 3.6,0 3.6,-3.6 v -48.18375 q 0,-3.6 -3.6,-3.6 H 68.430625 q -3.6,0 -3.6,3.6 v 48.18375 q 0,3.6 3.6,3.6 z"
             style="opacity:0.8;fill:#eceff4;stroke:#cccccc;stroke-linejoin:miter"
             id="path221" />
        </g>
        <g
           id="line2d_33">
          <path
             d="m 72.030625,49.181875 h 18 18.000005"
             style="fill:none;stroke:#a3be8c;stroke-width:3;stroke-dasharray:11.1, 4.8;stroke-dashoffset:0"
             id="path222" />
        </g>
        <g
           id="text_20">
          <!-- Mean: 49.1 mL -->
          <g
             style="fill:#2e3440"
             transform="matrix(0.18,0,0,-0.18,122.43063,55.481875)"
             id="g234">
            <path
               id="use222"
               d="m 32.71875,17.140625 h -4.6875 L 12.25,53.03125 H 11.46875 V 4.109375 h 7.578125 q 1.46875,0 2.09375,-0.5625 0.640625,-0.5625 0.640625,-1.5 0,-0.875 -0.640625,-1.46875 Q 20.515625,0 19.046875,0 H 3.90625 Q 2.4375,0 1.796875,0.578125 q -0.625,0.59375 -0.625,1.46875 0,0.9375 0.625,1.5 0.640625,0.5625 2.109375,0.5625 H 7.375 V 53.03125 H 4.78125 q -1.453125,0 -2.09375,0.5625 -0.640625,0.5625 -0.640625,1.484375 0,0.921875 0.640625,1.484375 0.640625,0.5625 2.09375,0.5625 h 10.0625 L 30.375,21.78125 45.65625,57.125 h 10.0625 q 1.515625,0 2.140625,-0.5625 Q 58.5,56 58.5,55.078125 q 0,-0.921875 -0.640625,-1.484375 -0.625,-0.5625 -2.140625,-0.5625 H 53.171875 V 4.109375 h 3.421875 q 1.515625,0 2.140625,-0.5625 0.640625,-0.5625 0.640625,-1.5 0,-0.875 -0.640625,-1.46875 Q 58.109375,0 56.59375,0 H 41.5 q -1.453125,0 -2.125,0.578125 -0.65625,0.59375 -0.65625,1.46875 0,0.9375 0.625,1.5 0.640625,0.5625 2.15625,0.5625 h 7.578125 V 53.03125 H 48.1875 Z"
               style="stroke-width:0.015625" />
            <path
               id="use223"
               d="M 112.21289,20.171875 H 70.416016 q 1.0625,-7.96875 6.65625,-12.828125 5.59375,-4.859375 13.84375,-4.859375 4.59375,0 9.625004,1.515625 5.03125,1.515625 8.20312,4.015625 0.92188,0.71875 1.60938,0.71875 0.78125,0 1.35937,-0.609375 0.59375,-0.609375 0.59375,-1.4375 0,-0.828125 -0.78125,-1.609375 -2.34375,-2.4375 -8.32812,-4.5625 -5.984379,-2.125 -12.281254,-2.125 -10.546875,0 -17.609375,6.90625 -7.046875,6.90625 -7.046875,16.71875 0,8.9375 6.609375,15.328125 6.625,6.40625 16.390625,6.40625 10.0625,0 16.546874,-6.578125 6.5,-6.5625 6.40625,-17 z m -4.15625,4.140625 q -1.21875,6.796875 -6.42187,11.03125 -5.203129,4.25 -12.375004,4.25 -7.171875,0 -12.359375,-4.203125 -5.171875,-4.1875 -6.4375,-11.078125 z"
               style="stroke-width:0.015625" />
            <path
               id="use224"
               d="m 161.8164,0 v 5.90625 q -8.9375,-7.515625 -19.09375,-7.515625 -7.375,0 -11.53125,3.734375 -4.14062,3.734375 -4.14062,9.15625 0,5.953125 5.46875,10.390625 5.46875,4.453125 15.96875,4.453125 2.82812,0 6.14062,-0.375 3.32813,-0.359375 7.1875,-1.140625 V 31.25 q 0,3.375 -3.125,5.859375 -3.125,2.484375 -9.375,2.484375 -4.78125,0 -13.42187,-2.78125 -1.5625,-0.484375 -2,-0.484375 -0.78125,0 -1.34375,0.578125 -0.5625,0.59375 -0.5625,1.46875 0,0.828125 0.48437,1.328125 0.6875,0.734375 5.51563,2 7.625,2.046875 11.53125,2.046875 7.75,0 12.09375,-3.84375 4.35937,-3.828125 4.35937,-8.65625 V 4.109375 h 5.46875 q 1.51563,0 2.14063,-0.5625 0.64062,-0.5625 0.64062,-1.5 0,-0.875 -0.64062,-1.46875 Q 172.95703,0 171.4414,0 Z m 0,20.40625 q -2.875,0.828125 -6.10937,1.21875 -3.21875,0.390625 -6.78125,0.390625 -8.9375,0 -13.96875,-3.84375 -3.79688,-2.890625 -3.79688,-6.890625 0,-3.71875 2.89063,-6.265625 2.90625,-2.53125 8.48437,-2.53125 5.3125,0 9.875,2.125 4.57813,2.125 9.40625,6.765625 z"
               style="stroke-width:0.015625" />
            <path
               id="use225"
               d="m 196.7793,42.28125 v -6.203125 q 4.29687,4.359375 7.76562,6.015625 3.46875,1.65625 7.8125,1.65625 4.6875,0 8.54688,-2 2.73437,-1.46875 4.95312,-4.859375 Q 228.07617,33.5 228.07617,29.9375 V 4.109375 h 3.46875 q 1.46875,0 2.09375,-0.5625 0.64063,-0.5625 0.64063,-1.5 0,-0.875 -0.64063,-1.46875 Q 233.01367,0 231.54492,0 h -10.98437 q -1.51563,0 -2.15625,0.578125 -0.625,0.59375 -0.625,1.46875 0,0.9375 0.625,1.5 0.64062,0.5625 2.15625,0.5625 h 3.42187 V 29.25 q 0,4.34375 -3.1875,7.34375 -3.17187,3 -8.48437,3 -4.0625,0 -7.04688,-1.640625 -2.96875,-1.625 -8.48437,-8.125 V 4.109375 h 4.64062 q 1.46875,0 2.09375,-0.5625 0.64063,-0.5625 0.64063,-1.5 0,-0.875 -0.64063,-1.46875 Q 202.88867,0 201.41992,0 h -13.375 q -1.46875,0 -2.10937,0.578125 -0.625,0.59375 -0.625,1.46875 0,0.9375 0.625,1.5 0.64062,0.5625 2.10937,0.5625 h 4.625 v 34.03125 h -3.45312 q -1.46875,0 -2.10938,0.578125 -0.625,0.59375 -0.625,1.515625 0,0.875 0.625,1.453125 0.64063,0.59375 2.10938,0.59375 z"
               style="stroke-width:0.015625" />
            <path
               id="use226"
               d="m 269.19531,42.28125 h 1.75 q 2.73437,0 4.6875,-1.953125 1.95312,-1.953125 1.95312,-4.640625 0,-2.875 -1.98437,-4.78125 Q 273.63281,29 270.94531,29 h -1.75 q -2.73438,0 -4.6875,1.953125 -1.95313,1.953125 -1.95313,4.640625 0,2.890625 1.96875,4.78125 1.98438,1.90625 4.67188,1.90625 z m 0,-30.515625 h 1.75 q 2.73437,0 4.6875,-1.9375 1.95312,-1.921875 1.95312,-4.65625 0,-2.828125 -1.98437,-4.734375 -1.96875,-1.90625 -4.65625,-1.90625 h -1.75 q -2.73438,0 -4.6875,1.921875 -1.95313,1.9375 -1.95313,4.671875 0,2.828125 1.96875,4.734375 1.98438,1.90625 4.67188,1.90625 z"
               style="stroke-width:0.015625" />
            <path
               id="use227"
               d=""
               style="stroke-width:0.015625" />
            <use
               xlink:href="#CourierNewPSMT-34"
               transform="translate(360.05859)"
               id="use228" />
            <path
               id="use229"
               d="m 466.89648,34.671875 q -3.17187,-5.625 -7.54687,-8.453125 -4.375,-2.828125 -8.95313,-2.828125 -4.25,0 -8.23437,2.4375 -3.98438,2.4375 -6.32813,7.15625 -2.34375,4.71875 -2.34375,9.890625 0,7.515625 4.65625,13.6875 4.67188,6.1875 12.48438,6.1875 5.57812,0 10.15625,-3.46875 4.59375,-3.46875 7.14062,-10.0625 3.26563,-8.453125 3.26563,-19.625 0,-8.6875 -2.78125,-14.453125 -1.85938,-3.90625 -5.45313,-7.578125 -3.57812,-3.65625 -8.07812,-5.953125 -6.15625,-3.078125 -12.79688,-3.078125 -4.39062,0 -7.17187,1.671875 -1.26563,0.78125 -1.26563,1.953125 0,0.828125 0.57813,1.390625 0.59375,0.5625 1.42187,0.5625 0.57813,0 1.70313,-0.546875 1.90625,-0.921875 4.40625,-0.921875 10.39062,0 17.85937,7.484375 7.46875,7.5 7.46875,18.78125 0,2.046875 -0.1875,5.765625 z M 466.11523,41.5 q -2.59375,9.921875 -6.42187,13.5 -3.82813,3.59375 -8.95313,3.59375 -5.23437,0 -9.1875,-4.390625 -3.95312,-4.390625 -3.95312,-11.28125 0,-6.6875 3.95312,-11.0625 3.95313,-4.375 8.9375,-4.375 2.875,0 5.6875,1.5625 2.8125,1.5625 5.29688,4.6875 1.60937,2.109375 4.64062,7.765625 z"
               style="stroke-width:0.015625" />
            <path
               id="use230"
               d="m 509.23437,11.765625 h 1.75 q 2.73438,0 4.6875,-1.9375 1.95313,-1.921875 1.95313,-4.65625 0,-2.828125 -1.98438,-4.734375 -1.96875,-1.90625 -4.65625,-1.90625 h -1.75 q -2.73437,0 -4.6875,1.921875 -1.95312,1.9375 -1.95312,4.671875 0,2.828125 1.96875,4.734375 1.98437,1.90625 4.67187,1.90625 z"
               style="stroke-width:0.015625" />
            <use
               xlink:href="#CourierNewPSMT-31"
               transform="translate(540.08789)"
               id="use231" />
            <path
               id="use232"
               d=""
               style="stroke-width:0.015625" />
            <path
               id="use233"
               d="m 671.43555,42.28125 v -4.140625 q 5.21875,5.609375 10.5,5.609375 3.17187,0 5.5625,-1.6875 2.39062,-1.6875 4,-5.09375 2.73437,3.40625 5.54687,5.09375 2.8125,1.6875 5.64063,1.6875 4.4375,0 7.07812,-2.875 3.46875,-3.71875 3.46875,-8.109375 V 4.109375 h 3.46875 q 1.46875,0 2.09375,-0.5625 0.64063,-0.5625 0.64063,-1.5 0,-0.875 -0.64063,-1.46875 Q 718.16992,0 716.70117,0 h -7.5625 v 32.375 q 0,3.125 -1.90625,5.171875 -1.90625,2.046875 -4.40625,2.046875 -2.23437,0 -4.73437,-1.6875 -2.48438,-1.671875 -5.65625,-6.609375 v -27.1875 h 3.42187 q 1.45313,0 2.09375,-0.5625 0.64063,-0.5625 0.64063,-1.5 0,-0.875 -0.64063,-1.46875 Q 697.31055,0 695.85742,0 h -7.57812 v 32.078125 q 0,3.28125 -1.9375,5.390625 -1.92188,2.125 -4.3125,2.125 -2.1875,0 -4.34375,-1.40625 -2.98438,-2 -6.25,-6.890625 v -27.1875 h 3.46875 q 1.46875,0 2.09375,-0.5625 0.64062,-0.5625 0.64062,-1.5 0,-0.875 -0.64062,-1.46875 Q 676.37305,0 674.9043,0 h -11.03125 q -1.46875,0 -2.10938,0.578125 -0.625,0.59375 -0.625,1.46875 0,0.9375 0.625,1.5 0.64063,0.5625 2.10938,0.5625 h 3.46875 v 34.03125 h -3.46875 q -1.46875,0 -2.10938,0.578125 -0.625,0.59375 -0.625,1.515625 0,0.875 0.625,1.453125 0.64063,0.59375 2.10938,0.59375 z"
               style="stroke-width:0.015625" />
            <path
               id="use234"
               d="M 743.02344,53.03125 V 4.109375 h 27.23438 V 20.40625 q 0,1.46875 0.57812,2.09375 0.59375,0.640625 1.53125,0.640625 0.875,0 1.45313,-0.609375 0.59375,-0.609375 0.59375,-2.125 V 0 h -45.3125 q -1.46875,0 -2.10938,0.578125 -0.625,0.59375 -0.625,1.46875 0,0.9375 0.625,1.5 0.64063,0.5625 2.10938,0.5625 h 9.76562 V 53.03125 h -9.76562 q -1.46875,0 -2.10938,0.5625 -0.625,0.5625 -0.625,1.484375 0,0.921875 0.625,1.484375 0.64063,0.5625 2.10938,0.5625 h 23.6875 q 1.45312,0 2.09375,-0.5625 0.64062,-0.5625 0.64062,-1.484375 0,-0.921875 -0.64062,-1.484375 -0.64063,-0.5625 -2.09375,-0.5625 z"
               style="stroke-width:0.015625" />
          </g>
        </g>
        <g
           id="line2d_34">
          <path
             d="m 72.030625,74.17375 h 18 18.000005"
             style="fill:none;stroke:#b48ead;stroke-width:3;stroke-dasharray:3, 4.95;stroke-dashoffset:0"
             id="path234" />
        </g>
        <g
           id="text_21">
          <!-- Median: 43.5 mL -->
          <g
             style="fill:#2e3440"
             transform="matrix(0.18,0,0,-0.18,122.43063,80.47375)"
             id="g249">
            <path
               id="use235"
               d="m 32.71875,17.140625 h -4.6875 L 12.25,53.03125 H 11.46875 V 4.109375 h 7.578125 q 1.46875,0 2.09375,-0.5625 0.640625,-0.5625 0.640625,-1.5 0,-0.875 -0.640625,-1.46875 Q 20.515625,0 19.046875,0 H 3.90625 Q 2.4375,0 1.796875,0.578125 q -0.625,0.59375 -0.625,1.46875 0,0.9375 0.625,1.5 0.640625,0.5625 2.109375,0.5625 H 7.375 V 53.03125 H 4.78125 q -1.453125,0 -2.09375,0.5625 -0.640625,0.5625 -0.640625,1.484375 0,0.921875 0.640625,1.484375 0.640625,0.5625 2.09375,0.5625 h 10.0625 L 30.375,21.78125 45.65625,57.125 h 10.0625 q 1.515625,0 2.140625,-0.5625 Q 58.5,56 58.5,55.078125 q 0,-0.921875 -0.640625,-1.484375 -0.625,-0.5625 -2.140625,-0.5625 H 53.171875 V 4.109375 h 3.421875 q 1.515625,0 2.140625,-0.5625 0.640625,-0.5625 0.640625,-1.5 0,-0.875 -0.640625,-1.46875 Q 58.109375,0 56.59375,0 H 41.5 q -1.453125,0 -2.125,0.578125 -0.65625,0.59375 -0.65625,1.46875 0,0.9375 0.625,1.5 0.640625,0.5625 2.15625,0.5625 h 7.578125 V 53.03125 H 48.1875 Z"
               style="stroke-width:0.015625" />
            <path
               id="use236"
               d="M 112.21289,20.171875 H 70.416016 q 1.0625,-7.96875 6.65625,-12.828125 5.59375,-4.859375 13.84375,-4.859375 4.59375,0 9.625004,1.515625 5.03125,1.515625 8.20312,4.015625 0.92188,0.71875 1.60938,0.71875 0.78125,0 1.35937,-0.609375 0.59375,-0.609375 0.59375,-1.4375 0,-0.828125 -0.78125,-1.609375 -2.34375,-2.4375 -8.32812,-4.5625 -5.984379,-2.125 -12.281254,-2.125 -10.546875,0 -17.609375,6.90625 -7.046875,6.90625 -7.046875,16.71875 0,8.9375 6.609375,15.328125 6.625,6.40625 16.390625,6.40625 10.0625,0 16.546874,-6.578125 6.5,-6.5625 6.40625,-17 z m -4.15625,4.140625 q -1.21875,6.796875 -6.42187,11.03125 -5.203129,4.25 -12.375004,4.25 -7.171875,0 -12.359375,-4.203125 -5.171875,-4.1875 -6.4375,-11.078125 z"
               style="stroke-width:0.015625" />
            <path
               id="use237"
               d="M 170.11328,61.28125 V 4.109375 h 5.46875 q 1.51562,0 2.14062,-0.5625 0.64063,-0.5625 0.64063,-1.5 0,-0.875 -0.64063,-1.46875 Q 177.09765,0 175.58203,0 h -9.60938 v 8.15625 q -7.14062,-9.765625 -18.125,-9.765625 -5.5625,0 -10.67187,2.953125 -5.09375,2.953125 -8.04688,8.421875 -2.95312,5.46875 -2.95312,11.28125 0,5.859375 2.95312,11.296875 2.95313,5.453125 8.04688,8.421875 5.10937,2.984375 10.71875,2.984375 10.75,0 18.07812,-9.765625 V 57.125 h -5.46875 q -1.51562,0 -2.15625,0.578125 -0.625,0.59375 -0.625,1.53125 0,0.875 0.625,1.453125 0.64063,0.59375 2.15625,0.59375 z m -4.14063,-40.234375 q 0,7.8125 -5.28125,13.171875 -5.26562,5.375 -12.54687,5.375 -7.32813,0 -12.60938,-5.375 -5.26562,-5.359375 -5.26562,-13.171875 0,-7.765625 5.26562,-13.171875 5.28125,-5.390625 12.60938,-5.390625 7.28125,0 12.54687,5.390625 5.28125,5.40625 5.28125,13.171875 z"
               style="stroke-width:0.015625" />
            <path
               id="use238"
               d="m 212.06055,63.328125 v -10.59375 h -6.04688 v 10.59375 z M 212.20117,42.28125 V 4.109375 h 16.125 q 1.51563,0 2.14063,-0.5625 0.64062,-0.5625 0.64062,-1.5 0,-0.875 -0.64062,-1.46875 Q 229.8418,0 228.32617,0 h -36.32812 q -1.46875,0 -2.10938,0.578125 -0.625,0.59375 -0.625,1.46875 0,0.9375 0.625,1.5 0.64063,0.5625 2.10938,0.5625 h 16.10937 v 34.03125 h -11.96875 q -1.45312,0 -2.125,0.578125 -0.65625,0.59375 -0.65625,1.46875 0,0.921875 0.625,1.5 0.64063,0.59375 2.15625,0.59375 z"
               style="stroke-width:0.015625" />
            <path
               id="use239"
               d="m 281.83593,0 v 5.90625 q -8.9375,-7.515625 -19.09375,-7.515625 -7.375,0 -11.53125,3.734375 -4.14062,3.734375 -4.14062,9.15625 0,5.953125 5.46875,10.390625 5.46875,4.453125 15.96875,4.453125 2.82812,0 6.14062,-0.375 3.32813,-0.359375 7.1875,-1.140625 V 31.25 q 0,3.375 -3.125,5.859375 -3.125,2.484375 -9.375,2.484375 -4.78125,0 -13.42187,-2.78125 -1.5625,-0.484375 -2,-0.484375 -0.78125,0 -1.34375,0.578125 -0.5625,0.59375 -0.5625,1.46875 0,0.828125 0.48437,1.328125 0.6875,0.734375 5.51563,2 7.625,2.046875 11.53125,2.046875 7.75,0 12.09375,-3.84375 4.35937,-3.828125 4.35937,-8.65625 V 4.109375 h 5.46875 q 1.51563,0 2.14063,-0.5625 0.64062,-0.5625 0.64062,-1.5 0,-0.875 -0.64062,-1.46875 Q 292.97656,0 291.46093,0 Z m 0,20.40625 q -2.875,0.828125 -6.10937,1.21875 -3.21875,0.390625 -6.78125,0.390625 -8.9375,0 -13.96875,-3.84375 -3.79688,-2.890625 -3.79688,-6.890625 0,-3.71875 2.89063,-6.265625 2.90625,-2.53125 8.48437,-2.53125 5.3125,0 9.875,2.125 4.57813,2.125 9.40625,6.765625 z"
               style="stroke-width:0.015625" />
            <path
               id="use240"
               d="m 316.79883,42.28125 v -6.203125 q 4.29687,4.359375 7.76562,6.015625 3.46875,1.65625 7.8125,1.65625 4.6875,0 8.54688,-2 2.73437,-1.46875 4.95312,-4.859375 Q 348.0957,33.5 348.0957,29.9375 V 4.109375 h 3.46875 q 1.46875,0 2.09375,-0.5625 0.64063,-0.5625 0.64063,-1.5 0,-0.875 -0.64063,-1.46875 Q 353.0332,0 351.56445,0 h -10.98437 q -1.51563,0 -2.15625,0.578125 -0.625,0.59375 -0.625,1.46875 0,0.9375 0.625,1.5 0.64062,0.5625 2.15625,0.5625 h 3.42187 V 29.25 q 0,4.34375 -3.1875,7.34375 -3.17187,3 -8.48437,3 -4.0625,0 -7.04688,-1.640625 -2.96875,-1.625 -8.48437,-8.125 V 4.109375 h 4.64062 q 1.46875,0 2.09375,-0.5625 0.64063,-0.5625 0.64063,-1.5 0,-0.875 -0.64063,-1.46875 Q 322.9082,0 321.43945,0 h -13.375 q -1.46875,0 -2.10937,0.578125 -0.625,0.59375 -0.625,1.46875 0,0.9375 0.625,1.5 0.64062,0.5625 2.10937,0.5625 h 4.625 v 34.03125 h -3.45312 q -1.46875,0 -2.10938,0.578125 -0.625,0.59375 -0.625,1.515625 0,0.875 0.625,1.453125 0.64063,0.59375 2.10938,0.59375 z"
               style="stroke-width:0.015625" />
            <path
               id="use241"
               d="m 389.21484,42.28125 h 1.75 q 2.73437,0 4.6875,-1.953125 1.95312,-1.953125 1.95312,-4.640625 0,-2.875 -1.98437,-4.78125 Q 393.65234,29 390.96484,29 h -1.75 q -2.73438,0 -4.6875,1.953125 -1.95313,1.953125 -1.95313,4.640625 0,2.890625 1.96875,4.78125 1.98438,1.90625 4.67188,1.90625 z m 0,-30.515625 h 1.75 q 2.73437,0 4.6875,-1.9375 1.95312,-1.921875 1.95312,-4.65625 0,-2.828125 -1.98437,-4.734375 -1.96875,-1.90625 -4.65625,-1.90625 h -1.75 q -2.73438,0 -4.6875,1.921875 -1.95313,1.9375 -1.95313,4.671875 0,2.828125 1.96875,4.734375 1.98438,1.90625 4.67188,1.90625 z"
               style="stroke-width:0.015625" />
            <path
               id="use242"
               d=""
               style="stroke-width:0.015625" />
            <use
               xlink:href="#CourierNewPSMT-34"
               transform="translate(480.07812)"
               id="use243" />
            <use
               xlink:href="#CourierNewPSMT-33"
               transform="translate(540.08789)"
               id="use244" />
            <path
               id="use245"
               d="m 629.25391,11.765625 h 1.75 q 2.73438,0 4.6875,-1.9375 1.95313,-1.921875 1.95313,-4.65625 0,-2.828125 -1.98438,-4.734375 -1.96875,-1.90625 -4.65625,-1.90625 h -1.75 q -2.73437,0 -4.6875,1.921875 -1.95312,1.9375 -1.95312,4.671875 0,2.828125 1.96875,4.734375 1.98437,1.90625 4.67187,1.90625 z"
               style="stroke-width:0.015625" />
            <use
               xlink:href="#CourierNewPSMT-35"
               transform="translate(660.10742)"
               id="use246" />
            <path
               id="use247"
               d=""
               style="stroke-width:0.015625" />
            <path
               id="use248"
               d="m 791.45507,42.28125 v -4.140625 q 5.21875,5.609375 10.5,5.609375 3.17188,0 5.5625,-1.6875 2.39063,-1.6875 4,-5.09375 2.73438,3.40625 5.54688,5.09375 2.8125,1.6875 5.64062,1.6875 4.4375,0 7.07813,-2.875 3.46875,-3.71875 3.46875,-8.109375 V 4.109375 h 3.46875 q 1.46875,0 2.09375,-0.5625 0.64062,-0.5625 0.64062,-1.5 0,-0.875 -0.64062,-1.46875 Q 838.18945,0 836.7207,0 h -7.5625 v 32.375 q 0,3.125 -1.90625,5.171875 -1.90625,2.046875 -4.40625,2.046875 -2.23438,0 -4.73438,-1.6875 -2.48437,-1.671875 -5.65625,-6.609375 v -27.1875 h 3.42188 q 1.45312,0 2.09375,-0.5625 0.64062,-0.5625 0.64062,-1.5 0,-0.875 -0.64062,-1.46875 Q 817.33007,0 815.87695,0 h -7.57813 v 32.078125 q 0,3.28125 -1.9375,5.390625 -1.92187,2.125 -4.3125,2.125 -2.1875,0 -4.34375,-1.40625 -2.98437,-2 -6.25,-6.890625 v -27.1875 h 3.46875 q 1.46875,0 2.09375,-0.5625 0.64063,-0.5625 0.64063,-1.5 0,-0.875 -0.64063,-1.46875 Q 796.39257,0 794.92382,0 h -11.03125 q -1.46875,0 -2.10937,0.578125 -0.625,0.59375 -0.625,1.46875 0,0.9375 0.625,1.5 0.64062,0.5625 2.10937,0.5625 h 3.46875 v 34.03125 h -3.46875 q -1.46875,0 -2.10937,0.578125 -0.625,0.59375 -0.625,1.515625 0,0.875 0.625,1.453125 0.64062,0.59375 2.10937,0.59375 z"
               style="stroke-width:0.015625" />
            <path
               id="use249"
               d="M 863.04297,53.03125 V 4.109375 h 27.23437 V 20.40625 q 0,1.46875 0.57813,2.09375 0.59375,0.640625 1.53125,0.640625 0.875,0 1.45312,-0.609375 0.59375,-0.609375 0.59375,-2.125 V 0 h -45.3125 q -1.46875,0 -2.10937,0.578125 -0.625,0.59375 -0.625,1.46875 0,0.9375 0.625,1.5 0.64062,0.5625 2.10937,0.5625 h 9.76563 V 53.03125 h -9.76563 q -1.46875,0 -2.10937,0.5625 -0.625,0.5625 -0.625,1.484375 0,0.921875 0.625,1.484375 0.64062,0.5625 2.10937,0.5625 h 23.6875 q 1.45313,0 2.09375,-0.5625 0.64063,-0.5625 0.64063,-1.484375 0,-0.921875 -0.64063,-1.484375 -0.64062,-0.5625 -2.09375,-0.5625 z"
               style="stroke-width:0.015625" />
          </g>
        </g>
      </g>
      <text
         xml:space="preserve"
         style="font-style:normal;font-variant:normal;font-weight:normal;font-stretch:normal;font-size:28px;line-height:1.95;font-family:'Courier New';-inkscape-font-specification:'Courier New';text-align:start;writing-mode:lr-tb;direction:ltr;text-anchor:start;fill:#000000;fill-opacity:1;stroke:#000000;stroke-width:0.999997;stroke-linejoin:bevel;paint-order:markers fill stroke"
         x="0.84705395"
         y="10.980202"
         id="text5"><tspan
           sodipodi:role="line"
           id="tspan5"
           style="font-weight:normal;font-size:28px;stroke-width:1"
           x="0.84705395"
           y="10.980202">Distribution of Head - Isthmus segmentation volumes</tspan></text>
      <text
         xml:space="preserve"
         style="font-style:normal;font-variant:normal;font-weight:normal;font-stretch:normal;font-size:28px;line-height:1.95;font-family:'Courier New';-inkscape-font-specification:'Courier New';text-align:start;writing-mode:lr-tb;direction:ltr;text-anchor:start;fill:#000000;fill-opacity:1;stroke:#000000;stroke-width:0.999997;stroke-linejoin:bevel;paint-order:markers fill stroke"
         x="316.77533"
         y="688.06995"
         id="text6"><tspan
           sodipodi:role="line"
           id="tspan6"
           style="stroke-width:1"
           x="316.77533"
           y="688.06995">Volume (mL)</tspan></text>
    </g>
  </g>
  <defs
     id="defs249">
    <clipPath
       id="p36535ebc8e">
      <rect
         x="55.830624"
         y="26.681875"
         width="771.64001"
         height="615.15997"
         id="rect249" />
    </clipPath>
  </defs>
</svg>
